<svg width="524" height="269" viewBox="0 0 524 269" fill="none" xmlns="http://www.w3.org/2000/svg">
<path d="M52.3867 183.988C65.8917 195.166 83.8074 207.849 106.389 219.019C141.855 236.564 174.587 243.309 197.467 246.085C197.186 247.078 195.253 254.513 199.885 260.417C204.739 266.599 213.339 266.7 218.423 265.195C227.159 262.604 233.435 252.881 232.932 241.308C259.517 233.477 289.626 222.551 321.592 207.075C374.99 181.229 416.365 151.008 446.525 125.069C449.488 124.842 454.197 124.161 459.417 121.882C462.772 120.418 473.441 115.758 473.118 109.938C472.828 104.774 464.041 101.502 461.026 100.383C454.282 97.877 448.203 98.3059 444.907 98.7938C433.114 91.9894 423.032 87.0101 415.888 83.671C394.592 73.7125 364.729 60.0532 325.611 56.6048C319.046 56.0244 313.664 55.8646 310.301 55.8058C311.535 49.8172 310.428 44.4511 307.073 42.2726C303.761 40.1195 299.359 41.8016 294.181 43.8623C289.183 45.8557 281.681 49.6826 274.035 57.3954C267.393 59.0103 258.231 61.3738 247.434 64.5615C239.421 66.9249 209.652 75.9078 170.866 93.2258C128.324 112.209 106.236 121.327 83.007 140.201C74.824 146.845 68.5399 152.842 64.4697 156.921C59.5224 157.392 51.9184 158.654 43.514 162.498C37.894 165.063 28.7744 169.226 29.0043 173.642C29.2342 178.142 39.1117 182.011 52.3782 183.996L52.3867 183.988Z" fill="#F3D6D7" stroke="black" stroke-width="1.77" stroke-miterlimit="10"/>
<path d="M154.048 102.797C154.014 105.497 155.103 108.736 168.072 119.56C188.253 136.391 203.112 148.452 219.878 145.996C224.663 145.298 224.902 144.103 230.786 143.489C246.717 141.841 253.044 149.747 258.613 146.509C266.319 142.026 255.164 126.331 264.803 109.501C267.886 104.118 271.786 100.897 280.846 86.3626C283.46 82.1656 285.87 78.0442 284.32 74.8733C282.515 71.1894 276.29 70.7015 272.612 70.5417C245.977 69.3558 229.364 79.5161 201.604 80.1554C192.757 80.3572 189.845 79.432 182.735 81.089C170.286 83.9907 154.184 92.6624 154.048 102.789V102.797Z" fill="#939393"/>
<path d="M244.301 60.1879C250.696 52.6601 260.548 49.4219 269.148 52.0041C278.676 54.8638 282.832 63.712 283.266 64.6709C284.858 68.2118 285.207 71.4416 285.258 73.4939" fill="#939393"/>
<path d="M244.301 60.1879C250.696 52.6601 260.548 49.4219 269.148 52.0041C278.676 54.8638 282.832 63.712 283.266 64.6709C284.858 68.2118 285.207 71.4416 285.258 73.4939" stroke="black" stroke-width="1.77" stroke-miterlimit="10"/>
<path d="M324.089 177.38C325.354 178.074 326.486 178.012 327.377 177.514C329.49 178.376 331.614 179.113 333.734 179.587C339.08 180.784 342.569 177.519 344.229 172.658C348.072 161.428 342.902 150.263 336.093 141.413C337.074 139.659 337.993 137.867 338.851 136.058C340.03 136.105 341.213 135.675 341.957 134.649C343.357 132.715 344.488 130.644 345.168 128.355C345.588 126.942 345.491 125.325 344.611 124.194C345.544 122.235 346.246 120.425 346.638 118.626C346.866 118.701 347.106 118.747 347.349 118.768C349.962 118.975 352.577 118.922 355.169 118.51C356.321 118.327 357.393 117.657 358.055 116.717C364.519 115.481 370.513 112.783 374.235 106.787C376.584 103.015 377.793 97.9348 375.018 94.0293C371.852 89.5581 365.199 86.6657 360.4 84.4159C348.825 78.984 336.274 75.9183 324.345 71.3986C318.198 69.0704 312.058 66.8238 305.691 65.1457C303.168 64.4833 300.647 63.8742 298.032 63.7709C295.121 63.6488 292 64.564 289.346 63.1214C286.469 61.5537 283.718 64.4512 283.78 67.1836C283.273 67.3059 282.767 67.4282 282.26 67.5505C280.215 66.9877 278.667 68.3339 278.055 70.0614C271.079 73.6959 265.858 80.051 261.189 86.3564C259.818 88.2069 260.318 90.2474 261.554 91.5543C261.176 91.934 260.864 92.4388 260.659 93.0953C259.302 97.4918 258.166 101.917 257.235 106.391C256.462 106.916 255.832 107.766 255.538 108.992C254.229 114.471 253.967 120.042 254.708 125.625C254.723 125.728 254.745 125.833 254.764 125.929C254.767 127.348 254.798 128.762 254.893 130.152C255.074 132.772 255.844 135.124 257.614 137.069C258.37 137.91 259.361 138.516 260.358 139.09C260.368 139.947 260.679 140.79 261.353 141.464C262.127 142.931 263.889 143.837 265.539 143.685C269.538 145.917 272.732 149.253 276.282 152.216C280.846 156.031 285.33 157.758 290.973 159.305C294.073 160.155 296.312 162.1 298.904 163.897C301.521 165.715 304.261 167.16 307.196 168.38C309.266 169.241 311.366 169.993 313.413 170.826C313.554 170.959 313.698 171.084 313.871 171.204C317.178 173.407 320.564 175.471 324.05 177.389L324.089 177.38ZM295.265 110.695C295.31 110.593 295.355 110.491 295.401 110.39C295.578 109.894 295.744 109.403 295.907 108.902C295.991 109.513 296.25 110.142 296.74 110.76C297.012 111.107 297.411 111.598 297.86 112.172C296.995 111.673 296.133 111.186 295.268 110.687L295.265 110.695Z" fill="#939393"/>
<path d="M298.347 90.5315C289.971 88.168 283.13 96.6194 287.797 104.107C288.234 104.884 287.962 105.867 287.181 106.311C283.4 107.089 279.982 109.568 279.236 113.55C278.427 117.321 280.41 121.343 283.687 123.437C284.345 123.835 283.802 124.88 283.094 124.573C272.666 119.965 274.985 105.03 286.177 103.351C286.177 103.351 285.099 105.811 285.098 105.775C282.3 101.686 282.572 95.7623 285.866 92.0367C289.006 88.3642 294.549 87.2231 298.823 89.2652C299.572 89.6158 299.139 90.7627 298.347 90.5315Z" fill="black"/>
<path d="M288.997 109.809L291.049 113.54C292.342 115.89 295.772 115.747 296.864 113.294L299.627 107.088C300.719 104.635 298.538 101.994 295.919 102.602L291.773 103.574C289.006 104.221 287.623 107.327 288.994 109.816L288.997 109.809Z" fill="black" stroke="black" stroke-width="3.39" stroke-miterlimit="10"/>
<path d="M304.065 104.055C304.936 109.6 302.282 115.541 297.579 118.604C297.544 118.623 297.506 118.572 297.534 118.549C300.543 115.775 302.699 112.143 303.529 108.13C303.808 106.801 303.943 105.444 303.973 104.066C303.971 104.013 304.063 104.001 304.073 104.058L304.065 104.055Z" fill="black"/>
<path d="M339.059 142.482C344.579 150.245 350.502 160.988 347.718 170.776C346.603 174.881 344.702 179.679 340.283 181.146C337.206 182.333 333.605 181.904 330.562 181.141C317.872 177.744 306.661 170.36 295.305 164.182C288.886 160.629 282.161 157.469 275.771 153.52C273.369 151.998 270.928 150.468 268.791 148.568C267.345 147.324 265.97 145.938 264.221 145.334C263.561 145.118 262.762 144.823 262.148 144.541C261.176 144.126 260.317 143.691 259.456 143.438C259.14 143.367 258.767 143.227 258.469 142.92C257.669 142.138 257.876 140.717 258.812 140.177C259.144 139.977 260.153 139.391 260.475 139.195C259.812 139.648 259.796 140.858 260.699 141.252C257.131 140.046 254.037 137.52 252.148 134.262C251.526 133.237 252.22 131.815 253.387 131.656C253.397 131.652 253.5 131.637 253.517 131.636L253.856 131.578L255.222 131.343L255.392 131.314L255.438 131.308C254.847 131.384 254.267 132.178 254.55 132.852L254.534 132.81L254.502 132.726C253.67 130.277 253.029 127.713 252.789 125.145C252.451 121.333 252.358 117.518 252.95 113.728C253.513 109.943 254.571 106.24 256.064 102.73C256.372 101.998 257.218 101.661 257.95 101.97C258.683 102.278 259.019 103.124 258.714 103.849C256.645 108.789 255.409 114.084 255.433 119.461C255.419 123.672 255.846 127.889 257.297 131.858C257.685 132.804 257.05 133.957 256.078 134.167C255.595 134.257 254.49 134.452 254.006 134.523C254.417 134.42 255.19 133.72 254.686 132.8L254.84 133.06C256.412 135.604 258.883 137.556 261.72 138.489C263.097 138.893 263.346 140.873 262.152 141.621C261.747 141.866 260.874 142.382 260.472 142.621C260.941 142.29 261.303 140.929 259.994 140.529L260.221 140.587C262.016 141.125 263.428 141.997 265.12 142.515C268.257 143.556 270.203 146.179 272.79 147.966C280.271 153.314 288.601 157.031 296.748 161.529C306.293 166.5 329.056 181.436 339.055 178.278C342.083 177.338 343.422 174.038 344.32 171.22C345.13 168.754 345.539 166.293 345.197 163.662C344.293 156.727 340.604 150.05 336.528 144.417C335.235 142.711 337.754 140.805 339.052 142.479L339.059 142.482Z" fill="black"/>
<path d="M348.607 117.31C357.036 116.331 368.238 113.909 373.04 106.306C374.541 103.913 376.161 101.173 375.964 98.2937C374.706 87.8363 344.03 79.8492 334.723 76.2968C325.923 73.2481 317.594 69.5487 308.613 67.568C305.544 66.8448 302.292 67.1541 299.43 65.5146C298.893 65.1972 298.3 64.8895 297.705 64.6245C296.734 64.1664 295.537 63.7115 294.528 63.0275C295.349 63.6452 296.597 62.8353 296.374 61.8316C296.44 62.1914 296.687 63.3363 296.752 63.6784C297.117 64.9282 295.901 66.2133 294.604 65.8446C293.943 65.611 293.486 65.2509 292.846 65.0093C290.466 63.9849 287.776 63.7177 285.232 64.2372C286.121 64.0764 286.353 62.9883 286.011 62.5057C286.276 62.9455 286.91 63.9059 287.179 64.3562C287.699 65.2576 287.201 66.5142 286.202 66.8435C277.447 70.6252 270.434 78.0174 266.412 86.6022C265.605 88.278 263.035 87.134 263.811 85.392C268.13 76.1217 275.722 68.1523 285.179 64.1008C284.514 64.344 284.265 65.2941 284.625 65.7937L284.599 65.7558L284.507 65.6105L283.768 64.4379L283.584 64.1473L283.538 64.0747L283.512 64.0368C282.857 63.0667 283.431 61.6005 284.62 61.3729C288.305 60.5961 292.252 61.2053 295.536 63.05L295.619 63.096C294.808 62.6131 293.693 63.3602 293.867 64.2985C293.877 64.3727 293.884 64.3759 293.872 64.3445C293.767 63.8975 293.569 62.818 293.464 62.371C293.144 60.7848 295.067 59.6494 296.311 60.6642C297.846 61.5131 299.789 62.2477 301.392 63.1789C303.329 64.0239 305.669 64.0045 307.805 64.3641C310.16 64.7778 312.435 65.3908 314.72 66.0425C321.938 68.152 328.786 71.0356 335.715 73.4248C347.905 77.7301 360.89 81.1284 371.909 88.2782C377.644 92.1364 381.078 97.2395 377.806 104.158C376.152 107.736 373.803 111.195 370.546 113.432C364.062 117.877 356.525 119.627 348.856 120.482C346.707 120.621 346.503 117.486 348.607 117.31Z" fill="black"/>
<path d="M348.418 113.364C349.064 123.009 345.841 132.942 340.024 140.675C338.077 143.27 335.832 145.636 333.308 147.634C332.755 148.075 331.947 147.976 331.516 147.419C331.132 146.935 331.158 146.251 331.55 145.799C337.463 138.926 341.994 130.977 344.358 122.21C345.156 119.304 345.727 116.323 346.174 113.287C346.371 111.965 348.333 112.03 348.425 113.367L348.418 113.364Z" fill="black"/>
<path d="M322.471 90C323.744 94.6126 322.664 99.5391 319.779 102.426C316.646 105.556 312.76 104.92 312.141 104.803" stroke="black" stroke-width="1.89" stroke-linecap="round" stroke-linejoin="round"/>
<path d="M294 145.414C298.112 145.093 301.598 142.081 302.804 137.852C304.111 133.271 302.164 129.262 301.845 128.619" stroke="black" stroke-width="1.89" stroke-linecap="round" stroke-linejoin="round"/>
<path d="M187.947 87.9017C192.239 82.6786 201.001 73.4602 215.153 67.1437C220.322 64.8391 234.184 58.8758 252.611 61.029C268.9 62.9382 280.311 70.2052 285.53 74.0406" fill="#939393"/>
<path d="M187.947 87.9017C192.239 82.6786 201.001 73.4602 215.153 67.1437C220.322 64.8391 234.184 58.8758 252.611 61.029C268.9 62.9382 280.311 70.2052 285.53 74.0406" stroke="black" stroke-width="1.77" stroke-linecap="round" stroke-linejoin="round"/>
<path d="M244.028 116.877C245.101 115.464 248.303 110.863 247.085 105.884C243.322 90.4754 218.219 94.3864 209.116 101.216C206.826 102.94 204.791 105.144 203.897 107.852C201.7 114.547 207.984 118.223 213.476 120.023C218.304 121.604 222.562 121.343 224.98 121.007C224.171 124.413 223.49 129.081 223.992 134.548C224.452 139.553 224.801 143.338 227.637 146.408C230.821 149.848 235.258 150.369 239.728 150.891C243.39 151.32 250.091 151.547 258.291 148.527" fill="#939393"/>
<path d="M244.028 116.877C245.101 115.464 248.303 110.863 247.085 105.884C243.322 90.4754 218.219 94.3864 209.116 101.216C206.826 102.94 204.791 105.144 203.897 107.852C201.7 114.547 207.984 118.223 213.476 120.023C218.304 121.604 222.562 121.343 224.98 121.007C224.171 124.413 223.49 129.081 223.992 134.548C224.452 139.553 224.801 143.338 227.637 146.408C230.821 149.848 235.258 150.369 239.728 150.891C243.39 151.32 250.091 151.547 258.291 148.527" stroke="black" stroke-width="1.77" stroke-linecap="round" stroke-linejoin="round"/>
<path d="M201.818 75.2938C200.328 74.0321 194.963 69.8015 187.053 69.7762C178.929 69.751 173.301 74.7555 169.06 78.4478C163.738 83.0906 160.69 88.1372 159.013 91.5099C156.713 89.8362 151.937 86.8419 145.167 85.9083C140.841 85.3111 137.12 84.5037 133.45 86.5727C128.971 89.1044 127.609 94.008 127.26 95.4799C129.985 98.0284 133.246 100.753 137.086 103.428C142.536 107.23 147.747 109.955 152.209 111.915" fill="#939393"/>
<path d="M201.818 75.2938C200.328 74.0321 194.963 69.8015 187.053 69.7762C178.929 69.751 173.301 74.7555 169.06 78.4478C163.738 83.0906 160.69 88.1372 159.013 91.5099C156.713 89.8362 151.937 86.8419 145.167 85.9083C140.841 85.3111 137.12 84.5037 133.45 86.5727C128.971 89.1044 127.609 94.008 127.26 95.4799C129.985 98.0284 133.246 100.753 137.086 103.428C142.536 107.23 147.747 109.955 152.209 111.915" stroke="black" stroke-width="1.77" stroke-linecap="round" stroke-linejoin="round"/>
<path d="M198.514 118.332C198.113 115.935 196.768 109.879 191.548 105.405C181.918 97.137 168.234 102.083 166.642 102.688C156.1 106.692 151.442 116.204 149.765 119.628C148.411 122.395 147.636 124.876 147.176 126.676C144.238 125.431 139.512 123.875 133.569 123.783C128.307 123.707 122.303 123.614 118.293 127.854C114.597 131.765 114.665 137.181 114.819 139.343C126.961 143.7 139.104 148.056 151.246 152.405C156.483 149.94 161.72 147.484 166.957 145.02C170.405 147.459 176.417 151.084 184.702 153.002C194.043 155.164 201.502 154.07 205.445 153.448C214.411 152.035 221.377 148.822 225.958 146.189" fill="#939393"/>
<path d="M198.514 118.332C198.113 115.935 196.768 109.879 191.548 105.405C181.918 97.137 168.234 102.083 166.642 102.688C156.1 106.692 151.442 116.204 149.765 119.628C148.411 122.395 147.636 124.876 147.176 126.676C144.238 125.431 139.512 123.875 133.569 123.783C128.307 123.707 122.303 123.614 118.293 127.854C114.597 131.765 114.665 137.181 114.819 139.343C126.961 143.7 139.104 148.056 151.246 152.405C156.483 149.94 161.72 147.484 166.957 145.02C170.405 147.459 176.417 151.084 184.702 153.002C194.043 155.164 201.502 154.07 205.445 153.448C214.411 152.035 221.377 148.822 225.958 146.189" stroke="black" stroke-width="1.77" stroke-linecap="round" stroke-linejoin="round"/>
<path d="M394.844 84.9696L395.561 82.3272L410.086 70.3688L399.54 67.5776L400.536 63.907L416.684 68.181L415.968 70.8234L401.432 82.7791L411.989 85.573L410.993 89.2436L394.844 84.9696Z" fill="black"/>
<path d="M381.687 62.8437L381.912 60.2983L393.294 46.9702L383.15 46.0936L383.463 42.5577L398.997 43.9001L398.771 46.4455L387.379 59.7727L397.533 60.6501L397.22 64.186L381.687 62.8437Z" fill="black"/>
<path d="M402.144 46V43.8097L410.854 31.5881H402.127V28.5455H415.491V30.7358L406.772 42.9574H415.508V46H402.144Z" fill="black"/>
<path d="M173.625 180.455C174.919 179.816 181.629 176.679 189.208 179.395C196.113 181.868 201.069 188.244 202.099 195.847" fill="#F3D6D7"/>
<path d="M173.625 180.455C174.919 179.816 181.629 176.679 189.208 179.395C196.113 181.868 201.069 188.244 202.099 195.847" stroke="black" stroke-width="1.77" stroke-miterlimit="10"/>
<path d="M214.744 153.271C217.265 150.159 224.043 142.724 234.627 141.067C249.554 138.729 266.065 148.805 273.847 166.544" fill="#F3D6D7"/>
<path d="M214.744 153.271C217.265 150.159 224.043 142.724 234.627 141.067C249.554 138.729 266.065 148.805 273.847 166.544" stroke="black" stroke-width="1.77" stroke-miterlimit="10"/>
<path d="M386.199 23V21.0835L393.82 10.3896H386.184V7.72727H397.877V9.64382L390.248 20.3377H397.892V23H386.199Z" fill="black"/>
<path d="M183.886 148.567C187.19 150.529 187.774 153.777 189.836 156.779C192.099 160.074 195.53 162.893 198.86 165.065C206.033 169.746 216.353 169.819 224.629 170.595C225.186 170.649 225.688 170.777 226.135 170.969C227.933 170.075 229.986 169.554 231.464 168.04C235.57 163.824 242.021 170.284 237.915 174.491C236.711 175.732 235.36 176.864 233.809 177.657C233.654 177.74 233.061 178.041 232.504 178.287C232.677 180.24 231.701 182.211 229.958 183.351C227.029 185.259 221.928 185.724 218.525 185.861C213.789 186.043 209.363 184.465 204.883 183.16C201.415 182.156 197.838 181.399 194.937 179.145C192.007 176.864 190.064 173.524 187.299 171.033C184.443 168.469 182.645 166.005 181.295 162.41C179.944 158.833 177.471 156.442 177.024 152.509C176.623 148.978 181.167 146.943 183.886 148.567Z" fill="#939393"/>
<path d="M188.686 151.889C189.371 153.54 190.493 155.84 192.336 158.276C197.738 165.412 206.188 169.39 214.939 170.503C216.198 170.668 217.466 170.759 218.744 170.777C221.828 170.814 224.903 170.385 227.887 169.6C230.716 168.861 233.581 167.082 236.556 167.419C237.487 167.529 238.417 167.839 239.111 168.459C241.164 170.312 239.375 173.15 237.934 174.747C236.501 176.334 234.667 177.575 232.678 178.397C232.012 178.67 231.911 179.528 232.468 179.975C232.769 180.212 233.024 180.504 233.189 180.833C233.773 181.992 232.422 183.105 231.61 183.716C229 185.678 225.724 186.527 222.522 186.855C217.85 187.321 213.077 186.609 208.579 185.487C207.675 185.259 206.79 184.994 205.905 184.702C191.004 179.765 183.202 168.313 183.202 168.313C181.35 165.576 178.676 160.868 177.271 154.17" stroke="black" stroke-width="1.65" stroke-linecap="round" stroke-linejoin="round"/>
</svg>
