<?xml version="1.0" encoding="UTF-8"?>
<svg id="Camada_2" data-name="Camada 2" xmlns="http://www.w3.org/2000/svg" viewBox="0 0 177.16 212.9">
  <defs>
    <style>
      .cls-1 {
        stroke-width: 2px;
      }

      .cls-1, .cls-2, .cls-3, .cls-4 {
        stroke: #000;
      }

      .cls-1, .cls-2, .cls-4 {
        stroke-miterlimit: 10;
      }

      .cls-1, .cls-3 {
        stroke-linecap: round;
      }

      .cls-1, .cls-3, .cls-4 {
        fill: none;
      }

      .cls-2, .cls-3, .cls-4 {
        stroke-width: 4px;
      }

      .cls-3 {
        stroke-linejoin: round;
      }


    </style>
  </defs>
  <g id="variações_pelo_longo_orelha_comprida" data-name="variações pelo longo orelha comprida">
    <g>
      <g>
        <path   d="M48.5,159.24c-2.15-3.62-5.71-4.26-9-6.52-3.61-2.48-6.7-6.24-9.08-9.89-5.13-7.86-5.21-19.17-6.06-28.24-.06-.61-.2-1.16-.41-1.65.98-1.97,1.55-4.22,3.21-5.84,4.62-4.5-2.46-11.57-7.07-7.07-1.36,1.32-2.6,2.8-3.47,4.5-.09.17-.42.82-.69,1.43-2.14-.19-4.3.88-5.55,2.79-2.09,3.21-2.6,8.8-2.75,12.53-.2,5.19,1.53,10.04,2.96,14.95,1.1,3.8,1.93,7.72,4.4,10.9,2.5,3.21,6.16,5.34,8.89,8.37,2.81,3.13,5.51,5.1,9.45,6.58,3.92,1.48,6.54,4.19,10.85,4.68,3.87.44,6.1-4.54,4.32-7.52Z"/>
        <path class="cls-3" d="M44.86,153.98c-1.81-.75-4.33-1.98-7-4-7.82-5.92-12.18-15.18-13.4-24.77-.18-1.38-.28-2.77-.3-4.17-.04-3.38.43-6.75,1.29-10.02.81-3.1,2.76-6.24,2.39-9.5-.12-1.02-.46-2.04-1.14-2.8-2.03-2.25-5.14-.29-6.89,1.29-1.74,1.57-3.1,3.58-4,5.76-.3.73-1.24.84-1.73.23-.26-.33-.58-.61-.94-.79-1.27-.64-2.49.84-3.16,1.73-2.15,2.86-3.08,6.45-3.44,9.96-.51,5.12.27,10.35,1.5,15.28.25.99.54,1.96.86,2.93,5.41,16.33,17.96,24.88,17.96,24.88,3,2.03,8.16,4.96,15.5,6.5"/>
      </g>
      <g>
        <g>
          <path   d="M162.49,179.55c-1.02-3.39-2.48-6.63-6.29-7.43-4.08-.87-8.32,1.23-12.46.68-4.07-.54-6.75-4.35-11.09-3.91-.13.01-.25.05-.38.07-1.2-4.94-3.09-9.86-4.31-14.36-.29-1.08-.83-1.89-1.51-2.46-.18-2.59-.55-5.18-1.17-7.78-.43-1.79-1.76-2.93-3.31-3.37.11-.21.24-.42.37-.64.94-1.45,2.13-2.02,2.38-3.9.41-3.03-1.58-7.12-3.9-9.04-2.76-2.29-6.2-1.78-9.56-1.65-4.43.18-8.85.32-13.28.42-8.74.2-17.74.8-26.46.05-3.87-.33-7.86-2.08-11.77-1.33-3.79.72-5.44,4.11-7.39,7.09-1.8,2.74-.2,5.7,2.22,6.93-.19,1.15-.4,2.29-.63,3.43-1.22,2.31-1.41,5.14-2.06,8.19-.35.15-.7.31-1.04.46-1.07.47-2,1.91-2.3,2.99-.32,1.16-.18,2.68.45,3.74-.19.32-.36.65-.5.99-1.64,3.93-3.28,7.86-4.91,11.79-5.94.36-11.83,1.05-17.73,1.83-4.54.6-8.85,1.19-10.98,5.79-3.57,7.72.15,19.67,6.89,24.42,9.15,6.46,20.5,2.84,30.33.26.84-.22,1.67-.44,2.47-.69-.09,1.3.33,2.59,1.5,3.53,5.59,4.5,13.73,5.53,20.3,2.17,3.54-1.81,5.12-5.67,5.91-9.91.53.89,1.24,1.7,2.22,2.41,1.51,1.09,3.51.72,5.05,0,1.3-.61,2.25-1.54,2.97-2.67.66,3.56,2.22,6.97,5.37,9.03,1.46.95,3,1.45,4.59,1.71,1.27.42,2.62.62,4.01.63.25.03.5.03.75.04.56.22,1.2.35,1.92.35,1.01,0,1.86-.25,2.56-.66.51-.1,1.03-.22,1.55-.37.36-.1.69-.24,1-.4,1.31-.29,2.57-.58,3.74-.82,2.75-.55,4.25-3.88,3.46-6.44.06.01.12.01.18.02,4.82,2.48,10.06,3.43,15.5,4.01,3.12.33,6.46.8,9.57.08.74-.17,1.5-.56,2.26-1.01,1.57.69,3.52.55,5.29-1.06,1.04-.94,2.08-1.88,3.12-2.82.72-.65,1.13-1.48,1.31-2.36,1.49-1.82,2.85-3.73,3.75-5.79,1.72-3.96,1.26-8.19.04-12.24Z"/>
          <path  class="cls-4" d="M43.66,168.48c-3.87,1.19-7.74,2.38-11.61,3.57-.85.26-1.75.22-2.58-.08-.53-.19-1.13-.37-1.81-.49-4.65-.86-9.41,1.3-12,4-5.3,5.53-3.4,15.28,0,21,3.51,5.9,9.63,9.19,15,10,2,.3,3.47.2,6,0,4.27-.33,10.14-1.29,17-4"/>
          <path  class="cls-4" d="M133.36,168.48c3.87,1.19,7.74,2.38,11.61,3.57.85.26,1.75.22,2.58-.08.53-.19,1.13-.37,1.81-.49,4.65-.86,9.41,1.3,12,4,5.3,5.53,3.4,15.28,0,21-3.51,5.9-9.63,9.19-15,10-2,.3-3.47.2-6,0-4.27-.33-10.14-1.29-17-4"/>
          <path  class="cls-4" d="M83.36,200.48h10"/>
          <path  class="cls-3" d="M56.36,125.48c-1.44,2-2.91,3.99-4.15,6.12-.61,1.04-1.16,2.11-1.64,3.22-.33.79-1.22,2.34-.73,3.18.24.42.76.65,1.23.57.61-.11,1.4-.62,1.98-.13.8.68.08,1.9-.27,2.61-.68,1.36-1.31,2.76-1.9,4.16-.4.93-1.62,2.81-1.29,3.84.14.43.55.78,1,.78.78.01,1.5-.59,2.14-.98.74-.45,1.71-1.16,2.57-1.31.06,1.27-.44,2.77-.64,4.04-.22,1.45-.41,2.9-.58,4.36-.36,3.16-.61,6.34-.72,9.52-.39,10.5.63,19.66,2,27,.61,2.02,1.19,3.74,1.65,5.04.19.54-.04,1.14-.54,1.42-2.66,1.49-3.04,2.91-3.11,3.54-.37,3.46,6.06,6.93,11,8,.52.11,10.72,2.16,16-4,2.64-3.08,2.89-6.84,3-9,.7-13.69-.91-28.63-2-37"/>
          <path class="cls-3" d="M119.71,125.48c1.44,2,2.91,3.99,4.15,6.12.61,1.04,1.16,2.11,1.64,3.22.33.79,1.22,2.34.73,3.18-.24.42-.76.65-1.23.57-.61-.11-1.4-.62-1.98-.13-.8.68-.08,1.9.27,2.61.68,1.36,1.31,2.76,1.9,4.16.4.93,1.62,2.81,1.29,3.84-.14.43-.55.78-1,.78-.78.01-1.5-.59-2.14-.98-.74-.45-1.71-1.16-2.57-1.31-.06,1.27.44,2.77.64,4.04.22,1.45.41,2.9.58,4.36.36,3.16.61,6.34.72,9.52.39,10.5-.63,19.66-2,27-.61,2.02-1.19,3.74-1.65,5.04-.19.54.04,1.14.54,1.42,2.66,1.49,3.04,2.91,3.11,3.54.37,3.46-6.06,6.93-11,8-.52.11-10.72,2.16-16-4-2.64-3.08-2.89-6.84-3-9-.7-13.69.91-28.63,2-37"/>
          <path class="cls-1" d="M89.86,134.98c.55.6,1.53,1.49,3,2,2.07.73,4.02.32,5.34-.18.74-.28,1.44.47,1.14,1.21-.13.32-.29.65-.48.97-1.77,2.98-5.14,3.74-6.49,3.94-.2.03-.27.28-.11.41.63.53,1.49,1.14,2.6,1.65.96.44,1.86.69,2.63.83.66.12.96.92.53,1.44-.53.66-1.23,1.3-2.16,1.73-2.04.94-3.53.08-5,1-.87.55-1.85,1.8-2,5"/>
          <path class="cls-3" d="M50.36,148.48c-.84,3.15-3.33,5.4-5.5,7.69-.24.26-1.12,1.13-.56,1.45.12.07.28.08.42.07,1.11-.02,2.17-.49,3.28-.47,1.48.02,1.14.69.39,1.61-3.11,3.83-4.97,8.71-5.04,13.65"/>
          <path class="cls-3" d="M126.36,148.48c.84,3.15,3.33,5.4,5.5,7.69.24.26,1.12,1.13.56,1.45-.12.07-.28.08-.42.07-1.11-.02-2.17-.49-3.28-.47-1.48.02-1.14.69-.39,1.61,3.11,3.83,4.97,8.71,5.04,13.65"/>
        </g>
        <g>
          <path   d="M173.21,65.26c.05-.24.09-.48.15-.72.62-2.28,1.66-3.67,1.26-6.13-.84-5.23-4.61-10.77-6.83-15.55-.59-1.27-1.55-2-2.64-2.31-3.97-6.87-7.92-13.75-12-20.54-3.73-6.2-8.81-12.25-15.19-15.89-5.8-3.31-16.05-1.79-21.59,1.67-3.46,2.16-6.18,5.97-8,9.56-.7,1.37-1.28,2.85-1.55,4.38-2.01-.27-4.02-.43-5.79-.69-5.1-.75-15.06-3.28-21.89-1.58-.37-.05-.73-.12-1.05-.24-.7.84-1.76,1.4-3.18,1.4-1.76,0-2.97-.85-3.64-2.02-.51.35-1,.74-1.47,1.18-.59-2.02-1.73-3.94-2.98-5.42-4.92-5.82-13.85-10.51-21.53-9.31-7.36,1.15-15.01,4.52-17.59,11.45-1.87,1.84-3.39,3.92-4.62,6.31-.48.92-.62,1.88-.51,2.8l-6.04,9.19c-.65.4-1.2.99-1.58,1.82-.22.48-.43.98-.62,1.49-.17.42-.35.85-.52,1.27-.19.47-.3.92-.35,1.35,0,.02,0,.04-.02.06-.41.1-.82.25-1.24.47-2.88,1.49-3.07,3.42-4.17,6.12-.99,2.44-2.79,4.32-3.69,6.87-1.95,5.48-1.34,11.63-.93,17.32.7,9.9,2.62,27.03,16.6,24.24,4.32-.86,7.95-3.33,11.4-5.96-.19.73-.21,1.55,0,2.45,1.76,7.48,3.31,15.01,4.64,22.58.55,3.11,4.25,4.25,6.85,3.22,7.25,7.18,16.87,10.6,27.17,11.85,14.18,1.71,28.5,1.43,42.75,1.15,3.36-.07,4.97-2.83,4.81-5.44,6.09-1.14,11.39-3.79,15.8-7.9,2.54.14,5.17-1.45,5.29-4.8.06-1.7.25-3.31.57-4.88,1.74-.6,3.17-2.11,3.29-4.53.08-1.61.16-3.23.24-4.84.21-1.64.57-3.25,1.06-4.86.19-.23.37-.46.51-.71.1-.17.19-.35.29-.52.76-1.37.82-2.88.31-4.24.63.48,1.26.96,1.91,1.42,4.34,3.11,9.76,7.76,15.44,6.94,5.28-.76,7.83-5.48,9.04-10.23.54-2.1.96-4.3,1.29-6.53.82-.82,1.32-1.95,1.22-3.35l-.66-9.14c0-.07-.02-.13-.02-.2ZM139.88,82.68c-.26-.23-.52-.47-.77-.7.22-.04.43-.1.64-.17.3.29.6.59.9.87-.26-.02-.51-.02-.77,0Z"/>
          <path fill="#000" d="M69.57,18.8C63.56,4.81,46.07-1.09,33.87,8.95c-12.64,9.56-14.19,28.01-27.58,37.01,0,0-.44-3.2-.44-3.2.53.22,1.13.04,1.69.08.79.07,1.55.58,1.93,1.24.46.73.47,1.73.09,2.5-1.59,3.81-3.69,7.41-6.21,10.68.52-.64-.06-1.63-.87-1.57,1.46-.13,2.73,1.27,2.64,2.58.02.46-.26,1.11-.24,1.07-.33.88-.49,1.79-.6,2.74-.41,4.61-.08,9.82.48,14.47.82,4.35,1.48,9.59,4.59,12.92,5.01,5.11,13.24,2.68,18.71-.6,8.27-5.03,13.36-13.89,15.92-23.09,1.33-4.63,2.18-9.55,2.37-14.33,0-.87.73-1.57,1.6-1.54.85.03,1.52.74,1.49,1.59-.08,2.63-.36,5.13-.78,7.66-1.27,7.58-3.61,15.03-7.85,21.56-2.82,4.36-6.6,8.17-11.06,10.95-10.04,6.26-23.21,6.19-26.76-7.12-1.41-4.8-2.14-10.08-2.29-15.12-.14-3.52-.33-7.34.71-10.85.12-.28.32-1.04.18-.38-.05.43.43,1,.98,1-1.96.14-3.51-2.47-1.9-4.29,2.3-3.03,4.2-6.37,5.64-9.89-.3.72.37,1.51,1.13,1.38-.91.13-1.84.06-2.73-.24-1.4-.41-1.66-2.43-.44-3.2,6.23-4.26,9.81-11.07,13.19-17.75C22.16,15.45,28.87,5.22,39.64,1.4c13.16-4.77,28.29,3.19,33.57,15.76,1.03,2.44-2.52,4.02-3.65,1.64h0Z"/>
          <path fill="#000" d="M103.94,17.16c7.06-16.24,27.56-22.88,41.69-11.2,9.71,7.34,13.3,19.49,19.68,29.19,2.11,3.06,4.61,5.78,7.6,7.84.82.57,1.02,1.69.46,2.5-.83,1.07-2.44,1.03-3.65.92.2.03.42,0,.6-.09.5-.23.72-.79.53-1.29,0,0,.07.17.07.17,1.46,3.53,3.38,6.87,5.7,9.91,1.41,1.78-.19,4.28-2.04,4.11.55,0,1.04-.57.98-1-.13-.66.06.1.18.38,1.04,3.51.85,7.33.71,10.85-.16,5.04-.88,10.31-2.29,15.12-.74,2.58-1.92,5.18-3.92,7.26-3.95,4.24-10.44,4.65-15.62,3.07-7.61-2.19-14.05-7.61-18.28-14.15-5.58-8.74-8.12-18.96-8.63-29.23-.01-2.04,2.99-2.13,3.09-.09.08,2.38.36,4.85.77,7.25,1.94,11.69,7.09,23.85,17.53,30.21,5.46,3.28,13.7,5.71,18.7.6,1.47-1.53,2.44-3.59,3.06-5.79.94-3.54,1.7-7.06,1.91-10.69.18-3.49.5-7.53.11-10.91-.12-.95-.27-1.86-.6-2.74.02.04-.26-.61-.24-1.07-.09-1.32,1.19-2.71,2.64-2.58-.82-.06-1.37.94-.87,1.57,0,0-.15-.19-.15-.19-2.46-3.22-4.5-6.75-6.06-10.49-.65-1.28-.1-2.93,1.22-3.53.77-.43,1.7-.01,2.48-.3,0,0-.44,3.2-.44,3.2-6.82-4.58-10.89-12-14.45-19.03-3.41-6.74-7.14-13.35-13.13-17.97-8.7-7.23-21.2-6.45-29.45,1.12-2.66,2.41-4.77,5.42-6.25,8.73-1.12,2.39-4.69.79-3.65-1.64h0Z"/>
          <path d="M 53.61 65.23 Q 65.61 70.23 77.61 65.23" stroke="#000" stroke-width="4" fill="none"/>
          <path d="M 97.61 65.23 Q 109.61 70.23 121.61 65.23" stroke="#000" stroke-width="4" fill="none"/>

          
          <path fill="#000" d="M64.21,88.43c1.57,10.84,14.79,14.38,21.01,5.18.67-.9,1.94-1.09,2.85-.42,2.83,3.95,7.43,6.61,12.39,5.43,4.75-1,8.36-5.34,9.09-10.18.12-.96,1.6-.87,1.61.1.04,14.35-18.32,19.33-25.98,7.32,0,0,3.38-.02,3.34,0-3.27,5.31-10.22,8.03-16.19,6.15-5.83-1.73-9.98-7.52-9.82-13.48.02-1.04,1.56-1.13,1.7-.1h0Z"/>
          <path fill="#000" class="cls-2" d="M91.16,89.31l3.24-4.27c2.04-2.69.12-6.56-3.26-6.56h-8.55c-3.38,0-5.3,3.86-3.26,6.56l3.24,4.27c2.16,2.85,6.44,2.85,8.6,0Z"/>
          <path  d="M76.83,74.93c5.93-3.84,14.12-3.83,20.05.01.04.03,0,.1-.04.08-4.73-2.04-10.01-2.66-15.05-1.56-1.67.36-3.3.9-4.9,1.57-.06.03-.12-.07-.06-.11h0Z"/>
          <path  class="cls-3" d="M29.86,90.98c1.02,1.72,2.56,4.83,3,9,.28,2.64.03,4.9-.3,6.59-.06.32.3.55.57.36.69-.49,1.37-.98,2.06-1.47.25-.18.6.01.57.32-.16,1.61-.17,3.99.6,6.7.7,2.48,1.81,4.36,2.69,5.58.15.21.46.2.6-.01l1.47-2.21c.13-.19.38-.22.55-.07,1.29,1.21,3.02,2.7,5.19,4.21,1.05.73,5.41,3.7,12,6,6.45,2.25,12.38,2.92,17,3"/>
          <path fill="#000"  class="cls-3" d="M145.86,90.98c-1.02,1.72-2.56,4.83-3,9-.28,2.64-.03,4.9.3,6.59.06.32-.3.55-.57.36-.69-.49-1.37-.98-2.06-1.47-.25-.18-.6.01-.57.32.16,1.61.17,3.99-.6,6.7-.7,2.48-1.81,4.36-2.69,5.58-.15.21-.46.2-.6-.01l-1.47-2.21c-.13-.19-.38-.22-.55-.07-1.29,1.21-3.02,2.7-5.19,4.21-1.05.73-5.41,3.7-12,6-6.45,2.25-12.38,2.92-17,3"/>
          <path fill="#000" d="M64.82,19.17c10.76-5.68,23.83-7.06,35.7-4.33,3.98.91,7.85,2.28,11.44,4.16.79.41,1.09,1.39.67,2.17-.36.69-1.16,1.01-1.88.79-10.93-3.28-22.39-4.42-33.68-2.65-3.75.57-7.47,1.44-11.19,2.48-1.62.45-2.55-1.84-1.06-2.63h0Z"/>
        </g>
      </g>
    </g>
  </g>
</svg>