<svg width="177.16" height="212.9" xmlns="http://www.w3.org/2000/svg" xmlns:svg="http://www.w3.org/2000/svg" data-name="Camada 2">
 <defs>
  <style>.cls-1, .cls-2, .cls-3, .cls-4 {
        stroke: #000;
      }

      .cls-1, .cls-2, .cls-4, .cls-5 {
        stroke-miterlimit: 10;
      }

      .cls-1, .cls-3 {
        stroke-linecap: round;
      }

      .cls-1, .cls-3, .cls-4, .cls-5 {
        fill: none;
      }

      .cls-1, .cls-5 {
        stroke-width: 2px;
      }

      .cls-2, .cls-3, .cls-4 {
        stroke-width: 4px;
      }

      .cls-3 {
        stroke-linejoin: round;
      }

      .cls-6 {
        fill: #FFD997;
      }

      .cls-5 {
        stroke: #FFD997;
      }

      .cls-7 {
        fill: #FFD997;
      }</style>
 </defs>
 <g class="layer">
  <title>Layer 1</title>
  <g data-name="variações pelo longo orelha comprida" id="variações_pelo_longo_orelha_comprida">
   <g id="svg_1">
    <g id="svg_2">
     <path class="cls-6" d="m50.5,159.24c-2.15,-3.62 -5.71,-4.26 -9,-6.52c-3.61,-2.48 -6.7,-6.24 -9.08,-9.89c-5.13,-7.86 -5.21,-19.17 -6.06,-28.24c-0.06,-0.61 -0.2,-1.16 -0.41,-1.65c0.98,-1.97 1.55,-4.22 3.21,-5.84c4.62,-4.5 -2.46,-11.57 -7.07,-7.07c-1.36,1.32 -2.6,2.8 -3.47,4.5c-0.09,0.17 -0.42,0.82 -0.69,1.43c-2.14,-0.19 -4.3,0.88 -5.55,2.79c-2.09,3.21 -2.6,8.8 -2.75,12.53c-0.2,5.19 1.53,10.04 2.96,14.95c1.1,3.8 1.93,7.72 4.4,10.9c2.5,3.21 6.16,5.34 8.89,8.37c2.81,3.13 5.51,5.1 9.45,6.58c3.92,1.48 6.54,4.19 10.85,4.68c3.87,0.44 6.1,-4.54 4.32,-7.52z" id="svg_3"/>
     <g id="svg_4">
      <path class="cls-7" d="m27.58,98.6c-2.27,-1.33 -4.73,-0.36 -6.16,1.61c-0.74,1.03 -1.11,2.25 -1.33,3.48c-0.06,0.36 -0.23,0.68 -0.23,0.73c-0.37,0.37 -0.81,0.71 -1.18,1.04c-0.68,0.59 -1.35,1.29 -2.09,1.83c-2.29,-1.06 -5.46,-0.46 -6.41,2.67c-0.44,1.46 -0.55,2.8 -0.28,4.29c0.03,0.18 0.08,0.35 0.15,0.53c-1.01,2.42 -0.7,4.96 -0.58,7.54c0.13,2.76 0.25,5.52 0.38,8.28c0.12,2.62 0.51,5.03 1.49,7.48c1.01,2.53 2.06,5.04 3.09,7.56c0.51,1.25 1.66,2.13 3.08,1.75c1.18,-0.33 2.26,-1.82 1.75,-3.08c-1.74,-4.25 -4.14,-8.59 -4.38,-13.24c-0.13,-2.43 -0.22,-4.85 -0.34,-7.28c-0.01,-0.25 -0.02,-0.51 -0.04,-0.76c0,0 0.02,0 0.03,-0.01c0.56,-0.36 0.95,-0.85 1.15,-1.49c0.07,-0.24 0.17,-0.48 0.26,-0.72c0.32,-0.7 0.7,-1.36 1.16,-1.98c0.05,-0.05 0.09,-0.11 0.14,-0.16c0.93,-0.62 1.8,-1.39 2.8,-1.86c3.49,-1.61 6.35,-4.09 8.21,-7.48c0.43,-0.79 0.4,-1.55 0.11,-2.18c0.22,-0.89 0.4,-1.78 0.84,-2.39c1.42,-1.97 0.34,-5.01 -1.61,-6.16l-0.01,0z" id="svg_5"/>
      <path class="cls-5" d="m27.36,109.48c-0.87,1.88 -2.09,3.68 -3.67,5.03c-1.61,1.37 -3.71,1.88 -5.37,3.17c-3.21,2.5 -3.47,6.76 -3.17,10.49c0.67,8.47 3.3,16.78 7.22,24.3" id="svg_6"/>
     </g>
     <path class="cls-3" d="m46.86,153.98c-1.81,-0.75 -4.33,-1.98 -7,-4c-7.82,-5.92 -12.18,-15.18 -13.4,-24.77c-0.18,-1.38 -0.28,-2.77 -0.3,-4.17c-0.04,-3.38 0.43,-6.75 1.29,-10.02c0.81,-3.1 2.76,-6.24 2.39,-9.5c-0.12,-1.02 -0.46,-2.04 -1.14,-2.8c-2.03,-2.25 -5.14,-0.29 -6.89,1.29c-1.74,1.57 -3.1,3.58 -4,5.76c-0.3,0.73 -1.24,0.84 -1.73,0.23c-0.26,-0.33 -0.58,-0.61 -0.94,-0.79c-1.27,-0.64 -2.49,0.84 -3.16,1.73c-2.15,2.86 -3.08,6.45 -3.44,9.96c-0.51,5.12 0.27,10.35 1.5,15.28c0.25,0.99 0.54,1.96 0.86,2.93c5.41,16.33 17.96,24.88 17.96,24.88c3,2.03 8.16,4.96 15.5,6.5" id="svg_7"/>
    </g>
    <g id="svg_8">
     <g id="svg_9">
      <path class="cls-6" d="m164.49,179.55c-1.02,-3.39 -2.48,-6.63 -6.29,-7.43c-4.08,-0.87 -8.32,1.23 -12.46,0.68c-4.07,-0.54 -6.75,-4.35 -11.09,-3.91c-0.13,0.01 -0.25,0.05 -0.38,0.07c-1.2,-4.94 -3.09,-9.86 -4.31,-14.36c-0.29,-1.08 -0.83,-1.89 -1.51,-2.46c-0.18,-2.59 -0.55,-5.18 -1.17,-7.78c-0.43,-1.79 -1.76,-2.93 -3.31,-3.37c0.11,-0.21 0.24,-0.42 0.37,-0.64c0.94,-1.45 2.13,-2.02 2.38,-3.9c0.41,-3.03 -1.58,-7.12 -3.9,-9.04c-2.76,-2.29 -6.2,-1.78 -9.56,-1.65c-4.43,0.18 -8.85,0.32 -13.28,0.42c-8.74,0.2 -17.74,0.8 -26.46,0.05c-3.87,-0.33 -7.86,-2.08 -11.77,-1.33c-3.79,0.72 -5.44,4.11 -7.39,7.09c-1.8,2.74 -0.2,5.7 2.22,6.93c-0.19,1.15 -0.4,2.29 -0.63,3.43c-1.22,2.31 -1.41,5.14 -2.06,8.19c-0.35,0.15 -0.7,0.31 -1.04,0.46c-1.07,0.47 -2,1.91 -2.3,2.99c-0.32,1.16 -0.18,2.68 0.45,3.74c-0.19,0.32 -0.36,0.65 -0.5,0.99c-1.64,3.93 -3.28,7.86 -4.91,11.79c-5.94,0.36 -11.83,1.05 -17.73,1.83c-4.54,0.6 -8.85,1.19 -10.98,5.79c-3.57,7.72 0.15,19.67 6.89,24.42c9.15,6.46 20.5,2.84 30.33,0.26c0.84,-0.22 1.67,-0.44 2.47,-0.69c-0.09,1.3 0.33,2.59 1.5,3.53c5.59,4.5 13.73,5.53 20.3,2.17c3.54,-1.81 5.12,-5.67 5.91,-9.91c0.53,0.89 1.24,1.7 2.22,2.41c1.51,1.09 3.51,0.72 5.05,0c1.3,-0.61 2.25,-1.54 2.97,-2.67c0.66,3.56 2.22,6.97 5.37,9.03c1.46,0.95 3,1.45 4.59,1.71c1.27,0.42 2.62,0.62 4.01,0.63c0.25,0.03 0.5,0.03 0.75,0.04c0.56,0.22 1.2,0.35 1.92,0.35c1.01,0 1.86,-0.25 2.56,-0.66c0.51,-0.1 1.03,-0.22 1.55,-0.37c0.36,-0.1 0.69,-0.24 1,-0.4c1.31,-0.29 2.57,-0.58 3.74,-0.82c2.75,-0.55 4.25,-3.88 3.46,-6.44c0.06,0.01 0.12,0.01 0.18,0.02c4.82,2.48 10.06,3.43 15.5,4.01c3.12,0.33 6.46,0.8 9.57,0.08c0.74,-0.17 1.5,-0.56 2.26,-1.01c1.57,0.69 3.52,0.55 5.29,-1.06c1.04,-0.94 2.08,-1.88 3.12,-2.82c0.72,-0.65 1.13,-1.48 1.31,-2.36c1.49,-1.82 2.85,-3.73 3.75,-5.79c1.72,-3.96 1.26,-8.19 0.04,-12.24z" id="svg_10"/>
      <g id="svg_11">
       <path class="cls-7" d="m39.83,188.83c-1.06,-3.72 -3.01,-7.22 -3.36,-11.11c-0.44,-4.76 -4.94,-6.8 -8.54,-6.08c-0.63,-0.15 -1.33,-0.21 -2.11,-0.15c-9.6,0.77 -12.4,10.4 -9.63,18.55c1.24,3.64 3.29,7.08 5.6,10.15c1.29,1.72 2.7,3.11 4.65,4.05c1.89,0.91 3.65,1.08 5.37,2.39c3.98,3.01 9.93,-1.07 9.78,-5.61c-0.13,-4.11 -0.64,-8.23 -1.77,-12.19l0.01,0z" id="svg_12"/>
       <path class="cls-7" d="m80.48,193.22c-3.06,-0.09 -6.09,-0.13 -9.14,0.25c-2.32,0.29 -5.22,1.53 -7.24,0c-3.97,-3.01 -7.85,2.36 -5.94,6.11c-1.77,1.93 -2.08,5.24 0.87,6.88c4.93,2.73 10.44,5.15 16.08,3.05c4.46,-1.66 8.1,-6.24 9.71,-10.59c1.05,-2.85 -1.64,-5.62 -4.34,-5.7z" id="svg_13"/>
       <path class="cls-7" d="m122.1,199.51c0.18,-0.43 0.33,-0.87 0.43,-1.33c1.05,-3.74 -3.24,-7.12 -6.61,-5.08c-1.86,1.12 -3.94,0.26 -5.88,-0.27c-2.29,-0.63 -4.52,-1.09 -6.9,-1.07c-1.5,0.01 -2.61,0.64 -3.33,1.54c-2.22,0.03 -4.23,1.44 -3.87,4.28c1.54,12.3 14.95,13.9 24.69,9.82c3.53,-1.48 4.29,-5.77 1.48,-7.89l-0.01,0z" id="svg_14"/>
       <path class="cls-7" d="m164.96,180.15c-0.87,-5.37 -6.5,-11.49 -12.29,-7.67c-0.14,0.09 -0.26,0.18 -0.38,0.28c-2.76,-2.02 -7.54,-0.94 -7.15,3.32c0.19,2.06 -1.18,4.31 -1.6,6.3c-0.53,2.51 -1.18,4.93 -1.81,7.42c-1.03,4.08 -2.39,9.23 -1.53,13.42c0.3,1.46 1.71,2.81 3.14,3.14c5.83,1.33 12.9,-2.28 16.76,-6.52c4.67,-5.12 5.94,-13 4.85,-19.68l0.01,-0.01z" id="svg_15"/>
       <g data-name="&amp;quot;meinhas&amp;quot;" id="_meinhas_">
        <path class="cls-5" d="m35.86,172.98c0.05,1.84 0.24,4.66 1,8c1.27,5.58 2.99,7.67 4,12c0.63,2.68 1.09,6.69 0,12" id="svg_16"/>
        <path class="cls-5" d="m145.51,172.98c-0.05,1.84 -0.24,4.66 -1,8c-1.27,5.58 -2.99,7.67 -4,12c-0.63,2.68 -1.09,6.69 0,12" id="svg_17"/>
        <path class="cls-5" d="m57.36,191.48c1.76,0.81 4.53,1.82 8,2c4.09,0.21 6,-0.91 10,-1c2.33,-0.05 5.76,0.25 10,2" id="svg_18"/>
        <path class="cls-5" d="m123.36,191.48c-1.76,0.81 -4.53,1.82 -8,2c-4.09,0.21 -6,-0.91 -10,-1c-2.33,-0.05 -5.76,0.25 -10,2" id="svg_19"/>
       </g>
      </g>
      <g id="svg_20">
       <path class="cls-7" d="m95.45,158.02c-2.05,-2.56 -6.03,-3.01 -8.78,-1.42c-0.69,0.4 -1.34,0.93 -1.84,1.55c-0.74,0.92 -1.44,2.04 -1.31,3.28c0.07,0.63 0.22,1.18 0.64,1.66c-0.18,0.45 -0.22,0.97 -0.03,1.51c0.78,2.17 0.98,4.4 1.1,6.69c0.14,2.6 0.27,5.2 0.4,7.8c0.13,2.62 0.26,5.24 0.3,7.87c0.04,2.59 -0.23,5.19 -0.17,7.78c0.05,2.38 1.24,4.65 3.72,5.18c2.75,0.59 4.6,-1.67 4.7,-4.22c0.1,-2.75 -0.16,-5.52 -0.44,-8.28c0.17,-0.24 0.31,-0.53 0.39,-0.89c0.85,-3.72 0.91,-7.45 0.22,-11.2c-0.05,-0.25 -0.14,-0.47 -0.25,-0.67c0.19,-1.92 0.34,-3.85 0.47,-5.78c0.27,-0.28 0.47,-0.61 0.57,-1.02c0.35,-1.44 0.69,-2.87 1.04,-4.31c0.2,-0.82 0.46,-1.68 0.45,-2.53c-0.01,-1.15 -0.47,-2.11 -1.18,-2.99l0,-0.01z" id="svg_21"/>
       <path class="cls-7" d="m81.94,160.26c1.68,-9.34 15.02,-9.36 16.54,0.05c0,0 -2.24,0.35 -2.24,0.35c-0.66,-4.4 -6.33,-6.49 -9.6,-3.43c-1.02,0.9 -1.69,2.16 -1.86,3.48l-2.83,-0.44l0,0l-0.01,-0.01z" id="svg_22"/>
      </g>
      <path class="cls-4" d="m45.66,168.48c-3.87,1.19 -7.74,2.38 -11.61,3.57c-0.85,0.26 -1.75,0.22 -2.58,-0.08c-0.53,-0.19 -1.13,-0.37 -1.81,-0.49c-4.65,-0.86 -9.41,1.3 -12,4c-5.3,5.53 -3.4,15.28 0,21c3.51,5.9 9.63,9.19 15,10c2,0.3 3.47,0.2 6,0c4.27,-0.33 10.14,-1.29 17,-4" id="svg_23"/>
      <path class="cls-4" d="m135.36,168.48c3.87,1.19 7.74,2.38 11.61,3.57c0.85,0.26 1.75,0.22 2.58,-0.08c0.53,-0.19 1.13,-0.37 1.81,-0.49c4.65,-0.86 9.41,1.3 12,4c5.3,5.53 3.4,15.28 0,21c-3.51,5.9 -9.63,9.19 -15,10c-2,0.3 -3.47,0.2 -6,0c-4.27,-0.33 -10.14,-1.29 -17,-4" id="svg_24"/>
      <path class="cls-4" d="m85.36,200.48l10,0" id="svg_25"/>
      <path class="cls-3" d="m58.36,125.48c-1.44,2 -2.91,3.99 -4.15,6.12c-0.61,1.04 -1.16,2.11 -1.64,3.22c-0.33,0.79 -1.22,2.34 -0.73,3.18c0.24,0.42 0.76,0.65 1.23,0.57c0.61,-0.11 1.4,-0.62 1.98,-0.13c0.8,0.68 0.08,1.9 -0.27,2.61c-0.68,1.36 -1.31,2.76 -1.9,4.16c-0.4,0.93 -1.62,2.81 -1.29,3.84c0.14,0.43 0.55,0.78 1,0.78c0.78,0.01 1.5,-0.59 2.14,-0.98c0.74,-0.45 1.71,-1.16 2.57,-1.31c0.06,1.27 -0.44,2.77 -0.64,4.04c-0.22,1.45 -0.41,2.9 -0.58,4.36c-0.36,3.16 -0.61,6.34 -0.72,9.52c-0.39,10.5 0.63,19.66 2,27c0.61,2.02 1.19,3.74 1.65,5.04c0.19,0.54 -0.04,1.14 -0.54,1.42c-2.66,1.49 -3.04,2.91 -3.11,3.54c-0.37,3.46 6.06,6.93 11,8c0.52,0.11 10.72,2.16 16,-4c2.64,-3.08 2.89,-6.84 3,-9c0.7,-13.69 -0.91,-28.63 -2,-37" fill="red" id="svg_26" stroke="black" stroke-width="5"/>
      <path class="cls-3" d="m121.71,125.48c1.44,2 2.91,3.99 4.15,6.12c0.61,1.04 1.16,2.11 1.64,3.22c0.33,0.79 1.22,2.34 0.73,3.18c-0.24,0.42 -0.76,0.65 -1.23,0.57c-0.61,-0.11 -1.4,-0.62 -1.98,-0.13c-0.8,0.68 -0.08,1.9 0.27,2.61c0.68,1.36 1.31,2.76 1.9,4.16c0.4,0.93 1.62,2.81 1.29,3.84c-0.14,0.43 -0.55,0.78 -1,0.78c-0.78,0.01 -1.5,-0.59 -2.14,-0.98c-0.74,-0.45 -1.71,-1.16 -2.57,-1.31c-0.06,1.27 0.44,2.77 0.64,4.04c0.22,1.45 0.41,2.9 0.58,4.36c0.36,3.16 0.61,6.34 0.72,9.52c0.39,10.5 -0.63,19.66 -2,27c-0.61,2.02 -1.19,3.74 -1.65,5.04c-0.19,0.54 0.04,1.14 0.54,1.42c2.66,1.49 3.04,2.91 3.11,3.54c0.37,3.46 -6.06,6.93 -11,8c-0.52,0.11 -10.72,2.16 -16,-4c-2.64,-3.08 -2.89,-6.84 -3,-9c-0.7,-13.69 0.91,-28.63 2,-37" id="svg_27"/>
      <path class="cls-1" d="m91.86,134.98c0.55,0.6 1.53,1.49 3,2c2.07,0.73 4.02,0.32 5.34,-0.18c0.74,-0.28 1.44,0.47 1.14,1.21c-0.13,0.32 -0.29,0.65 -0.48,0.97c-1.77,2.98 -5.14,3.74 -6.49,3.94c-0.2,0.03 -0.27,0.28 -0.11,0.41c0.63,0.53 1.49,1.14 2.6,1.65c0.96,0.44 1.86,0.69 2.63,0.83c0.66,0.12 0.96,0.92 0.53,1.44c-0.53,0.66 -1.23,1.3 -2.16,1.73c-2.04,0.94 -3.53,0.08 -5,1c-0.87,0.55 -1.85,1.8 -2,5" id="svg_28"/>
      <path class="cls-3" d="m52.36,148.48c-0.84,3.15 -3.33,5.4 -5.5,7.69c-0.24,0.26 -1.12,1.13 -0.56,1.45c0.12,0.07 0.28,0.08 0.42,0.07c1.11,-0.02 2.17,-0.49 3.28,-0.47c1.48,0.02 1.14,0.69 0.39,1.61c-3.11,3.83 -4.97,8.71 -5.04,13.65" id="svg_29"/>
      <path class="cls-3" d="m128.36,148.48c0.84,3.15 3.33,5.4 5.5,7.69c0.24,0.26 1.12,1.13 0.56,1.45c-0.12,0.07 -0.28,0.08 -0.42,0.07c-1.11,-0.02 -2.17,-0.49 -3.28,-0.47c-1.48,0.02 -1.14,0.69 -0.39,1.61c3.11,3.83 4.97,8.71 5.04,13.65" id="svg_30"/>
     </g>
     <g id="svg_31">
      <path class="cls-6" d="m175.21,65.26c0.05,-0.24 0.09,-0.48 0.15,-0.72c0.62,-2.28 1.66,-3.67 1.26,-6.13c-0.84,-5.23 -4.61,-10.77 -6.83,-15.55c-0.59,-1.27 -1.55,-2 -2.64,-2.31c-3.97,-6.87 -7.92,-13.75 -12,-20.54c-3.73,-6.2 -8.81,-12.25 -15.19,-15.89c-5.8,-3.31 -16.05,-1.79 -21.59,1.67c-3.46,2.16 -6.18,5.97 -8,9.56c-0.7,1.37 -1.28,2.85 -1.55,4.38c-2.01,-0.27 -4.02,-0.43 -5.79,-0.69c-5.1,-0.75 -15.06,-3.28 -21.89,-1.58c-0.37,-0.05 -0.73,-0.12 -1.05,-0.24c-0.7,0.84 -1.76,1.4 -3.18,1.4c-1.76,0 -2.97,-0.85 -3.64,-2.02c-0.51,0.35 -1,0.74 -1.47,1.18c-0.59,-2.02 -1.73,-3.94 -2.98,-5.42c-4.92,-5.82 -13.85,-10.51 -21.53,-9.31c-7.36,1.15 -15.01,4.52 -17.59,11.45c-1.87,1.84 -3.39,3.92 -4.62,6.31c-0.48,0.92 -0.62,1.88 -0.51,2.8l-6.04,9.19c-0.65,0.4 -1.2,0.99 -1.58,1.82c-0.22,0.48 -0.43,0.98 -0.62,1.49c-0.17,0.42 -0.35,0.85 -0.52,1.27c-0.19,0.47 -0.3,0.92 -0.35,1.35c0,0.02 0,0.04 -0.02,0.06c-0.41,0.1 -0.82,0.25 -1.24,0.47c-2.88,1.49 -3.07,3.42 -4.17,6.12c-0.99,2.44 -2.79,4.32 -3.69,6.87c-1.95,5.48 -1.34,11.63 -0.93,17.32c0.7,9.9 2.62,27.03 16.6,24.24c4.32,-0.86 7.95,-3.33 11.4,-5.96c-0.19,0.73 -0.21,1.55 0,2.45c1.76,7.48 3.31,15.01 4.64,22.58c0.55,3.11 4.25,4.25 6.85,3.22c7.25,7.18 16.87,10.6 27.17,11.85c14.18,1.71 28.5,1.43 42.75,1.15c3.36,-0.07 4.97,-2.83 4.81,-5.44c6.09,-1.14 11.39,-3.79 15.8,-7.9c2.54,0.14 5.17,-1.45 5.29,-4.8c0.06,-1.7 0.25,-3.31 0.57,-4.88c1.74,-0.6 3.17,-2.11 3.29,-4.53c0.08,-1.61 0.16,-3.23 0.24,-4.84c0.21,-1.64 0.57,-3.25 1.06,-4.86c0.19,-0.23 0.37,-0.46 0.51,-0.71c0.1,-0.17 0.19,-0.35 0.29,-0.52c0.76,-1.37 0.82,-2.88 0.31,-4.24c0.63,0.48 1.26,0.96 1.91,1.42c4.34,3.11 9.76,7.76 15.44,6.94c5.28,-0.76 7.83,-5.48 9.04,-10.23c0.54,-2.1 0.96,-4.3 1.29,-6.53c0.82,-0.82 1.32,-1.95 1.22,-3.35l-0.66,-9.14c0,-0.07 -0.02,-0.13 -0.02,-0.2l0,-0.03zm-33.33,17.42c-0.26,-0.23 -0.52,-0.47 -0.77,-0.7c0.22,-0.04 0.43,-0.1 0.64,-0.17c0.3,0.29 0.6,0.59 0.9,0.87c-0.26,-0.02 -0.51,-0.02 -0.77,0z" id="svg_32"/>
      <path d="m71.57,18.8c-6.01,-13.99 -23.5,-19.89 -35.7,-9.85c-12.64,9.56 -14.19,28.01 -27.58,37.01c0,0 -0.44,-3.2 -0.44,-3.2c0.53,0.22 1.13,0.04 1.69,0.08c0.79,0.07 1.55,0.58 1.93,1.24c0.46,0.73 0.47,1.73 0.09,2.5c-1.59,3.81 -3.69,7.41 -6.21,10.68c0.52,-0.64 -0.06,-1.63 -0.87,-1.57c1.46,-0.13 2.73,1.27 2.64,2.58c0.02,0.46 -0.26,1.11 -0.24,1.07c-0.33,0.88 -0.49,1.79 -0.6,2.74c-0.41,4.61 -0.08,9.82 0.48,14.47c0.82,4.35 1.48,9.59 4.59,12.92c5.01,5.11 13.24,2.68 18.7,-0.6c8.27,-5.03 13.36,-13.89 15.92,-23.09c1.33,-4.63 2.18,-9.55 2.37,-14.33c0,-0.87 0.73,-1.57 1.6,-1.54c0.85,0.03 1.52,0.74 1.49,1.59c-0.08,2.63 -0.36,5.13 -0.78,7.66c-1.27,7.58 -3.61,15.03 -7.85,21.56c-2.82,4.36 -6.6,8.17 -11.06,10.95c-10.04,6.26 -23.21,6.19 -26.76,-7.12c-1.41,-4.8 -2.14,-10.08 -2.29,-15.12c-0.14,-3.52 -0.33,-7.34 0.71,-10.85c0.12,-0.28 0.32,-1.04 0.18,-0.38c-0.05,0.43 0.43,1 0.98,1c-1.96,0.14 -3.51,-2.47 -1.9,-4.29c2.3,-3.03 4.2,-6.37 5.64,-9.89c-0.3,0.72 0.37,1.51 1.13,1.38c-0.91,0.13 -1.84,0.06 -2.73,-0.23c-1.4,-0.41 -1.66,-2.43 -0.44,-3.2c6.23,-4.26 9.81,-11.07 13.19,-17.75c4.71,-9.77 11.42,-20 22.19,-23.82c13.16,-4.77 28.29,3.19 33.57,15.76c1.03,2.44 -2.52,4.02 -3.65,1.64l0,0l0.01,0z" id="svg_33"/>
      <path d="m105.94,17.16c7.06,-16.24 27.56,-22.88 41.69,-11.2c9.71,7.34 13.3,19.49 19.68,29.19c2.11,3.06 4.61,5.78 7.6,7.84c0.82,0.57 1.02,1.69 0.46,2.5c-0.83,1.07 -2.44,1.03 -3.65,0.92c0.2,0.03 0.42,0 0.6,-0.09c0.5,-0.23 0.72,-0.79 0.53,-1.29c0,0 0.07,0.17 0.07,0.17c1.46,3.53 3.38,6.87 5.7,9.91c1.41,1.78 -0.19,4.28 -2.04,4.11c0.55,0 1.04,-0.57 0.98,-1c-0.13,-0.66 0.06,0.1 0.18,0.38c1.04,3.51 0.85,7.33 0.71,10.85c-0.16,5.04 -0.88,10.31 -2.29,15.12c-0.74,2.58 -1.92,5.18 -3.92,7.26c-3.95,4.24 -10.44,4.65 -15.62,3.07c-7.61,-2.19 -14.05,-7.61 -18.28,-14.15c-5.58,-8.74 -8.12,-18.96 -8.63,-29.23c-0.01,-2.04 2.99,-2.13 3.09,-0.09c0.08,2.38 0.36,4.85 0.77,7.25c1.94,11.69 7.09,23.85 17.53,30.21c5.46,3.28 13.7,5.71 18.71,0.6c1.47,-1.53 2.44,-3.59 3.06,-5.79c0.94,-3.54 1.7,-7.06 1.91,-10.69c0.18,-3.49 0.5,-7.53 0.11,-10.91c-0.12,-0.95 -0.27,-1.86 -0.6,-2.74c0.02,0.04 -0.26,-0.61 -0.24,-1.07c-0.09,-1.32 1.19,-2.71 2.64,-2.58c-0.82,-0.06 -1.37,0.94 -0.87,1.57c0,0 -0.15,-0.19 -0.15,-0.19c-2.46,-3.22 -4.5,-6.75 -6.06,-10.49c-0.65,-1.28 -0.1,-2.93 1.22,-3.53c0.77,-0.43 1.7,-0.01 2.48,-0.3c0,0 -0.44,3.2 -0.44,3.2c-6.82,-4.58 -10.89,-12 -14.45,-19.03c-3.41,-6.74 -7.14,-13.35 -13.13,-17.97c-8.7,-7.23 -21.2,-6.45 -29.45,1.12c-2.66,2.41 -4.77,5.42 -6.25,8.73c-1.12,2.39 -4.69,0.79 -3.65,-1.64l0,0l0,-0.02z" id="svg_34"/>
      <ellipse cx="67.61" cy="65.23" id="svg_35" rx="6.75" ry="10.25"/>
      <ellipse cx="111.61" cy="65.23" id="svg_36" rx="6.75" ry="10.25"/>
      <path d="m66.21,88.43c1.58,10.84 14.79,14.38 21.01,5.18c0.67,-0.9 1.94,-1.09 2.84,-0.42c2.83,3.95 7.43,6.61 12.39,5.43c4.75,-1 8.36,-5.34 9.09,-10.18c0.12,-0.96 1.6,-0.87 1.61,0.1c0.04,14.35 -18.32,19.33 -25.98,7.32c0,0 3.38,-0.02 3.34,0c-3.27,5.31 -10.22,8.03 -16.19,6.15c-5.83,-1.73 -9.98,-7.52 -9.82,-13.48c0.02,-1.04 1.56,-1.13 1.7,-0.1l0,0l0.01,0z" id="svg_37"/>
      <path class="cls-2" d="m93.16,89.31l3.24,-4.27c2.04,-2.69 0.12,-6.56 -3.26,-6.56l-8.55,0c-3.38,0 -5.3,3.86 -3.26,6.56l3.24,4.27c2.16,2.85 6.44,2.85 8.6,0l-0.01,0z" id="svg_38"/>
      <path d="m78.83,74.93c5.93,-3.84 14.12,-3.83 20.05,0.01c0.04,0.03 0,0.1 -0.04,0.08c-4.73,-2.04 -10.01,-2.66 -15.05,-1.56c-1.67,0.36 -3.3,0.9 -4.9,1.57c-0.06,0.03 -0.12,-0.07 -0.06,-0.11l0,0l0,0.01z" id="svg_39"/>
      <path class="cls-3" d="m31.86,90.98c1.02,1.72 2.56,4.83 3,9c0.28,2.64 0.03,4.9 -0.3,6.59c-0.06,0.32 0.3,0.55 0.57,0.36c0.69,-0.49 1.37,-0.98 2.06,-1.47c0.25,-0.18 0.6,0.01 0.57,0.32c-0.16,1.61 -0.17,3.99 0.6,6.7c0.7,2.48 1.81,4.36 2.69,5.58c0.15,0.21 0.46,0.2 0.6,-0.01l1.47,-2.21c0.13,-0.19 0.38,-0.22 0.55,-0.07c1.29,1.21 3.02,2.7 5.19,4.21c1.05,0.73 5.41,3.7 12,6c6.45,2.25 12.38,2.92 17,3" id="svg_40"/>
      <path class="cls-3" d="m147.86,90.98c-1.02,1.72 -2.56,4.83 -3,9c-0.28,2.64 -0.03,4.9 0.3,6.59c0.06,0.32 -0.3,0.55 -0.57,0.36c-0.69,-0.49 -1.37,-0.98 -2.06,-1.47c-0.25,-0.18 -0.6,0.01 -0.57,0.32c0.16,1.61 0.17,3.99 -0.6,6.7c-0.7,2.48 -1.81,4.36 -2.69,5.58c-0.15,0.21 -0.46,0.2 -0.6,-0.01l-1.47,-2.21c-0.13,-0.19 -0.38,-0.22 -0.55,-0.07c-1.29,1.21 -3.02,2.7 -5.19,4.21c-1.05,0.73 -5.41,3.7 -12,6c-6.45,2.25 -12.38,2.92 -17,3" id="svg_41"/>
      <path d="m66.82,19.17c10.76,-5.68 23.83,-7.06 35.7,-4.33c3.98,0.91 7.85,2.28 11.44,4.16c0.79,0.41 1.09,1.39 0.67,2.17c-0.36,0.69 -1.16,1.01 -1.88,0.79c-10.93,-3.28 -22.39,-4.42 -33.68,-2.65c-3.75,0.57 -7.47,1.43 -11.19,2.48c-1.62,0.45 -2.55,-1.84 -1.06,-2.63l0,0l0,0.01z" id="svg_42"/>
     </g>
    </g>
   </g>
  </g>
  <path d="m-121.42,209.95c1.87,0 2.58,-0.02 3.87,0c0.83,0.01 1.3,0.02 2.35,0.18c0.59,0.09 1.23,0.21 2.62,0.65c0.78,0.25 1.6,0.59 2.47,0.98c0.93,0.41 1.9,0.89 2.92,1.43c1.08,0.57 2.21,1.18 4.6,2.6c1.28,0.76 2.6,1.59 3.98,2.47c1.43,0.91 2.92,1.88 4.46,2.89c1.6,1.05 3.25,2.15 6.73,4.47c1.83,1.22 3.72,2.48 5.66,3.78c1.99,1.34 4.03,2.72 6.12,4.14c2.13,1.46 4.3,2.94 8.73,6.08c2.27,1.61 4.55,3.27 6.85,4.94c2.31,1.68 4.62,3.37 6.93,5.06c2.3,1.67 4.56,3.34 9.05,6.5c2.17,1.54 4.32,3.01 6.44,4.45c2.08,1.41 4.14,2.78 6.19,4.13c2.02,1.33 4.04,2.65 8.04,5.25c2,1.3 3.99,2.59 5.96,3.88c1.95,1.27 3.86,2.53 5.72,3.77c1.81,1.21 3.57,2.38 6.82,4.68c1.51,1.07 2.93,2.11 4.26,3.12c1.26,0.95 2.45,1.88 3.56,2.76c1.05,0.84 2.04,1.64 3.84,3.12c0.83,0.68 1.6,1.32 2.33,1.92c0.68,0.56 1.3,1.08 1.88,1.56c0.53,0.44 1,0.84 1.8,1.52c0.33,0.28 0.61,0.52 0.84,0.75c0.2,0.19 0.37,0.37 0.5,0.55c0.12,0.16 0.22,0.33 0.32,0.7c0.06,0.21 0.09,0.44 0.11,0.69c0.02,0.27 0.02,0.56 0.01,0.87c-0.01,0.33 -0.03,0.68 -0.12,1.44c-0.05,0.41 -0.12,0.84 -0.2,1.28c-0.09,0.45 -0.19,0.91 -0.32,1.38c-0.13,0.47 -0.26,0.94 -0.65,1.85c-0.19,0.45 -0.43,0.88 -0.67,1.3c-0.24,0.41 -0.49,0.79 -0.74,1.15c-0.24,0.35 -0.48,0.67 -0.92,1.22c-0.19,0.24 -0.36,0.45 -0.52,0.63c-0.14,0.16 -0.27,0.31 -0.39,0.44l-0.11,0.12l-0.11,0.11" fill="none" id="svg_43" stroke="#ce2323" transform="matrix(1 0 0 1 0 0)"/>
 </g>
</svg>