<svg width="33" height="33" viewBox="0 0 33 33" fill="none" xmlns="http://www.w3.org/2000/svg">
<path fill-rule="evenodd" clip-rule="evenodd" d="M31.6767 16.8874C31.6767 15.7546 31.5756 14.6654 31.3879 13.6198H16.4286V19.7992H24.9768C24.6086 21.796 23.4895 23.4879 21.8073 24.6207V28.6289H26.9405C29.944 25.8478 31.6767 21.7525 31.6767 16.8874Z" fill="#4285F4"/>
<path fill-rule="evenodd" clip-rule="evenodd" d="M16.4284 32.499C20.7169 32.499 24.3124 31.0685 26.9403 28.6287L21.8071 24.6205C20.3848 25.5789 18.5654 26.1453 16.4284 26.1453C12.2915 26.1453 8.78991 23.3352 7.54089 19.5593H2.23438V23.6983C4.84792 28.9191 10.2194 32.499 16.4284 32.499Z" fill="#34A853"/>
<path fill-rule="evenodd" clip-rule="evenodd" d="M7.5411 19.5598C7.22343 18.6013 7.04294 17.5775 7.04294 16.5246C7.04294 15.4717 7.22343 14.4478 7.5411 13.4893V9.3504H2.23459C1.15884 11.507 0.545166 13.9468 0.545166 16.5246C0.545166 19.1023 1.15884 21.5421 2.23459 23.6987L7.5411 19.5598Z" fill="#FBBC05"/>
<path fill-rule="evenodd" clip-rule="evenodd" d="M16.4284 6.90314C18.7604 6.90314 20.8541 7.70914 22.5002 9.2921L27.0559 4.71022C24.3051 2.13246 20.7097 0.5495 16.4284 0.5495C10.2194 0.5495 4.84792 4.12932 2.23438 9.35019L7.54089 13.4891C8.78991 9.71326 12.2915 6.90314 16.4284 6.90314Z" fill="#EA4335"/>
</svg>
