<svg width="279" height="210" viewBox="0 0 279 210" fill="none" xmlns="http://www.w3.org/2000/svg">
<path d="M191.212 158.233C193.027 157.36 195.554 155.893 198.038 153.486C203.774 147.932 205.298 141.212 205.823 138.743C206.281 136.599 206.104 131.045 205.733 120.02C205.456 111.805 205.28 109.674 206.976 107.271C209.165 104.174 212.226 103.812 213.477 99.9461C213.703 99.2475 214.602 96.4714 213.169 94.3884C211.278 91.6361 206.772 92.216 205.94 92.344C204.927 92.498 202.016 93.111 198.489 97.0123C192.906 103.192 191.98 110.761 191.839 112.039C191.307 116.913 192.381 118.674 192.894 132.051C192.944 133.406 193.01 135.742 191.76 138.217C190.239 141.228 187.588 142.842 185.979 143.628" fill="#FFD997"/>
<mask id="mask0_5383_2939" style="mask-type:luminance" maskUnits="userSpaceOnUse" x="185" y="92" width="29" height="67">
<path d="M191.214 158.231C193.029 157.358 195.556 155.891 198.04 153.484C203.776 147.93 205.3 141.21 205.825 138.741C206.283 136.597 206.106 131.043 205.735 120.018C205.458 111.803 205.282 109.672 206.978 107.269C209.167 104.172 212.228 103.81 213.479 99.9443C213.705 99.2457 214.603 96.4696 213.171 94.3866C211.28 91.6343 206.774 92.2141 205.942 92.3422C204.929 92.4962 202.018 93.1091 198.491 97.0105C192.908 103.19 191.982 110.759 191.841 112.037C191.309 116.911 192.383 118.673 192.896 132.049C192.946 133.404 193.012 135.74 191.762 138.215C190.241 141.226 187.59 142.84 185.981 143.626" fill="white"/>
</mask>
<g mask="url(#mask0_5383_2939)">
<path d="M185.509 141.673C191.004 145.901 197.115 148.973 203.852 150.679C208.2 151.779 209.884 145.025 205.536 143.924C200.025 142.531 194.825 140.109 190.308 136.631C188.82 135.485 186.781 135.29 185.388 136.752C184.194 138.006 184.012 140.522 185.509 141.673Z" fill="#BF7100"/>
<path d="M209.655 128.816C203.152 128.814 196.827 127.698 190.687 125.567C186.45 124.095 184.795 130.863 189.003 132.322C195.671 134.636 202.681 135.774 209.742 135.776C214.236 135.777 214.139 128.817 209.659 128.813L209.655 128.816Z" fill="#BF7100"/>
<path d="M189.942 121.832C194.179 122.369 198.428 122.935 202.706 123.04C206.983 123.145 211.142 122.779 214.5 120.194C215.989 119.046 216.739 117.165 215.69 115.419C214.808 113.951 212.413 113.076 210.916 114.229C208.257 116.276 205.014 116.174 201.802 116.054C198.393 115.923 195.011 115.512 191.632 115.079C189.769 114.84 187.905 115.64 187.412 117.614C186.999 119.273 188.075 121.596 189.948 121.834L189.942 121.832Z" fill="#BF7100"/>
<path d="M191.495 105.458C194.636 107.444 197.795 109.652 201.301 110.948C204.807 112.245 208.216 112.143 211.717 112.013C216.195 111.842 216.114 104.883 211.633 105.05C208.774 105.156 205.814 105.334 203.11 104.222C200.204 103.019 197.488 101.026 194.836 99.3553C191.049 96.9626 187.712 103.073 191.494 105.464L191.495 105.458Z" fill="#BF7100"/>
</g>
<path d="M191.212 158.233C193.027 157.36 195.554 155.893 198.038 153.486C203.774 147.932 205.298 141.212 205.823 138.743C206.281 136.599 206.104 131.045 205.733 120.02C205.456 111.805 205.28 109.674 206.976 107.271C209.165 104.174 212.226 103.812 213.477 99.9461C213.703 99.2475 214.602 96.4714 213.169 94.3884C211.278 91.6361 206.772 92.216 205.94 92.344C204.927 92.498 202.016 93.111 198.489 97.0123C192.906 103.192 191.98 110.761 191.839 112.039C191.307 116.913 192.381 118.674 192.894 132.051C192.944 133.406 193.01 135.742 191.76 138.217C190.239 141.228 187.588 142.842 185.979 143.628" stroke="black" stroke-width="1.3944" stroke-linecap="round" stroke-linejoin="round"/>
<path d="M146.6 165.937C144.527 161.636 145.437 157.598 145.739 156.451L145.741 156.454" stroke="black" stroke-width="1.3944" stroke-linecap="round" stroke-linejoin="round"/>
<path d="M142.41 132.263C138.802 139.862 136.146 146.071 134.353 150.431C131.786 156.679 129.978 161.582 125.33 163.472C124.638 163.752 122.111 164.781 120.39 163.643C118.582 162.444 118.29 159.252 119.248 153.579C120.179 148.049 122.394 139.576 128.312 129.066" fill="#FFD997"/>
<path d="M142.41 132.263C138.802 139.862 136.146 146.071 134.353 150.431C131.786 156.679 129.978 161.582 125.33 163.472C124.638 163.752 122.111 164.781 120.39 163.643C118.582 162.444 118.29 159.252 119.248 153.579C120.179 148.049 122.394 139.576 128.312 129.066" stroke="black" stroke-width="1.3944" stroke-linecap="round" stroke-linejoin="round"/>
<path d="M170.499 172C184.999 164.5 188.175 163.195 190.498 153.5C194.118 138.415 180.498 130 173.257 123.725C171.595 121.336 172.411 121.509 170.499 118.5C165.33 110.369 166.357 104.978 163.121 102.807C158.643 99.8063 153.207 109.755 141.568 108.837C137.848 108.542 135.07 107.262 124.824 106.075C121.864 105.731 119.003 105.482 117.716 107.113C116.22 109.014 126.099 112.485 127 114.5C133.527 129.092 139.193 148.763 146.999 163.5C149.486 168.198 137.612 170.104 140.417 173.5C145.325 179.45 159.499 174.5 159.499 174.5L170.499 172Z" fill="#FFD997"/>
<path d="M149.09 115.572C161.134 113.029 170.131 104.849 170.725 94.655C170.827 92.9255 170.673 91.2258 170.301 89.5749C167.616 70.7531 164.361 61.2185 160.538 60.9848C158.18 60.8421 155.608 64.2364 152.819 71.1641L153.739 72.1451C150.025 70.6382 145.883 69.6767 141.473 69.4191C136.812 69.1472 132.357 69.6913 128.319 70.888L130.15 69.3442C128.185 62.138 126.022 58.4695 123.667 58.3405C119.826 58.128 115.468 67.3 110.585 85.851L110.6 85.8419C109.987 87.5117 109.601 89.2671 109.498 91.0899C108.791 103.227 120.243 113.915 135.6 116.018" fill="#FFD997"/>
<path d="M149.09 115.572C161.134 113.029 170.131 104.849 170.725 94.655C170.827 92.9255 170.673 91.2258 170.301 89.5749C167.616 70.7531 164.361 61.2185 160.538 60.9848C158.18 60.8421 155.608 64.2364 152.819 71.1641L153.739 72.1451C150.025 70.6382 145.883 69.6767 141.473 69.4191C136.812 69.1472 132.357 69.6913 128.319 70.888L130.15 69.3442C128.185 62.138 126.022 58.4695 123.667 58.3405C119.826 58.128 115.468 67.3 110.585 85.851L110.6 85.8419C109.987 87.5117 109.601 89.2671 109.498 91.0899C108.791 103.227 120.243 113.915 135.6 116.018" stroke="black" stroke-width="1.3944" stroke-linecap="round" stroke-linejoin="round"/>
<path d="M129.574 103.315C130.157 103.657 131.78 104.51 133.898 104.27C137.255 103.884 138.975 101.074 139.182 100.723C139.348 101.093 140.731 104.083 144.022 104.859C146.097 105.347 147.809 104.69 148.43 104.416" stroke="black" stroke-width="1.3944" stroke-linecap="round" stroke-linejoin="round"/>
<path d="M128.099 93.5222C128.254 90.8546 126.859 88.6035 124.982 88.4943C123.105 88.3851 121.458 90.4591 121.303 93.1267C121.147 95.7944 122.543 98.0454 124.42 98.1546C126.297 98.2638 127.944 96.1898 128.099 93.5222Z" fill="black"/>
<path d="M156.699 95.1916C156.854 92.524 155.458 90.273 153.582 90.1637C151.705 90.0545 150.057 92.1286 149.902 94.7962C149.747 97.4638 151.143 99.7149 153.019 99.8241C154.896 99.9333 156.544 97.8593 156.699 95.1916Z" fill="black"/>
<path d="M126.5 113.5C120.838 124.644 129.276 142.423 138.314 148.622C139.475 149.556 140.611 150.511 141.689 151.531C144.383 154.08 146.417 156.349 148.293 159.126C149.277 160.585 150.011 161.874 150.515 162.826" fill="#FFD997"/>
<path d="M126.5 113.5C120.838 124.644 129.276 142.423 138.314 148.622C139.475 149.556 140.611 150.511 141.689 151.531C144.383 154.08 146.417 156.349 148.293 159.126C149.277 160.585 150.011 161.874 150.515 162.826" stroke="black" stroke-width="1.3944" stroke-linecap="round" stroke-linejoin="round"/>
<path d="M188.999 160.5C191 158 191.004 150.359 189.875 145.351C188.603 139.702 186.033 135.948 184.65 133.974C181.472 129.423 179.329 129.192 175.252 124.779C173.596 122.985 171.525 119.778 167.582 113.156C166.379 111.137 165.42 109.456 164.79 108.337" stroke="black" stroke-width="1.3944" stroke-linecap="round" stroke-linejoin="round"/>
<path d="M166.712 140C165.282 140.391 161.685 141.582 159.286 144.993C154.86 151.291 158.713 159.192 159.18 160.111" stroke="black" stroke-width="1.3944" stroke-linecap="round" stroke-linejoin="round"/>
<path d="M137.534 70.2461C137.741 73.4527 138.318 80.9711 139.514 81.0272C140.71 81.0834 141.972 73.6269 142.469 70.457" fill="#BF7100"/>
<path d="M131.827 70.9225C131.879 76.2002 132.253 79.0225 132.731 79.061C133.236 79.1031 133.976 76.2262 134.956 70.4316" fill="#BF7100"/>
<path d="M147.871 71.7105C147.126 76.9348 146.389 79.6865 145.908 79.6602C145.402 79.634 145.035 76.8488 144.824 70.9799" fill="#BF7100"/>
<path d="M168.33 116.739C163.857 119.334 161.735 120.873 161.965 121.349C162.204 121.851 165.03 121.191 170.442 119.369" fill="#BF7100"/>
<path d="M172.101 121.638C167.022 124.84 164.201 127.108 164.409 127.608C164.626 128.133 167.753 127.174 173.784 124.732" fill="#BF7100"/>
<path d="M175.076 126.151C172.452 130.609 170.658 133.985 171.093 134.287C171.548 134.607 173.69 132.644 177.506 128.399" fill="#BF7100"/>
<path d="M151.408 142.263C147.8 149.862 145.144 156.071 143.352 160.432C140.784 166.68 138.976 171.582 134.328 173.472C133.636 173.752 131.109 174.781 129.388 173.643C127.58 172.444 127.288 169.252 128.246 163.579C129.177 158.049 131.392 149.576 137.31 139.066" fill="#FFD997"/>
<path d="M151.408 142.263C147.8 149.862 145.144 156.071 143.352 160.432C140.784 166.68 138.976 171.582 134.328 173.472C133.636 173.752 131.109 174.781 129.388 173.643C127.58 172.444 127.288 169.252 128.246 163.579C129.177 158.049 131.392 149.576 137.31 139.066" stroke="black" stroke-width="1.3944" stroke-linecap="round" stroke-linejoin="round"/>
<path d="M144.947 168C144.239 168.075 143.022 168.336 141.937 169.355C140.313 170.877 139.649 173.467 140.18 176.039C143.225 176.061 146.275 176.079 149.321 176.101C149.874 176.092 150.348 176.118 150.618 176.118" stroke="black" stroke-width="1.3944" stroke-linecap="round" stroke-linejoin="round"/>
<path d="M150.5 176C158.333 176.333 180.6 172.1 189 160.5" stroke="black" stroke-width="1.39"/>
<path d="M145 168C150.5 166.833 161.1 163.7 159.5 160.5" stroke="black" stroke-width="1.39"/>
</svg>
