<svg width="524" height="269" viewBox="0 0 524 269" fill="none" xmlns="http://www.w3.org/2000/svg">
<path d="M52.3867 183.988C65.8917 195.166 83.8074 207.849 106.389 219.019C141.855 236.564 174.587 243.309 197.467 246.085C197.186 247.078 195.253 254.513 199.885 260.417C204.739 266.599 213.339 266.7 218.423 265.195C227.159 262.604 233.435 252.881 232.932 241.308C259.517 233.477 289.626 222.551 321.592 207.075C374.99 181.229 416.365 151.008 446.525 125.069C449.488 124.842 454.197 124.161 459.417 121.882C462.772 120.418 473.441 115.758 473.118 109.938C472.828 104.774 464.041 101.502 461.026 100.383C454.282 97.877 448.203 98.3059 444.907 98.7938C433.114 91.9894 423.032 87.0101 415.888 83.671C394.592 73.7125 364.729 60.0532 325.611 56.6048C319.046 56.0244 313.664 55.8646 310.301 55.8058C311.535 49.8172 310.428 44.4511 307.073 42.2726C303.761 40.1195 299.359 41.8016 294.181 43.8623C289.183 45.8557 281.681 49.6826 274.035 57.3954C267.393 59.0103 258.231 61.3738 247.434 64.5615C239.421 66.9249 209.652 75.9078 170.866 93.2258C128.324 112.209 106.236 121.326 83.007 140.201C74.824 146.845 68.5399 152.842 64.4697 156.921C59.5224 157.392 51.9184 158.654 43.514 162.498C37.894 165.063 28.7744 169.226 29.0043 173.642C29.2342 178.142 39.1117 182.011 52.3782 183.996L52.3867 183.988Z" fill="#F3D6D7" stroke="black" stroke-width="1.77" stroke-miterlimit="10"/>
<path d="M154.048 102.797C154.014 105.497 155.103 108.736 168.072 119.56C188.253 136.391 203.112 148.452 219.878 145.996C224.663 145.298 224.902 144.103 230.786 143.489C246.717 141.841 253.044 149.747 258.613 146.509C266.319 142.026 255.164 126.331 264.803 109.501C267.886 104.118 271.786 100.897 280.846 86.3626C283.46 82.1656 285.87 78.0442 284.32 74.8733C282.515 71.1894 276.29 70.7015 272.612 70.5417C245.977 69.3558 229.364 79.5161 201.604 80.1554C192.757 80.3572 189.845 79.432 182.735 81.089C170.286 83.9907 154.184 92.6624 154.048 102.789V102.797Z" fill="#FFD997"/>
<path d="M164.539 145.752C164.531 149.049 164.88 153.818 166.676 159.201C170.806 171.615 179.713 178.672 183.017 181.212C185.878 183.416 194.291 187.133 210.989 194.476C223.43 199.943 226.742 201.205 229.092 205.427C232.124 210.86 230.446 215.629 235.308 220.238C236.185 221.071 239.668 224.385 243.815 223.763C249.29 222.947 251.683 215.898 252.1 214.578C252.602 212.971 253.803 208.253 250.533 200.263C245.365 187.621 234.755 180.842 232.941 179.723C226.061 175.451 222.655 175.77 202.346 166.964C200.286 166.072 196.76 164.491 193.976 160.883C190.587 156.492 190.102 151.429 190.102 148.502" fill="#FFD997"/>
<mask id="mask0_5304_2846" style="mask-type:luminance" maskUnits="userSpaceOnUse" x="164" y="145" width="89" height="79">
<path d="M164.539 145.752C164.531 149.049 164.88 153.818 166.676 159.201C170.806 171.615 179.713 178.672 183.017 181.212C185.878 183.416 194.291 187.133 210.989 194.476C223.43 199.943 226.742 201.205 229.092 205.427C232.124 210.86 230.446 215.629 235.308 220.238C236.185 221.071 239.668 224.385 243.815 223.763C249.29 222.947 251.683 215.898 252.1 214.578C252.602 212.971 253.803 208.253 250.533 200.263C245.365 187.621 234.755 180.842 232.941 179.723C226.061 175.451 222.655 175.77 202.346 166.964C200.286 166.072 196.76 164.491 193.976 160.883C190.587 156.492 190.102 151.429 190.102 148.502" fill="white"/>
</mask>
<g mask="url(#mask0_5304_2846)">
<path d="M250.873 194.383C250.26 196.495 247.697 197.496 245.883 198.404C242.946 199.876 239.957 201.297 236.925 202.576C230.709 205.191 224.349 207.025 217.545 206.848C210.265 206.663 210.273 217.833 217.545 218.018C226.912 218.254 235.614 215.343 244.053 211.592C251.069 208.48 259.448 205.343 261.772 197.344C263.782 190.422 252.883 187.47 250.873 194.375V194.383Z" fill="#BF7100"/>
<path d="M210.367 207.681C226.869 203.618 236.355 189.396 244.41 175.762C248.08 169.538 238.313 163.911 234.652 170.126C228.129 181.178 220.849 193.601 207.369 196.915C200.31 198.648 203.299 209.422 210.375 207.681H210.367Z" fill="#BF7100"/>
<path d="M186.883 199.75C194.283 197.302 201.512 194.493 206.638 188.403C212.156 181.86 216.464 174.164 221.156 167.031C225.133 160.992 215.349 155.391 211.398 161.396C207.447 167.401 203.751 173.659 199.46 179.42C195.475 184.761 190.076 186.931 183.886 188.975C177.023 191.246 179.96 202.037 186.892 199.741L186.883 199.75Z" fill="#BF7100"/>
<path d="M169.563 176.451C184.669 173.878 199.068 168.217 211.866 159.882C217.912 155.946 212.258 146.265 206.161 150.243C194.087 158.107 180.811 163.255 166.557 165.685C159.405 166.905 162.436 177.671 169.563 176.451Z" fill="#BF7100"/>
</g>
<path d="M164.539 145.752C164.531 149.049 164.88 153.818 166.676 159.201C170.806 171.615 179.713 178.672 183.017 181.212C185.878 183.416 194.291 187.133 210.989 194.476C223.43 199.943 226.742 201.205 229.092 205.427C232.124 210.86 230.446 215.629 235.308 220.238C236.185 221.071 239.668 224.385 243.815 223.763C249.29 222.947 251.683 215.898 252.1 214.578C252.602 212.971 253.803 208.253 250.533 200.263C245.365 187.621 234.755 180.842 232.941 179.723C226.061 175.451 222.655 175.77 202.346 166.964C200.286 166.072 196.76 164.491 193.976 160.883C190.587 156.492 190.102 151.429 190.102 148.502" stroke="black" stroke-width="1.77" stroke-miterlimit="10"/>
<path d="M244.301 60.1879C250.696 52.6601 260.548 49.4219 269.148 52.0041C278.676 54.8638 282.832 63.712 283.266 64.6709C284.858 68.2118 285.207 71.4416 285.258 73.4939" fill="#FFD997"/>
<path d="M244.301 60.1879C250.696 52.6601 260.548 49.4219 269.148 52.0041C278.676 54.8638 282.832 63.712 283.266 64.6709C284.858 68.2118 285.207 71.4416 285.258 73.4939" stroke="black" stroke-width="1.77" stroke-miterlimit="10"/>
<path d="M256.527 114.43C251.597 133.985 257.276 153.086 272.041 161.253C274.545 162.641 277.193 163.625 279.918 164.264C309.925 173.769 326.496 175.804 329.612 170.345C331.536 166.981 328.335 160.765 320.024 151.698L317.895 152.354C322.826 147.964 327.27 142.547 330.838 136.239C334.619 129.569 337.037 122.614 338.178 115.818L339.157 119.619C351.326 121.882 358.359 121.327 360.258 117.946C363.357 112.445 352.841 99.4669 328.718 79.0032V79.0284C326.674 76.9257 324.333 75.1089 321.693 73.6539C304.109 63.9309 279.884 73.1492 265.621 94.2605" fill="#FFD997"/>
<path d="M256.527 114.43C251.597 133.985 257.276 153.086 272.041 161.253C274.545 162.641 277.193 163.625 279.918 164.264C309.925 173.769 326.496 175.804 329.612 170.345C331.536 166.981 328.335 160.765 320.024 151.698L317.895 152.354C322.826 147.964 327.27 142.547 330.838 136.239C334.619 129.569 337.037 122.614 338.178 115.818L339.157 119.619C351.326 121.882 358.359 121.327 360.258 117.946C363.357 112.445 352.841 99.4669 328.718 79.0032V79.0284C326.674 76.9257 324.333 75.1089 321.693 73.6539C304.109 63.9309 279.884 73.1492 265.621 94.2605" stroke="black" stroke-width="1.77" stroke-linecap="round" stroke-linejoin="round"/>
<path d="M288.929 94.4539C287.992 95.0679 285.548 96.8425 284.373 100.14C282.517 105.363 285.454 109.905 285.829 110.46C285.156 110.435 279.698 110.334 276.156 114.632C273.925 117.34 273.67 120.334 273.627 121.436" fill="#FFD997"/>
<path d="M288.929 94.4539C287.992 95.0679 285.548 96.8425 284.373 100.14C282.517 105.363 285.454 109.905 285.829 110.46C285.156 110.435 279.698 110.334 276.156 114.632C273.925 117.34 273.67 120.334 273.627 121.436" stroke="black" stroke-width="1.77" stroke-linecap="round" stroke-linejoin="round"/>
<path d="M252.934 114.043C247.663 134.935 253.735 155.34 269.513 164.062C272.187 165.542 275.014 166.602 277.935 167.283C309.994 177.444 327.697 179.605 331.018 173.777C333.07 170.177 329.655 163.541 320.774 153.86L318.501 154.558C323.771 149.864 328.514 144.086 332.329 137.341C336.365 130.217 338.954 122.79 340.172 115.523L341.219 119.585C354.213 121.999 361.732 121.402 363.767 117.794C367.079 111.915 355.848 98.045 330.073 76.1852V76.2104C327.893 73.9647 325.389 72.0218 322.571 70.4658C303.786 60.0783 277.909 69.9275 262.667 92.477" fill="#FFD997"/>
<path d="M252.934 114.043C247.663 134.935 253.735 155.34 269.513 164.062C272.187 165.542 275.014 166.602 277.935 167.283C309.994 177.444 327.697 179.605 331.018 173.777C333.07 170.177 329.655 163.541 320.774 153.86L318.501 154.558C323.771 149.864 328.514 144.086 332.329 137.341C336.365 130.217 338.954 122.79 340.171 115.523L341.219 119.585C354.213 121.999 361.732 121.402 363.767 117.794C367.079 111.915 355.848 98.045 330.073 76.1852V76.2104C327.893 73.9647 325.389 72.0218 322.571 70.4658C303.786 60.0783 277.909 69.9275 262.667 92.477" stroke="black" stroke-width="1.89" stroke-linecap="round" stroke-linejoin="round"/>
<path d="M287.557 92.7041C286.56 93.3517 283.946 95.261 282.694 98.7768C280.71 104.353 283.852 109.206 284.253 109.803C283.529 109.778 277.696 109.669 273.924 114.253C271.54 117.146 271.267 120.342 271.225 121.52" fill="#FFD997"/>
<path d="M287.557 92.7041C286.56 93.3517 283.946 95.261 282.694 98.7768C280.71 104.353 283.852 109.206 284.253 109.803C283.529 109.778 277.696 109.669 273.924 114.253C271.54 117.146 271.267 120.342 271.225 121.52" stroke="black" stroke-width="1.89" stroke-linecap="round" stroke-linejoin="round"/>
<path d="M315.759 87.2202C317.385 92.1658 316.006 97.4478 312.319 100.543C308.317 103.899 303.352 103.218 302.561 103.092" stroke="black" stroke-width="1.89" stroke-linecap="round" stroke-linejoin="round"/>
<path d="M279.383 146.635C284.637 146.29 289.09 143.06 290.631 138.527C292.3 133.615 289.814 129.317 289.405 128.627" stroke="black" stroke-width="1.89" stroke-linecap="round" stroke-linejoin="round"/>
<path d="M187.947 87.9017C192.239 82.6786 201.001 73.4602 215.153 67.1437C220.322 64.8391 234.184 58.8758 252.611 61.029C268.9 62.9382 280.311 70.2052 285.53 74.0406" fill="#FFD997"/>
<path d="M187.947 87.9017C192.239 82.6786 201.001 73.4602 215.153 67.1437C220.322 64.8391 234.184 58.8758 252.611 61.029C268.9 62.9382 280.311 70.2052 285.53 74.0406" stroke="black" stroke-width="1.77" stroke-linecap="round" stroke-linejoin="round"/>
<path d="M244.028 116.877C245.101 115.464 248.303 110.863 247.085 105.884C243.322 90.4754 218.219 94.3864 209.116 101.216C206.826 102.94 204.791 105.144 203.897 107.852C201.7 114.547 207.984 118.223 213.476 120.023C218.304 121.604 222.562 121.343 224.98 121.007C224.171 124.413 223.49 129.081 223.992 134.548C224.452 139.553 224.801 143.338 227.637 146.408C230.821 149.848 235.258 150.369 239.728 150.891C243.39 151.32 250.091 151.547 258.291 148.527" fill="#FFD997"/>
<path d="M244.028 116.877C245.101 115.464 248.303 110.863 247.085 105.884C243.322 90.4754 218.219 94.3864 209.116 101.216C206.826 102.94 204.791 105.144 203.897 107.852C201.7 114.547 207.984 118.223 213.476 120.023C218.304 121.604 222.562 121.343 224.98 121.007C224.171 124.413 223.49 129.081 223.992 134.548C224.452 139.553 224.801 143.338 227.637 146.408C230.821 149.848 235.258 150.369 239.728 150.891C243.39 151.32 250.091 151.547 258.291 148.527" stroke="black" stroke-width="1.77" stroke-linecap="round" stroke-linejoin="round"/>
<path d="M201.818 75.2938C200.328 74.0321 194.963 69.8015 187.053 69.7762C178.929 69.751 173.301 74.7555 169.06 78.4478C163.738 83.0906 160.69 88.1372 159.013 91.5099C156.713 89.8362 151.937 86.8419 145.167 85.9083C140.841 85.3111 137.12 84.5037 133.45 86.5727C128.971 89.1044 127.609 94.008 127.26 95.4799C129.985 98.0284 133.246 100.753 137.086 103.428C142.536 107.23 147.747 109.955 152.209 111.915" fill="#FFD997"/>
<path d="M201.818 75.2938C200.328 74.0321 194.963 69.8015 187.053 69.7762C178.929 69.751 173.301 74.7555 169.06 78.4478C163.738 83.0906 160.69 88.1372 159.013 91.5099C156.713 89.8362 151.937 86.8419 145.167 85.9083C140.841 85.3111 137.12 84.5037 133.45 86.5727C128.971 89.1044 127.609 94.008 127.26 95.4799C129.985 98.0284 133.246 100.753 137.086 103.428C142.536 107.23 147.747 109.955 152.209 111.915" stroke="black" stroke-width="1.77" stroke-linecap="round" stroke-linejoin="round"/>
<path d="M198.514 118.332C198.113 115.935 196.768 109.879 191.548 105.405C181.918 97.137 168.234 102.083 166.642 102.688C156.1 106.692 151.442 116.204 149.765 119.628C148.411 122.395 147.636 124.876 147.176 126.676C144.238 125.431 139.512 123.875 133.569 123.783C128.307 123.707 122.303 123.614 118.293 127.854C114.597 131.765 114.665 137.181 114.819 139.343C126.961 143.7 139.104 148.056 151.246 152.405C156.483 149.94 161.72 147.484 166.957 145.02C170.405 147.459 176.417 151.084 184.702 153.002C194.043 155.164 201.502 154.07 205.445 153.448C214.411 152.035 221.377 148.822 225.958 146.189" fill="#FFD997"/>
<path d="M198.514 118.332C198.113 115.935 196.768 109.879 191.548 105.405C181.918 97.137 168.234 102.083 166.642 102.688C156.1 106.692 151.442 116.204 149.765 119.628C148.411 122.395 147.636 124.876 147.176 126.676C144.238 125.431 139.512 123.875 133.569 123.783C128.307 123.707 122.303 123.614 118.293 127.854C114.597 131.765 114.665 137.181 114.819 139.343C126.961 143.7 139.104 148.056 151.246 152.405C156.483 149.94 161.72 147.484 166.957 145.02C170.405 147.459 176.417 151.084 184.702 153.002C194.043 155.164 201.502 154.07 205.445 153.448C214.411 152.035 221.377 148.822 225.958 146.189" stroke="black" stroke-width="1.77" stroke-linecap="round" stroke-linejoin="round"/>
<path d="M374.809 99.9696L375.526 97.3272L390.051 85.3688L379.505 82.5776L380.501 78.907L396.649 83.181L395.932 85.8234L381.397 97.7791L391.953 100.573L390.958 104.244L374.809 99.9696Z" fill="black"/>
<path d="M361.652 77.8437L361.877 75.2983L373.259 61.9702L363.115 61.0936L363.428 57.5577L378.961 58.9001L378.736 61.4455L367.344 74.7727L377.498 75.6501L377.185 79.186L361.652 77.8437Z" fill="black"/>
<path d="M382.109 61V58.8097L390.819 46.5881H382.092V43.5455H395.455V45.7358L386.737 57.9574H395.472V61H382.109Z" fill="black"/>
<path d="M173.625 180.455C174.919 179.816 181.629 176.679 189.208 179.395C196.113 181.868 201.069 188.244 202.099 195.847" fill="#F3D6D7"/>
<path d="M173.625 180.455C174.919 179.816 181.629 176.679 189.208 179.395C196.113 181.868 201.069 188.244 202.099 195.847" stroke="black" stroke-width="1.77" stroke-miterlimit="10"/>
<path d="M331.878 132.858C325.969 130.208 312.03 124.153 310.846 126.138C309.663 128.123 321.831 137.257 327.042 141.075" fill="#BF7100"/>
<path d="M336.109 122.286C326.648 117.432 321.267 115.422 320.765 116.204C320.237 117.029 324.699 120.982 334.15 128.081" fill="#BF7100"/>
<path d="M320.229 149.31C311.578 143.153 307.337 139.309 307.823 138.518C308.325 137.677 313.63 139.662 324.299 144.801" fill="#BF7100"/>
<path d="M210.795 151.631C209.611 139.36 209.134 130.251 210.352 130.015C211.629 129.763 214.235 136.13 218.152 149.116" fill="#BF7100"/>
<path d="M214.744 153.271C217.265 150.159 224.043 142.724 234.627 141.067C249.554 138.729 266.065 148.805 273.847 166.544" fill="#F3D6D7"/>
<path d="M214.744 153.271C217.265 150.159 224.043 142.724 234.627 141.067C249.554 138.729 266.065 148.805 273.847 166.544" stroke="black" stroke-width="1.77" stroke-miterlimit="10"/>
<path d="M366.163 38V36.0835L373.785 25.3896H366.148V22.7273H377.842V24.6438L370.213 35.3377H377.857V38H366.163Z" fill="black"/>
</svg>
