<?xml version="1.0" encoding="UTF-8"?>
<svg id="Camada_2" data-name="Camada 2" xmlns="http://www.w3.org/2000/svg" viewBox="0 0 143.89 144.73">
  <defs>
    <style>
      .cls-1 {
        fill: #fff;
      }
    </style>
  </defs>
  <g id="icones">
    <path d="M49.86,49.68c-10.18,0-18.15-10.91-18.15-24.84S39.68,0,49.86,0s18.15,10.91,18.15,24.84-7.97,24.84-18.15,24.84ZM49.86,14c-.79,0-4.15,3.61-4.15,10.84s3.36,10.84,4.15,10.84,4.15-3.61,4.15-10.84-3.36-10.84-4.15-10.84Z"/>
    <ellipse class="cls-1" cx="49.86" cy="24.84" rx="11.15" ry="17.84"/>
    <path d="M93.61,49.68c-10.18,0-18.15-10.91-18.15-24.84S83.43,0,93.61,0s18.15,10.91,18.15,24.84-7.97,24.84-18.15,24.84ZM93.61,14c-.79,0-4.15,3.61-4.15,10.84s3.36,10.84,4.15,10.84,4.15-3.61,4.15-10.84-3.36-10.84-4.15-10.84Z"/>
    <path d="M123.49,87.64c-.85,0-1.7-.08-2.55-.24-10.01-1.85-15.86-14.03-13.33-27.73,2.54-13.7,12.36-22.97,22.37-21.12,10.01,1.85,15.86,14.03,13.33,27.73h0c-2.32,12.53-10.74,21.36-19.81,21.36ZM127.37,52.32c-.9,0-4.71,2.97-5.99,9.91-1.31,7.11,1.33,11.27,2.11,11.42.76.12,4.74-2.8,6.05-9.91h0c1.31-7.11-1.33-11.27-2.11-11.42-.02,0-.04,0-.06,0ZM136.42,65.01h0,0Z"/>
    <path d="M20.81,87.58c-4.35,0-8.72-2-12.34-5.72-3.67-3.78-6.4-9.12-7.68-15.04-2.94-13.62,2.55-25.96,12.5-28.11,9.95-2.15,20.04,6.84,22.98,20.45,1.28,5.92,1,11.92-.79,16.87-2.16,6-6.43,10.1-11.71,11.24-.98.21-1.97.32-2.97.32ZM16.32,52.38s-.05,0-.07,0c-.77.17-3.29,4.41-1.77,11.47.72,3.34,2.19,6.35,4.03,8.24,1.2,1.23,2.13,1.54,2.31,1.48.19-.04.91-.68,1.5-2.3.9-2.48,1-5.83.27-9.17h0c-1.48-6.87-5.35-9.73-6.27-9.73Z"/>
    <path d="M94.4,144.73c-8.52,0-13.42-2.37-16.99-4.1-2.51-1.22-3.74-1.79-5.62-1.74-1.65.01-2.89.56-5.31,1.7-3.7,1.75-8.76,4.14-17.41,4.14-16.36,0-29.66-13.31-29.66-29.66,0-13.95,9.68-25.68,22.67-28.83,0-.21,0-.4,0-.58,0-16.36,13.31-29.66,29.66-29.66s29.66,13.31,29.66,29.66c0,.18,0,.38,0,.58,12.99,3.15,22.67,14.88,22.67,28.83,0,16.36-13.31,29.66-29.66,29.66ZM71.86,124.88c5.16,0,8.75,1.74,11.64,3.14,3,1.45,5.59,2.7,10.9,2.7,8.64,0,15.66-7.03,15.66-15.66s-7.03-15.66-15.66-15.66c-1.9,0-3.76-.79-5.08-2.16-2.25-2.34-2.16-4.71-1.99-9.01.04-.92.07-1.86.07-2.58,0-8.64-7.03-15.66-15.66-15.66s-15.66,7.03-15.66,15.66c0,.72.04,1.66.07,2.58.17,4.3.26,6.67-1.99,9.01-1.32,1.37-3.18,2.16-5.08,2.16-8.64,0-15.66,7.03-15.66,15.66s7.03,15.66,15.66,15.66c5.51,0,8.25-1.3,11.43-2.8,2.99-1.41,6.37-3.01,11.18-3.04.06,0,.12,0,.18,0ZM101.25,91.44h0,0Z"/>
    <path class="cls-1" d="M94.4,92.4c-.35,0,0-4.39,0-6.75,0-12.52-10.15-22.66-22.66-22.66s-22.66,10.15-22.66,22.66c0,2.36.35,6.75,0,6.75-12.52,0-22.66,10.15-22.66,22.66s10.15,22.66,22.66,22.66,15.15-5.78,22.66-5.84c8.09-.06,10.15,5.84,22.66,5.84s22.66-10.15,22.66-22.66-10.15-22.66-22.66-22.66Z"/>
    <ellipse class="cls-1" cx="18.53" cy="62.98" rx="11.15" ry="17.84" transform="translate(-12.87 5.33) rotate(-12.18)"/>
    <ellipse class="cls-1" cx="93.61" cy="24.84" rx="11.15" ry="17.84"/>
    <ellipse class="cls-1" cx="125.45" cy="62.98" rx="17.84" ry="11.15" transform="translate(40.7 174.89) rotate(-79.52)"/>
  </g>
</svg>