<?xml version="1.0" encoding="UTF-8"?>
<svg id="Camada_2" data-name="Camada 2" xmlns="http://www.w3.org/2000/svg" viewBox="0 0 354.37 330.51">
  <defs>
    <style>
      .cls-1 {
        fill: none;
        stroke: #000;
        stroke-linecap: round;
        stroke-miterlimit: 10;
        stroke-width: 12px;
      }
    </style>
  </defs>
  <g id="icones">
    <path class="cls-1" d="M72.37,144C72.37,67.79,134.16,6,210.37,6s138,61.79,138,138-61.79,138-138,138c-24.34,0-47.21-6.3-67.06-17.36-42.31-23.57-70.94-68.76-70.94-120.64Z"/>
    <path class="cls-1" d="M216.73,6.14c28.64,38.49,45.58,86.19,45.58,137.86s-16.95,99.37-45.58,137.86"/>
    <path class="cls-1" d="M102.88,156.1c1.45-25.18,7.08-50.56,17.28-75.18,10.33-24.94,24.52-47.11,41.59-66.11"/>
    <path class="cls-1" d="M136.18,157.56c2.34-21.24,7.69-42.5,16.28-63.24,14.63-35.31,36.99-65.07,64.31-88.13"/>
    <path class="cls-1" d="M170.78,154.02c2.89-15.96,7.52-31.86,13.98-47.45,11.79-28.46,28.6-53.31,48.99-73.96"/>
    <path class="cls-1" d="M208.09,143.99c2.45-8.67,5.44-17.29,8.97-25.82,8.16-19.69,18.72-37.65,31.2-53.69"/>
    <path class="cls-1" d="M260.75,116.99c-16.15,11.13-36.98,21.37-55.74,28.14-12.04,4.34-21.35,6.59-34.22,8.89-11.27,2.02-22.83,3.22-34.61,3.54-2.13.06-4.26.09-6.4.09-19.76,0-38.94-2.48-57.24-7.14"/>
    <path class="cls-1" d="M262.18,151.78c-37.5,26.25-83.16,41.66-132.41,41.66-17.26,0-34.07-1.89-50.25-5.48"/>
    <path class="cls-1" d="M257.59,190.71c-36.61,24.34-80.56,38.52-127.82,38.52-9.95,0-19.75-.63-29.36-1.85"/>
    <path class="cls-1" d="M243.69,235.06c-29.93,16.98-64.03,27.48-100.38,29.58"/>
    <path class="cls-1" d="M249.51,11.63c26.23,37.5,41.63,83.14,41.63,132.37s-15.39,94.87-41.62,132.37"/>
    <path class="cls-1" d="M291.4,31.95c18.43,33.19,28.92,71.4,28.92,112.06s-10.49,78.86-28.92,112.05"/>
    <path class="cls-1" d="M6,139.45c41.32-9.28,50.34,42.29,45.69,99.17-2.82,34.51-9.15,74.62,24.85,84.11,38.9,10.85,67-29.7,44.38-73.64"/>
  </g>
</svg>