<?xml version="1.0" encoding="UTF-8"?>
<svg id="Camada_2" data-name="Camada 2" xmlns="http://www.w3.org/2000/svg" viewBox="0 0 274.65 339.15">
  <defs>
    <style>
      .cls-1 {
        fill: none;
        stroke: #000;
        stroke-linecap: round;
        stroke-linejoin: round;
        stroke-width: 12px;
      }
    </style>
  </defs>
  <g id="icones">
    <polygon class="cls-1" points="217.24 158.74 268.65 137.32 217.24 115.91 251.06 71.66 195.82 78.83 202.99 23.59 158.74 57.41 137.32 6 115.91 57.41 71.66 23.59 78.83 78.83 23.59 71.66 57.41 115.91 6 137.32 57.41 158.74 23.59 202.99 78.83 195.82 71.66 251.06 115.91 217.24 137.32 268.65 158.74 217.24 202.99 251.06 195.82 195.82 251.06 202.99 217.24 158.74"/>
    <circle class="cls-1" cx="137.32" cy="137.32" r="79.38"/>
    <polyline class="cls-1" points="176.08 230.68 176.08 333.15 137.32 297.46 98.57 333.15 98.57 230.68"/>
    <polygon class="cls-1" points="137.32 90.43 150.95 118.03 181.41 122.45 159.37 143.94 164.57 174.28 137.32 159.96 110.08 174.28 115.28 143.94 93.24 122.45 123.7 118.03 137.32 90.43"/>
  </g>
</svg>