<?xml version="1.0" encoding="UTF-8"?>
<svg id="Camada_2" data-name="Camada 2" xmlns="http://www.w3.org/2000/svg" viewBox="0 0 230.15 326.65">
  <defs>
    <style>
      .cls-1 {
        fill: none;
        stroke: #000;
        stroke-linecap: round;
        stroke-linejoin: round;
        stroke-width: 12px;
      }
    </style>
  </defs>
  <g id="icones">
    <polyline class="cls-1" points="155.4 214.28 155.4 320.65 115.17 283.61 74.94 320.65 74.94 214.28"/>
    <path class="cls-1" d="M224.15,115.17c0-11.22-6.88-20.84-16.66-24.86,6.45-8.37,7.61-20.14,2-29.86-5.59-9.68-16.3-14.57-26.73-13.22,1.32-10.42-3.56-21.09-13.23-26.67-9.63-5.56-21.26-4.48-29.62,1.81-4.09-9.63-13.63-16.38-24.74-16.38s-20.73,6.8-24.79,16.49c-8.36-6.39-20.08-7.51-29.76-1.92-9.66,5.58-14.55,16.26-13.23,26.67-10.44-1.35-21.14,3.53-26.73,13.22-5.58,9.66-4.47,21.35,1.88,29.71-9.71,4.05-16.54,13.63-16.54,24.81s6.88,20.84,16.66,24.86c-6.45,8.37-7.61,20.14-2,29.86,5.59,9.68,16.3,14.57,26.73,13.22-1.32,10.42,3.56,21.09,13.23,26.67,9.63,5.56,21.26,4.48,29.62-1.81,4.09,9.63,13.63,16.38,24.74,16.38s20.73-6.8,24.79-16.49c8.36,6.39,20.08,7.51,29.76,1.92,9.66-5.58,14.55-16.26,13.23-26.67,10.44,1.35,21.14-3.53,26.73-13.22,5.58-9.66,4.47-21.35-1.88-29.71,9.71-4.05,16.54-13.63,16.54-24.81Z"/>
    <circle class="cls-1" cx="114.98" cy="115.28" r="82.41"/>
    <polygon class="cls-1" points="115.17 68.88 128.61 96.12 158.68 100.49 136.92 121.69 142.06 151.64 115.17 137.5 88.28 151.64 93.42 121.69 71.66 100.49 101.73 96.12 115.17 68.88"/>
  </g>
</svg>