<?xml version="1.0" encoding="UTF-8"?>
<svg id="Camada_2" data-name="Camada 2" xmlns="http://www.w3.org/2000/svg" viewBox="0 0 251.59 327.07">
  <defs>
    <style>
      .cls-1 {
        fill: none;
        stroke: #000;
        stroke-linecap: round;
        stroke-linejoin: round;
        stroke-width: 12px;
      }
    </style>
  </defs>
  <g id="icones">
    <polyline class="cls-1" points="112.17 242.31 56.96 321.07 48.85 284.01 11.24 289.03 57.8 222.61"/>
    <path class="cls-1" d="M245.59,125.9c0-12.33-7.56-22.88-18.29-27.3,7.09-9.19,8.36-22.11,2.19-32.79-6.14-10.63-17.9-16-29.36-14.52,1.45-11.44-3.91-23.17-14.53-29.29-10.57-6.1-23.35-4.92-32.53,1.99-4.49-10.57-14.97-17.98-27.18-17.98s-22.76,7.47-27.23,18.11c-9.19-7.02-22.05-8.25-32.68-2.11-10.61,6.13-15.98,17.85-14.53,29.29-11.46-1.48-23.22,3.88-29.36,14.52-6.13,10.61-4.91,23.45,2.07,32.63-10.67,4.45-18.17,14.97-18.17,27.25s7.56,22.88,18.29,27.3c-7.09,9.19-8.36,22.11-2.19,32.79,6.14,10.63,17.9,16,29.36,14.52-1.45,11.44,3.91,23.17,14.53,29.29,10.57,6.1,23.35,4.92,32.53-1.99,4.49,10.57,14.97,17.98,27.18,17.98s22.76-7.47,27.23-18.11c9.19,7.02,22.05,8.25,32.68,2.11,10.61-6.13,15.98-17.85,14.53-29.29,11.46,1.48,23.22-3.88,29.36-14.52,6.13-10.61,4.91-23.45-2.07-32.63,10.67-4.45,18.17-14.97,18.17-27.25Z"/>
    <circle class="cls-1" cx="125.69" cy="126.02" r="90.51"/>
    <polyline class="cls-1" points="137.53 243.12 192.17 321.07 200.28 284.01 237.89 289.03 192.42 224.17"/>
    <polygon class="cls-1" points="125.69 79.05 140.03 108.12 172.11 112.78 148.9 135.4 154.38 167.35 125.69 152.26 97 167.35 102.48 135.4 79.27 112.78 111.35 108.12 125.69 79.05"/>
  </g>
</svg>