<?xml version="1.0" encoding="UTF-8"?>
<svg id="Camada_2" data-name="Camada 2" xmlns="http://www.w3.org/2000/svg" viewBox="0 0 322.12 322.12">
  <defs>
    <style>
      .cls-1 {
        fill: none;
        stroke: #000;
        stroke-linecap: round;
        stroke-miterlimit: 10;
        stroke-width: 12px;
      }
    </style>
  </defs>
  <g id="icones">
    <path class="cls-1" d="M316.12,161.06c0,85.64-69.42,155.06-155.06,155.06S6,246.7,6,161.06,75.42,6,161.06,6c27.35,0,53.04,7.08,75.35,19.51,47.55,26.49,79.71,77.26,79.71,135.55Z"/>
    <path class="cls-1" d="M153.92,315.96c-32.18-43.25-51.22-96.85-51.22-154.9S121.74,49.41,153.92,6.16"/>
    <path class="cls-1" d="M281.84,147.47c-1.63,28.3-7.95,56.81-19.41,84.47-11.61,28.02-27.55,52.93-46.73,74.28"/>
    <path class="cls-1" d="M244.42,145.83c-2.63,23.86-8.64,47.76-18.29,71.05-16.43,39.67-41.56,73.11-72.26,99.02"/>
    <path class="cls-1" d="M205.54,149.81c-3.25,17.93-8.45,35.8-15.71,53.32-13.24,31.98-32.14,59.9-55.04,83.1"/>
    <path class="cls-1" d="M163.62,161.08c-2.76,9.74-6.11,19.43-10.08,29.02-9.16,22.12-21.03,42.31-35.06,60.33"/>
    <path class="cls-1" d="M104.46,191.42c18.15-12.5,41.55-24.02,62.63-31.62,13.53-4.88,23.99-7.4,38.45-9.99,12.67-2.27,25.66-3.62,38.89-3.98,2.39-.07,4.79-.1,7.2-.1,22.2,0,43.75,2.79,64.32,8.03"/>
    <path class="cls-1" d="M102.85,152.31c42.14-29.5,93.44-46.8,148.78-46.8,19.39,0,38.28,2.12,56.46,6.15"/>
    <path class="cls-1" d="M108.01,108.57c41.14-27.35,90.52-43.28,143.62-43.28,11.18,0,22.19.71,32.99,2.08"/>
    <path class="cls-1" d="M123.63,58.75c33.63-19.08,71.94-30.88,112.78-33.24"/>
    <path class="cls-1" d="M117.08,309.79c-29.48-42.13-46.77-93.41-46.77-148.73S87.61,54.46,117.08,12.33"/>
    <path class="cls-1" d="M70.02,286.97c-20.71-37.3-32.5-80.22-32.5-125.91s11.79-88.61,32.5-125.9"/>
  </g>
</svg>