<?xml version="1.0" encoding="UTF-8"?>
<svg id="Camada_2" data-name="Camada 2" xmlns="http://www.w3.org/2000/svg" viewBox="0 0 251.59 321.56">
  <defs>
    <style>
      .cls-1 {
        fill: none;
        stroke-linejoin: round;
      }

      .cls-1, .cls-2 {
        stroke: #000;
        stroke-linecap: round;
        stroke-width: 12px;
      }

      .cls-2 {
        fill: #fff;
        stroke-miterlimit: 10;
      }
    </style>
  </defs>
  <g id="icones">
    <line class="cls-2" x1="30.17" y1="6" x2="219.22" y2="6"/>
    <line class="cls-2" x1="50.19" y1="35.2" x2="199.2" y2="35.2"/>
    <path class="cls-1" d="M245.59,195.87c0-12.33-7.56-22.88-18.29-27.3,7.09-9.19,8.36-22.11,2.19-32.79-6.14-10.63-17.9-16-29.36-14.52,1.45-11.44-3.91-23.17-14.53-29.29-10.57-6.1-23.35-4.92-32.53,1.99-4.49-10.57-14.97-17.98-27.18-17.98s-22.76,7.47-27.23,18.11c-9.19-7.02-22.05-8.25-32.68-2.11-10.61,6.13-15.98,17.85-14.53,29.29-11.46-1.48-23.22,3.88-29.36,14.52-6.13,10.61-4.91,23.45,2.07,32.63-10.67,4.45-18.17,14.97-18.17,27.25s7.56,22.88,18.29,27.3c-7.09,9.19-8.36,22.11-2.19,32.79,6.14,10.63,17.9,16,29.36,14.52-1.45,11.44,3.91,23.17,14.53,29.29,10.57,6.1,23.35,4.92,32.53-1.99,4.49,10.57,14.97,17.98,27.18,17.98s22.76-7.47,27.23-18.11c9.19,7.02,22.05,8.25,32.68,2.11,10.61-6.13,15.98-17.85,14.53-29.29,11.46,1.48,23.22-3.88,29.36-14.52,6.13-10.61,4.91-23.45-2.07-32.63,10.67-4.45,18.17-14.97,18.17-27.25Z"/>
    <circle class="cls-1" cx="125.69" cy="196" r="90.51"/>
    <polygon class="cls-1" points="125.69 146.31 140.92 177.16 174.96 182.11 150.33 206.12 156.14 240.03 125.69 224.02 95.24 240.03 101.06 206.12 76.42 182.11 110.47 177.16 125.69 146.31"/>
    <polyline class="cls-1" points="161.65 89.98 219.22 6 234.74 35.2 192.24 97.2"/>
    <polyline class="cls-1" points="86.84 88.66 30.17 6 14.66 35.2 58.11 98.58"/>
  </g>
</svg>