<?xml version="1.0" encoding="UTF-8"?>
<svg id="Camada_2" data-name="Camada 2" xmlns="http://www.w3.org/2000/svg" viewBox="0 0 143.89 144.73">
  <g id="icones">
    <g>
      <path d="M101.4,86.23c0-.21,0-.4,0-.58,0-16.36-13.31-29.66-29.66-29.66s-29.66,13.31-29.66,29.66c0,.18,0,.38,0,.58-12.99,3.15-22.67,14.88-22.67,28.83,0,16.36,13.31,29.66,29.66,29.66,8.65,0,13.71-2.39,17.41-4.13,2.42-1.14,3.66-1.69,5.31-1.71,1.88-.05,3.1.52,5.62,1.74,3.58,1.73,8.48,4.1,16.99,4.1,16.36,0,29.66-13.31,29.66-29.66,0-13.95-9.68-25.68-22.67-28.83Z"/>
      <path d="M49.86,0c-10.18,0-18.15,10.91-18.15,24.84s7.97,24.84,18.15,24.84,18.15-10.91,18.15-24.84S60.04,0,49.86,0Z"/>
      <path d="M93.61,0c-10.18,0-18.15,10.91-18.15,24.84s7.97,24.84,18.15,24.84,18.15-10.91,18.15-24.84S103.79,0,93.61,0Z"/>
      <path d="M142.01,49.44c-2.34-5.94-6.73-9.91-12.04-10.89-10-1.85-19.83,7.43-22.37,21.12s3.32,25.88,13.33,27.73c.85.16,1.7.23,2.56.23,4.49,0,8.96-2.14,12.58-6.09,3.56-3.88,6.12-9.31,7.23-15.26,1.1-5.96.65-11.94-1.29-16.84Z"/>
      <path d="M36.28,59.15c-2.94-13.62-13.04-22.6-22.98-20.45-9.95,2.15-15.44,14.5-12.5,28.11,1.28,5.92,4,11.27,7.68,15.04,3.62,3.73,7.99,5.72,12.34,5.72.99,0,1.99-.1,2.97-.32,9.95-2.15,15.44-14.5,12.5-28.11Z"/>
    </g>
  </g>
</svg>