<?xml version="1.0" encoding="UTF-8"?>
<svg id="Camada_2" data-name="Camada 2" xmlns="http://www.w3.org/2000/svg" viewBox="0 0 321.79 321.79">
  <defs>
    <style>
      .cls-1 {
        fill: none;
        stroke: #000;
        stroke-linecap: round;
        stroke-linejoin: round;
        stroke-width: 14px;
      }
    </style>
  </defs>
  <g id="icones">
    <path class="cls-1" d="M260.83,60.95h0c12.34-12.34,12.34-32.35,0-44.7-12.34-12.34-32.35-12.34-44.7,0-12.34,12.34-12.34,32.35,0,44.7h0S60.95,216.14,60.95,216.14h0c-12.34-12.34-32.35-12.34-44.7,0-12.34,12.34-12.34,32.35,0,44.7s32.35,12.34,44.7,0h0s0,0,0,0c-12.34,12.34-12.34,32.35,0,44.7s32.35,12.34,44.7,0c12.34-12.34,12.34-32.35,0-44.7l155.18-155.18c12.34,12.34,32.35,12.34,44.7,0,12.34-12.34,12.34-32.35,0-44.7-12.34-12.34-32.35-12.34-44.7,0Z"/>
  </g>
</svg>