<?xml version="1.0" encoding="UTF-8"?>
<svg id="Camada_2" data-name="Camada 2" xmlns="http://www.w3.org/2000/svg" viewBox="0 0 259.17 361.7">
  <defs>
    <style>
      .cls-1 {
        fill: none;
      }

      .cls-1, .cls-2, .cls-3 {
        stroke-width: 12px;
      }

      .cls-1, .cls-2, .cls-3, .cls-4 {
        stroke: #000;
        stroke-linecap: round;
      }

      .cls-1, .cls-2, .cls-4 {
        stroke-linejoin: round;
      }

      .cls-2, .cls-3 {
        fill: #fff;
      }

      .cls-3 {
        stroke-miterlimit: 10;
      }

      .cls-4 {
        stroke-width: 5px;
      }
    </style>
  </defs>
  <g id="icones">
    <line class="cls-3" x1="64.63" y1="274.78" x2="197.59" y2="274.78"/>
    <line class="cls-3" x1="64.63" y1="239.66" x2="197.59" y2="239.66"/>
    <line class="cls-3" x1="64.63" y1="204.53" x2="197.59" y2="204.53"/>
    <g>
      <path class="cls-4" d="M141.11,140.8c-.18,0,0-2.28,0-3.5,0-6.49-5.26-11.75-11.75-11.75s-11.75,5.26-11.75,11.75c0,1.22.18,3.5,0,3.5-6.49,0-11.75,5.26-11.75,11.75s5.26,11.75,11.75,11.75,7.85-3,11.75-3.03c4.19-.03,5.26,3.03,11.75,3.03s11.75-5.26,11.75-11.75-5.26-11.75-11.75-11.75Z"/>
      <ellipse class="cls-4" cx="118.03" cy="105.78" rx="5.78" ry="9.25"/>
      <ellipse class="cls-4" cx="140.71" cy="105.78" rx="5.78" ry="9.25"/>
      <ellipse class="cls-4" cx="157.21" cy="125.55" rx="9.25" ry="5.78" transform="translate(5.15 257.3) rotate(-79.52)"/>
      <ellipse class="cls-4" cx="101.79" cy="125.55" rx="5.78" ry="9.25" transform="translate(-24.2 24.3) rotate(-12.18)"/>
    </g>
    <rect class="cls-1" x="6" y="16.73" width="247.17" height="338.97"/>
    <rect class="cls-1" x="30.86" y="40.62" width="197.46" height="291.19"/>
    <rect class="cls-2" x="79.02" y="6" width="101.5" height="45.03"/>
  </g>
</svg>