<?xml version="1.0" encoding="UTF-8"?>
<svg id="Camada_2" data-name="Camada 2" xmlns="http://www.w3.org/2000/svg" viewBox="0 0 304.32 324.52">
  <defs>
    <style>
      .cls-1 {
        stroke-linejoin: round;
        stroke-width: 12px;
      }

      .cls-1, .cls-2 {
        fill: none;
      }

      .cls-1, .cls-2, .cls-3 {
        stroke: #000;
        stroke-linecap: round;
      }

      .cls-2, .cls-3 {
        stroke-miterlimit: 10;
        stroke-width: 14px;
      }

      .cls-3 {
        fill: #fff;
      }
    </style>
  </defs>
  <g id="icones">
    <g>
      <line class="cls-3" x1="32.01" y1="317.3" x2="276.5" y2="317.3"/>
      <line class="cls-3" x1="223.79" y1="7" x2="276.5" y2="7"/>
      <line class="cls-3" x1="106.68" y1="94.93" x2="239.72" y2="94.93"/>
      <path class="cls-2" d="M32.01,7C.15,33.08-2.79,293.68,32.01,317.3"/>
      <path class="cls-2" d="M223.79,7c-10.71,8.76-18.12,44.05-21.93,87.93"/>
      <path class="cls-2" d="M32.01,7c27.77,5.05,27.77,290.28,0,310.3"/>
      <path class="cls-2" d="M87.55,7c9.92,1.8,16.3,39.42,19.13,87.93"/>
      <path class="cls-2" d="M223.79,7c9.92,1.8,13.07,39.42,15.94,87.93"/>
      <path class="cls-2" d="M276.5,7c27.77,5.05,27.77,290.5,0,310.52"/>
      <line class="cls-3" x1="32.01" y1="7" x2="87.55" y2="7"/>
    </g>
    <path class="cls-1" d="M242.03,204.7h0c8.27,0,14.97-6.7,14.97-14.97s-6.7-14.97-14.97-14.97-14.97,6.7-14.97,14.97h0s-103.92,0-103.92,0h0c0-8.27-6.7-14.97-14.97-14.97s-14.97,6.7-14.97,14.97,6.7,14.97,14.97,14.97h0,0c-8.27,0-14.97,6.7-14.97,14.97s6.7,14.97,14.97,14.97,14.97-6.7,14.97-14.97h103.92c0,8.27,6.7,14.97,14.97,14.97s14.97-6.7,14.97-14.97-6.7-14.97-14.97-14.97Z"/>
  </g>
</svg>