<?xml version="1.0" encoding="UTF-8"?>
<svg id="Camada_2" data-name="Camada 2" xmlns="http://www.w3.org/2000/svg" viewBox="0 0 290.99 249.2">
  <defs>
    <style>
      .cls-1, .cls-2 {
        stroke: #000;
        stroke-linecap: round;
        stroke-linejoin: round;
        stroke-width: 5.29px;
      }

      .cls-1, .cls-3 {
        fill: #b7b7b7;
      }

      .cls-4 {
        fill: #939393;
      }

      .cls-2 {
        fill: none;
      }
    </style>
  </defs>
  <g id="Camada_1-2" data-name="Camada 1">
    <g>
      <path class="cls-3" d="M72.53,155.9c-2.58.26-15.1,1.63-27.4,4.99.22,2.56.18,6.26,1.67,11.62,3.91,13.99,12.45,18.2,11.88,22.35,5.5-.31,11.12-.88,17.64-1.25,6.54-.37,16.07-.64,27.76,0l-31.55-37.72Z"/>
      <path class="cls-4" d="M46.8,172.51c-1.5-5.36-1.45-9.06-1.67-11.62-11.53,3.15-22.86,8.06-25.6,15.48-.49,1.31-1.81,4.88-.42,8.41,1.7,4.34,6.85,6.98,16.83,8.83,8.55,1.59,15.55,1.65,22.75,1.25.57-4.15-7.96-8.36-11.88-22.35Z"/>
      <path class="cls-3" d="M135.77,72.29c5.61-2.44,14.34-5.99,26.08-6.31,3.77-.1,15.82-.08,29.45,6.31,7,3.28,23.48,11.02,30.29,29.02,1.79,4.74,6.16,16.32,1.26,26.92-6.21,13.42-20.59,10.81-26.08,23.56-5.09,11.82,4.61,20.27,0,29.02-3.98,7.55-16.89,3.55-28.53,3.77-1.45.03-2.89.12-4.28.31-1.8-.35-3.24-.25-4.41.16-.84,1.56-1.77,2.87-2.79,3.98s-2.11,2-3.28,2.73c-7.4,9.89-23.93,19.34-32.03,4.02-.31-.63-.6-1.3-.86-2.02-.26-.72-.49-1.49-.7-2.31-.28-.73-.54-1.51-.78-2.33-.38-.64-.69-1.31-.9-2.03-.21-.72-.32-1.5-.29-2.35-.98-.67-2.01-1.22-3.07-1.68-1.06-.45-2.13-.83-3.23-1.09-1.05-.51-2.09-.99-3.15-1.41-3.18-1.27-6.55-2.03-10.26-1.87-1.07-.23-2.15-.43-3.25-.61-3.28-.55-6.66-.92-10.18-1.21-1.01-.29-2.04-.58-3.12-.85-.8-.84-1.65-1.66-2.55-2.49-1.82-1.65-3.89-3.32-6.27-5.14-.97-.98-1.92-1.97-2.81-2.98-2.66-3.04-4.72-6.31-4.94-10.39-.19-.78-.36-1.54-.52-2.29-3.08-14.26-4.23-22.9-2.4-29.98,5.37-20.85,28.11-30.72,73.61-50.48Z"/>
      <path class="cls-1" d="M101.13,136.52c28.57-7.79,49.02-28.69,49.02-53.25,0-4.17-.61-8.23-1.72-12.14C139.34,26.31,130.2,3.87,120.99,3.85c-5.68-.02-11.38,8.49-17.11,25.52l2.35,2.23c-9.12-3.1-19.21-4.83-29.83-4.83-11.22,0-21.86,1.93-31.38,5.37l4.18-3.96C43.47,11.14,37.77,2.63,32.09,2.64c-9.25.03-18.44,22.66-27.56,67.89l.03-.03c-1.24,4.1-1.91,8.37-1.91,12.76,0,29.24,28.99,53.3,66.16,56.21"/>
      <ellipse class="cls-4" cx="73.93" cy="90.27" rx="53.25" ry="38.32"/>
      <path d="M49.23,197.61c-5.07,0-10.34-.38-16.36-1.5-11.11-2.06-16.73-5.19-18.8-10.47-1.75-4.47-.13-8.85.4-10.3,5.9-15.95,43.75-21.01,55.21-22.19,1.46-.15,2.75.91,2.9,2.36s-.91,2.75-2.36,2.9c-16.93,1.73-46.67,7.63-50.79,18.76-.4,1.08-1.46,3.94-.44,6.53,1.3,3.31,5.88,5.53,14.85,7.2,11.35,2.11,20.07,1.43,30.16.64,3.04-.24,6.18-.48,9.6-.68,9.19-.52,18.62-.52,28.05,0,1.46.08,2.58,1.33,2.5,2.78-.08,1.46-1.28,2.57-2.79,2.5-9.23-.5-18.47-.5-27.46,0-3.36.19-6.47.43-9.48.67-5.23.41-10.11.79-15.18.79Z"/>
      <path class="cls-1" d="M62.9,143.98c-.11,2.06-.06,5.14.84,8.69,2.24,8.82,8.11,14.12,11.5,17.11,6.53,5.74,12.98,7.98,19.07,10.1,7.77,2.7,14.24,3.47,18.23,3.93"/>
      <path class="cls-2" d="M51.21,108.12c1.44.74,5.46,2.57,10.52,1.68,8.01-1.4,11.75-8.38,12.2-9.25.45.87,4.19,7.86,12.2,9.25,5.06.88,9.07-.94,10.52-1.68"/>
      <ellipse cx="38.11" cy="84.82" rx="8.19" ry="11.64"/>
      <ellipse cx="107.02" cy="84.82" rx="8.19" ry="11.64"/>
      <path class="cls-3" d="M141.23,203.02l-42.27-33.64c-2.36.23-10.91,1.1-20.06,3.43.21,2.55.22,6.16,1.75,11.31,4.4,14.88,14.33,18.69,12.33,23.14,5.87-.3,11.83-.9,18.79-1.28,6.75-.37,15.72-1.1,29.47-2.97Z"/>
      <path class="cls-4" d="M80.64,184.13c-1.53-5.16-1.54-8.77-1.75-11.31-10.87,2.77-22.59,7.61-25.77,15.93-.5,1.31-1.87,4.88-.43,8.41,1.76,4.34,7.07,6.98,17.37,8.83,8.61,1.55,15.68,1.64,22.91,1.28,2-4.44-7.93-8.26-12.33-23.14Z"/>
      <path d="M85.73,210.04c-5.23,0-10.67-.38-16.87-1.5-11.45-2.06-17.25-5.19-19.39-10.47-1.83-4.51-.14-8.93.42-10.38,5.85-15.3,35.57-19.84,48.08-21.08,1.48-.15,2.79.93,2.94,2.41.15,1.48-.93,2.79-2.41,2.94-18.51,1.83-39.69,7.44-43.59,17.65-.41,1.07-1.49,3.89-.45,6.44,1.34,3.31,6.08,5.53,15.36,7.2,11.74,2.11,20.75,1.43,31.18.64,3.14-.24,6.38-.48,9.91-.68,5.43-.29,14.36-.92,29.25-2.95,1.47-.2,2.82.83,3.02,2.3.2,1.47-.83,2.83-2.3,3.03-15.08,2.05-24.16,2.69-29.68,2.99-3.47.19-6.68.43-9.79.67-5.4.41-10.43.79-15.66.79Z"/>
      <path class="cls-3" d="M253.13,75.01c-2.14-1.81-4.31-3.43-6.5-4.87-13.16-8.66-27.31-11.12-35.93-12.63-29.51-5.18-53.17,4.26-62.91,8.83l65.79,41.22c-2.75-1.02-14.68-5.08-27.14.84-13.85,6.58-20.26,21.48-20.56,34.07-.35,14.92,7.79,29,20.97,36.6-5.83.05-10.99.4-15.41.87.19,2.2.56,4.92,1.64,8.31,2.96,9.36,8.26,14.34,11.25,17.85,18.35.17,17.66-.41,35.01-.12,29.18.5,33.47,2.16,40.29-2.52,10.89-7.47,14.73-21.79,16.45-28.18.63-2.33,1.09-4.57,1.42-6.71.34-2.14.55-4.18.67-6.11,8.66-31.16-.78-66.57-25.04-87.45Z"/>
      <path class="cls-4" d="M171.44,179.94c-2.34.25-4.48.53-6.38.81-8.34,1.24-11.35,2.4-13.98,4.63-5.46,4.63-6.47,11.43-6.58,12.2-.45,3.23,0,5.92.41,7.57,7.42.28,18.04.62,30.84.84,3.27.06,6.09.09,8.57.12-2.99-3.51-8.29-8.5-11.25-17.85-1.07-3.4-1.44-6.11-1.64-8.31Z"/>
      <path d="M254.35,73.02c-2.17-1.83-4.44-3.54-6.75-5.06-13.57-8.93-28.13-11.48-36.91-13.03-27.2-4.77-50.08,2.28-64.47,9.04-1.31.61-1.87,2.17-1.25,3.48s2.17,1.87,3.48,1.25c13.71-6.44,35.49-13.16,61.43-8.61,8.3,1.46,22.19,3.89,34.86,12.23,2.14,1.41,4.24,2.98,6.23,4.67,23.07,19.86,32.8,53.93,24.22,84.77-.05.18-.08.35-.09.54-.12,1.98-.34,3.95-.64,5.87-.34,2.16-.8,4.32-1.37,6.44-1.59,5.92-5.3,19.78-15.4,26.7-4.37,3-7.26,3-21.89,2.52-4.45-.15-9.99-.33-16.88-.45-9.1-.16-13.31-.07-17.78.02-5.16.11-11.01.23-25.81-.02-9.59-.16-19.24-.42-28.71-.76-.21-1.56-.21-3.13,0-4.68.09-.67,1.04-6.63,5.68-10.57,2.08-1.77,4.51-2.82,12.67-4.03,6.99-1.04,14.2-1.6,21.43-1.65,1.18,0,2.21-.81,2.51-1.95.3-1.14-.2-2.34-1.22-2.93-12.46-7.18-19.99-20.31-19.66-34.27.25-10.59,5.39-25.27,19.07-31.77,10.72-5.1,21.13-2.22,25.11-.75,1.35.5,2.86-.19,3.36-1.54.5-1.35-.19-2.86-1.54-3.36-4.6-1.7-16.65-5.02-29.17.93-15.82,7.52-21.77,24.29-22.05,36.37-.31,13.22,5.56,25.77,15.68,34.3-4.81.27-9.59.76-14.27,1.46-8.49,1.26-12.06,2.48-15.29,5.22-5.99,5.08-7.28,12.41-7.48,13.83-.4,2.84-.24,5.72.46,8.56.28,1.13,1.28,1.94,2.44,1.98,10.17.38,20.56.67,30.89.84,14.9.25,20.8.13,26,.02,4.41-.09,8.58-.18,17.58-.02,6.86.12,12.37.3,16.8.45,4.07.14,7.35.24,10.09.24,7.14,0,10.64-.74,14.92-3.67,11.69-8.01,15.76-23.18,17.49-29.66.62-2.3,1.11-4.65,1.48-6.98.31-1.99.54-4.03.68-6.08,8.98-32.69-1.42-68.77-25.94-89.89Z"/>
      <path class="cls-4" d="M278.04,166.18c-4.81-.2-4.59,8.94-13.74,16.83-9.73,8.39-22.32,8.69-45.15,9.25-13.15.32-15.07-.87-29.45,0-16.14.97-22.71,3.01-26.08,4.21-12.45,4.42-19.57,10.96-21.03,12.34-4.14,3.9-9.91,9.48-11.5,18.23-.51,2.82-1.26,7.28,1.12,11.78,3.34,6.32,10.29,7.88,11.5,8.13,6.48,1.33,11.81-2.71,20.19-8.69.84-.6,1.65-1.2,2.43-1.79,8.12-6.21,18.03-9.57,28.25-9.26,1.15.04,2.33.07,3.54.11,18.71.61,28.42,1.24,42.63.28,13.43-.91,18.02-2.37,21.87-4.21,8.26-3.93,13.47-9.76,15.98-12.62,4-4.56,7.89-8.99,9.53-15.42,3.33-13-3.81-28.9-10.1-29.16Z"/>
      <path d="M146.16,249.2c-.93,0-1.88-.09-2.86-.29-2.11-.43-9.28-2.38-12.86-9.16-2.75-5.2-1.82-10.32-1.32-13.07,1.74-9.58,8.22-15.68,12.09-19.33,2.59-2.44,9.89-8.57,21.73-12.77,4.29-1.52,11.19-3.39,26.63-4.32,8.23-.5,12.46-.32,16.93-.15,3.42.14,6.94.28,12.59.14,22.38-.55,34.7-.85,43.89-8.77,4.32-3.72,6.4-7.71,8.07-10.92,1.83-3.51,3.43-6.55,7.06-6.39,2.41.1,4.82,1.69,6.97,4.59,4.4,5.92,7.52,17.12,4.98,27.07-1.77,6.9-5.94,11.65-9.97,16.24-2.34,2.67-7.83,8.92-16.63,13.11-4.44,2.11-9.56,3.51-22.6,4.4-12.03.82-20.95.5-34.46.01-2.59-.09-5.36-.19-8.37-.29l-3.53-.11c-9.56-.29-19.14,2.85-26.97,8.85-.79.61-1.62,1.22-2.48,1.83l-.94.67c-6.87,4.91-12.1,8.65-17.96,8.65ZM199.31,193.94c-2.55,0-5.55.08-9.49.32-16.85,1.02-23.16,3.25-25.53,4.09-11.13,3.95-17.92,9.64-20.33,11.91-3.74,3.52-9.4,8.85-10.9,17.13-.44,2.43-1.18,6.51.92,10.49,2.77,5.23,8.45,6.76,10.13,7.11,5.39,1.1,10.01-2.21,17.69-7.69l.94-.67c.82-.59,1.61-1.17,2.37-1.75,8.56-6.56,19.06-9.99,29.53-9.67l3.54.11c3.01.1,5.78.2,8.38.29,13.39.48,22.23.8,34.05,0,13.69-.93,17.82-2.43,21.15-4.02,8.06-3.84,13.16-9.65,15.34-12.13,3.89-4.44,7.57-8.63,9.1-14.6,2.21-8.64-.57-18.66-4.31-23.69-1.37-1.84-2.8-2.93-3.93-2.98-.98-.03-1.76,1.19-3.35,4.24-1.73,3.33-4.1,7.88-9,12.1-10.27,8.85-23.11,9.17-46.4,9.74-5.78.14-9.37,0-12.85-.14-2.23-.09-4.39-.18-7.04-.18Z"/>
    </g>
  </g>
</svg>