<?xml version="1.0" encoding="UTF-8"?>
<svg id="Camada_2" data-name="Camada 2" xmlns="http://www.w3.org/2000/svg" viewBox="0 0 298.14 303.7">
  <defs>
    <style>
      .cls-1, .cls-2 {
        stroke: #000;
        stroke-linecap: round;
        stroke-linejoin: round;
        stroke-width: 5.34px;
      }

      .cls-1, .cls-3 {
        fill: #b7b7b7;
      }

      .cls-2 {
        fill: none;
      }
    </style>
  </defs>
  <g id="Camada_1-2" data-name="Camada 1">
    <g>
      <path class="cls-3" d="M45.11,129.12c-6.63,6.63-7.82,19.19-3.65,27.76,8.4,17.28,39.9,21.19,61.98,13.74,25.07-8.46,35.02-30.57,45.99-54.96,2.92-6.5,5.11-12.88,2.24-17.39-5.35-8.41-24.76-4.61-28.04-3.93-26.31,5.53-27.8,23.9-53.28,29.16-12.64,2.61-19.14-.49-25.24,5.61Z"/>
      <path class="cls-1" d="M27.72,135.85c-1.22,9.22-2.49,22.58-2.24,38.7.38,25.01.65,42.35,9.53,61.69,11.91,25.93,32.08,39.72,39.82,44.87,4.37,2.91,26.74,17.37,59.45,19.63,6.83.47,25.37,1.19,47.11-5.61,17.55-5.49,32.14-14.29,49.36-24.68,12.64-7.62,18.23-12.02,30.29-16.83,13.58-5.41,23.29-.67,29.73-7.85,4.65-5.18,6-13.54,3.37-19.07-4.59-9.62-23.05-14.31-43.75-5.05"/>
      <path class="cls-1" d="M147.75,153.24c2.42-1.91,6.38-4.56,11.78-6.17,1.74-.52,20.4-5.76,33.09,6.73,5.52,5.43,6.77,11.67,8.97,23.56,1.59,8.6,2.82,20.67,1.12,35.33,5.26-2.83,12.52-5.65,21.31-6.17,5.2-.31,11.76-.61,17.95,3.37,2.42,1.55,6.32,4.05,6.73,7.85.57,5.28-5.95,9.83-14.58,15.7-4.59,3.12-11.52,7.35-20.75,11.22"/>
      <g>
        <path class="cls-1" d="M107.77,138.11c27.81-11.02,46-34.29,43.25-58.95-.47-4.18-1.53-8.19-3.09-11.99C133.78,23.2,122.09,1.7,112.85,2.7c-5.7.62-10.47,9.8-14.31,27.53l2.61,1.97c-9.51-2.09-19.83-2.7-30.49-1.51-11.27,1.26-21.73,4.39-30.9,8.9l3.75-4.45c-7.65-16.45-14.33-24.35-20.03-23.7-9.28,1.06-15.97,24.81-20.06,71.24l.03-.03c-.78,4.26-.98,8.62-.49,13.02,3.28,29.36,35.08,50.26,72.71,49.02"/>
        <path class="cls-2" d="M56.01,116.75c1.53.58,5.77,1.96,10.75.51,7.88-2.3,10.86-9.73,11.21-10.66.55.83,5.08,7.42,13.28,7.92,5.17.32,9-1.96,10.37-2.87"/>
        <ellipse cx="40.25" cy="94.83" rx="8.27" ry="11.76" transform="translate(-10.27 5.05) rotate(-6.37)"/>
        <ellipse cx="109.43" cy="87.11" rx="8.27" ry="11.76" transform="translate(-8.98 12.67) rotate(-6.37)"/>
      </g>
      <path class="cls-1" d="M153.08,87.91c3.32-1.56,8.34-3.51,14.72-4.49,3.95-.6,9.18-1.35,15.7,0,8.86,1.83,14.66,6.41,17.67,8.83,3.24,2.61,7.31,5.9,10.1,11.78,1.67,3.53,3.89,8.21,2.24,13.6-1.43,4.68-5.45,8.82-10.24,10.1-5.24,1.4-8.29-1.45-18.09-3.79-5.22-1.24-9.22-2.05-14.16-1.96-10.08.18-17.69,4.31-20.33,5.89-9.85,5.86-14.53,14.16-16.26,17.67"/>
      <path class="cls-1" d="M86.9,148.47c15.38-5.42,32.28-4.27,47.4,1.45,18.16,6.88,40.89,20.43,39.93,42.68-.66,15.25-15,11.06-24.8,7.75-8.54-2.89-16.06-8.03-24.15-11.92-12.88-6.19-27.66-4.93-38.39,4.91"/>
      <path class="cls-1" d="M144.38,204.28c2.45-.88,15.97-5.47,29.16,1.68,9.34,5.06,13.42,13.25,15.14,16.83,5.45,11.33,4.07,21.9,3.37,25.8,12.79-1.17,22.93.22,29.73,1.68,9.31,2.01,12.25,4.15,14.02,6.73,4.36,6.36,1.27,14.97.56,16.83-9.54,5.64-18,9.09-24.12,11.22-14.35,4.99-24.66,8.58-35.33,4.49-6.06-2.32-9.75-6.17-15.14-11.78-8.01-8.33-12.59-16.79-15.14-22.43-2.06,2.02-5.38,4.76-10.1,6.73-8.6,3.6-16.42,2.38-19.63,1.68"/>
    </g>
  </g>
</svg>