<?xml version="1.0" encoding="UTF-8"?>
<svg id="Camada_2" data-name="Camada 2" xmlns="http://www.w3.org/2000/svg" viewBox="0 0 363.41 254.15">
  <defs>
    <style>
      .cls-1, .cls-2 {
        stroke: #000;
        stroke-linecap: round;
        stroke-linejoin: round;
        stroke-width: 5.29px;
      }

      .cls-1, .cls-3 {
        fill: #b7b7b7;
      }

      .cls-2 {
        fill: none;
      }
    </style>
  </defs>
  <g id="Camada_1-2" data-name="Camada 1">
    <g>
      <path class="cls-3" d="M67.15,55.83c-.66,3.91.16,8.86,16.32,27.47,25.13,28.95,43.7,49.78,68.29,49.96,7.02.05,7.63-1.63,16.21-1.2,23.22,1.17,30.5,14.07,39.21,10.61,12.06-4.78-.37-30.06,17.26-52.34,5.64-7.12,11.96-10.93,28.24-30,4.71-5.51,9.09-10.95,7.58-15.9-1.76-5.75-10.57-7.85-15.81-8.91-37.92-7.67-64.04,3.36-103.99-1.93-12.73-1.69-16.7-3.68-27.27-2.87-18.51,1.43-43.56,10.41-46.05,25.09Z"/>
      <path class="cls-1" d="M72.47,120.53c-.76,4.78-1.33,11.79.01,20,3.11,18.95,14.29,31.18,18.45,35.61,3.61,3.84,14.82,11.12,37.11,25.51,16.6,10.72,21.06,13.29,23.48,19.95,3.11,8.57-.36,15.12,5.55,22.9,1.07,1.4,5.32,6.99,11.4,7.02,8.03.04,13.06-9.65,13.95-11.48,1.08-2.22,3.87-8.8.99-21.13-4.55-19.51-18.23-31.72-20.57-33.75-8.9-7.74-13.86-8.03-40.99-25.37-2.75-1.76-7.45-4.84-10.63-10.7-3.86-7.13-3.41-14.59-2.76-18.85"/>
      <path class="cls-1" d="M206.56,11.97C217.43,2.47,232.29-.02,244.03,5.65c13.02,6.28,16.97,20.05,17.38,21.54,1.48,5.49,1.25,10.27.86,13.25"/>
      <g>
        <path class="cls-1" d="M211.46,95.64c-11.5,27.29-7.68,56.28,11.65,71.44,3.28,2.57,6.85,4.6,10.62,6.13,40.87,20.51,64.17,27.16,69.87,19.94,3.52-4.46.34-14.2-9.52-29.21l-3.2.47c8.07-5.27,15.66-12.14,22.21-20.49,6.93-8.83,11.97-18.39,15.14-28l.54,5.73c16.93,6,27.14,6.77,30.64,2.29,5.69-7.29-6.45-28.49-36.41-63.59v.04c-2.46-3.51-5.4-6.67-8.86-9.38-23.01-18.05-59.83-10.08-85.06,17.37"/>
        <path class="cls-2" d="M262.45,73.89c-1.48.68-5.39,2.71-7.81,7.24-3.84,7.17-.66,14.42-.25,15.31-.96-.19-8.77-1.55-14.81,3.89-3.82,3.43-4.86,7.72-5.17,9.31"/>
        <ellipse cx="288.86" cy="77.97" rx="8.19" ry="11.64" transform="translate(49.24 257.14) rotate(-51.89)"/>
        <ellipse cx="246.34" cy="132.19" rx="8.19" ry="11.64" transform="translate(-9.7 244.43) rotate(-51.89)"/>
      </g>
      <path class="cls-1" d="M119.14,41.8c7.34-6.63,21.98-18.05,43.71-24.04,7.93-2.19,29.16-7.75,55.09-.5,22.93,6.41,37.64,19.51,44.26,26.25"/>
      <path class="cls-1" d="M192.99,96.39c1.86-1.82,7.49-7.77,6.87-15.28-1.91-23.21-38.79-23.15-53.38-15.27-3.68,1.99-7.1,4.74-8.98,8.47-4.66,9.23,3.51,15.96,10.98,19.81,6.56,3.38,12.73,3.95,16.27,4.01-1.94,4.76-3.97,11.38-4.48,19.43-.47,7.36-.83,12.94,2.54,18.03,3.78,5.71,10.04,7.45,16.32,9.21,5.16,1.44,14.71,3.27,27.15.72"/>
      <path class="cls-1" d="M144.13,22.65c-1.85-2.17-8.58-9.51-19.92-11.31-11.64-1.85-20.85,4.15-27.76,8.57-8.68,5.55-14.2,12.2-17.37,16.72-2.92-2.95-9.08-8.36-18.59-11.22-6.06-1.83-11.22-3.84-16.95-1.65-7,2.67-10.06,9.48-10.89,11.55,3.33,4.31,7.39,8.99,12.29,13.74,6.95,6.73,13.81,11.85,19.76,15.7"/>
      <path class="cls-1" d="M127.4,88.33c-.03-3.57-.59-12.66-7.06-20.33-11.94-14.16-32.67-10.04-35.1-9.51-16.02,3.45-24.86,16.22-28.04,20.81-2.57,3.71-4.24,7.14-5.3,9.65-3.93-2.46-10.35-5.78-18.85-7.24-7.52-1.29-16.12-2.77-22.83,2.49-6.19,4.85-7.32,12.72-7.58,15.9,16.42,9.04,32.85,18.08,49.27,27.11,8.07-2.4,16.14-4.8,24.2-7.2,4.39,4.32,12.19,10.91,23.64,15.56,12.9,5.23,23.85,5.31,29.65,5.29,13.18-.04,23.89-3.15,31.05-5.95"/>
    </g>
  </g>
</svg>