<?xml version="1.0" encoding="UTF-8"?>
<svg id="Camada_2" data-name="Camada 2" xmlns="http://www.w3.org/2000/svg" viewBox="0 0 301.06 255.33">
  <defs>
    <style>
      .cls-1 {
        fill: #939393;
      }

      .cls-2 {
        fill: #b7b7b7;
      }
    </style>
  </defs>
  <g id="Camada_1-2" data-name="Camada 1">
    <g>
      <path class="cls-2" d="M82.28,155.72c-5,.51-47.33,5.14-53,20.47-.49,1.31-1.81,4.88-.42,8.41,1.7,4.34,6.85,6.98,16.83,8.83,15.1,2.81,25.34.84,40.39,0,6.54-.37,16.07-.64,27.76,0"/>
      <path class="cls-1" d="M54.43,171.97c-1.5-5.36-1.45-9.06-1.67-11.62-11.53,3.15-22.86,8.06-25.6,15.48-.49,1.31-1.81,4.88-.42,8.41,1.7,4.34,6.85,6.98,16.83,8.83,8.55,1.59,15.55,1.65,22.75,1.25.57-4.15-7.96-8.36-11.88-22.35Z"/>
      <path d="M59.32,196.42c-5.04,0-10.28-.38-16.25-1.49-10.86-2.02-16.34-5.03-18.32-10.07-1.67-4.24-.11-8.45.41-9.84,5.78-15.6,43.31-20.61,54.67-21.77,1.09-.13,2.08.69,2.19,1.79s-.69,2.08-1.79,2.19c-21.21,2.17-47.37,8.49-51.33,19.18-.42,1.14-1.54,4.17-.44,6.99,1.39,3.54,6.12,5.89,15.33,7.6,11.44,2.13,20.19,1.44,30.33.65,3.04-.24,6.18-.48,9.58-.68,9.16-.51,18.57-.51,27.98,0,1.1.06,1.95,1,1.89,2.11s-1,1.94-2.11,1.89c-9.26-.51-18.52-.51-27.54,0-3.37.19-6.48.43-9.5.67-5.21.41-10.07.79-15.12.79Z"/>
      <path class="cls-2" d="M145.52,72.11c5.61-2.44,14.34-5.99,26.08-6.31,3.77-.1,15.82-.08,29.45,6.31,7,3.28,23.48,11.02,30.29,29.02,1.79,4.74,6.16,16.32,1.26,26.92-6.21,13.42-20.59,10.81-26.08,23.56-5.09,11.82,4.61,20.27,0,29.02-3.98,7.55-16.89,3.55-28.53,3.77-1.45.03-2.89.12-4.28.31-1.8-.35-3.24-.25-4.41.16-.84,1.56-1.77,2.87-2.79,3.98s-2.11,2-3.28,2.73c-7.4,9.89-23.93,19.34-32.03,4.02-.31-.63-.6-1.3-.86-2.02-.26-.72-.49-1.49-.7-2.31-.28-.73-.54-1.51-.78-2.33-.38-.64-.69-1.31-.9-2.03-.21-.72-.32-1.5-.29-2.35-.98-.67-2.01-1.22-3.07-1.68-1.06-.45-2.13-.83-3.23-1.09-1.05-.51-2.09-.99-3.15-1.41-3.18-1.27-6.55-2.03-10.26-1.87-1.07-.23-2.15-.43-3.25-.61-3.28-.55-6.66-.92-10.18-1.21-1.01-.29-2.04-.58-3.12-.85-.8-.84-1.65-1.66-2.55-2.49-1.82-1.65-3.89-3.32-6.27-5.14-.97-.98-1.92-1.97-2.81-2.98-2.66-3.04-4.72-6.31-4.94-10.39-.19-.78-.36-1.54-.52-2.29-3.08-14.26-4.23-22.9-2.4-29.98,5.37-20.85,28.11-30.72,73.61-50.48Z"/>
      <path class="cls-2" d="M166.82,93.48c1.47-3.16,3.2-7.02,1.43-9.74-1.09-1.67-3.47-2.87-5.7-3.09,0,0-1.33-.12-2.7.2-.18-3.38-.74-6.69-1.66-9.89C149.1,26.14,139.95,3.7,130.74,3.67c-5.68-.02-11.38,8.49-17.11,25.52l2.35,2.23c-5.9-2-12.2-3.42-18.78-4.18.94.11,1.92-5.15,2.03-5.88.51-3.19-.14-6.57-1.84-9.32-1.18-1.91-3.16-3.65-5.39-3.42-2.56.26-4.93,2.94-5.67,5.28-.85,2.69-.56,5.66-.79,8.44-.03.3-.04.6-.06.89-.03.59-.03,1.15-.01,1.7-.08-.61-.18-1.2-.29-1.77-.06-.28-.12-.56-.18-.84-.42-1.74-.64-3.03-1.66-4.59-1.18-1.81-2.53-3.99-4.77-4.55s-4.32.54-5.65,2.21c-1.22,1.52-1.88,3.49-1.83,5.44.07,2.49,1.3,4.9,3.3,6.39-.41-.31-3.95.67-4.55.77-1.71.3-3.42.64-5.12,1.03-3.37.78-6.69,1.76-9.95,2.93l4.18-3.96C53.22,10.96,47.52,2.46,41.84,2.47c-9.25.03-18.44,22.66-27.56,67.89l.03-.03c-1.01,3.35-1.64,6.81-1.84,10.35-.99-.12-1.78-.04-1.78-.04-2.23.22-4.62,1.42-5.7,3.09-1.78,2.72-.04,6.58,1.43,9.74,1.66,3.58,5.1,9.47,12.36,15.21-1.39.32-4.85,1.27-5.47,3.56-.36,1.35.15,3.55,5.94,8.08,12.66,9.9,30.53,14.11,46.14,16.45,15.93,2.39,32.25,2.05,48.08-.89,14.09-2.61,29.05-6.59,40.52-15.57,5.79-4.53,6.3-6.73,5.94-8.08-.62-2.29-4.07-3.25-5.47-3.56,7.25-5.73,10.69-11.63,12.36-15.21Z"/>
      <ellipse class="cls-1" cx="83.68" cy="89.35" rx="53.25" ry="38.32"/>
      <g>
        <path class="cls-2" d="M72.57,141.9c-.1,2.06-.06,5.14.81,8.69,2.16,8.82,7.81,14.12,11.07,17.11,6.28,5.74,12.5,7.98,18.36,10.1,7.48,2.7,13.71,3.47,17.55,3.93"/>
        <path d="M120.36,183.72c-.07,0-.15,0-.22-.01-3.54-.42-10.14-1.2-17.96-4.02-5.83-2.1-12.43-4.48-19-10.48-3.02-2.76-9.32-8.51-11.66-18.12-.73-3.01-1.03-6.13-.87-9.29.06-1.1.98-1.94,2.02-1.89,1.06.06,1.88,1,1.82,2.1-.14,2.76.11,5.48.75,8.1,2.05,8.4,7.53,13.41,10.48,16.1,6,5.48,11.96,7.63,17.72,9.71,7.42,2.68,13.74,3.43,17.14,3.83,1.06.13,1.82,1.12,1.7,2.21-.11,1.02-.94,1.77-1.91,1.77Z"/>
      </g>
      <path d="M98.59,112.51c-1.01,0-2.07-.08-3.17-.27-5.7-.99-9.51-4.38-11.74-7.12-2.24,2.74-6.05,6.13-11.74,7.12-5.47.96-9.98-.8-12.18-1.94-1.3-.67-1.81-2.26-1.14-3.56.67-1.3,2.26-1.81,3.56-1.14,1.61.83,4.91,2.12,8.85,1.43,6.54-1.14,9.73-6.75,10.3-7.86.45-.88,1.36-1.43,2.35-1.43h0c.99,0,1.9.55,2.35,1.44.35.68,3.61,6.69,10.3,7.86,3.95.69,7.24-.6,8.85-1.43,1.3-.67,2.89-.16,3.56,1.14.67,1.3.16,2.89-1.14,3.56-1.76.91-4.99,2.21-9.01,2.21Z"/>
      <ellipse cx="47.87" cy="84.65" rx="8.19" ry="11.64"/>
      <ellipse cx="116.78" cy="84.65" rx="8.19" ry="11.64"/>
      <path class="cls-2" d="M223.34,107.39c-2.75-1.02-14.68-5.08-27.14.84-13.85,6.58-20.26,21.48-20.56,34.07-.35,14.92,7.79,29,20.97,36.6-8.92.07-16.32.87-21.79,1.68-8.34,1.24-11.35,2.4-13.98,4.63-5.46,4.63-6.47,11.43-6.58,12.2-.45,3.23,0,5.92.41,7.57,7.42.28,18.04.62,30.84.84,27.46.46,23.88-.34,43.58,0,29.18.5,33.47,2.16,40.29-2.52,10.89-7.47,14.73-21.79,16.45-28.18.63-2.33,1.09-4.57,1.42-6.71.34-2.14.55-4.18.67-6.11,1.36-4.89,2.27-9.88,2.75-14.91.44.2.97.41,1.63.61,2.33.71,5.69,1.73,7.49.11,1.12-1,1.05-2.59,1.2-4.14.36-3.73-1.25-6.62-3.47-10.47-1.19-2.06-2.99-4.83-5.64-7.81.96-.24,2.2-.72,2.95-1.82,1.57-2.29.09-5.83-2.1-10.09-2.4-4.67-4.95-9.28-7.96-13.58s-6.81-8.02-9.91-12.29c-2.39-3.29-5.03-6.39-7.9-9.26.13-.1.26-.2.39-.31,2.54-2.13,6.2-5.2,5.7-8.47-.31-2.02-2.17-3.13-3.83-4.46-3.99-3.18-8.48-3.49-14.52-3.83-3.23-.18-7.73-.18-13.1.62.44-1.27.81-3.05.12-4.72-1.44-3.49-6.59-4.44-13.07-5.11-24.67-2.55-48.3,5.47-71.16,13.68"/>
      <path class="cls-1" d="M179.07,179.41c-2.34.25-4.48.53-6.38.81-8.34,1.24-11.35,2.4-13.98,4.63-5.46,4.63-6.47,11.43-6.58,12.2-.45,3.23,0,5.92.41,7.57,7.42.28,18.04.62,30.84.84,3.27.06,6.09.09,8.57.12-2.99-3.51-8.29-8.5-11.25-17.85-1.07-3.4-1.44-6.11-1.64-8.31Z"/>
      <path d="M84.46,139.9c-7.24,0-14.46-.54-21.62-1.61-13.56-2.03-33.19-5.99-47.07-16.85-5.43-4.25-7.41-7.29-6.64-10.17.42-1.55,1.59-2.83,3.44-3.78-4.45-4.04-7.88-8.61-10.21-13.63-1.48-3.17-3.71-7.97-1.29-11.68,1.37-2.1,4.26-3.7,7.19-3.99.02,0,.06,0,.12-.01.29-2.88.85-5.76,1.68-8.58,0-.03.01-.06.02-.1C22.63,7.24,32.94.02,39.59,0h.02c6.79,0,12.82,8.54,18.99,26.88.06.18.1.37.1.56,1.1-.3,2.21-.58,3.32-.84,1.72-.4,3.48-.75,5.23-1.06.13-.02.39-.09.72-.17.09-.02.19-.04.28-.07-.86-1.48-1.36-3.17-1.41-4.9-.07-2.41.76-4.87,2.27-6.75,1.96-2.43,4.98-3.57,7.7-2.89,2.27.56,3.8,2.26,4.94,3.87.11-.61.25-1.22.44-1.82.94-2.96,3.84-6.3,7.37-6.66,2.73-.28,5.45,1.35,7.3,4.36,1.93,3.13,2.7,7.03,2.11,10.69-.26,1.65-.56,2.95-.86,3.96,3.94.58,7.81,1.39,11.56,2.44,6.11-18,12.1-26.39,18.82-26.39h.02c6.62.02,16.87,7.17,29.37,68.81.76,2.68,1.28,5.41,1.55,8.14.57,0,.97.02,1.05.03,2.93.28,5.82,1.88,7.19,3.99,2.42,3.71.19,8.5-1.29,11.68h0c-2.33,5.02-5.76,9.59-10.21,13.63,1.85.95,3.02,2.22,3.44,3.78.77,2.88-1.21,5.93-6.64,10.17-12.31,9.63-28.58,13.59-41.39,15.96-9.02,1.67-18.09,2.51-27.12,2.51ZM9.11,82.15c-.29,0-.47.02-.48.02-1.69.16-3.5,1.11-4.21,2.19-1.21,1.85.4,5.29,1.56,7.81,2.52,5.42,6.49,10.3,11.78,14.48.6.48.88,1.26.71,2.01-.17.75-.76,1.34-1.51,1.51-2.51.57-3.8,1.48-3.98,2.13-.04.16-.26,1.68,5.24,5.99,13.14,10.28,32.09,14.08,45.2,16.05,15.66,2.35,31.62,2.05,47.42-.88,12.35-2.29,28.03-6.08,39.65-15.17,5.5-4.3,5.28-5.83,5.24-5.99-.17-.65-1.47-1.56-3.98-2.13-.75-.17-1.34-.76-1.51-1.51-.17-.75.11-1.53.71-2.01,5.3-4.19,9.26-9.06,11.78-14.48,1.17-2.52,2.77-5.96,1.56-7.81-.71-1.09-2.52-2.03-4.22-2.19h0s-1.03-.08-2.04.16c-.58.14-1.19.01-1.66-.34-.48-.36-.77-.9-.8-1.5-.17-3.17-.7-6.35-1.58-9.45-.01-.05-.03-.1-.04-.15-11.58-57.12-20.93-65.67-25.48-65.68h0c-2.59,0-7.92,3.02-14.79,22.95l1.42,1.34c.68.65.82,1.68.33,2.49-.49.8-1.46,1.16-2.35.86-5.83-1.98-12.01-3.36-18.37-4.09-1.1-.13-1.88-1.12-1.76-2.21.07-.62.42-1.14.91-1.46.38-.87.93-3.19,1.14-4.51.44-2.73-.14-5.63-1.57-7.96-.76-1.23-2.12-2.6-3.49-2.48-1.62.17-3.42,2.19-3.96,3.89-.5,1.57-.54,3.34-.58,5.21-.02.92-.04,1.86-.12,2.8-.02.28-.04.55-.05.82-.02.53-.03,1.05-.01,1.55.03,1.07-.78,1.97-1.84,2.05-1.07.08-2-.68-2.14-1.74-.07-.56-.16-1.11-.27-1.63-.05-.26-.11-.52-.17-.77l-.13-.54c-.33-1.39-.54-2.32-1.26-3.42l-.13-.21c-1.01-1.55-2.05-3.15-3.44-3.5-1.48-.37-2.87.59-3.61,1.52-.92,1.15-1.43,2.66-1.39,4.13.05,1.91.99,3.72,2.5,4.85.88.66,1.06,1.91.4,2.8-.49.66-1.3.92-2.06.75-.61.06-2.17.43-2.78.58-.45.11-.81.19-.97.22-1.67.29-3.36.63-5.01,1.01-3.33.77-6.6,1.74-9.72,2.86-.89.32-1.88-.02-2.38-.83-.5-.81-.36-1.85.33-2.5l3.25-3.08c-6.87-19.93-12.19-22.95-14.79-22.95h0c-4.56.01-13.94,8.61-25.54,65.97,0,.16-.03.32-.08.47-.98,3.24-1.57,6.57-1.75,9.89-.03.55-.29,1.06-.71,1.42-.42.36-.98.52-1.52.46-.34-.04-.65-.05-.89-.05ZM164.57,93.01h0,0ZM70.95,28.35s0,0,0,0t0,0ZM70.94,28.35s0,0,0,0c0,0,0,0,0,0Z"/>
      <path d="M253.85,208.04c-2.74,0-6.05-.11-10.22-.25-4.43-.15-9.95-.33-16.81-.45-9.01-.16-13.18-.07-17.6.02-5.2.11-11.1.23-25.98-.02-10.28-.17-20.67-.46-30.88-.84-.89-.03-1.65-.65-1.87-1.52-.68-2.76-.84-5.56-.45-8.33.19-1.38,1.44-8.51,7.26-13.45,3.12-2.65,6.62-3.84,14.98-5.08,5.18-.77,10.48-1.28,15.81-1.53-10.73-8.41-17.01-21.26-16.69-34.81.28-11.9,6.13-28.43,21.7-35.83,12.31-5.85,24.16-2.59,28.69-.91,1.04.38,1.56,1.54,1.18,2.57-.38,1.04-1.54,1.56-2.57,1.18-4.05-1.5-14.65-4.43-25.58.77-13.93,6.62-19.17,21.55-19.42,32.31-.33,14.18,7.32,27.53,19.97,34.82.78.45,1.17,1.37.93,2.24-.23.87-1.02,1.48-1.92,1.49-7.26.06-14.49.62-21.51,1.66-8.31,1.24-10.81,2.33-12.98,4.17-4.71,4-5.73,9.82-5.89,10.95-.25,1.77-.22,3.57.07,5.36,9.68.35,19.51.62,29.23.78,14.81.25,20.66.13,25.83.02,4.46-.09,8.67-.18,17.75-.02,6.89.12,12.43.3,16.88.45,14.2.47,17.58.58,22.25-2.62,10.28-7.05,14.04-21.07,15.65-27.05.57-2.14,1.04-4.33,1.38-6.5.3-1.94.52-3.93.65-5.93,0-.14.03-.28.07-.41,1.31-4.72,2.22-9.62,2.69-14.56.06-.65.43-1.22,1-1.54.56-.32,1.25-.35,1.83-.08.42.19.87.36,1.38.52,1.61.49,4.61,1.4,5.58.54.35-.31.42-1.19.49-2.11.02-.24.04-.49.06-.73.29-3.02-.97-5.38-3.21-9.28-1.52-2.64-3.33-5.16-5.4-7.47-.47-.52-.62-1.25-.42-1.92.21-.67.75-1.18,1.43-1.35.87-.21,1.47-.55,1.78-1.01.96-1.39-.51-4.69-2.23-8.04-1.96-3.82-4.62-8.78-7.82-13.35-1.53-2.19-3.32-4.27-5.05-6.29-1.63-1.9-3.32-3.87-4.84-5.97-2.34-3.23-4.93-6.26-7.69-9.02-.4-.4-.61-.95-.58-1.52.03-.57.3-1.09.74-1.45l.37-.29c1.99-1.67,5.34-4.48,5.01-6.63-.13-.86-.96-1.55-2.32-2.59-.26-.2-.52-.4-.78-.61-3.4-2.71-7.3-3.06-13.39-3.4-4.19-.23-8.46-.03-12.69.6-.69.11-1.39-.16-1.84-.7-.45-.54-.58-1.27-.35-1.94.46-1.32.52-2.43.16-3.3-1.07-2.6-6.46-3.37-11.43-3.88-23.3-2.41-45.62,4.72-70.28,13.57-1.04.37-2.19-.17-2.56-1.21s.17-2.19,1.21-2.56c25.14-9.02,47.9-16.29,72.05-13.78,6.66.69,12.8,1.69,14.71,6.33.4.97.58,2.03.53,3.15,3.58-.39,7.17-.48,10.71-.28,5.95.33,11.09.62,15.66,4.26.24.19.48.37.72.55,1.54,1.18,3.46,2.65,3.85,5.16.57,3.76-2.48,6.92-5.14,9.23,2.34,2.48,4.55,5.14,6.58,7.94,1.43,1.97,3.06,3.87,4.64,5.71,1.79,2.09,3.65,4.26,5.29,6.6,3.34,4.77,6.08,9.89,8.1,13.82,2.32,4.52,4.22,8.85,1.97,12.13-.37.54-.83,1.01-1.38,1.41,1.54,1.93,2.93,3.97,4.15,6.09,2.23,3.87,4.15,7.22,3.73,11.66-.02.22-.04.43-.05.65-.11,1.52-.26,3.41-1.81,4.79-2.44,2.18-6.08,1.3-8.75.51-.53,4.25-1.36,8.45-2.48,12.52-.13,2.05-.36,4.1-.67,6.09-.36,2.32-.86,4.64-1.47,6.92-1.72,6.41-5.74,21.43-17.25,29.31-4.15,2.84-7.38,3.57-14.43,3.57Z"/>
      <path class="cls-2" d="M108.71,169.21c-5.17.51-39.98,4.04-45.84,19.36-.5,1.31-1.87,4.88-.43,8.41,1.76,4.34,7.07,6.98,17.37,8.83,15.59,2.81,26.17.84,41.71,0,6.75-.37,15.72-1.1,29.47-2.97"/>
      <path class="cls-1" d="M88.27,183.59c-1.53-5.16-1.54-8.77-1.75-11.31-10.87,2.77-22.59,7.61-25.77,15.93-.5,1.31-1.87,4.88-.43,8.41,1.76,4.34,7.07,6.98,17.37,8.83,8.61,1.55,15.68,1.64,22.91,1.28,2-4.44-7.93-8.26-12.33-23.14Z"/>
      <path d="M93.97,208.8c-5.2,0-10.6-.38-16.76-1.49-11.19-2.01-16.83-5.02-18.87-10.05-1.73-4.26-.11-8.49.42-9.88,5.71-14.95,35.13-19.41,47.51-20.64,1.11-.11,2.08.69,2.19,1.79.11,1.1-.69,2.08-1.79,2.19-9.08.9-39.11,4.86-44.17,18.09-.43,1.13-1.59,4.14-.45,6.95,1.44,3.55,6.34,5.9,15.87,7.62,11.83,2.13,20.88,1.44,31.35.65,3.13-.24,6.38-.48,9.89-.67,5.44-.29,14.39-.92,29.3-2.95,1.08-.16,2.1.62,2.25,1.71.15,1.09-.62,2.1-1.71,2.25-15.06,2.05-24.12,2.69-29.63,2.98-3.48.19-6.69.43-9.81.67-5.38.41-10.39.79-15.6.79Z"/>
      <g>
        <path class="cls-2" d="M297.17,177.87c-.63-2.11-1.46-4.22-2.59-6.14,2.19,5.51,3.54,11.42,4.07,17.41.31-3.91-.36-7.5-1.48-11.28Z"/>
        <path class="cls-1" d="M287.79,166.01c-4.81-.2-4.59,8.94-13.74,16.83-9.73,8.39-22.32,8.69-45.15,9.25-13.15.32-15.07-.87-29.45,0-16.14.97-22.71,3.01-26.08,4.21-6.31,2.24-12.06,5.8-17.96,8.9-8.65,4.56-19.46,9.61-23.18,19.33-1.06,2.77-2.94,6.06-1.43,9.15,2.13,4.35,8.72,4.51,9.15,4.51-.54.89-2.25,3.98-1.66,8.08.14,1.01.64,4.83,3.09,6.53,3.28,2.28,9.79.59,14.97-5.23.25.8.81,2.21,2.14,3.33,2.29,1.93,5.19,1.59,6.53,1.43,3.46-.41,5.86-2.58,8.2-4.87,3.56-3.48,6.41-7.6,9.77-11.26,5.46-5.93,13.26-9.42,21.33-9.17,1.15.04,2.33.07,3.54.11,18.71.61,28.42,1.24,42.63.28.58-.04,1.12-.08,1.66-.12-.26,1.62-.37,3.42.71,4.59,1.82,1.99,6.7,1.32,9.06.96,3.09-.47,6.22-1.65,8.32-4.05,1.63-1.85,2.03-4.11,2.11-5.59.14-.07.27-.14.41-.21.95,1.16,3.17,3.45,6.27,3.54,5.26.16,8.03-4.87,10.12-8.92,2.74-5.33,4.88-10.95,6.74-16.64,1.17-3.59,2.24-7.23,2.67-10.98.03-.29.05-.57.07-.86-.53-6-1.88-11.91-4.07-17.41-.81-1.38-1.77-2.66-2.93-3.77-1.05-1-2.37-1.9-3.86-1.96Z"/>
      </g>
      <path d="M142.64,255.33c-1.73,0-3.32-.44-4.64-1.35-2.07-1.44-3.39-4.08-3.92-7.84-.38-2.68.04-4.98.66-6.75-2.63-.52-6.28-1.86-7.97-5.31-1.68-3.43-.28-6.79.84-9.48.18-.43.35-.85.51-1.26,3.73-9.75,13.59-14.89,22.28-19.43l1.83-.96c1.45-.76,2.89-1.55,4.33-2.35,4.42-2.42,8.99-4.93,13.89-6.67,4.29-1.52,11.19-3.39,26.63-4.32,8.23-.5,12.46-.33,16.93-.15,3.42.14,6.94.28,12.59.14,22.38-.55,34.7-.85,43.89-8.77,4.32-3.72,6.4-7.71,8.07-10.92,1.83-3.51,3.44-6.56,7.06-6.39,1.74.07,3.48.92,5.16,2.51,2.66,2.53,4.64,6.05,6.06,10.78h0c1.5,5.02,1.95,8.89,1.48,12.93-.45,3.98-1.59,7.82-2.76,11.38-2.2,6.72-4.38,12.1-6.87,16.94-1.96,3.82-5.28,10.23-11.96,10-2.11-.06-3.88-.9-5.25-1.89-.44,1.31-1.11,2.48-1.98,3.47-2.16,2.46-5.46,4.09-9.53,4.71-3.83.58-8.53.93-10.84-1.59-1.04-1.13-1.36-2.54-1.41-3.78-11.7.76-20.55.45-33.82-.03-2.59-.09-5.36-.19-8.37-.29l-3.53-.11c-7.42-.24-14.6,2.88-19.79,8.53-1.37,1.49-2.7,3.12-3.98,4.68-1.83,2.24-3.72,4.55-5.87,6.65-2.65,2.59-5.35,4.95-9.36,5.43-1.53.18-5.1.61-8.06-1.88-.52-.44-.98-.94-1.39-1.49-3.51,3.13-7.5,4.86-10.94,4.86ZM206.82,193.29c-2.55,0-5.55.08-9.49.32-16.85,1.01-23.16,3.25-25.53,4.09-4.59,1.63-9.02,4.06-13.3,6.41-1.46.8-2.93,1.61-4.4,2.38l-1.85.97c-8.06,4.21-17.2,8.97-20.39,17.31-.17.44-.36.9-.55,1.37-.94,2.26-1.83,4.39-.94,6.19,1.34,2.74,5.77,3.38,7.37,3.39.72,0,1.38.4,1.73,1.02.35.63.34,1.39-.03,2.01-.71,1.18-1.84,3.63-1.4,6.77.47,3.32,1.48,4.64,2.25,5.17,2.38,1.65,7.9.07,12.34-4.91.48-.54,1.22-.78,1.92-.62.71.15,1.27.67,1.49,1.37.21.68.64,1.65,1.52,2.39,1.63,1.37,3.83,1.11,5.01.97,2.77-.33,4.74-2.07,7.04-4.31,1.99-1.94,3.72-4.07,5.57-6.32,1.32-1.61,2.68-3.28,4.13-4.86,5.98-6.5,14.31-10.07,22.86-9.82l3.54.11c3,.1,5.78.2,8.38.29,13.39.48,22.23.79,34.05,0,.46-.03.89-.06,1.32-.1l.33-.02c.61-.05,1.21.19,1.62.64s.6,1.07.5,1.67c-.16.99-.31,2.37.21,2.93.43.48,1.96,1.15,7.29.34,2.18-.33,5.19-1.19,7.12-3.39.97-1.1,1.51-2.58,1.62-4.39.04-.73.48-1.37,1.13-1.69l.39-.2c.84-.41,1.84-.19,2.43.53.83,1.02,2.56,2.74,4.78,2.81,3.87.11,6.13-3.64,8.29-7.84,2.39-4.64,4.49-9.83,6.62-16.35,1.1-3.36,2.17-6.96,2.59-10.59.4-3.47,0-6.86-1.34-11.33h0c-1.21-4.04-2.84-6.99-4.98-9.03-.96-.91-1.82-1.38-2.57-1.41-.99-.07-1.76,1.19-3.35,4.24-1.73,3.33-4.1,7.88-9,12.1-10.27,8.85-23.11,9.17-46.4,9.74-5.77.14-9.37,0-12.85-.14-2.23-.09-4.39-.18-7.04-.18Z"/>
    </g>
  </g>
</svg>