<?xml version="1.0" encoding="UTF-8"?>
<svg id="Camada_2" data-name="Camada 2" xmlns="http://www.w3.org/2000/svg" viewBox="0 0 291.93 247.2">
  <defs>
    <style>
      .cls-1 {
        fill: #848484;
      }

      .cls-2, .cls-3, .cls-4, .cls-5 {
        stroke: #000;
        stroke-linecap: round;
        stroke-linejoin: round;
      }

      .cls-2, .cls-3, .cls-4, .cls-6 {
        fill: #b7b7b7;
      }

      .cls-2, .cls-5 {
        stroke-width: 5.29px;
      }

      .cls-3 {
        stroke-width: 5.23px;
      }

      .cls-4 {
        stroke-width: 5.37px;
      }

      .cls-5 {
        fill: none;
      }
    </style>
  </defs>
  <g id="Camada_1-2" data-name="Camada 1">
    <g>
      <path class="cls-6" d="M135.77,72.29c5.61-2.44,14.34-5.99,26.08-6.31,3.77-.1,15.82-.08,29.45,6.31,7,3.28,23.48,11.02,30.29,29.02,1.79,4.74,6.16,16.32,1.26,26.92-6.21,13.42-20.59,10.81-26.08,23.56-5.09,11.82,4.61,20.27,0,29.02-3.98,7.55-16.89,3.55-28.53,3.77-1.45.03-2.89.12-4.28.31-1.8-.35-3.24-.25-4.41.16-.84,1.56-1.77,2.87-2.79,3.98s-2.11,2-3.28,2.73c-7.4,9.89-23.93,19.34-32.03,4.02-.31-.63-.6-1.3-.86-2.02-.26-.72-.49-1.49-.7-2.31-.28-.73-.54-1.51-.78-2.33-.38-.64-.69-1.31-.9-2.03-.21-.72-.32-1.5-.29-2.35-.98-.67-2.01-1.22-3.07-1.68-1.06-.45-2.13-.83-3.23-1.09-1.05-.51-2.09-.99-3.15-1.41-3.18-1.27-6.55-2.03-10.26-1.87-1.07-.23-2.15-.43-3.25-.61-3.28-.55-6.66-.92-10.18-1.21-1.01-.29-2.04-.58-3.12-.85-.8-.84-1.65-1.66-2.55-2.49-1.82-1.65-3.89-3.32-6.27-5.14-.97-.98-1.92-1.97-2.81-2.98-2.66-3.04-4.72-6.31-4.94-10.39-.19-.78-.36-1.54-.52-2.29-3.08-14.26-4.23-22.9-2.4-29.98,5.37-20.85,28.11-30.72,73.61-50.48Z"/>
      <path class="cls-2" d="M72.53,155.9c-5,.51-47.33,5.14-53,20.47-.49,1.31-1.81,4.88-.42,8.41,1.7,4.34,6.85,6.98,16.83,8.83,15.1,2.81,25.34.84,40.39,0,6.54-.37,16.07-.64,27.76,0"/>
      <path class="cls-3" d="M213.58,107.56c-2.75-1.02-14.68-5.08-27.14.84-13.85,6.58-20.26,21.48-20.56,34.07-.35,14.92,7.79,29,20.97,36.6-8.92.07-16.32.87-21.79,1.68-8.34,1.24-11.35,2.4-13.98,4.63-5.46,4.63-6.47,11.43-6.58,12.2-.45,3.23,0,5.92.41,7.57,7.42.28,18.04.62,30.84.84,27.46.46,23.88-.34,43.58,0,29.18.5,33.47,2.16,40.29-2.52,10.89-7.47,14.73-21.79,16.45-28.18.63-2.33,1.09-4.57,1.42-6.71s.55-4.18.67-6.11c8.66-31.16-.78-66.57-25.04-87.45-2.14-1.81-4.31-3.43-6.5-4.87-13.16-8.66-27.31-11.12-35.93-12.63-29.51-5.18-53.17,4.26-62.91,8.83"/>
      <path class="cls-2" d="M62.9,143.98c-.11,2.06-.06,5.14.84,8.69,2.24,8.82,8.11,14.12,11.5,17.11,6.53,5.74,12.98,7.98,19.07,10.1,7.77,2.7,14.24,3.47,18.23,3.93"/>
      <path class="cls-4" d="M98.96,169.38c-5.17.51-39.98,4.04-45.84,19.36-.5,1.31-1.87,4.88-.43,8.41,1.76,4.34,7.07,6.98,17.37,8.83,15.59,2.81,26.17.84,41.71,0,6.75-.37,15.72-1.1,29.47-2.97"/>
      <g>
        <path class="cls-2" d="M101.13,136.52c28.57-7.79,49.02-28.69,49.02-53.25,0-4.17-.61-8.23-1.72-12.14C139.34,26.31,130.2,3.87,120.99,3.85c-5.68-.02-11.38,8.49-17.11,25.52l2.35,2.23c-9.12-3.1-19.21-4.83-29.83-4.83-11.22,0-21.86,1.93-31.38,5.37l4.18-3.96C43.47,11.14,37.77,2.63,32.09,2.64c-9.25.03-18.44,22.66-27.56,67.89l.03-.03c-1.24,4.1-1.91,8.37-1.91,12.76,0,29.24,28.99,53.3,66.16,56.21"/>
        <path class="cls-5" d="M51.21,108.12c1.44.74,5.46,2.57,10.52,1.68,8.01-1.4,11.75-8.38,12.2-9.25.45.87,4.19,7.86,12.2,9.25,5.06.88,9.07-.94,10.52-1.68"/>
        <ellipse cx="38.11" cy="84.82" rx="8.19" ry="11.64"/>
        <ellipse cx="107.02" cy="84.82" rx="8.19" ry="11.64"/>
      </g>
      <path class="cls-6" d="M275.56,197.29c2.96,2.08,6.15,3.77,9.45,5.26,1.33-2.16,2.43-4.5,3.12-7.21,3.33-13-3.81-28.9-10.1-29.16-4.81-.2-4.59,8.94-13.74,16.83-.22.19-.44.37-.67.55,1.38,1.89,2.78,3.77,4.19,5.64,2.33,2.94,4.84,5.71,7.74,8.09Z"/>
      <path class="cls-6" d="M163.62,196.47c-1.14.4-2.22.83-3.27,1.27,3.66,7.57,8.06,14.75,13.12,21.47,2.62,3.32,5.4,6.5,8.33,9.54,2.35-.65,4.76-1.1,7.2-1.34-4.6-11.03-8.18-22.42-10.49-34.14-8.28,1.03-12.45,2.34-14.9,3.21Z"/>
      <path class="cls-6" d="M210.07,192.25c-3.99-.12-7.03-.33-11.44-.31,2.13,9.65,5.12,19.11,8.89,28.25,1.11,2.55,2.28,5.08,3.51,7.57,5.53.19,10.31.33,15.01.33-2.08-3.61-3.93-7.36-5.68-11.12-3.77-8.1-7.07-16.4-10.29-24.73Z"/>
      <path class="cls-6" d="M254.95,204.93c-3.73-4.51-7.2-9.25-10.6-14.03-3.86.51-8.17.8-13.05,1,1.13,2.85,2.27,5.7,3.46,8.53,3.49,8.21,7.27,16.6,12.57,23.79.73.88,1.5,1.73,2.3,2.54,6.89-.88,10.15-2.03,12.99-3.38,3.35-1.59,6.18-3.49,8.55-5.38-6.19-3.28-11.73-7.65-16.21-13.07Z"/>
      <path class="cls-6" d="M142.59,208.8c-4.14,3.9-9.91,9.48-11.5,18.23-.51,2.82-1.26,7.28,1.12,11.78,3.34,6.32,10.29,7.88,11.5,8.13,6.4,1.31,11.68-2.61,19.88-8.47-8.08-9.13-14.99-19.36-20.32-30.29-.29.26-.52.48-.68.62Z"/>
      <path class="cls-1" d="M174.18,220.14c-.24-.31-.47-.63-.71-.95-.28-.36-.57-.71-.86-1.08l1.56,2.02Z"/>
      <path class="cls-1" d="M174.18,220.14l-1.56-2.02c.28.36.57.72.86,1.08-5.06-6.71-9.46-13.9-13.12-21.47-9.19,3.8-14.94,8.53-17.08,10.45,5.33,10.94,12.24,21.17,20.32,30.29.11-.08.21-.15.31-.22.84-.6,1.65-1.2,2.43-1.79,4.66-3.57,9.91-6.19,15.48-7.72-2.93-3.04-5.71-6.23-8.33-9.54.24.31.47.63.71.95Z"/>
      <path class="cls-1" d="M208,221.36c-.34-.8-.67-1.59-1.01-2.39.17.41.36.81.54,1.22-3.78-9.15-6.76-18.6-8.89-28.25-2.43.01-5.28.1-8.93.32-4.4.27-8.07.61-11.18,1,2.31,11.72,5.89,23.11,10.49,34.14,1.84-.18,3.7-.25,5.57-.19,1.15.04,2.33.07,3.54.11,4.83.16,9.05.32,12.92.45-1.23-2.5-2.4-5.02-3.51-7.57.16.39.31.78.47,1.17Z"/>
      <path class="cls-1" d="M208,221.36c-.16-.39-.31-.78-.47-1.17-.18-.41-.36-.81-.54-1.22.34.8.67,1.59,1.01,2.39Z"/>
      <path class="cls-1" d="M247.32,224.22c.25.34.48.69.74,1.02l-1.56-2.02c.27.34.55.67.83,1-5.3-7.19-9.08-15.58-12.57-23.79.09.21.17.41.26.62-.34-.8-.67-1.59-1.01-2.39.25.59.5,1.18.75,1.77-1.18-2.83-2.33-5.68-3.46-8.53-3.7.15-7.73.25-12.15.36-3.76.09-6.6.06-9.08-.01,3.22,8.33,6.52,16.63,10.29,24.73,1.75,3.76,3.6,7.51,5.68,11.12,4.74,0,9.41-.14,14.7-.5,3.53-.24,6.43-.52,8.88-.83-.81-.81-1.57-1.66-2.3-2.54Z"/>
      <path class="cls-1" d="M235.01,201.05c-.09-.21-.17-.41-.26-.62-.25-.59-.5-1.18-.75-1.77.34.8.67,1.59,1.01,2.39Z"/>
      <path class="cls-1" d="M248.06,225.24c-.26-.33-.49-.68-.74-1.02-.28-.33-.56-.66-.83-1l1.56,2.02Z"/>
      <path class="cls-1" d="M284.99,202.57c.65.27,1.3.55,1.95.82-.51-.22-1.02-.44-1.53-.66-.14-.06-.28-.11-.42-.17,0,0,0,0,0,0Z"/>
      <path class="cls-1" d="M285.41,202.73c-.14-.06-.27-.12-.41-.18,0,0,0,.01-.01.02.14.06.28.11.42.17Z"/>
      <path class="cls-1" d="M278.6,210.77c2.31-2.63,4.57-5.24,6.39-8.19-.15-.06-.29-.12-.44-.19.15.06.3.12.44.18,0,0,0-.01.01-.02-3.3-1.48-6.49-3.18-9.45-5.26.27.22.53.47.81.68-.67-.52-1.35-1.04-2.02-1.56.4.3.81.59,1.21.88-2.9-2.38-5.41-5.15-7.74-8.09.35.46.69.92,1.05,1.38-.52-.67-1.04-1.35-1.56-2.02.17.22.35.43.52.64-1.42-1.86-2.82-3.74-4.19-5.64-5.22,4.24-11.28,6.28-19.28,7.34,3.4,4.78,6.87,9.53,10.6,14.03,4.49,5.42,10.03,9.79,16.21,13.07,3.48-2.78,5.94-5.53,7.44-7.23Z"/>
      <path class="cls-1" d="M268.86,190.58c-.35-.46-.7-.92-1.05-1.38-.17-.22-.35-.42-.52-.64.52.67,1.04,1.35,1.56,2.02Z"/>
      <path class="cls-1" d="M284.55,202.39c.15.06.29.12.44.19,0,0,0,0,0,0-.15-.06-.3-.12-.44-.18Z"/>
      <path class="cls-1" d="M276.37,197.98c-.28-.22-.54-.46-.81-.68-.41-.29-.82-.58-1.21-.88.67.52,1.35,1.04,2.02,1.56Z"/>
      <path d="M146.49,247.02c-.98,0-1.98-.1-3.01-.31-2.18-.45-9.59-2.46-13.3-9.49-2.85-5.4-1.9-10.66-1.38-13.49,1.77-9.79,8.35-15.98,12.29-19.68,2.62-2.47,10.01-8.67,21.96-12.91,4.33-1.54,11.29-3.42,26.81-4.35,8.27-.5,12.5-.33,16.99-.15,3.4.14,6.92.28,12.55.14,22.23-.54,34.47-.85,43.49-8.61,4.22-3.64,6.27-7.57,7.92-10.73,1.85-3.55,3.6-6.89,7.66-6.73h0c2.61.11,5.19,1.79,7.46,4.85,4.49,6.05,7.68,17.47,5.08,27.62-1.8,7.05-6.02,11.86-10.11,16.51-2.37,2.7-7.91,9.02-16.84,13.27-4.51,2.15-9.69,3.57-22.83,4.46-12.05.82-20.99.5-34.51.02-2.6-.09-5.37-.19-8.38-.29l-3.53-.11c-9.43-.29-18.85,2.81-26.56,8.71-.8.61-1.63,1.23-2.5,1.85l-.94.67c-6.97,4.98-12.27,8.77-18.31,8.77ZM199.61,191.75c-2.54,0-5.53.08-9.45.32-16.76,1.01-23,3.23-25.36,4.06-11,3.91-17.72,9.53-20.1,11.77-3.68,3.47-9.24,8.7-10.71,16.77-.43,2.35-1.14,6.29.86,10.07,2.63,4.98,8.08,6.45,9.69,6.78,5.1,1.05,9.65-2.2,17.18-7.58l.94-.67c.82-.58,1.6-1.16,2.35-1.74,8.68-6.65,19.33-10.13,29.94-9.8l3.54.11c3.01.1,5.79.2,8.39.29,13.36.48,22.18.79,33.96,0,13.58-.92,17.64-2.4,20.92-3.96,7.94-3.78,12.98-9.52,15.13-11.98,3.84-4.38,7.47-8.51,8.96-14.33,2.16-8.45-.55-18.23-4.2-23.15-1.46-1.96-2.73-2.69-3.44-2.72h0s-.01,0-.02,0c-.71,0-1.69,1.89-2.73,3.89-1.76,3.37-4.16,7.99-9.15,12.29-10.45,9-23.36,9.32-46.81,9.89-5.8.14-9.4,0-12.89-.14-2.22-.09-4.37-.18-7.01-.18Z"/>
      <path class="cls-1" d="M67.97,29.59c1.19,9.15,4.27,30.6,7.71,30.53,3.44-.06,5.65-21.68,6.47-30.86"/>
      <path class="cls-1" d="M197.68,58.63c-3.83,14.36-5.02,21.79-3.58,22.3,1.51.53,5.91-6.55,13.21-21.24"/>
      <path class="cls-1" d="M215.28,60.94c-3.83,14.36-4.95,23.19-3.51,23.7,1.51.53,5.91-6.55,13.21-21.24"/>
      <path class="cls-1" d="M233.28,65.96c-3.83,14.36-6.19,25.08-4.75,25.59,1.51.53,5.91-6.55,13.21-21.24"/>
      <path class="cls-1" d="M51.73,32.62c1.15,15.11,2.75,23.14,4.13,23.16,1.45.02,3.04-8.36,4.75-25.15"/>
      <path class="cls-1" d="M97.87,31.85c-1.15,15.11-2.75,23.14-4.13,23.16-1.45.02-3.04-7.89-4.75-24.68"/>
    </g>
  </g>
</svg>