<?xml version="1.0" encoding="UTF-8"?>
<svg id="Camada_2" data-name="Camada 2" xmlns="http://www.w3.org/2000/svg" viewBox="0 0 291.63 249.84">
  <defs>
    <style>
      .cls-1 {
        fill: #848484;
      }

      .cls-2 {
        fill: #b7b7b7;
      }
    </style>
  </defs>
  <g id="Camada_1-2" data-name="Camada 1">
    <g>
      <path class="cls-2" d="M137.26,72.06c5.61-2.44,14.34-5.99,26.08-6.31,3.77-.1,15.82-.08,29.45,6.31,7,3.28,23.48,11.02,30.29,29.02,1.79,4.74,6.16,16.32,1.26,26.92-6.21,13.42-20.59,10.81-26.08,23.56-5.09,11.82,4.61,20.27,0,29.02-3.98,7.55-16.89,3.55-28.53,3.77-1.45.03-2.89.12-4.28.31-1.8-.35-3.24-.25-4.41.16-.84,1.56-1.77,2.87-2.79,3.98s-2.11,2-3.28,2.73c-7.4,9.89-23.93,19.34-32.03,4.02-.31-.63-.6-1.3-.86-2.02-.26-.72-.49-1.49-.7-2.31-.28-.73-.54-1.51-.78-2.33-.38-.64-.69-1.31-.9-2.03-.21-.72-.32-1.5-.29-2.35-.98-.67-2.01-1.22-3.07-1.68-1.06-.45-2.13-.83-3.23-1.09-1.05-.51-2.09-.99-3.15-1.41-3.18-1.27-6.55-2.03-10.26-1.87-1.07-.23-2.15-.43-3.25-.61-3.28-.55-6.66-.92-10.18-1.21-1.01-.29-2.04-.58-3.12-.85-.8-.84-1.65-1.66-2.55-2.49-1.82-1.65-3.89-3.32-6.27-5.14-.97-.98-1.92-1.97-2.81-2.98-2.66-3.04-4.72-6.31-4.94-10.39-.19-.78-.36-1.54-.52-2.29-3.08-14.26-4.23-22.9-2.4-29.98,5.37-20.85,28.11-30.72,73.61-50.48Z"/>
      <g>
        <path class="cls-1" d="M147.45,74.87c-.73-3.6-1.46-7.05-2.19-10.36-.84-1.18-1.74-2.29-2.7-3.3-11.48-12.03-29.39-9.15-38.97-7.6-4.05.65-23.92,3.85-26.14,13.78-1.11,4.98,3.34,6.56,5.23,16.63,2.15,11.5-2.42,16.06,1.19,19.96,3.8,4.1,9.49-.26,20.44,4.28,6.07,2.52,5.53,4.37,9.74,5.23,8.58,1.75,16.69-4.74,23.52-10.22,5.91-4.73,9.27-7.43,11.32-11.27.19-1.65.29-3.31.29-4.99,0-4.17-.61-8.23-1.72-12.14Z"/>
        <g>
          <path class="cls-2" d="M137.56,103.27c-6.84,5.48-14.95,11.97-23.52,10.22-4.21-.86-3.67-2.71-9.74-5.23-10.94-4.54-16.64-.17-20.44-4.28-3.61-3.9.96-8.46-1.19-19.96-1.88-10.08-6.34-11.66-5.23-16.63,2.22-9.93,22.09-13.13,26.14-13.78,9.58-1.54,27.49-4.43,38.97,7.6.96,1,1.86,2.12,2.7,3.3-8.36-37.9-16.78-56.9-25.24-56.92-5.68-.02-11.38,8.49-17.11,25.52l2.35,2.23c-9.12-3.1-19.21-4.83-29.83-4.83-11.22,0-21.86,1.93-31.38,5.37l4.18-3.96c-5.73-17.03-11.43-25.53-17.11-25.52-9.25.03-18.44,22.66-27.56,67.89l.03-.03c-1.24,4.1-1.91,8.37-1.91,12.76,0,9.88,3.32,19.15,9.13,27.23-2.4-8.65-1.66-16.95,2.06-20.01,1.34-1.1,3.8-2.13,6.18-1.66,2.94.58,3.97,3.11,7.6,7.37,3.39,3.97,6.53,6.5,8.79,8.32,6.98,5.61,8.72,4.35,10.93,7.84,2.87,4.52,2.17,10.13,1.66,14.26-.57,4.58-.66,6.89-2.14,8.32-.03.03-.08.05-.11.08,6.87,2.31,14.28,3.86,22.05,4.47l32.32-2.96c26.61-7.26,46.17-25.89,48.73-48.26-2.05,3.84-5.41,6.54-11.32,11.27Z"/>
          <path class="cls-1" d="M48.02,130.35c.51-4.12,1.2-9.74-1.66-14.26-2.22-3.49-3.95-2.23-10.93-7.84-2.26-1.82-5.4-4.34-8.79-8.32-3.63-4.25-4.66-6.79-7.6-7.37-2.37-.47-4.84.56-6.18,1.66-3.72,3.06-4.46,11.36-2.06,20.01,7.8,10.84,20.1,19.5,34.98,24.51.03-.03.08-.05.11-.08,1.48-1.42,1.57-3.73,2.14-8.32Z"/>
        </g>
      </g>
      <path d="M90.33,112.46c-1.01,0-2.07-.08-3.17-.27-5.69-.99-9.51-4.38-11.74-7.12-2.23,2.74-6.05,6.13-11.74,7.12-5.47.96-9.98-.8-12.18-1.94-1.3-.67-1.81-2.26-1.14-3.56.67-1.3,2.27-1.81,3.56-1.14,1.61.83,4.9,2.12,8.85,1.43,6.69-1.17,9.95-7.18,10.3-7.86.45-.88,1.36-1.44,2.35-1.44h0c.99,0,1.9.55,2.35,1.43.57,1.11,3.76,6.72,10.3,7.86,3.95.69,7.24-.6,8.85-1.43,1.29-.67,2.89-.16,3.56,1.14.67,1.3.16,2.89-1.14,3.56-1.76.91-4.99,2.21-9.01,2.21Z"/>
      <ellipse cx="39.61" cy="84.6" rx="8.19" ry="11.64"/>
      <ellipse cx="108.52" cy="84.6" rx="8.19" ry="11.64"/>
      <g>
        <path class="cls-2" d="M146.41,204.93s.03,0,.05,0c-.02-.03-.05-.06-.07-.09,0,.03.01.06.02.09Z"/>
        <path class="cls-2" d="M223.91,189.38c-2.53-3.75-3.12-11.27-.95-17.11,1.43-3.83,3.59-5.73,2.85-8.79-.88-3.68-4.72-3.96-5.94-7.37-1.76-4.89,3.74-11,4.51-11.88,8.09-9.22,22.41-4.09,27.56-12.59,2.83-4.67-.71-7.52,2.85-14.26,3.72-7.05,10.65-9.7,11.41-9.98,3.43-1.26,7.05-1.5,10.52-.99-4.74-12.12-12.18-23.09-22.1-31.63-2.14-1.81-4.31-3.43-6.5-4.87-13.16-8.66-27.31-11.12-35.93-12.63-29.51-5.18-53.17,4.26-62.91,8.83l65.79,41.22c-2.75-1.02-14.68-5.08-27.14.84-13.85,6.58-20.26,21.48-20.56,34.07-.35,14.92,7.79,29,20.97,36.6-7.14.06-13.29.58-18.27,1.2,1.73.83,4.3,2.42,5.7,5.29,1.08,2.22,1.04,4.33.35,9.04-.73,4.99-1.27,8.68-1.9,11.33.99.02,2,.04,3.02.05,27.46.46,23.88-.34,43.58,0,29.18.5,33.47,2.16,40.29-2.52,7.74-5.31,11.91-14.06,14.29-20.99-5.66,3.96-11.2,6.07-14.68,7.36-10.23,3.79-30.99,8.4-36.83-.24Z"/>
        <path class="cls-1" d="M279,168.35c.34-2.14.55-4.18.67-6.11,5.12-18.42,3.91-38.31-2.94-55.82-3.47-.51-7.09-.27-10.52.99-.76.28-7.68,2.93-11.41,9.98-3.56,6.74-.02,9.58-2.85,14.26-5.15,8.51-19.47,3.37-27.56,12.59-.77.88-6.27,6.99-4.51,11.88,1.22,3.41,5.06,3.69,5.94,7.37.74,3.06-1.43,4.96-2.85,8.79-2.17,5.84-1.58,13.36.95,17.11,5.84,8.64,26.6,4.02,36.83.24,3.48-1.29,9.02-3.41,14.68-7.36.97-2.82,1.66-5.35,2.15-7.2.63-2.33,1.09-4.57,1.42-6.71Z"/>
        <path class="cls-1" d="M175.77,185.34c-1.4-2.87-3.97-4.46-5.7-5.29-1.24.16-2.43.32-3.52.48-8.34,1.24-11.35,2.4-13.98,4.63-5.46,4.63-6.47,11.43-6.58,12.2-.44,3.18-.01,5.82.39,7.48.02.03.05.06.07.09,6.82.26,16.35.57,27.77.78.62-2.65,1.17-6.34,1.9-11.33.69-4.71.73-6.83-.35-9.04Z"/>
      </g>
      <g>
        <path class="cls-2" d="M75.31,157c-3.01.31-19.53,2.11-33.45,6.83,4.92,4.87,5.64,11.84,6.22,17.46.71,6.9,1.17,11.53-.64,14.59,10.75.88,19.69-.49,31.66-1.17,6.54-.37,16.07-.64,27.76,0l-31.55-37.72Z"/>
        <path class="cls-1" d="M48.09,181.29c-.58-5.61-1.3-12.58-6.22-17.46-9.22,3.13-17.3,7.53-19.56,13.64-.49,1.31-1.81,4.88-.42,8.41,1.7,4.34,6.85,6.98,16.83,8.83,3.09.57,5.97.94,8.73,1.17,1.81-3.06,1.34-7.69.64-14.59Z"/>
      </g>
      <path d="M51.81,197.71c-5.07,0-10.34-.38-16.36-1.5-11.11-2.06-16.73-5.19-18.8-10.47-1.76-4.47-.13-8.85.4-10.3,5.91-15.95,43.75-21.01,55.21-22.19,1.46-.15,2.75.91,2.9,2.36.15,1.45-.91,2.75-2.36,2.9-16.93,1.73-46.67,7.63-50.79,18.76-.4,1.08-1.46,3.94-.44,6.53,1.3,3.31,5.88,5.53,14.85,7.2,11.36,2.11,20.07,1.43,30.16.64,3.04-.24,6.18-.48,9.6-.68,9.19-.52,18.63-.52,28.05,0,1.46.08,2.58,1.33,2.5,2.78-.08,1.46-1.28,2.58-2.79,2.5-9.23-.5-18.47-.5-27.46,0-3.36.19-6.47.43-9.48.67-5.23.41-10.11.79-15.18.79Z"/>
      <path d="M246.19,209.3c-2.74,0-6.02-.11-10.09-.24-4.43-.15-9.95-.33-16.8-.45-9-.15-13.16-.07-17.58.02-5.21.11-11.11.23-26.01-.02-10.3-.17-20.69-.46-30.89-.84-1.16-.04-2.16-.85-2.44-1.98-.7-2.84-.86-5.72-.46-8.56.2-1.42,1.48-8.75,7.48-13.83,3.22-2.74,6.79-3.96,15.29-5.22,4.68-.7,9.46-1.18,14.27-1.46-10.12-8.53-15.99-21.08-15.68-34.3.28-12.08,6.23-28.85,22.05-36.37,12.52-5.95,24.57-2.63,29.17-.93,1.35.5,2.05,2.01,1.54,3.36-.5,1.35-2.01,2.04-3.36,1.54-3.98-1.47-14.39-4.35-25.11.75-13.68,6.5-18.82,21.18-19.07,31.77-.33,13.96,7.21,27.09,19.66,34.27,1.02.59,1.52,1.79,1.22,2.93-.3,1.14-1.33,1.94-2.51,1.95-7.23.06-14.44.61-21.43,1.65-8.17,1.22-10.59,2.27-12.67,4.03-4.64,3.94-5.59,9.9-5.68,10.57-.22,1.55-.22,3.12,0,4.68,9.5.34,19.15.6,28.71.76,14.8.25,20.65.13,25.81.02,4.46-.09,8.68-.18,17.77-.02,6.9.12,12.44.3,16.88.45,14.62.48,17.52.48,21.89-2.52,10.1-6.92,13.81-20.78,15.4-26.7.57-2.12,1.03-4.29,1.37-6.44.3-1.91.52-3.89.64-5.87.01-.18.04-.36.09-.54,8.58-30.85-1.16-64.91-24.22-84.77-1.99-1.68-4.09-3.26-6.23-4.67-12.66-8.33-26.55-10.77-34.85-12.23-25.95-4.56-47.72,2.17-61.43,8.61-1.31.61-2.86.05-3.48-1.25s-.05-2.86,1.25-3.48c14.39-6.76,37.27-13.82,64.47-9.04,8.79,1.54,23.34,4.1,36.91,13.03,2.32,1.53,4.59,3.23,6.75,5.06,24.52,21.11,34.92,57.2,25.94,89.88-.14,2.05-.36,4.1-.67,6.08-.37,2.34-.87,4.69-1.48,6.98-1.74,6.48-5.8,21.65-17.49,29.66-4.28,2.93-7.78,3.67-14.92,3.67Z"/>
      <g>
        <path class="cls-2" d="M62.9,143.98c-.11,2.06-.06,5.14.84,8.69,2.24,8.82,8.11,14.12,11.5,17.11,6.53,5.74,12.98,7.98,19.07,10.1,7.77,2.7,14.24,3.47,18.23,3.93"/>
        <path d="M112.54,186.45c-.1,0-.2,0-.3-.02-3.7-.42-10.59-1.21-18.79-4.06-6.11-2.12-13.03-4.52-19.95-10.61-3.19-2.81-9.83-8.65-12.32-18.44-.78-3.07-1.09-6.26-.92-9.48.08-1.46,1.31-2.57,2.78-2.5,1.46.08,2.58,1.32,2.5,2.78-.14,2.69.12,5.35.76,7.91,2.08,8.21,7.68,13.13,10.68,15.77,6.14,5.4,12.27,7.53,18.19,9.58,7.65,2.65,14.16,3.4,17.66,3.8,1.45.17,2.49,1.48,2.33,2.93-.15,1.35-1.3,2.34-2.62,2.34Z"/>
      </g>
      <path d="M68.81,142.12c-.07,0-.14,0-.21,0C29.49,139.05,0,113.75,0,83.27c0-4.4.65-8.83,1.92-13.17,0-.03.01-.06.02-.09C14.45,8,24.62.02,32.08,0h.02c7.1,0,13.32,8.67,19.58,27.28,7.92-2.1,16.2-3.16,24.71-3.16s17.21,1.12,25.34,3.34c6.14-17.9,12.27-26.25,19.23-26.25h.02c7.43.02,17.55,7.92,30,69.3,1.19,4.21,1.8,8.5,1.8,12.76,0,25.07-20.48,47.49-50.97,55.8-1.41.38-2.86-.45-3.25-1.86-.38-1.41.45-2.86,1.86-3.25,28.16-7.68,47.07-28.05,47.07-50.7,0-3.81-.55-7.65-1.62-11.41-.02-.07-.04-.13-.05-.2C133.92,12.87,124.49,6.5,120.98,6.49h0c-1.94,0-7.12,2.2-14.04,22.12l1.12,1.06c.9.85,1.08,2.22.44,3.28-.64,1.06-1.94,1.54-3.11,1.14-9.17-3.11-18.92-4.69-28.98-4.69-10.65,0-20.9,1.75-30.48,5.21-1.18.43-2.49-.03-3.15-1.1-.66-1.06-.48-2.45.43-3.31l2.95-2.8c-6.92-19.92-12.1-22.12-14.04-22.12h0c-3.51,0-12.97,6.41-24.9,65.4-.01.19-.05.39-.11.58-1.19,3.96-1.8,8-1.8,12,0,27.7,27.39,50.73,63.72,53.57,1.46.11,2.54,1.39,2.43,2.84-.11,1.39-1.27,2.44-2.63,2.44Z"/>
      <path class="cls-2" d="M279.53,165.96c-4.81-.2-4.59,8.94-13.74,16.83-9.73,8.39-22.32,8.69-45.15,9.25-13.15.32-15.07-.87-29.45,0-16.14.97-22.71,3.01-26.08,4.21-12.45,4.42-19.57,10.96-21.03,12.34-4.14,3.9-9.91,9.48-11.5,18.23-.51,2.82-1.26,7.28,1.12,11.78,3.34,6.32,10.29,7.88,11.5,8.13,6.48,1.33,11.81-2.71,20.19-8.69.84-.6,1.65-1.2,2.43-1.79,8.12-6.21,18.03-9.57,28.25-9.26,1.15.04,2.33.07,3.54.11,18.71.61,28.42,1.24,42.63.28,13.43-.91,18.02-2.37,21.87-4.21,8.26-3.93,13.47-9.76,15.98-12.62,4-4.56,7.89-8.99,9.53-15.42,3.33-13-3.81-28.9-10.1-29.16Z"/>
      <path d="M146.19,249.84c-.98,0-1.98-.1-3.01-.31-2.18-.45-9.59-2.46-13.3-9.49-2.85-5.4-1.9-10.66-1.38-13.49,1.77-9.79,8.35-15.98,12.29-19.68,2.62-2.47,10.01-8.67,21.96-12.91,4.33-1.54,11.29-3.42,26.81-4.35,8.27-.5,12.5-.33,16.99-.15,3.4.14,6.92.28,12.55.14,22.23-.54,34.47-.85,43.49-8.61,4.22-3.64,6.27-7.57,7.92-10.73,1.85-3.55,3.59-6.9,7.66-6.73h0c2.61.11,5.19,1.79,7.46,4.85,4.49,6.05,7.68,17.47,5.08,27.62-1.8,7.05-6.02,11.86-10.11,16.51-2.37,2.7-7.91,9.02-16.84,13.27-4.51,2.15-9.69,3.57-22.83,4.46-12.06.82-20.99.5-34.52.01-2.6-.09-5.37-.19-8.37-.29l-3.53-.11c-9.43-.28-18.85,2.8-26.56,8.71-.8.61-1.63,1.23-2.5,1.85l-.94.67c-6.97,4.98-12.27,8.77-18.31,8.77ZM199.31,194.58c-2.54,0-5.53.08-9.45.32-16.76,1.01-23,3.23-25.36,4.06-11,3.91-17.72,9.53-20.1,11.77-3.68,3.47-9.24,8.7-10.71,16.77-.43,2.35-1.14,6.29.86,10.07,2.63,4.98,8.08,6.45,9.69,6.78,5.1,1.05,9.65-2.2,17.18-7.58l.94-.67c.82-.58,1.6-1.16,2.36-1.74,8.68-6.65,19.33-10.13,29.94-9.8l3.54.11c3.01.1,5.79.2,8.39.29,13.36.48,22.19.79,33.97,0,13.58-.92,17.64-2.4,20.92-3.96,7.94-3.78,12.98-9.52,15.13-11.98,3.84-4.38,7.47-8.51,8.96-14.33,2.16-8.45-.55-18.23-4.2-23.15-1.46-1.96-2.73-2.69-3.44-2.72h0c-.71-.03-1.7,1.87-2.75,3.89-1.76,3.37-4.16,7.99-9.15,12.29-10.45,9-23.36,9.32-46.81,9.89-5.8.14-9.4,0-12.89-.14-2.22-.09-4.37-.18-7.01-.18Z"/>
      <g>
        <path class="cls-2" d="M100.45,169.16c-3.02.3-16.14,1.63-27.71,5.73,4.76,4.86,5.47,11.73,6.04,17.28.7,6.86,1.17,11.48-.61,14.54,12.2,1.3,21.84-.22,35.08-.94,6.75-.37,15.72-1.1,29.47-2.97l-42.27-33.64Z"/>
        <path class="cls-1" d="M78.78,192.17c-.57-5.54-1.28-12.41-6.04-17.28-8.24,2.92-15.69,7.25-18.13,13.63-.5,1.31-1.87,4.88-.43,8.41,1.76,4.34,7.07,6.98,17.37,8.83,2.31.42,4.5.72,6.63.94,1.78-3.06,1.31-7.68.61-14.54Z"/>
      </g>
      <path d="M86.46,210.14c-5.23,0-10.67-.38-16.87-1.5-11.45-2.06-17.25-5.19-19.39-10.47-1.83-4.51-.14-8.93.41-10.38,5.85-15.31,35.58-19.84,48.08-21.08,1.48-.16,2.79.93,2.94,2.41.15,1.48-.93,2.79-2.41,2.94-18.51,1.84-39.69,7.44-43.59,17.65-.41,1.07-1.49,3.9-.45,6.44,1.34,3.31,6.08,5.53,15.36,7.2,11.74,2.11,20.75,1.43,31.18.64,3.14-.24,6.38-.48,9.9-.68,5.42-.29,14.36-.92,29.25-2.95,1.47-.2,2.82.83,3.02,2.3.2,1.47-.83,2.83-2.3,3.03-15.08,2.05-24.17,2.69-29.68,2.99-3.47.19-6.68.43-9.79.67-5.4.41-10.43.79-15.66.79Z"/>
    </g>
  </g>
</svg>