<?xml version="1.0" encoding="UTF-8"?>
<svg id="Camada_2" data-name="Camada 2" xmlns="http://www.w3.org/2000/svg" viewBox="0 0 311.73 255.02">
  <defs>
    <style>
      .cls-1 {
        fill: #848484;
      }

      .cls-2, .cls-3 {
        stroke: #000;
        stroke-linecap: round;
        stroke-linejoin: round;
        stroke-width: 4px;
      }

      .cls-2, .cls-4 {
        fill: #b7b7b7;
      }

      .cls-3 {
        fill: none;
      }
    </style>
  </defs>
  <g id="Camada_1-2" data-name="Camada 1">
    <path class="cls-4" d="M154.5,60.22c5.61-2.44,14.34-5.99,26.08-6.31,3.77-.1,15.82-.08,29.45,6.31,7,3.28,23.48,11.02,30.29,29.02,1.79,4.74,6.16,16.32,1.26,26.92-6.21,13.42-20.59,10.81-26.08,23.56-5.09,11.82,4.61,20.27,0,29.02-3.98,7.55-16.89,3.55-28.53,3.77-1.45.03-2.89.12-4.28.31-1.8-.35-3.24-.25-4.41.16-.84,1.56-1.77,2.87-2.79,3.98s-2.11,2-3.28,2.73c-7.4,9.89-23.93,19.34-32.03,4.02-.31-.63-.6-1.3-.86-2.02-.26-.72-.49-1.49-.7-2.31-.28-.73-.54-1.51-.78-2.33-.38-.64-.69-1.31-.9-2.03-.21-.72-.32-1.5-.29-2.35-.98-.67-2.01-1.22-3.07-1.68-1.06-.45-2.13-.83-3.23-1.09-1.05-.51-2.09-.99-3.15-1.41-3.18-1.27-6.55-2.03-10.26-1.87-1.07-.23-2.15-.43-3.25-.61-3.28-.55-6.66-.92-10.18-1.21-1.01-.29-2.04-.58-3.12-.85-.8-.84-1.65-1.66-2.55-2.49-1.82-1.65-3.89-3.32-6.27-5.14-.97-.98-1.92-1.97-2.81-2.98-2.66-3.04-4.72-6.31-4.94-10.39-.19-.78-.36-1.54-.52-2.29-3.08-14.26-4.23-22.9-2.4-29.98,5.37-20.85,28.11-30.72,73.61-50.48Z"/>
    <path class="cls-2" d="M91.26,143.83c-5,.51-47.33,5.14-53,20.47-.49,1.31-1.81,4.88-.42,8.41,1.7,4.34,6.85,6.98,16.83,8.83,15.1,2.81,25.34.84,40.39,0,6.54-.37,16.07-.64,27.76,0"/>
    <path class="cls-2" d="M81.63,131.92c-.11,2.06-.06,5.14.84,8.69,2.24,8.82,8.11,14.12,11.5,17.11,6.53,5.74,12.98,7.98,19.07,10.1,7.77,2.7,14.24,3.47,18.23,3.93"/>
    <path class="cls-2" d="M117.69,157.32c-5.17.51-39.98,4.04-45.84,19.36-.5,1.31-1.87,4.88-.43,8.41,1.76,4.34,7.07,6.98,17.37,8.83,15.59,2.81,26.17.84,41.71,0,6.75-.37,15.72-1.1,29.47-2.97"/>
    <path class="cls-2" d="M167.28,115.37c-4.15-.33-7.71-1.14-10.55-1.99,4.09-.85,9.6-2.43,15.59-5.58,6.76-3.55,11.6-7.76,14.72-10.94-7.06.36-14.12.72-21.18,1.08,2.08-1.06,4.45-2.49,6.88-4.44,4.86-3.91,7.88-8.23,9.67-11.36-4.62-.44-9.25-.87-13.87-1.31-.15-3.54-.7-7-1.66-10.35C157.8,25.67,148.66,3.23,139.45,3.2c-5.68-.02-11.38,8.49-17.11,25.52l2.35,2.23c-9.12-3.1-19.21-4.83-29.83-4.83-11.22,0-21.86,1.93-31.38,5.37l4.18-3.96C61.93,10.49,56.23,1.98,50.55,2c-9.25.03-18.44,22.66-27.53,67.86-1.15,3.82-1.79,7.79-1.88,11.87l-.64-.89c-4.62.44-9.25.87-13.87,1.31,1.79,3.12,4.81,7.45,9.68,11.36,2.43,1.95,4.81,3.39,6.88,4.44-7.06-.36-14.12-.72-21.18-1.08,3.13,3.18,7.96,7.39,14.72,10.94,5.99,3.15,11.5,4.73,15.59,5.58-2.83.86-6.39,1.66-10.55,1.99-2.98.24-5.68.18-7.99,0,3.15,2.76,7.18,5.76,12.2,8.41,13.04,6.89,27.6,6.71,41.32,11.25,18.4,6.08,42.35,4.18,60.63-1.71,11.83-3.81,23.79-3.54,35.14-9.54,5.02-2.65,9.05-5.65,12.2-8.41-2.32.18-5.01.24-7.99,0Z"/>
    <path class="cls-3" d="M70.9,105.32c1.44.74,5.46,2.57,10.52,1.68,8.01-1.4,11.75-8.38,12.2-9.25.45.87,4.19,7.86,12.2,9.25,5.06.88,9.07-.94,10.52-1.68"/>
    <ellipse cx="57.8" cy="82.02" rx="8.19" ry="11.64"/>
    <ellipse cx="126.71" cy="82.02" rx="8.19" ry="11.64"/>
    <g>
      <path class="cls-4" d="M309.73,121.41c-1.06-2.08-2.18-4.18-3.37-6.31-3.38-6.09-6.87-11.69-10.38-16.83,3.74.79,7.48,1.59,11.22,2.38-1.63-1.18-3.96-3.03-6.45-5.61-4.98-5.17-9.49-10.82-14.32-16.13-6.38-7.01-12.37-14.81-20.17-20.22-7.04,13.85-13.71,22.24-15.17,21.72-1.32-.47,1.92-13.97,5.4-27.25-2.06-.95-4.1-1.79-6.12-2.52-6.93,11.95-14.88,23.27-16.05,22.86-1.26-.45,1.58-17.68,4.87-31.61-2.18.55-4.36,1.1-6.53,1.64-6.83,13.07-14.75,26.71-16.01,26.26-1.18-.42,3.6-17.75,7.47-31.91-3.07,1.64-5.81,2.53-8.03,3.04-9.19,2.1-18.5,3.64-27.67,5.75-7.54,1.73-14.89,4.3-21.9,7.59l65.79,41.22c-2.75-1.02-14.68-5.08-27.14.84-13.85,6.58-20.26,21.48-20.56,34.07-.35,14.92,7.79,29,20.97,36.6-8.92.07-16.32.87-21.79,1.68-8.34,1.24-11.35,2.4-13.98,4.63-5.46,4.63-6.47,11.43-6.58,12.2-.45,3.23,0,5.92.41,7.57,7.42.28,18.04.62,30.84.84,27.46.46,23.88-.34,43.58,0,29.18.5,33.47,2.16,40.29-2.52,10.89-7.47,14.73-21.79,16.45-28.18.63-2.33,1.09-4.57,1.42-6.71.34-2.14.55-4.18.67-6.11,2.87-10.33,3.71-21.12,2.72-31.7,4.45,2.32,8.68,2.66,10.1,2.72Z"/>
      <path class="cls-1" d="M216.66,69.8c1.26.45,9.18-13.2,16.01-26.26-2.01.5-4.03,1-6.03,1.49-.64-.09-1.29-.2-1.93-.28,2.04-3.79,4.08-7.59,6.12-11.38-2.35,1.95-4.6,3.41-6.69,4.53-3.87,14.17-8.64,31.5-7.47,31.91Z"/>
      <path class="cls-1" d="M234.33,73.51c1.17.41,9.12-10.91,16.05-22.86-2.21-.8-4.39-1.5-6.48-2.09,1.7-2.05,3.47-4.96,4.81-9.1-1.89.49-3.78.98-5.68,1.47-1.28.33-2.55.64-3.82.97-3.29,13.92-6.13,31.16-4.87,31.61Z"/>
      <path class="cls-1" d="M251.09,80.42c1.46.52,8.13-7.87,15.17-21.72-.3-.21-.6-.42-.9-.62-2.93-1.93-5.91-3.54-8.87-4.91-3.49,13.28-6.72,26.78-5.4,27.25Z"/>
    </g>
    <path d="M265.07,197.61c-2.74,0-6.05-.11-10.22-.25-4.43-.15-9.95-.33-16.81-.45-9.01-.15-13.18-.07-17.6.02-5.2.11-11.1.23-25.98-.02-10.29-.17-20.68-.46-30.88-.84-.89-.03-1.65-.65-1.87-1.52-.68-2.76-.83-5.56-.45-8.33.19-1.38,1.44-8.51,7.27-13.45,3.12-2.65,6.62-3.84,14.98-5.08,5.18-.77,10.48-1.28,15.81-1.53-10.73-8.41-17.01-21.26-16.69-34.81.28-11.9,6.13-28.43,21.7-35.83,12.31-5.85,24.16-2.59,28.69-.91,1.04.38,1.56,1.53,1.18,2.57-.38,1.04-1.53,1.57-2.57,1.18-4.05-1.5-14.66-4.42-25.58.77-13.93,6.62-19.16,21.55-19.42,32.31-.33,14.18,7.32,27.52,19.97,34.82.78.45,1.17,1.37.93,2.24-.23.87-1.02,1.48-1.92,1.49-7.25.06-14.49.62-21.51,1.66-8.31,1.24-10.81,2.33-12.98,4.17-4.71,4-5.73,9.82-5.89,10.95-.25,1.77-.22,3.57.07,5.36,9.67.35,19.49.62,29.23.78,14.81.25,20.66.13,25.83.02,4.46-.09,8.67-.18,17.75-.02,6.89.12,12.43.3,16.87.45,14.21.47,17.58.58,22.26-2.62,10.28-7.05,14.04-21.07,15.65-27.05.57-2.14,1.04-4.33,1.38-6.5.31-1.95.52-3.89.65-5.93,0-.14.03-.28.07-.41,2.76-9.92,3.65-20.34,2.66-30.98-.07-.73.27-1.44.88-1.85s1.39-.45,2.04-.11c2,1.04,3.97,1.65,5.62,2.01-.51-.96-1.04-1.92-1.56-2.86-3.15-5.68-6.61-11.29-10.28-16.67-.46-.68-.46-1.56,0-2.24.46-.68,1.27-1.01,2.08-.84l3.53.75c-.21-.21-.42-.42-.62-.63-2.99-3.1-5.84-6.41-8.59-9.6-1.88-2.18-3.82-4.43-5.77-6.57-1.39-1.53-2.77-3.1-4.14-4.67-5.04-5.75-10.25-11.7-16.54-15.85-6.06-3.99-12.9-7.02-20.91-9.26-.65-.18-1.17-.68-1.37-1.33s-.06-1.35.37-1.87c1.17-1.41,2.19-3.05,3.06-4.9-.63.16-1.26.33-1.9.49-4.79,1.23-10,2.53-16.41,4.1-.25.06-.51.07-.77.04l-.68-.1c-.41-.06-.81-.12-1.21-.18-.65-.08-1.22-.48-1.53-1.07-.3-.59-.3-1.28.02-1.86l2.27-4.21c-2.82,1.52-5.71,2.62-8.66,3.3-4.59,1.05-9.26,1.97-13.78,2.86-4.57.9-9.29,1.83-13.89,2.89-7.29,1.67-14.53,4.18-21.5,7.46-1,.47-2.19.04-2.66-.96-.47-1-.04-2.19.96-2.66,7.23-3.39,14.73-6,22.3-7.73,4.66-1.07,9.41-2.01,14.01-2.91,4.49-.89,9.14-1.8,13.66-2.84,4.8-1.09,9.47-3.5,13.89-7.16.74-.61,1.8-.61,2.54,0,.74.61.95,1.65.49,2.49l-4.46,8.3c5.51-1.35,10.13-2.51,14.4-3.61,1.9-.49,3.79-.98,5.67-1.47.7-.18,1.46.03,1.96.56.5.53.67,1.29.45,1.99-.89,2.75-2.04,5.22-3.42,7.37,7.25,2.26,13.58,5.21,19.28,8.96,6.75,4.44,12.14,10.6,17.35,16.55,1.36,1.55,2.72,3.1,4.09,4.62,1.99,2.19,3.94,4.46,5.84,6.65,2.72,3.15,5.53,6.42,8.44,9.44,1.89,1.96,3.97,3.77,6.19,5.38.76.56,1.04,1.57.65,2.43-.38.86-1.31,1.34-2.24,1.14l-6.42-1.36c2.73,4.21,5.32,8.52,7.74,12.88,1.16,2.09,2.3,4.23,3.4,6.37.32.63.29,1.39-.1,1.99-.38.6-1.06.95-1.77.92-1.64-.07-4.51-.37-7.77-1.55.57,9.89-.43,19.59-2.99,28.88-.14,2.06-.36,4.11-.67,6.09-.36,2.31-.86,4.64-1.47,6.92-1.72,6.41-5.75,21.43-17.25,29.31-4.15,2.84-7.38,3.57-14.43,3.57Z"/>
    <g>
      <path class="cls-4" d="M204.46,212.83c-.37-.73-.68-1.52-.95-2.4-.26-.87-.47-1.82-.62-2.86-.3-.87-.59-1.73-.88-2.59-2.55-7.71-4.62-15.59-6.22-23.61-7.34,1-11.14,2.21-13.45,3.02-5.94,2.11-10.66,4.7-14.13,6.98,3.67-2.01,7.35-4.05,11.2-5.68,3.58,7.26,7.83,14.16,12.7,20.63.87,1.11,1.77,2.2,2.67,3.27.45.54.91,1.07,1.38,1.6.43.16.89.47,1.32.87.4.46.82.99,1.22,1.56.82,1.09,1.36,2.12,1.68,3.09,1.75-.52,3.57-.91,5.47-1.18-.11-.11-.22-.21-.32-.33-.43-.73-.8-1.52-1.09-2.38Z"/>
      <path class="cls-4" d="M238.85,207.8c-.31-.66-.61-1.33-.9-2-.3-.67-.59-1.34-.88-2-3.38-7.75-6.38-15.68-9.28-23.64-3.9-.13-7.04-.34-11.83-.26,1.89,8.56,4.34,16.96,7.35,25.14.3.83.61,1.65.93,2.47-.18-.44-.36-.88-.54-1.32.2.52.41,1.04.61,1.56.23.81.48,1.58.78,2.35.49,1.87,1.93,3.7,2.26,5.51,6.07.22,11.2.38,16.18.41-2.08-2.08-3.73-4.71-4.66-8.22Z"/>
      <path class="cls-4" d="M177.32,222.63c-5.74-8.53-11.25-18.88-15.1-26.71-.4.35-.7.64-.9.82-9.98,9.4-16.12,21.01-16.53,34.92-.07,2.43.04,4.71.28,6.82,2.07-3.25,4.15-6.49,6.22-9.74-.06,8.19-.12,16.37-.19,24.56,4.66-5.7,9.33-11.41,13.99-17.11.04,4,.09,8,.14,12,2.41-2.54,4.98-5.53,7.54-9,2.72-3.69,5.52-7.13,8.51-10.21-1.03-1.26-1.9-2.75-2.59-4.35-.46-.67-.91-1.34-1.37-2.01Z"/>
      <path class="cls-4" d="M192.83,207.27c-.24-.31-.47-.63-.71-.95-.28-.36-.57-.71-.86-1.08l1.56,2.02Z"/>
      <path class="cls-4" d="M251.71,186.8c-.09-.22-.17-.44-.26-.66-.25-.63-.5-1.26-.75-1.89.34.85.67,1.7,1.01,2.55Z"/>
      <path class="cls-1" d="M197.5,212.07c-.44-.4-.89-.71-1.32-.87-.46-.53-.92-1.06-1.38-1.6-.91-1.08-1.8-2.17-2.67-3.27.24.31.47.63.71.95l-1.56-2.02c.28.36.57.72.86,1.08-4.87-6.46-9.13-13.37-12.7-20.63-3.85,1.63-7.53,3.67-11.2,5.68-2.83,1.86-4.84,3.51-6,4.54,3.84,7.83,9.36,18.17,15.1,26.71.45.67.91,1.34,1.37,2.01.69,1.61,1.56,3.09,2.59,4.35,5.51-5.67,11.65-10.05,19.13-12.27-.33-.97-.86-2-1.68-3.09-.4-.57-.82-1.09-1.22-1.56Z"/>
      <path class="cls-1" d="M224.29,207.76c-.2-.52-.41-1.05-.61-1.56.17.44.36.87.54,1.32-.32-.82-.62-1.65-.93-2.47-3.01-8.18-5.46-16.59-7.35-25.14-2.11.04-4.54.13-7.51.3-5.1.31-9.24.72-12.63,1.18,1.59,8.02,3.67,15.89,6.22,23.61.29.86.58,1.73.88,2.59.15,1.04.36,1.99.62,2.86.26.87.58,1.67.95,2.4.29.86.66,1.65,1.09,2.38.11.11.22.22.32.33,2.35-.34,4.82-.48,7.44-.4,1.15.04,2.33.07,3.54.11,3.84.13,7.29.25,10.49.37-.33-1.81-1.76-3.64-2.26-5.51-.3-.77-.55-1.54-.78-2.35Z"/>
      <path class="cls-1" d="M264.24,211.96c-.35-.5-.7-1.01-1.05-1.5.27.37.55.72.83,1.08-.44-.64-.87-1.29-1.29-1.95-4.63-7.22-8.08-15.41-11.27-23.45.09.22.17.44.26.66-.34-.85-.67-1.7-1.01-2.55.25.63.5,1.26.75,1.89-.82-2.08-1.6-4.17-2.38-6.27-3.44.13-7.15.22-11.19.32-4.29.11-7.38.05-10.1-.04,2.91,7.96,5.91,15.89,9.28,23.64.29.67.59,1.34.88,2,.3.67.6,1.33.9,2,.93,3.51,2.58,6.14,4.66,8.22,5.18.03,10.2-.1,15.96-.49,2.06-.14,3.89-.29,5.57-.46-.25-.87-.46-1.72-.56-2.51-.08-.24-.16-.43-.23-.6Z"/>
    </g>
    <g>
      <path class="cls-4" d="M296.77,154.12c-4.78-.2-4.6,8.85-13.61,16.71.94,1.19,1.87,2.39,2.82,3.57,2.48,2.94,5.15,5.71,8.24,8.09,1.72,1.14,3.52,2.16,5.36,3.09.37.19.74.37,1.11.55,1.32.84,2.95,1.3,4.32,2.06.75-1.52,1.39-3.13,1.85-4.91,3.33-13-3.81-28.9-10.1-29.16Z"/>
      <path class="cls-4" d="M287.09,175.78c-.38-.46-.74-.92-1.11-1.38-.18-.22-.37-.42-.55-.64.55.67,1.11,1.35,1.66,2.02Z"/>
      <path class="cls-4" d="M295.07,183.17c-.3-.22-.57-.46-.86-.68-.43-.29-.87-.58-1.29-.88.72.52,1.44,1.04,2.15,1.56Z"/>
      <path class="cls-4" d="M283.02,199.27c-4.29-3.08-8.35-6.43-10.74-9.14-3.21-3.64-6.23-7.45-9.19-11.3-4.12.55-8.73.84-14.02,1.04.78,2.09,1.56,4.19,2.38,6.27,3.2,8.03,6.64,16.22,11.27,23.45.42.66.85,1.31,1.29,1.95-.28-.36-.56-.71-.83-1.08.35.49.7,1,1.05,1.5.07.17.15.36.23.6.1.79.31,1.64.56,2.51,9.23-.91,13.05-2.2,16.3-3.75,4.07-1.94,7.39-4.33,10.02-6.6-2.3-1.18-4.56-2.81-6.16-3.93-.74-.5-1.46-1.01-2.18-1.52Z"/>
      <path class="cls-1" d="M299.58,185.58c-1.85-.94-3.64-1.96-5.36-3.09.29.22.56.47.86.68-.72-.52-1.44-1.04-2.15-1.56.43.3.86.59,1.29.88-3.09-2.38-5.76-5.15-8.24-8.09.37.46.74.92,1.11,1.38-.55-.67-1.11-1.35-1.66-2.02.18.22.37.43.55.64-.95-1.18-1.89-2.38-2.82-3.57-.04.04-.08.08-.13.12-5.36,4.62-11.6,6.78-19.93,7.89,2.95,3.85,5.98,7.65,9.19,11.3,2.39,2.71,6.45,6.06,10.74,9.14.72.51,1.44,1.02,2.18,1.52,1.6,1.13,3.87,2.75,6.16,3.93,2.72-2.35,4.69-4.57,5.97-6.02,2.9-3.3,5.72-6.54,7.69-10.51-1.37-.76-3.01-1.22-4.32-2.06-.37-.18-.74-.36-1.11-.55Z"/>
    </g>
    <path d="M152.19,255.02c-.23,0-.46-.04-.68-.12-.8-.29-1.33-1.05-1.32-1.9l.13-17.61-2.48,3.88c-.46.71-1.31,1.06-2.14.87-.83-.19-1.44-.88-1.53-1.73-.26-2.36-.36-4.75-.29-7.11.41-13.76,6.18-25.98,17.16-36.32,2.59-2.44,9.9-8.57,21.73-12.77,4.29-1.52,11.19-3.39,26.63-4.32,8.23-.5,12.46-.33,16.93-.15,3.41.14,6.94.28,12.59.14,22.38-.55,34.7-.85,43.89-8.77,4.32-3.72,6.4-7.71,8.07-10.92,1.83-3.51,3.43-6.54,7.06-6.39h0c2.41.1,4.82,1.69,6.97,4.59,4.4,5.92,7.53,17.12,4.98,27.07-1.77,6.9-5.94,11.65-9.97,16.25-2.34,2.67-7.82,8.91-16.63,13.11-4.44,2.11-9.56,3.51-22.6,4.4-12.02.82-20.94.5-34.45.01-2.6-.09-5.37-.19-8.38-.29l-3.53-.11c-18.63-.57-29.71,10.84-38.87,23.25-2.37,3.2-4.96,6.29-7.7,9.19-.56.59-1.42.78-2.18.49-.76-.3-1.26-1.02-1.27-1.84l-.07-6.5-10.5,12.85c-.39.47-.96.73-1.55.73ZM152.38,226.47c.19,0,.38.03.57.08.85.25,1.44,1.04,1.43,1.93l-.14,18.88,10.4-12.72c.53-.65,1.41-.9,2.21-.62.79.28,1.33,1.02,1.34,1.86l.08,6.87c1.39-1.63,2.72-3.32,3.99-5.03,9.81-13.29,21.7-25.5,42.21-24.88l3.54.11c3.01.1,5.79.2,8.39.29,13.38.48,22.22.8,34.03,0,13.69-.93,17.82-2.43,21.15-4.02,8.06-3.84,13.16-9.65,15.34-12.13,3.89-4.44,7.57-8.62,9.1-14.6,2.21-8.64-.57-18.66-4.31-23.69-1.37-1.84-2.8-2.93-3.93-2.98h0c-1-.04-1.76,1.19-3.35,4.24-1.73,3.33-4.1,7.88-9,12.1-10.27,8.85-23.11,9.17-46.41,9.74-5.78.14-9.37,0-12.85-.14-4.37-.18-8.49-.34-16.53.14-16.85,1.02-23.16,3.25-25.53,4.09-11.12,3.95-17.92,9.64-20.33,11.91-10.18,9.58-15.53,20.86-15.91,33.52,0,.12,0,.25,0,.37l2.83-4.42c.37-.59,1.02-.92,1.69-.92Z"/>
    <path class="cls-1" d="M86.78,28.21c1.19,9.15,4.27,30.6,7.71,30.53,3.44-.06,5.65-21.68,6.47-30.86"/>
    <path class="cls-1" d="M70.54,31.24c1.15,15.11,2.75,23.14,4.13,23.16,1.45.02,3.04-8.36,4.75-25.15"/>
    <path class="cls-1" d="M116.68,30.46c-1.15,15.11-2.75,23.14-4.13,23.16-1.45.02-3.04-7.89-4.75-24.68"/>
  </g>
</svg>