<?xml version="1.0" encoding="UTF-8"?>
<svg id="Camada_2" data-name="Camada 2" xmlns="http://www.w3.org/2000/svg" viewBox="0 0 311.73 255.81">
  <defs>
    <style>
      .cls-1, .cls-2 {
        stroke: #000;
        stroke-linecap: round;
        stroke-linejoin: round;
        stroke-width: 4px;
      }

      .cls-1, .cls-3 {
        fill: #b7b7b7;
      }

      .cls-4 {
        fill: #939393;
      }

      .cls-2 {
        fill: none;
      }
    </style>
  </defs>
  <g id="Camada_1-2" data-name="Camada 1">
    <g>
      <path class="cls-3" d="M91.26,144.33c-2.63.27-15.57,1.68-28.07,5.18.2,2.55.2,6.2,1.66,11.44,3.91,13.99,12.45,18.2,11.88,22.35-2.36.13-4.7.2-7.08.2,8.18.08,15.82-.91,25.41-1.45,6.54-.37,16.07-.64,27.76,0l-31.55-37.72Z"/>
      <path class="cls-4" d="M64.85,160.95c-1.47-5.24-1.46-8.88-1.66-11.44-11.29,3.16-22.24,8.02-24.93,15.29-.49,1.31-1.81,4.88-.42,8.41,1.7,4.34,6.85,6.98,16.83,8.83,5.48,1.02,10.32,1.4,14.99,1.45,2.38,0,4.72-.07,7.08-.2.57-4.15-7.96-8.36-11.88-22.35Z"/>
    </g>
    <path d="M70.5,185.5c-5.04,0-10.28-.38-16.25-1.49-10.86-2.02-16.34-5.03-18.32-10.07-1.67-4.24-.11-8.45.41-9.84,5.77-15.6,43.31-20.6,54.67-21.77,1.1-.11,2.08.69,2.19,1.79.11,1.1-.69,2.08-1.79,2.19-21.21,2.17-47.37,8.5-51.33,19.18-.42,1.14-1.54,4.17-.44,6.99,1.39,3.54,6.12,5.89,15.33,7.6,11.44,2.12,20.19,1.44,30.33.64,3.04-.24,6.18-.48,9.58-.68,9.16-.51,18.58-.51,27.98,0,1.1.06,1.95,1,1.89,2.11-.06,1.1-1.02,1.94-2.11,1.89-9.26-.51-18.52-.51-27.54,0-3.36.19-6.48.43-9.49.67-5.21.41-10.07.79-15.12.79Z"/>
    <path class="cls-3" d="M154.5,60.22c5.61-2.44,14.34-5.99,26.08-6.31,3.77-.1,15.82-.08,29.45,6.31,7,3.28,23.48,11.02,30.29,29.02,1.79,4.74,6.16,16.32,1.26,26.92-6.21,13.42-20.59,10.81-26.08,23.56-5.09,11.82,4.61,20.27,0,29.02-3.98,7.55-16.89,3.55-28.53,3.77-1.45.03-2.89.12-4.28.31-1.8-.35-3.24-.25-4.41.16-.84,1.56-1.77,2.87-2.79,3.98s-2.11,2-3.28,2.73c-7.4,9.89-23.93,19.34-32.03,4.02-.31-.63-.6-1.3-.86-2.02-.26-.72-.49-1.49-.7-2.31-.28-.73-.54-1.51-.78-2.33-.38-.64-.69-1.31-.9-2.03-.21-.72-.32-1.5-.29-2.35-.98-.67-2.01-1.22-3.07-1.68-1.06-.45-2.13-.83-3.23-1.09-1.05-.51-2.09-.99-3.15-1.41-3.18-1.27-6.55-2.03-10.26-1.87-1.07-.23-2.15-.43-3.25-.61-3.28-.55-6.66-.92-10.18-1.21-1.01-.29-2.04-.58-3.12-.85-.8-.84-1.65-1.66-2.55-2.49-1.82-1.65-3.89-3.32-6.27-5.14-.97-.98-1.92-1.97-2.81-2.98-2.66-3.04-4.72-6.31-4.94-10.39-.19-.78-.36-1.54-.52-2.29-3.08-14.26-4.23-22.9-2.4-29.98,5.37-20.85,28.11-30.72,73.61-50.48Z"/>
    <path class="cls-1" d="M81.63,131.92c-.11,2.06-.06,5.14.84,8.69,2.24,8.82,8.11,14.12,11.5,17.11,6.53,5.74,12.98,7.98,19.07,10.1,7.77,2.7,14.24,3.47,18.23,3.93"/>
    <path class="cls-1" d="M167.28,115.37c-4.15-.33-7.71-1.14-10.55-1.99,4.09-.85,9.6-2.43,15.59-5.58,6.76-3.55,11.6-7.76,14.72-10.94-7.06.36-14.12.72-21.18,1.08,2.08-1.06,4.45-2.49,6.88-4.44,4.86-3.91,7.88-8.23,9.67-11.36-4.62-.44-9.25-.87-13.87-1.31-.15-3.54-.7-7-1.66-10.35C157.8,25.67,148.66,3.23,139.45,3.2c-5.68-.02-11.38,8.49-17.11,25.52l2.35,2.23c-9.12-3.1-19.21-4.83-29.83-4.83-11.22,0-21.86,1.93-31.38,5.37l4.18-3.96C61.93,10.49,56.23,1.98,50.55,2c-9.25.03-18.44,22.66-27.53,67.86-1.15,3.82-1.79,7.79-1.88,11.87l-.64-.89c-4.62.44-9.25.87-13.87,1.31,1.79,3.12,4.81,7.45,9.68,11.36,2.43,1.95,4.81,3.39,6.88,4.44-7.06-.36-14.12-.72-21.18-1.08,3.13,3.18,7.96,7.39,14.72,10.94,5.99,3.15,11.5,4.73,15.59,5.58-2.83.86-6.39,1.66-10.55,1.99-2.98.24-5.68.18-7.99,0,3.15,2.76,7.18,5.76,12.2,8.41,13.04,6.89,27.6,6.71,41.32,11.25,18.4,6.08,42.35,4.18,60.63-1.71,11.83-3.81,23.79-3.54,35.14-9.54,5.02-2.65,9.05-5.65,12.2-8.41-2.32.18-5.01.24-7.99,0Z"/>
    <ellipse class="cls-4" cx="94.52" cy="87.38" rx="53.25" ry="38.32"/>
    <g>
      <path class="cls-2" d="M70.9,105.32c1.44.74,5.46,2.57,10.52,1.68,8.01-1.4,11.75-8.38,12.2-9.25.45.87,4.19,7.86,12.2,9.25,5.06.88,9.07-.94,10.52-1.68"/>
      <ellipse cx="57.8" cy="82.02" rx="8.19" ry="11.64"/>
      <ellipse cx="126.71" cy="82.02" rx="8.19" ry="11.64"/>
    </g>
    <path class="cls-3" d="M232.31,96c-2.75-1.02-14.68-5.08-27.14.84-13.85,6.58-20.26,21.48-20.56,34.07-.35,14.92,7.79,29,20.97,36.6-8.92.07-16.32.87-21.79,1.68-8.34,1.24-11.35,2.4-13.98,4.63-5.46,4.63-6.47,11.43-6.58,12.2-.45,3.23,0,5.92.41,7.57,7.42.28,18.04.62,30.84.84,27.46.46,23.88-.34,43.58,0,29.18.5,33.47,2.16,40.29-2.52,10.89-7.47,14.73-21.79,16.45-28.18.63-2.33,1.09-4.57,1.42-6.71.34-2.14.55-4.18.67-6.11,2.87-10.33,3.71-21.12,2.73-31.7,4.45,2.32,8.68,2.66,10.1,2.72-1.06-2.08-2.18-4.18-3.37-6.31-3.38-6.09-6.87-11.69-10.38-16.83,3.74.79,7.48,1.59,11.22,2.38-1.63-1.18-3.96-3.03-6.45-5.61-4.98-5.17-9.49-10.82-14.32-16.13-6.62-7.28-12.82-15.42-21.07-20.84-7.22-4.75-14.73-7.63-21.47-9.52,1.7-2.05,3.47-4.96,4.81-9.1-1.89.49-3.78.98-5.68,1.47-5.5,1.41-10.95,2.77-16.39,4.1-.64-.09-1.29-.2-1.93-.28l6.12-11.38c-5.8,4.8-10.99,6.72-14.72,7.57-9.19,2.1-18.5,3.64-27.67,5.75-7.54,1.73-14.89,4.3-21.9,7.59"/>
    <path class="cls-4" d="M190.18,169.78c-2.34.25-4.48.53-6.38.81-8.34,1.24-11.35,2.4-13.98,4.63-5.46,4.63-6.47,11.43-6.58,12.2-.45,3.23,0,5.92.41,7.57,7.42.28,18.04.62,30.84.84,3.27.06,6.09.09,8.57.12-2.99-3.51-8.29-8.5-11.25-17.85-1.07-3.4-1.44-6.11-1.64-8.31Z"/>
    <g>
      <path class="cls-3" d="M117.69,157.82c-2.51.25-12.01,1.21-21.8,3.89.18,2.52.28,5.99,1.72,10.86,4.4,14.88,14.33,18.69,12.33,23.14-1.83.09-3.66.16-5.5.17,8.38.06,16.22-.92,26.05-1.45,6.75-.37,15.72-1.1,29.47-2.97l-42.27-33.64Z"/>
      <path class="cls-4" d="M109.94,195.71c2-4.44-7.93-8.26-12.33-23.14-1.44-4.86-1.54-8.34-1.72-10.86-10.36,2.83-21.03,7.59-24.04,15.47-.5,1.31-1.87,4.88-.43,8.41,1.76,4.34,7.07,6.98,17.37,8.83,5.73,1.03,10.78,1.42,15.66,1.45,1.84-.02,3.66-.08,5.5-.17Z"/>
    </g>
    <path class="cls-3" d="M173.57,188.74c.25-.13.5-.26.74-.39-.25.13-.5.26-.74.39Z"/>
    <path class="cls-3" d="M281.42,211.21c-.01.19-.03.39-.05.6.28-.13.54-.27.81-.41-.13-.14-.25-.28-.35-.4-.14.07-.27.14-.41.21Z"/>
    <path class="cls-4" d="M208.43,180.7c14.38-.87,16.3.32,29.45,0,22.83-.56,35.42-.87,45.15-9.25,9.15-7.89,8.93-17.03,13.74-16.83,2.84.12,5.86,3.44,8,8.25-.35-1.06-.72-2.11-1.13-3.14-.81-1.38-1.77-2.66-2.93-3.77-1.05-1-2.37-1.9-3.86-1.96-4.81-.2-4.59,8.94-13.74,16.83-9.73,8.39-22.32,8.69-45.15,9.25-13.15.32-15.07-.87-29.45,0-8.07.49-13.75,1.24-17.83,2.02-4.08.78-6.57,1.59-8.25,2.19-2.56,1.26-5.3,2.61-8.12,4.07,2.37-1.21,5.05-2.39,8.04-3.45,3.37-1.2,9.94-3.23,26.08-4.21Z"/>
    <path d="M105.15,197.88c-5.2,0-10.6-.38-16.76-1.49-11.19-2.01-16.83-5.02-18.87-10.05-1.73-4.26-.11-8.49.42-9.88,5.71-14.95,35.13-19.41,47.51-20.64,1.1-.11,2.08.69,2.19,1.79.11,1.1-.69,2.08-1.79,2.19-9.08.9-39.11,4.87-44.17,18.09-.43,1.13-1.58,4.15-.45,6.95,1.44,3.55,6.34,5.9,15.87,7.62,11.83,2.13,20.87,1.44,31.35.65,3.13-.24,6.38-.48,9.89-.68,5.44-.3,14.4-.92,29.3-2.95,1.1-.15,2.1.62,2.25,1.71.15,1.09-.62,2.1-1.71,2.25-15.05,2.05-24.12,2.68-29.63,2.98-3.48.19-6.69.43-9.81.67-5.38.41-10.39.79-15.6.79Z"/>
    <path d="M265.07,197.12c-2.74,0-6.05-.11-10.22-.25-4.43-.15-9.95-.33-16.81-.45-9.01-.15-13.18-.07-17.6.02-5.2.11-11.1.23-25.98-.02-10.31-.17-20.7-.46-30.88-.84-.89-.03-1.65-.65-1.87-1.52-.68-2.76-.84-5.56-.45-8.33.19-1.38,1.44-8.51,7.27-13.45,3.12-2.65,6.62-3.84,14.98-5.08,5.18-.77,10.48-1.28,15.81-1.53-10.73-8.41-17.01-21.26-16.69-34.81.28-11.9,6.13-28.43,21.7-35.83,12.31-5.85,24.16-2.59,28.69-.91,1.04.38,1.56,1.53,1.18,2.57-.38,1.04-1.54,1.57-2.57,1.18-4.05-1.5-14.65-4.42-25.58.77-13.93,6.62-19.17,21.55-19.42,32.31-.33,14.18,7.32,27.52,19.97,34.82.78.45,1.17,1.37.94,2.24-.23.87-1.02,1.48-1.92,1.49-7.25.06-14.49.62-21.51,1.66-8.31,1.24-10.81,2.33-12.98,4.17-4.72,4-5.74,9.82-5.89,10.95-.25,1.77-.22,3.57.07,5.36,9.65.35,19.48.62,29.23.78,14.81.25,20.67.13,25.83.02,4.46-.09,8.67-.18,17.75-.02,6.89.12,12.43.3,16.88.45,14.2.47,17.58.58,22.25-2.62,10.28-7.05,14.04-21.06,15.65-27.05.57-2.14,1.04-4.33,1.38-6.51.3-1.93.52-3.92.65-5.93,0-.14.03-.28.07-.41,2.76-9.92,3.65-20.34,2.66-30.98-.07-.73.27-1.44.88-1.85.61-.41,1.39-.45,2.04-.11,2,1.04,3.97,1.65,5.62,2.01-.51-.96-1.03-1.92-1.56-2.86-3.15-5.68-6.61-11.29-10.28-16.67-.46-.68-.46-1.56,0-2.24.46-.68,1.28-1.01,2.08-.84l3.53.75c-.21-.21-.41-.42-.62-.63-2.99-3.1-5.84-6.4-8.59-9.6-1.88-2.18-3.82-4.43-5.77-6.57-1.39-1.53-2.77-3.1-4.15-4.68-5.04-5.75-10.24-11.7-16.54-15.84-6.06-3.99-12.9-7.02-20.91-9.26-.65-.18-1.17-.68-1.37-1.33-.2-.65-.06-1.35.37-1.87,1.17-1.41,2.19-3.05,3.06-4.91-.63.16-1.26.33-1.9.49-4.78,1.23-10,2.53-16.41,4.1-.25.06-.51.07-.77.04l-.68-.1c-.41-.06-.81-.13-1.21-.18-.65-.08-1.22-.48-1.53-1.07-.3-.59-.3-1.28.02-1.86l2.27-4.22c-2.82,1.52-5.71,2.63-8.66,3.3-4.59,1.05-9.26,1.97-13.78,2.86-4.57.9-9.29,1.83-13.89,2.89-7.29,1.67-14.53,4.18-21.5,7.46-1,.47-2.19.04-2.66-.96s-.04-2.19.96-2.66c7.23-3.39,14.73-6,22.3-7.73,4.66-1.07,9.41-2.01,14.01-2.91,4.49-.89,9.14-1.8,13.66-2.84,4.8-1.09,9.47-3.5,13.89-7.16.74-.61,1.8-.61,2.54,0,.74.61.95,1.65.49,2.49l-4.46,8.3c5.51-1.35,10.13-2.51,14.4-3.61,1.9-.49,3.79-.98,5.67-1.47.71-.18,1.46.03,1.96.56.5.53.67,1.29.45,1.99-.89,2.75-2.04,5.22-3.42,7.37,7.25,2.26,13.58,5.21,19.28,8.96,6.75,4.44,12.14,10.6,17.35,16.55,1.36,1.56,2.72,3.11,4.1,4.62,1.99,2.19,3.94,4.46,5.84,6.65,2.72,3.15,5.53,6.42,8.44,9.44,1.89,1.96,3.97,3.77,6.19,5.38.76.55,1.04,1.57.65,2.43-.38.86-1.32,1.34-2.24,1.14l-6.42-1.36c2.73,4.21,5.33,8.52,7.74,12.88,1.16,2.09,2.3,4.23,3.4,6.37.32.63.29,1.39-.1,1.99-.38.6-1.06.95-1.77.92-1.64-.07-4.51-.37-7.77-1.55.57,9.89-.43,19.59-2.99,28.87-.14,2.05-.36,4.1-.67,6.09-.36,2.31-.86,4.64-1.47,6.92-1.72,6.41-5.75,21.43-17.25,29.32-4.15,2.84-7.38,3.57-14.43,3.57Z"/>
    <path class="cls-3" d="M259.55,215.41c-14.2.96-23.92.33-42.63-.28-1.21-.04-2.39-.08-3.54-.11-3.08-.09-6.12.36-9.01,1.29,2.93-.53,5.92-.76,8.93-.67,1.15.04,2.33.07,3.54.11,18.71.62,28.42,1.24,42.63.28.57-.04,1.11-.08,1.65-.12.03-.21.06-.41.09-.62-.55.04-1.09.08-1.66.12Z"/>
    <path class="cls-4" d="M307.7,177.24c0-.06,0-.11,0-.17-.43-4.85-1.41-9.64-2.93-14.2-2.14-4.8-5.16-8.13-8-8.25-4.81-.2-4.59,8.94-13.74,16.83-9.73,8.39-22.32,8.69-45.15,9.25-13.15.32-15.07-.87-29.45,0-16.14.97-22.71,3.01-26.08,4.21-2.99,1.06-5.67,2.25-8.04,3.45-.25.13-.49.26-.74.39-7.04,3.7-11.18,7.49-12.25,8.5-2.59,2.44-5.83,5.54-8.27,9.67l-.38-.3c-3.36,5.5-7.55,14.34-7.88,25.55-.07,2.43.04,4.71.28,6.82,2.07-3.25,4.15-6.49,6.22-9.74-.06,8.19-.12,16.37-.19,24.56,4.66-5.7,9.33-11.41,13.99-17.11.04,3.86.09,7.72.13,11.59.16-.03.32-.07.49-.1,2.27-2.43,4.67-5.24,7.06-8.48,2.86-3.87,5.14-7.58,6.98-10.96.92-.66,1.88-1.34,2.89-2.06.84-.6,1.65-1.2,2.43-1.79,5.72-4.38,12.33-7.33,19.32-8.59,2.89-.93,5.93-1.38,9.01-1.29,1.15.04,2.33.07,3.54.11,18.71.61,28.42,1.24,42.63.28.58-.04,1.12-.08,1.66-.12-.03.2-.06.41-.09.62,12.14-.92,16.54-2.33,20.22-4.09.01,0,.02-.01.03-.01.02-.21.04-.41.05-.6.14-.07.27-.14.41-.21.1.12.22.26.35.4,7.77-3.92,12.72-9.44,15.14-12.2,2.95-3.36,5.83-6.65,7.8-10.73,1.11-3.43,2.1-6.91,2.51-10.48.03-.25.04-.5.06-.75Z"/>
    <path d="M296.84,152.62c-3.66-.17-5.24,2.88-7.06,6.39-1.67,3.21-3.75,7.2-8.07,10.92-9.19,7.92-21.52,8.22-43.89,8.77-5.65.14-9.18,0-12.59-.14-4.47-.18-8.69-.35-16.93.14-15.44.93-22.34,2.8-26.63,4.32-11.84,4.2-19.14,10.33-21.73,12.77-2.16,2.03-5.32,5.01-7.88,8.92-.46.14-.85.45-1.1.86-5.15,8.43-7.9,17.36-8.18,26.53-.07,2.36.03,4.75.29,7.11.09.84.71,1.53,1.53,1.73.83.19,1.68-.16,2.14-.87l2.48-3.88-.13,17.61c0,.85.52,1.61,1.32,1.9.22.08.45.12.68.12.59,0,1.16-.26,1.55-.73l10.5-12.85.07,6.5c0,.81.51,1.54,1.27,1.84.76.3,1.62.1,2.18-.48,2.74-2.89,5.33-5.98,7.7-9.19,2.52-3.41,4.84-7.04,6.91-10.78l2.52-1.79c.86-.61,1.68-1.22,2.48-1.83,7.83-6,17.41-9.14,26.97-8.85l3.53.11c3.01.1,5.78.2,8.38.29,13.5.48,22.43.8,34.45-.01,13.04-.88,18.16-2.28,22.6-4.4,8.81-4.19,14.29-10.44,16.63-13.11,4.03-4.59,8.2-9.34,9.97-16.25,2.55-9.95-.58-21.15-4.98-27.07-2.15-2.9-4.57-4.49-6.97-4.59ZM304.92,183.29c-1.53,5.98-5.21,10.16-9.1,14.6-2.18,2.48-7.28,8.29-15.34,12.13-3.33,1.59-7.46,3.09-21.15,4.02-11.82.8-20.66.49-34.04,0-2.6-.09-5.38-.19-8.39-.29l-3.54-.11c-10.49-.33-20.96,3.11-29.53,9.67-.76.58-1.55,1.17-2.37,1.75l-2.88,2.06c-.25.18-.45.41-.6.67-2.03,3.73-4.33,7.33-6.83,10.73-1.27,1.72-2.6,3.4-3.99,5.03l-.08-6.87c0-.84-.54-1.59-1.34-1.86-.8-.28-1.68-.03-2.21.62l-10.4,12.72.14-18.88c0-.89-.58-1.68-1.43-1.93-.19-.06-.38-.08-.57-.08-.67,0-1.31.34-1.69.92l-2.83,4.42c0-.12,0-.25,0-.37.24-8.05,2.56-15.92,6.91-23.41.45-.15.83-.46,1.08-.88,2.38-4.02,5.58-7.04,7.92-9.24,2.41-2.27,9.21-7.96,20.33-11.91,2.37-.84,8.68-3.08,25.53-4.09,8.03-.48,12.16-.32,16.52-.14,3.48.14,7.07.29,12.85.14,23.3-.57,36.13-.89,46.41-9.74,4.9-4.22,7.27-8.78,9-12.1,1.59-3.04,2.34-4.25,3.35-4.24,1.13.05,2.56,1.13,3.93,2.98,3.74,5.04,6.53,15.05,4.31,23.69Z"/>
  </g>
</svg>