<?xml version="1.0" encoding="UTF-8"?>
<svg id="Camada_2" data-name="Camada 2" xmlns="http://www.w3.org/2000/svg" xmlns:xlink="http://www.w3.org/1999/xlink" viewBox="0 0 235.85 342.89">
  <defs>
    <style>
      .cls-1 {
        fill: #848484;
      }

      .cls-2, .cls-3 {
        fill: #b7b7b7;
      }

      .cls-4 {
        fill: none;
      }

      .cls-4, .cls-3 {
        stroke: #000;
        stroke-linecap: round;
        stroke-linejoin: round;
        stroke-width: 3.15px;
      }

      .cls-5 {
        clip-path: url(#clippath);
      }
    </style>
    <clipPath id="clippath">
      <path class="cls-3" d="M117.44,274.61c4.53.42,11.13.52,18.74-1.25,17.57-4.08,28.34-15.32,32.23-19.49,3.38-3.62,9.5-14.58,21.61-36.36,9.02-16.23,11.16-20.56,17.24-23.24,7.84-3.45,14.19-.59,21.11-6.62,1.25-1.09,6.22-5.42,5.87-11.12-.46-7.53-9.86-11.65-11.62-12.37-2.14-.88-8.49-3.08-19.86.37-18,5.47-28.6,19.05-30.36,21.36-6.7,8.82-6.67,13.48-21.24,39.98-1.48,2.68-4.07,7.28-9.37,10.62-6.45,4.06-13.46,4.1-17.49,3.75"/>
    </clipPath>
  </defs>
  <g id="Camada_1-2" data-name="Camada 1">
    <g>
      <g>
        <path class="cls-3" d="M31.46,218.25c-1.92,1.87-8.38,8.63-9.37,19.37-1.02,11.03,5.18,19.28,9.75,25.49,5.74,7.79,12.31,12.55,16.74,15.24-2.58,2.92-7.27,9.03-9.37,18.12-.5,2.16-1.03,4.21-1.38,6.2-1.6.17-4.35.76-6.8,3.06-3.67,3.44-5.17,9.29-3.97,15.1,6.88.05,13.77.09,20.65.14,1.25-.02,2.32.04,2.93.04,3.83-3.39,7.53-6.53,11.68-11.42,5.88-6.93,10.26-13.67,13.49-19.49l-44.35-71.84Z"/>
        <path class="cls-3" d="M19.86,139.71c-4.79-18.39-9.21-32.99-12.44-43.14-4.63-14.54-8.62-25.65-3.32-35.67.79-1.49,3.67-6.94,8.3-7.47,4.87-.55,10.01,4.55,16.59,15.76,6.42,10.92,14.89,28.8,19.91,55.58"/>
        <path class="cls-2" d="M58.35,270.03c3.6.42,8.04-.62,23.82-16.69,24.56-25,42.19-43.45,40.65-66.44-.44-6.56-2.01-7.04-2.21-15.09-.55-21.76,10.66-29.24,6.92-37.21-5.18-11.02-27.28,1.92-48.75-13.4-6.86-4.9-10.75-10.61-29.21-24.83-5.33-4.11-10.58-7.92-14.97-6.26-5.11,1.94-6.4,10.29-7,15.24-4.34,35.85,7.49,59.68,5.46,97.3-.65,11.99-2.19,15.8-.71,25.64,2.58,17.23,12.48,40.17,25.99,41.73Z"/>
        <g>
          <path class="cls-2" d="M117.44,274.61c4.53.42,11.13.52,18.74-1.25,17.57-4.08,28.34-15.32,32.23-19.49,3.38-3.62,9.5-14.58,21.61-36.36,9.02-16.23,11.16-20.56,17.24-23.24,7.84-3.45,14.19-.59,21.11-6.62,1.25-1.09,6.22-5.42,5.87-11.12-.46-7.53-9.86-11.65-11.62-12.37-2.14-.88-8.49-3.08-19.86.37-18,5.47-28.6,19.05-30.36,21.36-6.7,8.82-6.67,13.48-21.24,39.98-1.48,2.68-4.07,7.28-9.37,10.62-6.45,4.06-13.46,4.1-17.49,3.75"/>
          <g class="cls-5">
            <path class="cls-1" d="M125.66,235.91c5.72,14.58,13.98,27.64,25.04,38.78,7.14,7.19,18.26-3.93,11.12-11.12-9.05-9.11-16.3-19.85-21-31.84-1.55-3.95-5.27-6.7-9.67-5.49-3.77,1.04-7.05,5.7-5.49,9.67h0Z"/>
            <path class="cls-1" d="M187.38,239.11c-12.59-7.57-23.54-17.09-32.95-28.36-6.49-7.78-17.57,3.4-11.12,11.12,10.22,12.24,22.47,22.6,36.14,30.82,8.7,5.23,16.61-8.36,7.94-13.58h0Z"/>
            <path class="cls-1" d="M157.33,202.65c7.58,5.97,15.15,12.01,23.31,17.19s16.64,9.31,26.15,8.21c4.22-.49,7.86-3.26,7.86-7.86,0-3.87-3.62-8.35-7.86-7.86-7.53.87-13.69-3.1-19.77-7.07-6.45-4.22-12.52-8.95-18.56-13.72-3.33-2.63-7.87-3.25-11.12,0-2.73,2.73-3.35,8.48,0,11.12h0Z"/>
            <path class="cls-1" d="M179.39,172.75c3.77,7.5,7.32,15.45,12.6,22.04s12,10.36,18.93,14.18c8.87,4.88,16.81-8.69,7.94-13.58-5.66-3.12-11.6-6.22-15.54-11.52-4.23-5.71-7.17-12.73-10.36-19.05-4.55-9.04-18.12-1.09-13.58,7.94h0Z"/>
          </g>
          <path class="cls-4" d="M117.44,274.61c4.53.42,11.13.52,18.74-1.25,17.57-4.08,28.34-15.32,32.23-19.49,3.38-3.62,9.5-14.58,21.61-36.36,9.02-16.23,11.16-20.56,17.24-23.24,7.84-3.45,14.19-.59,21.11-6.62,1.25-1.09,6.22-5.42,5.87-11.12-.46-7.53-9.86-11.65-11.62-12.37-2.14-.88-8.49-3.08-19.86.37-18,5.47-28.6,19.05-30.36,21.36-6.7,8.82-6.67,13.48-21.24,39.98-1.48,2.68-4.07,7.28-9.37,10.62-6.45,4.06-13.46,4.1-17.49,3.75"/>
        </g>
        <g>
          <path class="cls-3" d="M85.51,142.99c26.28,9.09,53.22,3.72,66.23-15.33,2.21-3.23,3.89-6.7,5.09-10.33,16.7-39.57,21.49-61.82,14.36-66.72-4.4-3.02-13.33.56-26.79,10.73l.64,2.97c-5.44-7.24-12.34-13.92-20.58-19.55-8.71-5.95-17.97-10.08-27.18-12.46l5.34-.86c4.58-16.24,4.66-25.86.25-28.85-7.19-4.88-26.3,7.81-57.34,38.05h.04c-3.13,2.52-5.92,5.47-8.24,8.88-15.49,22.68-5.75,56.7,21.54,78.64"/>
          <path class="cls-4" d="M61.98,96.55c.73,1.34,2.88,4.88,7.26,6.88,6.95,3.16,13.55-.28,14.36-.72-.11.91-.91,8.31,4.56,13.64,3.45,3.36,7.53,4.08,9.05,4.27"/>
          <ellipse cx="64.17" cy="71.54" rx="10.93" ry="7.69" transform="translate(-31.1 84.18) rotate(-55.67)"/>
          <ellipse cx="117.61" cy="108.05" rx="10.93" ry="7.69" transform="translate(-37.95 144.23) rotate(-55.67)"/>
        </g>
        <path class="cls-3" d="M35.4,123.68c-23.93,14.99-19.5,48.25-9.21,70.77,1.16,3.16,2.25,6.33,3.15,9.56,2.25,8.07,3.55,14.83,3.95,22.39.21,3.97.13,7.32,0,9.75"/>
        <path class="cls-3" d="M43.52,161.73c-4.79-18.39-9.21-32.99-12.44-43.14-4.63-14.54-8.62-25.65-3.32-35.67.79-1.49,3.67-6.94,8.3-7.47,4.87-.55,10.01,4.55,16.59,15.76,6.42,10.92,14.89,28.8,19.91,55.58"/>
        <path class="cls-3" d="M83.87,225.12c-3.34.25-11.83,1.34-18.62,7.87-12.53,12.06-7.39,31.24-6.75,33.48,4.22,14.8,16.74,22.29,21.24,24.99,3.64,2.18,6.95,3.53,9.37,4.37-2.06,3.84-4.78,10.06-5.62,18.12-.18,1.77-.38,3.6-.48,5.45-2.18.34-5.23,1.21-7.99,3.54-4.93,4.14-6.95,11.19-5.33,18.17,10.8.07,21.6.13,32.4.2l-.02-.02c.18,0,.39.02.54.02,7.45-15.95,14.91-31.9,22.36-47.85-2.75-7.41-5.5-14.83-8.25-22.24,3.77-4.38,9.48-12.1,13.12-23.11,4.11-12.42,3.5-22.68,3.12-28.11-.86-12.51-4.74-15.45-7.5-28.74-1.12-5.4-1.4-14.02-1.33-31.43.02-5.31.12-9.68.2-12.58"/>
      </g>
      <path class="cls-1" d="M115.87,41.78c-3.33,6.45-10.96,21.68-8.71,23.18,2.25,1.5,13.37-11.47,18.02-17.03"/>
      <path class="cls-1" d="M104.03,36.45c-6.04,10.28-8.6,16.18-7.72,16.81.93.67,5.71-4.04,14.35-14.12"/>
      <path class="cls-1" d="M134.18,56.64c-7.52,9.25-12.15,13.72-13.05,13.11-.95-.64,1.58-6.46,8-18.07"/>
      <path class="cls-1" d="M121.41,167.64c-11.68-.18-17.58.33-17.69,1.52-.12,1.25,6.12,3.26,18.72,6.03"/>
      <path class="cls-1" d="M123.01,181.51c-13.56.29-21.66,1.4-21.84,2.61-.19,1.27,6.98,3.05,21.5,5.34"/>
      <path class="cls-1" d="M123.52,193.71c-10.27,5.58-17.67,10.03-17.18,11.12.51,1.15,6.94-.16,19.27-3.94"/>
    </g>
  </g>
</svg>