<?xml version="1.0" encoding="UTF-8"?>
<svg id="Camada_2" data-name="Camada 2" xmlns="http://www.w3.org/2000/svg" viewBox="0 0 302.24 251.27">
  <defs>
    <style>
      .cls-1 {
        fill: #848484;
      }

      .cls-2 {
        stroke-width: 4px;
      }

      .cls-2, .cls-3 {
        stroke: #000;
        stroke-linecap: round;
        stroke-linejoin: round;
      }

      .cls-2, .cls-4 {
        fill: #b7b7b7;
      }

      .cls-3 {
        fill: none;
        stroke-width: 5.29px;
      }
    </style>
  </defs>
  <g id="Camada_1-2" data-name="Camada 1">
    <path class="cls-4" d="M144.95,67.65c5.61-2.44,14.34-5.99,26.08-6.31,3.77-.1,15.82-.08,29.45,6.31,7,3.28,23.48,11.02,30.29,29.02,1.79,4.74,6.16,16.32,1.26,26.92-6.21,13.42-20.59,10.81-26.08,23.56-5.09,11.82,4.61,20.27,0,29.02-3.98,7.55-16.89,3.55-28.53,3.77-1.45.03-2.89.12-4.28.31-1.8-.35-3.24-.25-4.41.16-.84,1.56-1.77,2.87-2.79,3.98s-2.11,2-3.28,2.73c-7.4,9.89-23.93,19.34-32.03,4.02-.31-.63-.6-1.3-.86-2.02-.26-.72-.49-1.49-.7-2.31-.28-.73-.54-1.51-.78-2.33-.38-.64-.69-1.31-.9-2.03-.21-.72-.32-1.5-.29-2.35-.98-.67-2.01-1.22-3.07-1.68-1.06-.45-2.13-.83-3.23-1.09-1.05-.51-2.09-.99-3.15-1.41-3.18-1.27-6.55-2.03-10.26-1.87-1.07-.23-2.15-.43-3.25-.61-3.28-.55-6.66-.92-10.18-1.21-1.01-.29-2.04-.58-3.12-.85-.8-.84-1.65-1.66-2.55-2.49-1.82-1.65-3.89-3.32-6.27-5.14-.97-.98-1.92-1.97-2.81-2.98-2.66-3.04-4.72-6.31-4.94-10.39-.19-.78-.36-1.54-.52-2.29-3.08-14.26-4.23-22.9-2.4-29.98,5.37-20.85,28.11-30.72,73.61-50.48Z"/>
    <g>
      <path class="cls-4" d="M164.57,93.01c1.47-3.16,3.2-7.02,1.43-9.74-1.09-1.67-3.47-2.87-5.7-3.09,0,0-1.33-.12-2.7.2-.18-3.38-.74-6.69-1.66-9.89C146.85,25.67,137.71,3.23,128.5,3.21c-5.68-.02-11.38,8.49-17.11,25.52l2.35,2.23c-5.9-2-12.2-3.42-18.78-4.18.94.11,1.92-5.15,2.03-5.88.51-3.19-.14-6.57-1.84-9.32-.63-1.02-1.48-1.97-2.48-2.62-1.36,16.83-4.53,49.68-9.32,49.78-4.45.1-8.5-28.08-10.61-45.5-.79.42-1.51,1-2.07,1.7-1.22,1.52-1.88,3.49-1.83,5.44.07,2.49,1.3,4.9,3.3,6.39-.41-.31-3.95.67-4.55.77-1.71.3-3.42.64-5.12,1.03-3.37.78-6.69,1.76-9.95,2.93l4.18-3.96C50.98,10.5,45.28,1.99,39.6,2c-9.25.03-18.44,22.66-27.56,67.89l.03-.03c-1.01,3.35-1.64,6.81-1.84,10.35-.99-.12-1.78-.04-1.78-.04-2.23.22-4.62,1.42-5.7,3.09-1.78,2.72-.04,6.58,1.43,9.74,1.66,3.58,5.1,9.47,12.36,15.21-1.39.32-4.85,1.27-5.47,3.56-.36,1.35.15,3.55,5.94,8.08,12.66,9.9,30.53,14.11,46.14,16.45,15.93,2.39,32.25,2.05,48.08-.89,14.09-2.61,29.05-6.59,40.52-15.57,5.79-4.53,6.3-6.73,5.94-8.08-.62-2.29-4.07-3.25-5.47-3.56,7.25-5.73,10.69-11.63,12.36-15.21Z"/>
      <path class="cls-1" d="M83.35,58.72c4.79-.1,7.96-32.95,9.32-49.78-.88-.57-1.86-.9-2.91-.8-2.56.26-4.93,2.94-5.67,5.28-.85,2.69-.56,5.66-.79,8.44-.03.3-.04.6-.06.89-.03.59-.03,1.15-.01,1.7-.08-.61-.18-1.2-.29-1.77-.06-.28-.12-.56-.18-.84-.42-1.74-.64-3.03-1.66-4.59-1.18-1.81-2.53-3.99-4.77-4.55-1.24-.31-2.49-.07-3.58.51,2.11,17.43,6.16,45.6,10.61,45.5Z"/>
    </g>
    <path class="cls-1" d="M59.56,31.22c1.15,15.11,2.75,23.14,4.13,23.16,1.45.02,3.04-8.36,4.75-25.15"/>
    <path class="cls-1" d="M105.7,30.44c-1.15,15.11-2.75,23.14-4.13,23.16-1.45.02-3.04-7.89-4.75-24.68"/>
    <path d="M84.46,139.9c-7.24,0-14.46-.54-21.62-1.61-13.56-2.03-33.18-5.99-47.07-16.85-5.43-4.25-7.41-7.29-6.64-10.17.42-1.55,1.59-2.83,3.44-3.78-4.45-4.04-7.88-8.62-10.21-13.63-1.48-3.17-3.71-7.97-1.29-11.68,1.37-2.1,4.26-3.7,7.18-3.99.02,0,.06,0,.13-.01.29-2.88.85-5.76,1.68-8.58,0-.03.01-.07.02-.1C22.63,7.24,32.94.02,39.59,0h.02c6.79,0,12.82,8.54,18.99,26.88.06.18.1.37.1.56,1.1-.3,2.21-.58,3.32-.84,1.71-.4,3.47-.75,5.23-1.06.13-.02.39-.09.72-.17.09-.02.19-.04.28-.07-.86-1.48-1.36-3.17-1.41-4.9-.07-2.41.76-4.87,2.27-6.75,1.95-2.43,4.97-3.57,7.69-2.89,2.27.56,3.8,2.26,4.94,3.87.1-.61.25-1.22.44-1.82.94-2.96,3.84-6.3,7.37-6.66,2.72-.28,5.45,1.35,7.3,4.36,1.93,3.13,2.7,7.03,2.11,10.69-.26,1.65-.56,2.95-.87,3.96,3.94.58,7.81,1.39,11.56,2.44,6.11-18,12.1-26.4,18.82-26.4h.02c6.62.02,16.88,7.18,29.38,68.81.76,2.67,1.28,5.4,1.55,8.14.56,0,.96.02,1.04.03,2.94.29,5.83,1.89,7.2,3.99,2.42,3.71.19,8.5-1.29,11.68-2.33,5.02-5.76,9.59-10.21,13.63,1.85.95,3.02,2.22,3.44,3.78.77,2.88-1.21,5.93-6.64,10.17-12.31,9.63-28.58,13.59-41.39,15.96-9.02,1.67-18.09,2.51-27.12,2.51ZM9.11,82.15c-.29,0-.47.02-.47.02-1.69.16-3.5,1.11-4.21,2.19-1.21,1.85.4,5.29,1.56,7.81,2.52,5.42,6.48,10.29,11.78,14.48.6.48.88,1.26.71,2.01-.17.75-.76,1.34-1.51,1.51-2.5.57-3.8,1.48-3.98,2.13-.04.16-.26,1.68,5.24,5.99,13.15,10.28,32.09,14.08,45.2,16.05,15.66,2.35,31.62,2.05,47.42-.87,12.35-2.29,28.03-6.08,39.65-15.17,5.5-4.3,5.28-5.83,5.24-5.99-.17-.65-1.47-1.56-3.98-2.13-.75-.17-1.34-.76-1.51-1.51-.17-.75.11-1.53.71-2.01,5.3-4.19,9.26-9.06,11.78-14.48h0c1.17-2.52,2.77-5.96,1.56-7.81-.71-1.09-2.52-2.03-4.22-2.19h0s-1.03-.08-2.04.16c-.58.14-1.19.01-1.66-.34-.48-.36-.77-.9-.8-1.5-.17-3.17-.7-6.35-1.58-9.45-.01-.05-.03-.1-.04-.15-11.58-57.12-20.93-65.67-25.48-65.68h0c-2.59,0-7.92,3.02-14.79,22.95l1.42,1.34c.68.65.82,1.68.34,2.48-.49.8-1.46,1.16-2.36.86-5.83-1.98-12.01-3.36-18.37-4.09-1.1-.13-1.88-1.12-1.76-2.21.07-.62.42-1.14.91-1.46.38-.87.93-3.19,1.14-4.52.44-2.73-.14-5.63-1.57-7.96-.76-1.23-2.12-2.62-3.49-2.48-1.62.17-3.42,2.19-3.96,3.89-.5,1.57-.54,3.34-.58,5.21-.02.91-.04,1.86-.12,2.8-.02.28-.04.55-.05.82-.02.54-.03,1.05-.01,1.55.03,1.06-.78,1.97-1.84,2.05-1.06.08-2-.68-2.14-1.74-.07-.56-.16-1.1-.27-1.63-.05-.26-.11-.52-.17-.77l-.13-.54c-.33-1.4-.54-2.32-1.26-3.42l-.13-.2c-1.01-1.55-2.05-3.15-3.44-3.5-1.48-.37-2.87.59-3.61,1.52-.92,1.15-1.43,2.66-1.39,4.13.05,1.88,1.01,3.73,2.5,4.85.88.66,1.06,1.91.4,2.8-.49.66-1.31.93-2.06.75-.61.06-2.16.43-2.78.58-.45.11-.81.19-.98.22-1.68.29-3.36.63-5,1.01-3.32.77-6.59,1.73-9.72,2.86-.89.32-1.88-.03-2.38-.83-.5-.81-.36-1.85.33-2.5l3.25-3.08c-6.87-19.93-12.19-22.95-14.79-22.95h0c-4.56.01-13.94,8.61-25.54,65.96,0,.16-.03.32-.08.48-.98,3.24-1.57,6.57-1.75,9.89-.03.55-.29,1.06-.71,1.42-.42.35-.97.52-1.52.46-.34-.04-.65-.05-.89-.05ZM70.95,28.36h0,0ZM70.94,28.35s0,0,0,0c0,0,0,0,0,0Z"/>
    <path class="cls-2" d="M81.7,151.26c-5,.51-47.33,5.14-53,20.47-.49,1.31-1.81,4.88-.42,8.41,1.7,4.34,6.85,6.98,16.83,8.83,15.1,2.81,25.34.84,40.39,0,6.54-.37,16.07-.64,27.76,0"/>
    <path class="cls-2" d="M72.07,139.34c-.11,2.06-.06,5.14.84,8.69,2.24,8.82,8.11,14.12,11.5,17.11,6.53,5.74,12.98,7.98,19.07,10.1,7.77,2.7,14.24,3.47,18.23,3.93"/>
    <path class="cls-2" d="M108.14,164.74c-5.17.51-39.98,4.04-45.84,19.36-.5,1.31-1.87,4.88-.43,8.41,1.76,4.34,7.07,6.98,17.37,8.83,15.59,2.81,26.17.84,41.71,0,6.75-.37,15.72-1.1,29.47-2.97"/>
    <path class="cls-3" d="M60.39,103.48c1.44.74,5.46,2.57,10.52,1.68,8.01-1.4,11.75-8.38,12.2-9.25.45.87,4.19,7.86,12.2,9.25,5.06.88,9.07-.94,10.52-1.68"/>
    <ellipse cx="47.29" cy="80.18" rx="8.19" ry="11.64"/>
    <ellipse cx="116.2" cy="80.18" rx="8.19" ry="11.64"/>
    <path class="cls-4" d="M216.09,213.38c.2.48.41.97.61,1.45-.02-.08-.05-.15-.07-.23-.18-.41-.36-.81-.54-1.22Z"/>
    <path class="cls-4" d="M255.59,217.62c.35.46.7.93,1.05,1.41-.08-.18-.16-.32-.23-.4-.28-.34-.56-.67-.83-1.01Z"/>
    <path class="cls-4" d="M285.47,192.38c-.28-.22-.54-.46-.81-.68-.41-.29-.82-.58-1.21-.88.67.52,1.35,1.04,2.02,1.56Z"/>
    <path class="cls-4" d="M277.96,184.99c-.35-.46-.7-.92-1.05-1.38-.17-.22-.35-.42-.52-.64.52.67,1.04,1.35,1.56,2.02Z"/>
    <path class="cls-4" d="M244.11,195.46c-.09-.21-.17-.41-.26-.62-.25-.59-.5-1.18-.75-1.77.34.8.67,1.59,1.01,2.39Z"/>
    <path class="cls-4" d="M183.28,214.55c-.24-.31-.47-.63-.71-.95-.28-.36-.57-.71-.86-1.08l1.56,2.02Z"/>
    <path class="cls-1" d="M216.62,214.6c.02.08.05.15.07.23.14.32.27.64.41.96-.17-.4-.32-.8-.48-1.19Z"/>
    <path class="cls-1" d="M256.42,218.63c.07.08.14.22.23.4.17.23.34.44.5.67-.25-.36-.48-.72-.73-1.07Z"/>
    <g>
      <path class="cls-4" d="M296.96,129.03c-1.19-2.06-2.99-4.83-5.64-7.81.96-.24,2.2-.72,2.95-1.82,1.57-2.29.09-5.83-2.1-10.09-2.4-4.67-4.95-9.28-7.96-13.58-3.03-4.33-6.81-8.02-9.91-12.29-.57-.78-1.15-1.55-1.74-2.3-9.43,9.69-19.13,18.43-20.16,17.71-1.22-.86,10.34-23.64,17.9-36.63-.53-.43-1.09-.84-1.63-1.28-.88-.7-1.79-1.26-2.74-1.72-10.95,12.16-26.55,29.36-27.82,28.46-1.17-.82,6.85-17.96,14.05-30.66-1.76-.04-3.78-.02-6.04.14-10.54,11.44-22.82,23.05-24.04,22.2-1.16-.81,6.91-17.46,14.1-30.08-2.22-.69-5-1.07-8.08-1.39-24.67-2.55-48.3,5.47-71.16,13.68l65.83,41.34c-2.75-1.02-14.68-5.08-27.14.84-13.85,6.58-20.26,21.48-20.56,34.07-.35,14.92,7.79,29,20.97,36.6-8.92.07-16.32.87-21.79,1.68-8.34,1.24-11.35,2.4-13.98,4.63-5.46,4.63-6.47,11.43-6.58,12.2-.45,3.23,0,5.92.41,7.57,7.42.28,18.04.62,30.84.84,27.46.46,23.88-.34,43.58,0,29.18.5,33.47,2.16,40.29-2.52,10.89-7.47,14.73-21.79,16.45-28.18.63-2.33,1.09-4.57,1.42-6.71.34-2.14.55-4.18.67-6.11,1.36-4.89,2.27-9.88,2.75-14.91.44.2.97.41,1.63.61,2.33.71,5.69,1.73,7.49.11,1.12-1,1.05-2.59,1.2-4.14.36-3.73-1.25-6.62-3.47-10.47Z"/>
      <path class="cls-1" d="M222.08,79.38c1.22.85,13.5-10.76,24.04-22.2-1.59.11-3.28.29-5.07.56.44-1.27.81-3.05.12-4.72-.76-1.83-2.54-2.96-4.99-3.72-7.19,12.63-15.26,29.27-14.1,30.08Z"/>
      <path class="cls-1" d="M238.11,87.69c1.27.89,16.87-16.3,27.82-28.46-3.32-1.6-7.08-1.85-11.78-2.11-.61-.03-1.29-.06-1.99-.08-7.2,12.69-15.22,29.84-14.05,30.66Z"/>
      <path class="cls-1" d="M252.4,98.84c1.03.72,10.73-8.02,20.16-17.71-1.91-2.44-3.97-4.77-6.16-6.96.13-.1.26-.2.39-.31,2.54-2.13,6.2-5.2,5.7-8.47-.21-1.36-1.12-2.3-2.2-3.18-7.56,12.99-19.12,35.77-17.9,36.63Z"/>
    </g>
    <path d="M255.28,204.05c-2.74,0-6.05-.11-10.22-.25-4.43-.15-9.95-.33-16.81-.45-9.01-.15-13.19-.07-17.6.02-5.2.11-11.1.23-25.98-.02-10.29-.17-20.68-.46-30.88-.84-.89-.03-1.65-.65-1.87-1.52-.68-2.76-.83-5.56-.45-8.33.19-1.38,1.44-8.51,7.27-13.45,3.12-2.65,6.62-3.84,14.98-5.08,5.18-.77,10.48-1.28,15.81-1.53-10.73-8.41-17.01-21.26-16.69-34.81.28-11.9,6.13-28.43,21.7-35.83,12.3-5.85,24.16-2.59,28.69-.91,1.04.38,1.56,1.53,1.18,2.57-.38,1.04-1.53,1.56-2.57,1.18-4.05-1.5-14.66-4.43-25.58.77-13.93,6.62-19.17,21.55-19.42,32.31-.33,14.18,7.32,27.52,19.97,34.82.78.45,1.17,1.37.94,2.24-.23.87-1.02,1.48-1.92,1.49-7.25.06-14.49.62-21.51,1.66-8.31,1.24-10.81,2.33-12.98,4.17-4.72,4-5.73,9.82-5.89,10.95-.25,1.77-.22,3.57.07,5.36,9.67.35,19.49.62,29.23.78,14.81.25,20.66.13,25.83.02,4.46-.09,8.67-.18,17.76-.02,6.89.12,12.43.3,16.87.45,14.21.47,17.58.58,22.25-2.62,10.28-7.05,14.04-21.06,15.65-27.05.57-2.15,1.04-4.33,1.38-6.51.3-1.94.52-3.93.65-5.93,0-.14.03-.28.07-.41,1.31-4.72,2.22-9.62,2.69-14.56.06-.65.43-1.22,1-1.54.56-.32,1.25-.35,1.84-.08.42.19.86.36,1.37.52,1.61.49,4.61,1.4,5.58.53.35-.31.42-1.19.49-2.11.02-.24.04-.49.06-.73.29-3.02-.97-5.38-3.21-9.28-1.52-2.64-3.33-5.15-5.4-7.47-.47-.52-.62-1.25-.42-1.92s.75-1.18,1.43-1.35c.87-.21,1.47-.55,1.78-1.01.96-1.39-.51-4.69-2.23-8.04-1.96-3.82-4.62-8.78-7.82-13.35-1.53-2.19-3.32-4.27-5.06-6.29-1.63-1.9-3.31-3.86-4.84-5.96-2.34-3.23-4.93-6.26-7.69-9.02-.4-.4-.61-.96-.58-1.52.03-.57.3-1.09.75-1.45l.36-.29c2-1.67,5.34-4.48,5.01-6.63-.13-.86-.96-1.55-2.32-2.59-.26-.2-.52-.4-.78-.61-3.4-2.71-7.3-3.06-13.39-3.4-4.19-.24-8.46-.03-12.69.6-.7.1-1.39-.16-1.84-.7-.45-.54-.58-1.27-.35-1.94.46-1.32.51-2.43.16-3.3-1.07-2.6-6.46-3.37-11.43-3.88-23.31-2.41-45.62,4.72-70.28,13.57-1.04.37-2.18-.17-2.56-1.21-.37-1.04.17-2.18,1.21-2.56,25.14-9.02,47.91-16.28,72.05-13.78,6.66.69,12.8,1.69,14.71,6.34.4.97.58,2.03.53,3.15,3.58-.39,7.17-.48,10.71-.28,5.95.33,11.09.62,15.66,4.27.24.19.48.37.72.56,1.54,1.18,3.46,2.65,3.85,5.16.57,3.76-2.48,6.92-5.14,9.23,2.34,2.48,4.55,5.14,6.58,7.94,1.43,1.97,3.06,3.87,4.64,5.71,1.79,2.09,3.65,4.26,5.29,6.6,3.34,4.76,6.08,9.89,8.1,13.82,2.32,4.52,4.22,8.85,1.97,12.13-.37.54-.83,1.01-1.38,1.41,1.54,1.93,2.93,3.97,4.15,6.09,2.23,3.87,4.15,7.22,3.73,11.66-.02.22-.04.43-.05.65-.11,1.52-.26,3.41-1.81,4.79-2.44,2.18-6.08,1.3-8.75.51-.53,4.25-1.36,8.45-2.48,12.52-.13,2.05-.36,4.1-.67,6.09-.36,2.31-.86,4.64-1.47,6.92-1.72,6.42-5.75,21.43-17.25,29.32-4.15,2.84-7.38,3.57-14.43,3.57Z"/>
    <path class="cls-4" d="M216.62,214.6c.16.39.31.8.48,1.19-.14-.33-.27-.64-.41-.96.23.75.48,1.47.78,2.18.59,2.07,2.54,4.09,2.32,6.09,6.24.22,11.52.36,16.79.33-2.4-2.04-4.31-4.68-5.34-8.31-.31-.62-.61-1.25-.9-1.87-.3-.63-.59-1.25-.88-1.88-3.62-7.78-6.81-15.76-9.92-23.77-4.09-.11-7.16-.34-11.6-.32,1.93,8.52,4.52,16.88,7.75,25.01.3.77.61,1.53.93,2.3Z"/>
    <path class="cls-4" d="M255.13,216.81c.42.62.85,1.22,1.29,1.83.25.34.48.71.73,1.07-.17-.23-.34-.45-.5-.67.07.16.15.34.23.56.43,3.18,2.89,7.54,1.93,9.11.97-.08,1.86-.21,2.55-.32,3.09-.47,6.22-1.65,8.32-4.05,1.63-1.85,2.03-4.11,2.11-5.59.14-.07.27-.14.41-.21.95,1.16,3.17,3.45,6.27,3.54,4.33.13,6.97-3.24,8.93-6.7-3.28.68-8.37-3.25-11.21-5.38-.7-.5-1.37-1.01-2.05-1.52-4.03-3.08-7.85-6.43-10.09-9.14-3.5-4.23-6.77-8.67-9.97-13.15-3.92.55-8.31.85-13.3,1.06,1.01,2.54,2.02,5.07,3.08,7.59,3.2,7.52,6.64,15.2,11.27,21.97Z"/>
    <path class="cls-4" d="M155.78,243.11c.25.8.81,2.21,2.14,3.33,2.29,1.93,5.19,1.59,6.53,1.43,3.46-.41,5.86-2.58,8.2-4.87,1.13-1.1,2.18-2.27,3.21-3.47-3.04-1.31-5.27-4.19-6.73-7.6-.46-.67-.91-1.34-1.37-2.01-5.89-8.75-11.54-19.42-15.4-27.32.43-.39,1.01-.89,1.73-1.47-8.52,4.46-18.82,9.49-22.43,18.94-1.06,2.77-2.94,6.06-1.43,9.15,2.13,4.35,8.72,4.51,9.15,4.51-.54.89-2.25,3.98-1.66,8.08.14,1.01.64,4.83,3.09,6.53,3.28,2.28,9.79.59,14.97-5.23Z"/>
    <path class="cls-4" d="M284.66,191.7c1.62,1.14,3.31,2.16,5.04,3.09.35.19.7.37,1.05.55,1.29.88,2.93,1.33,4.25,2.16.11-.33.23-.66.34-.99,1.17-3.59,2.24-7.23,2.67-10.98.48-4.25-.2-8.08-1.41-12.13-1.08-3.62-2.74-7.26-5.52-9.9-1.05-1-2.37-1.9-3.86-1.96-4.81-.2-4.59,8.94-13.74,16.83-.09.08-.19.15-.28.23,1.23,1.68,2.47,3.35,3.73,5.01,2.33,2.94,4.84,5.71,7.74,8.09Z"/>
    <path class="cls-4" d="M185.25,216.88c.45.54.91,1.07,1.38,1.6.43.16.89.47,1.32.87.4.46.82.99,1.22,1.56,1.19,1.57,1.81,3.03,2,4.36,2.5-1.2,5.18-2.03,7.93-2.44-.39-.35-.78-.71-1.15-1.08-.43-.67-.8-1.41-1.09-2.21-.37-.68-.68-1.41-.95-2.22-.26-.81-.47-1.69-.62-2.65-.3-.8-.59-1.6-.88-2.41-2.75-7.72-4.97-15.61-6.61-23.66-8.36,1.03-12.55,2.35-15.02,3.22-.99.35-1.96.74-2.93,1.16,3.58,7.26,7.83,14.16,12.7,20.63.87,1.11,1.77,2.2,2.67,3.27Z"/>
    <path class="cls-1" d="M167.76,229.91c.45.67.91,1.34,1.37,2.01,1.46,3.41,3.69,6.29,6.73,7.6,2.21-2.58,4.27-5.29,6.57-7.79,2.49-2.71,5.47-4.9,8.74-6.47-.19-1.33-.82-2.78-2-4.36-.4-.57-.82-1.09-1.22-1.56-.44-.4-.89-.71-1.32-.87-.46-.53-.92-1.06-1.38-1.6-.91-1.08-1.8-2.17-2.67-3.27.24.31.47.63.71.95l-1.56-2.02c.28.36.57.72.86,1.08-4.87-6.46-9.13-13.37-12.7-20.63-5.18,2.2-10.06,5.13-15.03,7.75-.24.13-.5.26-.74.39-.72.58-1.3,1.08-1.73,1.47,3.85,7.9,9.51,18.57,15.4,27.32Z"/>
    <path class="cls-1" d="M195.29,214.67c.15.96.36,1.84.62,2.65.26.81.58,1.55.95,2.22.29.8.66,1.53,1.09,2.21.38.37.76.73,1.15,1.08,1.53-.22,3.09-.32,4.65-.27,1.15.04,2.33.07,3.54.11,4.66.15,8.76.31,12.51.44.22-2-1.73-4.02-2.32-6.09-.3-.71-.55-1.43-.78-2.18-.2-.48-.41-.97-.61-1.45.17.41.36.81.54,1.22-.32-.76-.62-1.53-.93-2.3-3.22-8.13-5.81-16.49-7.75-25.01-2.46.01-5.35.1-9.07.32-4.35.26-7.98.6-11.06.98,1.63,8.05,3.86,15.94,6.61,23.66.29.8.58,1.6.88,2.41Z"/>
    <path class="cls-1" d="M230.35,213.26c.3.63.6,1.25.9,1.87,1.03,3.64,2.93,6.28,5.34,8.31,4.28-.02,8.55-.17,13.33-.49.58-.04,1.12-.08,1.66-.12-.26,1.62-.37,3.42.71,4.59,1.3,1.42,4.13,1.49,6.52,1.28.97-1.57-1.49-5.93-1.93-9.11-.08-.22-.16-.41-.23-.56-.35-.47-.7-.95-1.05-1.41.27.34.55.67.83,1.01-.44-.6-.87-1.21-1.29-1.83-4.63-6.77-8.08-14.44-11.27-21.97.09.21.17.41.26.62-.34-.8-.67-1.59-1.01-2.39.25.59.5,1.18.75,1.77-1.05-2.52-2.07-5.05-3.08-7.59-3.79.16-7.91.26-12.45.37-3.61.09-6.37.06-8.78,0,3.11,8,6.29,15.98,9.92,23.77.29.63.59,1.25.88,1.88Z"/>
    <path class="cls-1" d="M274.14,208.48c.67.51,1.35,1.02,2.05,1.52,2.85,2.13,7.93,6.06,11.21,5.38.43-.75.82-1.5,1.19-2.22,2.58-5.02,4.62-10.3,6.41-15.65-1.32-.83-2.95-1.28-4.25-2.16-.35-.18-.7-.36-1.05-.55-1.74-.94-3.42-1.96-5.04-3.09.27.22.53.47.81.68-.67-.52-1.35-1.04-2.02-1.56.4.3.81.59,1.21.88-2.9-2.38-5.41-5.15-7.74-8.09.35.46.69.92,1.05,1.38-.52-.67-1.04-1.35-1.56-2.02.17.22.35.43.52.64-1.26-1.66-2.5-3.33-3.73-5.01-5.18,4.36-11.19,6.48-19.12,7.59,3.2,4.48,6.47,8.92,9.97,13.15,2.24,2.71,6.06,6.06,10.09,9.14Z"/>
    <path d="M298.82,172.77h0c-1.41-4.73-3.4-8.26-6.06-10.78-1.68-1.59-3.41-2.44-5.16-2.51-3.64-.15-5.24,2.88-7.06,6.39-1.67,3.21-3.75,7.2-8.07,10.92-9.19,7.92-21.52,8.22-43.89,8.77-5.65.14-9.18,0-12.59-.14-4.47-.18-8.69-.35-16.93.15-15.44.93-22.34,2.8-26.63,4.32-4.9,1.74-9.47,4.25-13.89,6.68-1.44.79-2.88,1.58-4.33,2.34l-1.83.96c-8.7,4.53-18.55,9.67-22.28,19.43-.16.41-.33.83-.51,1.26-1.12,2.7-2.52,6.06-.84,9.48,1.69,3.45,5.34,4.79,7.97,5.31-.61,1.76-1.04,4.07-.66,6.75.53,3.76,1.85,6.4,3.92,7.83,1.32.91,2.91,1.35,4.64,1.35,3.44,0,7.43-1.73,10.94-4.86.4.56.87,1.06,1.39,1.49,2.95,2.49,6.53,2.06,8.06,1.88,4-.48,6.71-2.84,9.36-5.43,2.15-2.1,4.04-4.41,5.87-6.65,1.28-1.57,2.6-3.19,3.98-4.68,5.19-5.65,12.42-8.76,19.79-8.53l3.53.11c3.01.1,5.78.2,8.38.29,13.26.47,22.1.79,33.8.03.05,1.24.37,2.65,1.41,3.79,2.31,2.52,7,2.17,10.84,1.59,4.07-.62,7.37-2.25,9.53-4.71.87-.99,1.53-2.16,1.98-3.47,1.37,1,3.14,1.83,5.25,1.89,6.71.18,9.99-6.19,11.96-10,2.49-4.83,4.67-10.21,6.87-16.94,1.17-3.56,2.3-7.4,2.76-11.38.46-4.04.02-7.9-1.48-12.93ZM296.33,185.25c-.41,3.62-1.49,7.23-2.59,10.59-2.13,6.52-4.23,11.71-6.62,16.35-2.16,4.19-4.41,7.94-8.28,7.84-2.21-.07-3.94-1.79-4.78-2.81-.59-.72-1.59-.94-2.43-.53l-.39.2c-.66.31-1.09.96-1.14,1.69-.1,1.81-.65,3.28-1.62,4.39-1.94,2.2-4.94,3.06-7.12,3.39-5.33.81-6.85.14-7.29-.34-.52-.56-.37-1.94-.21-2.93.1-.6-.09-1.22-.5-1.67-.41-.45-1-.69-1.62-.64h-.13c-.5.05-.99.08-1.52.12-11.82.8-20.65.49-34.03,0-2.6-.09-5.38-.19-8.39-.29l-3.54-.11c-8.57-.27-16.88,3.32-22.86,9.82-1.45,1.58-2.81,3.25-4.13,4.86-1.84,2.25-3.58,4.38-5.57,6.32-2.29,2.24-4.27,3.99-7.04,4.31-1.18.14-3.38.4-5.01-.97-.87-.73-1.31-1.7-1.52-2.38-.21-.69-.78-1.21-1.49-1.37-.71-.15-1.44.08-1.92.62-4.44,4.98-9.96,6.56-12.34,4.92-.77-.53-1.78-1.85-2.25-5.17-.44-3.13.68-5.58,1.4-6.77.37-.61.38-1.38.03-2.01-.35-.63-1.01-1.02-1.73-1.03-.06,0-5.76-.1-7.37-3.39-.88-1.8,0-3.93.94-6.19.19-.47.38-.92.55-1.37,3.19-8.34,12.33-13.11,20.4-17.31l1.84-.96c1.47-.77,2.93-1.57,4.39-2.38,4.28-2.35,8.71-4.78,13.31-6.41,2.37-.84,8.68-3.08,25.53-4.09,3.94-.24,6.94-.32,9.49-.32s4.81.09,7.04.18c3.48.14,7.07.29,12.85.14,23.3-.57,36.13-.89,46.4-9.74,4.9-4.22,7.27-8.78,9-12.1,1.58-3.04,2.33-4.27,3.35-4.24.75.03,1.61.51,2.57,1.41,2.14,2.03,3.77,4.98,4.98,9.03,1.34,4.48,1.74,7.87,1.34,11.33Z"/>
  </g>
</svg>