<?xml version="1.0" encoding="UTF-8"?>
<svg id="Camada_2" data-name="Camada 2" xmlns="http://www.w3.org/2000/svg" viewBox="0 0 291.62 249.84">
  <defs>
    <style>
      .cls-1, .cls-2, .cls-3, .cls-4 {
        stroke: #000;
        stroke-linecap: round;
        stroke-linejoin: round;
      }

      .cls-1, .cls-2, .cls-3, .cls-5 {
        fill: #b7b7b7;
      }

      .cls-1, .cls-4 {
        stroke-width: 5.29px;
      }

      .cls-2 {
        stroke-width: 5.23px;
      }

      .cls-3 {
        stroke-width: 5.37px;
      }

      .cls-4 {
        fill: none;
      }
    </style>
  </defs>
  <g id="Camada_1-2" data-name="Camada 1">
    <g>
      <path class="cls-5" d="M135.77,72.29c5.61-2.44,14.34-5.99,26.08-6.31,3.77-.1,15.82-.08,29.45,6.31,7,3.28,23.48,11.02,30.29,29.02,1.79,4.74,6.16,16.32,1.26,26.92-6.21,13.42-20.59,10.81-26.08,23.56-5.09,11.82,4.61,20.27,0,29.02-3.98,7.55-16.89,3.55-28.53,3.77-1.45.03-2.89.12-4.28.31-1.8-.35-3.24-.25-4.41.16-.84,1.56-1.77,2.87-2.79,3.98s-2.11,2-3.28,2.73c-7.4,9.89-23.93,19.34-32.03,4.02-.31-.63-.6-1.3-.86-2.02-.26-.72-.49-1.49-.7-2.31-.28-.73-.54-1.51-.78-2.33-.38-.64-.69-1.31-.9-2.03-.21-.72-.32-1.5-.29-2.35-.98-.67-2.01-1.22-3.07-1.68-1.06-.45-2.13-.83-3.23-1.09-1.05-.51-2.09-.99-3.15-1.41-3.18-1.27-6.55-2.03-10.26-1.87-1.07-.23-2.15-.43-3.25-.61-3.28-.55-6.66-.92-10.18-1.21-1.01-.29-2.04-.58-3.12-.85-.8-.84-1.65-1.66-2.55-2.49-1.82-1.65-3.89-3.32-6.27-5.14-.97-.98-1.92-1.97-2.81-2.98-2.66-3.04-4.72-6.31-4.94-10.39-.19-.78-.36-1.54-.52-2.29-3.08-14.26-4.23-22.9-2.4-29.98,5.37-20.85,28.11-30.72,73.61-50.48Z"/>
      <path class="cls-1" d="M72.53,155.9c-5,.51-47.33,5.14-53,20.47-.49,1.31-1.81,4.88-.42,8.41,1.7,4.34,6.85,6.98,16.83,8.83,15.1,2.81,25.34.84,40.39,0,6.54-.37,16.07-.64,27.76,0"/>
      <path class="cls-2" d="M213.58,107.56c-2.75-1.02-14.68-5.08-27.14.84-13.85,6.58-20.26,21.48-20.56,34.07-.35,14.92,7.79,29,20.97,36.6-8.92.07-16.32.87-21.79,1.68-8.34,1.24-11.35,2.4-13.98,4.63-5.46,4.63-6.47,11.43-6.58,12.2-.45,3.23,0,5.92.41,7.57,7.42.28,18.04.62,30.84.84,27.46.46,23.88-.34,43.58,0,29.18.5,33.47,2.16,40.29-2.52,10.89-7.47,14.73-21.79,16.45-28.18.63-2.33,1.09-4.57,1.42-6.71s.55-4.18.67-6.11c8.66-31.16-.78-66.57-25.04-87.45-2.14-1.81-4.31-3.43-6.5-4.87-13.16-8.66-27.31-11.12-35.93-12.63-29.51-5.18-53.17,4.26-62.91,8.83"/>
      <path class="cls-1" d="M278.04,166.18c-4.81-.2-4.59,8.94-13.74,16.83-9.73,8.39-22.32,8.69-45.15,9.25-13.15.32-15.07-.87-29.45,0-16.14.97-22.71,3.01-26.08,4.21-12.45,4.42-19.57,10.96-21.03,12.34-4.14,3.9-9.91,9.48-11.5,18.23-.51,2.82-1.26,7.28,1.12,11.78,3.34,6.32,10.29,7.88,11.5,8.13,6.48,1.33,11.81-2.71,20.19-8.69.84-.6,1.65-1.2,2.43-1.79,8.12-6.21,18.03-9.57,28.25-9.26,1.15.04,2.33.07,3.54.11,18.71.61,28.42,1.24,42.63.28,13.43-.91,18.02-2.37,21.87-4.21,8.26-3.93,13.47-9.76,15.98-12.62,4-4.56,7.89-8.99,9.53-15.42,3.33-13-3.81-28.9-10.1-29.16Z"/>
      <path class="cls-1" d="M62.9,143.98c-.11,2.06-.06,5.14.84,8.69,2.24,8.82,8.11,14.12,11.5,17.11,6.53,5.74,12.98,7.98,19.07,10.1,7.77,2.7,14.24,3.47,18.23,3.93"/>
      <path class="cls-3" d="M98.96,169.38c-5.17.51-39.98,4.04-45.84,19.36-.5,1.31-1.87,4.88-.43,8.41,1.76,4.34,7.07,6.98,17.37,8.83,15.59,2.81,26.17.84,41.71,0,6.75-.37,15.72-1.1,29.47-2.97"/>
      <g>
        <path class="cls-1" d="M101.13,136.52c28.57-7.79,49.02-28.69,49.02-53.25,0-4.17-.61-8.23-1.72-12.14C139.34,26.31,130.2,3.87,120.99,3.85c-5.68-.02-11.38,8.49-17.11,25.52l2.35,2.23c-9.12-3.1-19.21-4.83-29.83-4.83-11.22,0-21.86,1.93-31.38,5.37l4.18-3.96C43.47,11.14,37.77,2.63,32.09,2.64c-9.25.03-18.44,22.66-27.56,67.89l.03-.03c-1.24,4.1-1.91,8.37-1.91,12.76,0,29.24,28.99,53.3,66.16,56.21"/>
        <path class="cls-4" d="M51.21,108.12c1.44.74,5.46,2.57,10.52,1.68,8.01-1.4,11.75-8.38,12.2-9.25.45.87,4.19,7.86,12.2,9.25,5.06.88,9.07-.94,10.52-1.68"/>
        <ellipse cx="38.11" cy="84.82" rx="8.19" ry="11.64"/>
        <ellipse cx="107.02" cy="84.82" rx="8.19" ry="11.64"/>
      </g>
    </g>
  </g>
</svg>