<?xml version="1.0" encoding="UTF-8"?>
<svg id="Camada_2" data-name="Camada 2" xmlns="http://www.w3.org/2000/svg" viewBox="0 0 312.18 255.32">
  <defs>
    <style>
      .cls-1 {
        fill: #848484;
      }

      .cls-2 {
        fill: #b7b7b7;
      }
    </style>
  </defs>
  <g id="Camada_1-2" data-name="Camada 1">
    <path class="cls-2" d="M154.24,60.24c5.61-2.44,14.34-5.99,26.08-6.31,3.77-.1,15.82-.08,29.45,6.31,7,3.28,23.48,11.02,30.29,29.02,1.79,4.74,6.16,16.32,1.26,26.92-6.21,13.42-20.59,10.81-26.08,23.56-5.09,11.82,4.61,20.27,0,29.02-3.98,7.55-16.89,3.55-28.53,3.77-1.45.03-2.89.12-4.28.31-1.8-.35-3.24-.25-4.41.16-.84,1.56-1.77,2.87-2.79,3.98-1.02,1.1-2.11,2-3.28,2.73-7.4,9.89-23.93,19.34-32.03,4.02-.31-.63-.6-1.3-.86-2.02-.26-.72-.49-1.49-.7-2.31-.28-.73-.54-1.51-.78-2.33-.38-.64-.69-1.31-.9-2.03-.21-.72-.32-1.5-.29-2.35-.98-.67-2.01-1.22-3.07-1.68-1.06-.45-2.13-.83-3.23-1.09-1.05-.51-2.09-.99-3.15-1.41-3.18-1.27-6.55-2.03-10.26-1.87-1.07-.23-2.15-.43-3.25-.61-3.28-.55-6.66-.92-10.18-1.21-1.01-.29-2.04-.58-3.12-.85-.8-.84-1.65-1.66-2.55-2.49-1.82-1.65-3.89-3.32-6.27-5.14-.97-.98-1.92-1.97-2.81-2.98-2.66-3.04-4.72-6.31-4.94-10.39-.19-.78-.36-1.54-.52-2.29-3.08-14.26-4.23-22.9-2.4-29.98,5.37-20.85,28.11-30.72,73.61-50.48Z"/>
    <path class="cls-2" d="M91,143.85c-5,.51-47.33,5.14-53,20.47-.49,1.31-1.81,4.88-.42,8.41,1.7,4.34,6.85,6.98,16.83,8.83,15.1,2.81,25.34.84,40.39,0,6.54-.37,16.07-.64,27.76,0"/>
    <path class="cls-1" d="M62.08,168.75c-.58-5.61-1.3-12.58-6.22-17.46-1.06.36-2.1.74-3.13,1.13-7.54,3-13.75,6.99-15.69,12.22-.49,1.31-1.81,4.88-.42,8.41,1.7,4.34,6.85,6.98,16.83,8.83,2.87.53,5.56.89,8.15,1.12,1.6-3.06,1.17-7.6.48-14.27Z"/>
    <path d="M70.29,185.02c-5.04,0-10.28-.38-16.25-1.49-10.86-2.02-16.34-5.03-18.32-10.07-1.67-4.24-.11-8.46.41-9.84,5.77-15.59,43.31-20.6,54.67-21.77,1.11-.11,2.08.69,2.19,1.79.11,1.1-.69,2.08-1.79,2.19-21.21,2.17-47.38,8.5-51.33,19.18-.42,1.14-1.54,4.16-.44,6.99,1.39,3.54,6.12,5.89,15.33,7.6,11.44,2.12,20.19,1.44,30.33.64,3.04-.24,6.17-.48,9.58-.68,9.16-.51,18.58-.51,27.98,0,1.1.06,1.95,1,1.89,2.11-.06,1.1-1,1.95-2.11,1.89-9.25-.51-18.52-.51-27.54,0-3.36.19-6.48.43-9.5.67-5.21.41-10.07.79-15.12.79Z"/>
    <g>
      <path class="cls-2" d="M81.37,131.93c-.11,2.06-.06,5.14.84,8.69,2.24,8.82,8.11,14.12,11.5,17.11,6.53,5.74,12.98,7.98,19.07,10.1,7.77,2.7,14.24,3.47,18.23,3.93"/>
      <path d="M131.01,173.76c-.08,0-.15,0-.23-.01-3.68-.42-10.52-1.2-18.66-4.02-6.06-2.1-12.91-4.48-19.73-10.48-3.14-2.76-9.68-8.51-12.12-18.12-.76-3.01-1.07-6.13-.9-9.29.06-1.1,1.01-1.95,2.1-1.89,1.1.06,1.95,1,1.89,2.1-.14,2.76.12,5.48.78,8.1,2.13,8.4,7.82,13.41,10.88,16.1,6.23,5.48,12.42,7.63,18.4,9.71,7.72,2.68,14.28,3.43,17.8,3.83,1.1.13,1.89,1.12,1.76,2.21-.12,1.02-.98,1.77-1.98,1.77Z"/>
    </g>
    <g>
      <path class="cls-2" d="M149.07,110.94c-6.25-.93-5.45-2.92-14.46-5.64-16.24-4.9-24.7-.19-30.33-4.61-5.35-4.21,1.43-9.13-1.76-21.53-2.8-10.87-9.41-12.57-7.76-17.94,3.3-10.71,32.79-14.16,38.79-14.87,6.98-.82,16.93-1.97,27.27-1.41-7.17-27.78-14.38-41.7-21.63-41.72-5.68-.02-11.38,8.49-17.11,25.52l2.35,2.23c-9.12-3.1-19.21-4.83-29.83-4.83-11.22,0-21.86,1.93-31.38,5.37l4.18-3.96C61.68,10.5,55.97,2,50.29,2.01c-9.25.03-18.44,22.66-27.53,67.86-1.15,3.82-1.79,7.79-1.88,11.87l-.64-.89c-4.62.44-9.25.87-13.87,1.31,1.79,3.12,4.81,7.45,9.68,11.36,1.8,1.45,3.56,2.6,5.2,3.54.04,0,.07.01.11.02.38-.05.78-.09,1.17-.12,1.19-.09,2.43-.09,3.65.04,4.84.51,6.55,2.76,12.53,6.53,5.59,3.52,10.76,5.76,14.49,7.37,11.49,4.97,14.36,3.85,18.01,6.95,4.72,4,3.58,8.98,2.74,12.63-.61,2.66-.9,4.45-1.71,5.73-.8-.1-1.62-.21-2.43-.31,17.99,5.04,40.48,3.06,57.86-2.54,11.83-3.81,23.79-3.54,35.14-9.54,5.02-2.65,9.05-5.65,12.2-8.41-2.32.18-5.01.24-7.99,0-4.15-.33-7.71-1.14-10.55-1.99,4.09-.85,9.6-2.43,15.59-5.58,4.3-2.26,7.81-4.78,10.61-7.13-9.87,5.73-21.41,12.07-33.61,10.26Z"/>
      <path class="cls-1" d="M165.61,97.96c2.08-1.06,4.45-2.49,6.88-4.44,4.86-3.91,7.88-8.23,9.67-11.36-4.62-.44-9.25-.87-13.87-1.31-.15-3.54-.7-7-1.66-10.35-1.93-9.54-3.87-18.05-5.81-25.57-10.34-.56-20.29.6-27.27,1.41-6.01.7-35.5,4.15-38.79,14.87-1.65,5.37,4.96,7.08,7.76,17.94,3.19,12.41-3.59,17.33,1.76,21.53,5.63,4.43,14.09-.28,30.33,4.61,9.01,2.72,8.22,4.71,14.46,5.64,12.19,1.81,23.74-4.53,33.61-10.26,1.6-1.35,2.98-2.65,4.11-3.8-7.06.36-14.12.72-21.18,1.08Z"/>
      <path class="cls-1" d="M73.95,130.46c.84-3.65,1.98-8.63-2.74-12.63-3.65-3.09-6.52-1.98-18.01-6.95-3.73-1.61-8.9-3.85-14.49-7.37-5.98-3.77-7.68-6.01-12.53-6.53-1.22-.13-2.46-.13-3.65-.04-.4.03-.79.07-1.17.12-.04,0-.08-.01-.11-.02.58.33,1.14.63,1.68.91-7.06-.36-14.12-.72-21.18-1.08,3.13,3.18,7.96,7.39,14.72,10.94,5.99,3.15,11.5,4.73,15.59,5.58-2.83.86-6.39,1.66-10.55,1.99-2.98.24-5.68.18-7.99,0,3.15,2.76,7.18,5.76,12.2,8.41,13.04,6.89,27.6,6.71,41.32,11.25.91.3,1.84.57,2.77.83.81.11,1.62.22,2.43.31.81-1.28,1.09-3.06,1.71-5.73Z"/>
    </g>
    <path d="M92.89,140.79c-8.88,0-17.9-1.11-26.22-3.86-5.35-1.77-10.97-2.83-16.41-3.86-8.42-1.59-17.12-3.23-25.22-7.52-4.49-2.37-8.73-5.29-12.58-8.68-.65-.57-.86-1.49-.52-2.28.34-.79,1.13-1.28,2-1.22,2.55.2,5.13.2,7.67,0,.79-.06,1.57-.15,2.35-.25-2.8-.99-5.54-2.18-8.17-3.56-5.63-2.96-10.75-6.76-15.22-11.31-.58-.59-.74-1.47-.4-2.22s1.11-1.22,1.93-1.18l13.58.69c-.21-.16-.43-.33-.64-.5-4.08-3.28-7.5-7.29-10.16-11.92-.34-.59-.35-1.31-.04-1.92.31-.6.91-1.01,1.59-1.07l12.84-1.21c.26-3.24.86-6.45,1.8-9.56C33.59,7.23,43.89.02,50.54,0h.02c6.79,0,12.82,8.54,18.99,26.88.06.18.09.37.1.55,8.07-2.2,16.51-3.32,25.2-3.32s17.51,1.17,25.76,3.48c6.11-18,12.1-26.39,18.82-26.39h.02c6.62.02,16.87,7.17,29.37,68.81.83,2.91,1.37,5.93,1.61,8.99l12.17,1.15c.68.06,1.28.47,1.59,1.07.31.6.3,1.33-.04,1.92-2.66,4.63-6.08,8.64-10.16,11.92-.21.17-.42.34-.64.5l13.58-.69c.82-.04,1.59.43,1.93,1.18s.18,1.63-.4,2.22c-4.47,4.54-9.59,8.35-15.22,11.31-2.64,1.39-5.37,2.57-8.17,3.56.78.1,1.57.18,2.35.25h0c2.54.2,5.12.2,7.67,0,.87-.07,1.67.42,2,1.22.33.79.12,1.71-.52,2.28-3.86,3.38-8.09,6.3-12.58,8.68-7.18,3.79-14.61,5.18-21.8,6.52-4.5.84-9.15,1.7-13.66,3.16-9.78,3.15-22.57,5.57-35.66,5.57ZM19.65,117.5c2.32,1.68,4.75,3.19,7.27,4.52,7.57,4,15.6,5.52,24.1,7.12,5.57,1.05,11.32,2.14,16.92,3.99,16.21,5.36,39.52,4.69,59.39-1.71,4.75-1.53,9.53-2.42,14.16-3.28,7.21-1.34,14.02-2.61,20.66-6.12,2.51-1.33,4.94-2.84,7.26-4.52-.76-.03-1.52-.07-2.28-.13h0c-3.71-.3-7.4-.99-10.96-2.07-.88-.26-1.46-1.09-1.42-2s.7-1.68,1.59-1.87c5.25-1.09,10.33-2.9,15.07-5.39,3.66-1.92,7.09-4.23,10.25-6.89l-15.68.8c-.93.04-1.79-.57-2.03-1.48s.18-1.87,1.03-2.3c2.32-1.18,4.52-2.6,6.54-4.22,2.88-2.32,5.4-5.04,7.51-8.11l-10.64-1c-1-.09-1.77-.91-1.81-1.91-.14-3.37-.67-6.7-1.58-9.88-.01-.05-.03-.1-.04-.15-11.58-57.12-20.93-65.67-25.48-65.68h0c-2.59,0-7.92,3.02-14.79,22.95l1.42,1.34c.68.65.82,1.68.34,2.48s-1.46,1.16-2.35.86c-9.24-3.14-19.06-4.72-29.19-4.72-10.72,0-21.05,1.77-30.7,5.25-.89.32-1.88-.03-2.38-.83-.5-.81-.36-1.85.33-2.5l3.25-3.08c-6.87-19.93-12.19-22.95-14.79-22.95h0c-4.58.01-13.98,8.64-25.58,66.26-.01.06-.03.12-.05.18-1.11,3.68-1.71,7.49-1.79,11.33-.02.86-.59,1.61-1.41,1.87-.8.25-1.68-.03-2.19-.71l-9.5.9c2.11,3.08,4.63,5.8,7.51,8.11,2.01,1.62,4.21,3.04,6.54,4.22.84.43,1.27,1.39,1.03,2.3s-1.1,1.52-2.03,1.48l-15.68-.8c3.16,2.66,6.59,4.96,10.25,6.89,4.74,2.49,9.81,4.31,15.07,5.39.9.19,1.55.96,1.59,1.87s-.54,1.74-1.42,2c-3.57,1.08-7.26,1.78-10.96,2.07-.76.06-1.52.1-2.28.13Z"/>
    <path d="M78.44,109.25c-3.89,0-7.01-1.26-8.72-2.14-.98-.51-1.37-1.71-.86-2.69.51-.98,1.71-1.37,2.69-.86,1.68.87,5.12,2.21,9.26,1.49,6.85-1.2,10.17-7.04,10.76-8.2.34-.67,1.03-1.09,1.78-1.09h0c.75,0,1.44.42,1.78,1.08.6,1.16,3.92,7,10.76,8.2,4.14.72,7.57-.62,9.26-1.49.98-.51,2.19-.12,2.69.86.51.98.12,2.19-.86,2.69-2.13,1.1-6.49,2.8-11.78,1.88-5.95-1.04-9.78-4.79-11.85-7.53-2.07,2.74-5.9,6.49-11.86,7.53-1.06.19-2.08.26-3.06.26Z"/>
    <ellipse cx="57.54" cy="82.04" rx="8.19" ry="11.64"/>
    <ellipse cx="126.45" cy="82.04" rx="8.19" ry="11.64"/>
    <g>
      <path class="cls-2" d="M242.99,166.28c-2.99-3.75-3.69-11.27-1.12-17.11,1.68-3.83,4.23-5.73,3.36-8.79-1.04-3.68-5.57-3.96-7.01-7.37-2.07-4.89,4.42-11,5.33-11.88,9.55-9.22,26.45-4.09,32.53-12.59,3.34-4.67-.84-7.52,3.37-14.26,3.44-5.51,9.16-8.32,11.93-9.43-1.72-1.99-3.44-3.98-5.2-5.92-6.62-7.28-12.82-15.42-21.07-20.84-7.22-4.75-14.73-7.63-21.47-9.52,1.7-2.05,3.47-4.96,4.81-9.1-1.89.49-3.78.98-5.68,1.47-5.5,1.41-10.95,2.77-16.39,4.1-.64-.09-1.29-.2-1.93-.28,2.04-3.79,4.08-7.59,6.12-11.38-5.8,4.8-10.99,6.72-14.72,7.57-9.19,2.1-18.5,3.64-27.67,5.75-7.54,1.73-14.89,4.3-21.9,7.59l65.79,41.22c-2.75-1.02-14.68-5.08-27.14.84-13.85,6.58-20.26,21.48-20.56,34.07-.35,14.92,7.79,29,20.97,36.6-6.22.05-11.69.46-16.3.97.87,1.01,1.69,2.25,2.3,3.81,1.08,2.8,1.04,5.47.35,11.43-.47,4.04-.86,7.4-1.24,10.17-11.11-.22-20.38-.52-27.04-.77-.29-1.16-.59-2.84-.59-4.85-.05,2.22.28,4.07.59,5.32,7.42.28,18.04.62,30.84.84,27.46.46,23.88-.34,43.58,0,29.18.5,33.47,2.16,40.29-2.52,10.63-7.29,14.54-21.09,16.31-27.69-3.09,1.24-5.85,2.13-7.97,2.79-12.07,3.79-36.57,8.4-43.47-.24Z"/>
      <polygon class="cls-2" points="306.95 100.67 306.94 100.67 306.94 100.67 306.95 100.67"/>
      <path class="cls-1" d="M309.47,121.43c-1.06-2.08-2.18-4.18-3.37-6.31-3.38-6.09-6.87-11.69-10.38-16.83,3.74.79,7.47,1.59,11.21,2.38,0,0,0,0,0,0-1.62-1.18-3.96-3.02-6.44-5.6-3.16-3.28-6.14-6.75-9.12-10.21-2.77,1.1-8.5,3.92-11.93,9.43-4.2,6.74-.03,9.58-3.37,14.26-6.08,8.51-22.98,3.37-32.53,12.59-.91.88-7.4,6.99-5.33,11.88,1.45,3.41,5.97,3.69,7.01,7.37.87,3.06-1.68,4.96-3.36,8.79-2.57,5.84-1.87,13.36,1.12,17.11,6.89,8.64,31.4,4.02,43.47.24,2.11-.66,4.88-1.55,7.97-2.79.04-.16.09-.34.13-.49.63-2.33,1.09-4.57,1.42-6.71.34-2.14.55-4.18.67-6.11,2.87-10.33,3.71-21.12,2.73-31.7,4.45,2.32,8.68,2.66,10.1,2.72Z"/>
      <path class="cls-1" d="M190.44,193.4c.38-2.78.78-6.13,1.24-10.17.69-5.96.73-8.62-.35-11.43-.6-1.56-1.42-2.8-2.3-3.81-1.99.22-3.84.47-5.5.71-8.34,1.24-11.35,2.4-13.98,4.63-5.46,4.63-6.47,11.43-6.58,12.2-.11.79-.16,1.54-.18,2.25,0,2.01.3,3.69.59,4.85,6.67.25,15.94.56,27.04.77Z"/>
    </g>
    <path d="M265.52,196.64c-2.74,0-6.05-.11-10.22-.25-4.43-.15-9.95-.33-16.81-.45-9.01-.15-13.18-.07-17.6.02-5.2.11-11.1.23-25.98-.02-10.29-.17-20.68-.46-30.88-.84-.89-.03-1.65-.65-1.87-1.52-.68-2.76-.83-5.56-.45-8.33.19-1.38,1.45-8.52,7.27-13.45,3.12-2.65,6.62-3.84,14.98-5.08,5.18-.77,10.48-1.28,15.81-1.53-10.73-8.41-17.01-21.26-16.69-34.81.28-11.9,6.13-28.43,21.7-35.83,12.3-5.85,24.16-2.58,28.69-.91,1.04.38,1.57,1.53,1.18,2.57-.38,1.04-1.53,1.57-2.57,1.18-4.05-1.5-14.66-4.42-25.58.77-13.93,6.62-19.16,21.55-19.42,32.31-.33,14.18,7.32,27.53,19.97,34.82.78.45,1.17,1.37.93,2.24-.23.87-1.02,1.48-1.92,1.49-7.25.06-14.49.62-21.51,1.66-8.31,1.24-10.81,2.33-12.98,4.17-4.71,3.99-5.73,9.82-5.89,10.95-.25,1.77-.22,3.57.07,5.35,9.67.35,19.49.62,29.23.78,14.8.25,20.66.13,25.83.02,4.46-.09,8.67-.18,17.75-.02,6.89.12,12.43.3,16.87.45,14.21.47,17.58.58,22.25-2.62,10.28-7.05,14.04-21.06,15.65-27.05.57-2.15,1.04-4.33,1.38-6.51.3-1.94.52-3.93.65-5.93,0-.14.03-.28.07-.41,2.76-9.92,3.65-20.34,2.66-30.98-.07-.73.27-1.44.88-1.85.61-.41,1.39-.45,2.04-.11,2,1.04,3.97,1.65,5.62,2.01-.51-.96-1.03-1.91-1.56-2.86-3.16-5.69-6.62-11.3-10.28-16.67-.46-.68-.46-1.56,0-2.24.46-.68,1.28-1.01,2.08-.84l3.53.75c-.21-.21-.41-.42-.62-.63-2.99-3.1-5.84-6.41-8.6-9.6-1.88-2.18-3.81-4.43-5.77-6.57-1.39-1.53-2.77-3.1-4.14-4.67-5.04-5.75-10.25-11.7-16.54-15.84-6.06-3.99-12.9-7.02-20.91-9.26-.65-.18-1.17-.68-1.37-1.33-.2-.65-.06-1.35.37-1.87,1.17-1.41,2.19-3.05,3.06-4.9-.63.16-1.26.33-1.89.49-4.81,1.24-9.87,2.5-16.41,4.1-.25.06-.51.07-.76.04l-.71-.11c-.4-.06-.79-.12-1.19-.17-.65-.08-1.22-.48-1.53-1.07-.3-.59-.29-1.28.02-1.86l2.27-4.22c-2.82,1.52-5.71,2.63-8.66,3.3-4.58,1.05-9.26,1.97-13.77,2.86-4.57.9-9.3,1.83-13.9,2.89-7.3,1.68-14.53,4.18-21.5,7.46-1,.47-2.19.04-2.66-.96-.47-1-.04-2.19.96-2.66,7.22-3.39,14.73-6,22.3-7.73,4.66-1.07,9.42-2.01,14.02-2.92,4.49-.89,9.13-1.8,13.66-2.83,4.79-1.09,9.47-3.5,13.89-7.16.74-.61,1.8-.61,2.54,0,.74.61.95,1.65.49,2.49l-4.46,8.3c5.59-1.37,10.1-2.5,14.4-3.61,1.9-.49,3.79-.98,5.67-1.47.7-.18,1.46.03,1.96.56.5.53.67,1.29.45,1.99-.89,2.75-2.04,5.22-3.42,7.37,7.25,2.26,13.58,5.21,19.28,8.96,6.75,4.44,12.14,10.6,17.35,16.55,1.36,1.55,2.72,3.1,4.09,4.62,1.99,2.19,3.94,4.46,5.84,6.65,2.72,3.16,5.53,6.42,8.44,9.44,1.89,1.96,3.97,3.77,6.19,5.38.76.55,1.04,1.57.65,2.43-.38.86-1.31,1.34-2.24,1.14l-6.42-1.36c2.73,4.2,5.32,8.52,7.74,12.88,1.17,2.11,2.31,4.25,3.4,6.37.32.63.29,1.39-.1,1.99-.38.6-1.05.95-1.77.92-1.64-.07-4.51-.37-7.77-1.55.57,9.89-.43,19.59-2.99,28.88-.13,2.05-.36,4.1-.67,6.09-.36,2.31-.86,4.64-1.47,6.92-1.72,6.42-5.75,21.43-17.25,29.32-4.15,2.84-7.38,3.57-14.43,3.57Z"/>
    <path class="cls-2" d="M117.43,157.33c-5.17.51-39.98,4.04-45.84,19.36-.5,1.31-1.87,4.88-.43,8.41,1.76,4.34,7.07,6.98,17.37,8.83,15.59,2.81,26.17.84,41.71,0,6.75-.37,15.72-1.1,29.47-2.97"/>
    <path class="cls-1" d="M93.64,180.41c-.55-5.34-1.24-11.91-5.54-16.73-7.58,2.91-14.22,7.07-16.5,13.03-.5,1.31-1.87,4.88-.43,8.41,1.76,4.34,7.07,6.98,17.37,8.83,1.6.29,3.13.51,4.63.71,1.59-3.06,1.15-7.59.47-14.25Z"/>
    <path d="M104.94,197.4c-5.2,0-10.6-.38-16.76-1.49-11.19-2.01-16.83-5.02-18.87-10.05-1.73-4.26-.11-8.49.42-9.88,5.71-14.94,35.13-19.41,47.51-20.64,1.12-.11,2.08.69,2.19,1.79.11,1.1-.69,2.08-1.79,2.19-9.08.9-39.11,4.87-44.17,18.09-.43,1.13-1.59,4.15-.45,6.95,1.44,3.55,6.34,5.9,15.87,7.62,11.83,2.13,20.87,1.44,31.35.65,3.13-.24,6.38-.48,9.89-.68,5.44-.3,14.4-.92,29.3-2.95,1.09-.15,2.1.62,2.25,1.71s-.62,2.1-1.71,2.25c-15.05,2.05-24.12,2.68-29.63,2.98-3.48.19-6.69.43-9.81.67-5.38.41-10.39.79-15.6.79Z"/>
    <g>
      <path class="cls-2" d="M296.51,154.13c-4.81-.2-4.59,8.94-13.74,16.83-9.73,8.39-22.32,8.69-45.15,9.25-13.15.32-15.07-.87-29.45,0-16.14.97-22.71,3.01-26.08,4.21-12.45,4.42-19.57,10.96-21.03,12.34-2.59,2.44-5.83,5.54-8.27,9.67l-.38-.3c-3.36,5.5-7.55,14.34-7.88,25.55-.07,2.43.04,4.71.28,6.82,2.07-3.25,4.15-6.49,6.22-9.74-.06,8.19-.12,16.37-.19,24.56,4.66-5.7,9.33-11.41,13.99-17.11.04,4,.09,8,.14,12,2.41-2.54,4.98-5.53,7.54-9,2.86-3.87,5.14-7.58,6.98-10.96.92-.66,1.88-1.34,2.89-2.06.84-.6,1.65-1.2,2.43-1.79,8.11-6.21,18.03-9.57,28.25-9.26,1.15.04,2.33.07,3.54.11,18.71.62,28.42,1.24,42.63.28,13.43-.91,18.02-2.37,21.87-4.21,8.26-3.93,13.47-9.76,15.98-12.62,4-4.56,7.89-8.99,9.53-15.42,3.33-13-3.81-28.9-10.1-29.16Z"/>
      <path d="M150.84,255.32c-.23,0-.46-.04-.68-.12-.8-.29-1.33-1.05-1.32-1.9l.13-17.61-2.48,3.88c-.46.71-1.31,1.06-2.14.87-.83-.19-1.44-.88-1.53-1.73-.26-2.36-.36-4.75-.29-7.1.27-9.17,3.02-18.1,8.18-26.53.25-.41.65-.72,1.1-.86,2.56-3.92,5.72-6.89,7.88-8.92,2.59-2.44,9.89-8.56,21.73-12.77,4.29-1.52,11.19-3.39,26.63-4.32,8.23-.5,12.46-.33,16.93-.14,3.41.14,6.94.28,12.59.14,22.38-.55,34.7-.85,43.89-8.77,4.32-3.72,6.4-7.71,8.07-10.92,1.83-3.51,3.43-6.55,7.06-6.39,2.41.1,4.82,1.69,6.97,4.59,4.4,5.92,7.52,17.12,4.98,27.07-1.77,6.9-5.94,11.65-9.97,16.25-2.34,2.67-7.82,8.92-16.63,13.11-4.44,2.11-9.56,3.51-22.6,4.4-12.03.82-20.95.5-34.46.01-2.59-.09-5.36-.19-8.37-.29l-3.53-.11c-9.53-.29-19.14,2.85-26.97,8.85-.79.61-1.62,1.22-2.48,1.83l-2.52,1.79c-2.07,3.74-4.39,7.37-6.91,10.78-2.37,3.21-4.96,6.3-7.7,9.19-.56.59-1.42.78-2.18.48-.76-.3-1.26-1.02-1.27-1.84l-.07-6.49-10.5,12.85c-.39.47-.96.73-1.55.73ZM151.03,226.76c.19,0,.38.03.57.08.85.25,1.44,1.04,1.43,1.93l-.14,18.88,10.4-12.72c.53-.65,1.42-.9,2.21-.62.79.28,1.33,1.02,1.34,1.86l.08,6.87c1.39-1.63,2.72-3.31,3.99-5.03,2.5-3.39,4.8-7,6.83-10.73.15-.27.35-.5.6-.67l2.88-2.06c.82-.58,1.61-1.17,2.37-1.75,8.56-6.56,19.05-10,29.53-9.67l3.54.11c3.01.1,5.78.2,8.38.29,13.38.48,22.23.8,34.05,0,13.69-.93,17.82-2.43,21.15-4.02,8.06-3.84,13.16-9.65,15.34-12.13,3.89-4.44,7.57-8.63,9.1-14.6,2.21-8.64-.57-18.66-4.31-23.69-1.37-1.84-2.8-2.93-3.93-2.98-1-.03-1.76,1.19-3.35,4.24-1.73,3.33-4.1,7.88-9,12.1-10.27,8.85-23.11,9.17-46.41,9.74-5.77.14-9.37,0-12.85-.14-4.37-.18-8.49-.34-16.52.14-16.85,1.02-23.16,3.25-25.53,4.09-11.13,3.95-17.92,9.64-20.33,11.91-2.92,2.75-5.72,5.52-7.92,9.24-.25.41-.63.72-1.08.88-4.34,7.49-6.67,15.36-6.91,23.41,0,.12,0,.25,0,.37l2.83-4.42c.37-.59,1.02-.92,1.69-.92Z"/>
    </g>
  </g>
</svg>