<?xml version="1.0" encoding="UTF-8"?>
<svg id="Camada_2" data-name="Camada 2" xmlns="http://www.w3.org/2000/svg" viewBox="0 0 300.82 255.31">
  <defs>
    <style>
      .cls-1 {
        stroke-width: 4px;
      }

      .cls-1, .cls-2 {
        stroke: #000;
        stroke-linecap: round;
        stroke-linejoin: round;
      }

      .cls-1, .cls-3 {
        fill: #b7b7b7;
      }

      .cls-2 {
        fill: none;
        stroke-width: 5.29px;
      }
    </style>
  </defs>
  <g id="Camada_1-2" data-name="Camada 1">
    <g>
      <path class="cls-3" d="M143.28,71.64c5.61-2.44,14.34-5.99,26.08-6.31,3.77-.1,15.82-.08,29.45,6.31,7,3.28,23.48,11.02,30.29,29.02,1.79,4.74,6.16,16.32,1.26,26.92-6.21,13.42-20.59,10.81-26.08,23.56-5.09,11.82,4.61,20.27,0,29.02-3.98,7.55-16.89,3.55-28.53,3.77-1.45.03-2.89.12-4.28.31-1.8-.35-3.24-.25-4.41.16-.84,1.56-1.77,2.87-2.79,3.98s-2.11,2-3.28,2.73c-7.4,9.89-23.93,19.34-32.03,4.02-.31-.63-.6-1.3-.86-2.02-.26-.72-.49-1.49-.7-2.31-.28-.73-.54-1.51-.78-2.33-.38-.64-.69-1.31-.9-2.03-.21-.72-.32-1.5-.29-2.35-.98-.67-2.01-1.22-3.07-1.68-1.06-.45-2.13-.83-3.23-1.09-1.05-.51-2.09-.99-3.15-1.41-3.18-1.27-6.55-2.03-10.26-1.87-1.07-.23-2.15-.43-3.25-.61-3.28-.55-6.66-.92-10.18-1.21-1.01-.29-2.04-.58-3.12-.85-.8-.84-1.65-1.66-2.55-2.49-1.82-1.65-3.89-3.32-6.27-5.14-.97-.98-1.92-1.97-2.81-2.98-2.66-3.04-4.72-6.31-4.94-10.39-.19-.78-.36-1.54-.52-2.29-3.08-14.26-4.23-22.9-2.4-29.98,5.37-20.85,28.11-30.72,73.61-50.48Z"/>
      <path class="cls-1" d="M164.58,93.01c1.47-3.16,3.2-7.02,1.43-9.74-1.09-1.67-3.47-2.87-5.7-3.09,0,0-1.33-.12-2.7.2-.18-3.38-.74-6.69-1.66-9.89C146.86,25.67,137.71,3.23,128.51,3.2c-5.68-.02-11.38,8.49-17.11,25.52l2.35,2.23c-5.9-2-12.2-3.42-18.78-4.18.94.11,1.92-5.15,2.03-5.88.51-3.19-.14-6.57-1.84-9.32-1.18-1.91-3.16-3.65-5.39-3.42-2.56.26-4.93,2.94-5.67,5.28-.85,2.69-.56,5.66-.79,8.44-.03.3-.04.6-.06.89-.03.59-.03,1.15-.01,1.7-.08-.61-.18-1.2-.29-1.77-.06-.28-.12-.56-.18-.84-.42-1.74-.64-3.03-1.66-4.59-1.18-1.81-2.53-3.99-4.77-4.55s-4.32.54-5.65,2.21c-1.22,1.52-1.88,3.49-1.83,5.44.07,2.49,1.3,4.9,3.3,6.39-.41-.31-3.95.67-4.55.77-1.71.3-3.42.64-5.12,1.03-3.37.78-6.69,1.76-9.95,2.93l4.18-3.96C50.99,10.49,45.28,1.98,39.61,2c-9.25.03-18.44,22.66-27.56,67.89l.03-.03c-1.01,3.35-1.64,6.81-1.84,10.35-.99-.12-1.78-.04-1.78-.04-2.23.22-4.62,1.42-5.7,3.09-1.78,2.72-.04,6.58,1.43,9.74,1.66,3.58,5.1,9.47,12.36,15.21-1.39.32-4.85,1.27-5.47,3.56-.36,1.35.15,3.55,5.94,8.08,12.66,9.9,30.53,14.11,46.14,16.45,15.93,2.39,32.25,2.05,48.08-.89,14.09-2.61,29.05-6.59,40.52-15.57,5.79-4.53,6.3-6.73,5.94-8.08-.62-2.29-4.07-3.25-5.47-3.56,7.25-5.73,10.69-11.63,12.36-15.21Z"/>
      <path class="cls-1" d="M80.04,155.25c-5,.51-47.33,5.14-53,20.47-.49,1.31-1.81,4.88-.42,8.41,1.7,4.34,6.85,6.98,16.83,8.83,15.1,2.81,25.34.84,40.39,0,6.54-.37,16.07-.64,27.76,0"/>
      <path class="cls-1" d="M70.41,143.34c-.11,2.06-.06,5.14.84,8.69,2.24,8.82,8.11,14.12,11.5,17.11,6.53,5.74,12.98,7.98,19.07,10.1,7.77,2.7,14.24,3.47,18.23,3.93"/>
      <path class="cls-1" d="M106.47,168.74c-5.17.51-39.98,4.04-45.84,19.36-.5,1.31-1.87,4.88-.43,8.41,1.76,4.34,7.07,6.98,17.37,8.83,15.59,2.81,26.17.84,41.71,0,6.75-.37,15.72-1.1,29.47-2.97"/>
      <path class="cls-2" d="M58.73,107.48c1.44.74,5.46,2.57,10.52,1.68,8.01-1.4,11.75-8.38,12.2-9.25.45.87,4.19,7.86,12.2,9.25,5.06.88,9.07-.94,10.52-1.68"/>
      <ellipse cx="45.63" cy="84.18" rx="8.19" ry="11.64"/>
      <ellipse cx="114.54" cy="84.18" rx="8.19" ry="11.64"/>
      <path class="cls-1" d="M221.1,106.92c-2.75-1.02-14.68-5.08-27.14.84-13.85,6.58-20.26,21.48-20.56,34.07-.35,14.92,7.79,29,20.97,36.6-8.92.07-16.32.87-21.79,1.68-8.34,1.24-11.35,2.4-13.98,4.63-5.46,4.63-6.47,11.43-6.58,12.2-.45,3.23,0,5.92.41,7.57,7.42.28,18.04.62,30.84.84,27.46.46,23.88-.34,43.58,0,29.18.5,33.47,2.16,40.29-2.52,10.89-7.47,14.73-21.79,16.45-28.18.63-2.33,1.09-4.57,1.42-6.71.34-2.14.55-4.18.67-6.11,1.36-4.89,2.27-9.88,2.75-14.91.44.2.97.41,1.63.61,2.33.71,5.69,1.73,7.49.11,1.12-1,1.05-2.59,1.2-4.14.36-3.73-1.25-6.62-3.47-10.47-1.19-2.06-2.99-4.83-5.64-7.81.96-.24,2.2-.72,2.95-1.82,1.57-2.29.09-5.83-2.1-10.09-2.4-4.67-4.95-9.28-7.96-13.58s-6.81-8.02-9.91-12.29c-2.39-3.29-5.03-6.39-7.9-9.26.13-.1.26-.2.39-.31,2.54-2.13,6.2-5.2,5.7-8.47-.31-2.02-2.17-3.13-3.83-4.46-3.99-3.18-8.48-3.49-14.52-3.83-3.23-.18-7.73-.18-13.1.62.44-1.27.81-3.05.12-4.72-1.44-3.49-6.59-4.44-13.07-5.11-24.67-2.55-48.3,5.47-71.16,13.68"/>
      <path class="cls-1" d="M294.93,177.4c-1.08-3.62-2.74-7.26-5.52-9.9-1.05-1-2.37-1.9-3.86-1.96-4.81-.2-4.59,8.94-13.74,16.83-9.73,8.39-22.32,8.69-45.15,9.25-13.15.32-15.07-.87-29.45,0-16.14.97-22.71,3.01-26.08,4.21-6.31,2.24-12.06,5.8-17.96,8.9-8.65,4.55-19.46,9.61-23.18,19.33-1.06,2.77-2.94,6.06-1.43,9.15,2.13,4.35,8.72,4.51,9.15,4.51-.54.89-2.25,3.98-1.66,8.08.14,1.01.64,4.83,3.09,6.53,3.28,2.28,9.79.59,14.97-5.23.25.8.81,2.21,2.14,3.33,2.29,1.93,5.19,1.59,6.53,1.43,3.46-.41,5.86-2.58,8.2-4.87,3.56-3.48,6.41-7.6,9.77-11.26,5.46-5.93,13.26-9.42,21.33-9.17,1.15.04,2.33.07,3.54.11,18.71.62,28.42,1.24,42.63.28.58-.04,1.12-.08,1.66-.12-.26,1.62-.37,3.42.71,4.59,1.82,1.99,6.7,1.32,9.06.96,3.09-.47,6.22-1.65,8.32-4.05,1.63-1.85,2.03-4.11,2.11-5.59.14-.07.27-.14.41-.21.95,1.16,3.17,3.45,6.27,3.54,5.26.16,8.04-4.87,10.12-8.92,2.74-5.33,4.88-10.95,6.74-16.64,1.17-3.59,2.24-7.23,2.67-10.98.48-4.25-.2-8.08-1.41-12.13Z"/>
    </g>
  </g>
</svg>