<?xml version="1.0" encoding="UTF-8"?>
<svg id="Camada_2" data-name="Camada 2" xmlns="http://www.w3.org/2000/svg" xmlns:xlink="http://www.w3.org/1999/xlink" viewBox="0 0 380.11 278.66">
  <defs>
    <style>
      .cls-1, .cls-2, .cls-3, .cls-4, .cls-5 {
        stroke: #000;
        stroke-linecap: round;
        stroke-linejoin: round;
      }

      .cls-1, .cls-3 {
        stroke-width: 4px;
      }

      .cls-1, .cls-6 {
        fill: #a0a0a0;
      }

      .cls-2, .cls-4 {
        fill: none;
      }

      .cls-2, .cls-5 {
        stroke-width: 4.66px;
      }

      .cls-7 {
        fill: #848484;
      }

      .cls-3, .cls-5, .cls-8 {
        fill: #b7b7b7;
      }

      .cls-4 {
        stroke-width: 5.29px;
      }

      .cls-9 {
        clip-path: url(#clippath);
      }
    </style>
    <clipPath id="clippath">
      <path class="cls-5" d="M279.03,166.64c4.26-.08,10.42-.67,17.33-3.11,15.94-5.63,24.81-17.21,28-21.5,2.77-3.72,7.34-14.57,16.36-36.11,6.72-16.05,8.26-20.31,13.65-23.44,6.94-4.02,13.15-2.03,18.98-8.36,1.05-1.14,5.23-5.69,4.31-10.97-1.21-6.97-10.39-9.82-12.11-10.31-2.09-.6-8.23-1.99-18.46,2.41-16.2,6.97-24.66,20.71-26.06,23.05-5.33,8.91-4.81,13.25-15.63,39.45-1.1,2.65-3.04,7.21-7.62,10.87-5.58,4.45-12.11,5.21-15.9,5.31"/>
    </clipPath>
  </defs>
  <g id="Camada_1-2" data-name="Camada 1">
    <g>
      <g>
        <path class="cls-8" d="M279.03,166.64c4.26-.08,10.42-.67,17.33-3.11,15.94-5.63,24.81-17.21,28-21.5,2.77-3.72,7.34-14.57,16.36-36.11,6.72-16.05,8.26-20.31,13.65-23.44,6.94-4.02,13.15-2.03,18.98-8.36,1.05-1.14,5.23-5.69,4.31-10.97-1.21-6.97-10.39-9.82-12.11-10.31-2.09-.6-8.23-1.99-18.46,2.41-16.2,6.97-24.66,20.71-26.06,23.05-5.33,8.91-4.81,13.25-15.63,39.45-1.1,2.65-3.04,7.21-7.62,10.87-5.58,4.45-12.11,5.21-15.9,5.31"/>
        <g class="cls-9">
          <path class="cls-7" d="M283.15,130.72c6.5,12.33,15.41,23.24,26.26,31.99,3.12,2.52,7.36,2.99,10.42,0,2.61-2.56,3.09-7.93,0-10.42-9.98-8.04-17.98-17.66-23.96-29-4.42-8.39-17.15-.95-12.73,7.44h0Z"/>
          <path class="cls-7" d="M341.22,126.68c-12.5-5.75-23.82-13.3-33.76-22.82-6.85-6.56-17.29,3.85-10.42,10.42,10.8,10.34,23.15,18.88,36.74,25.13,8.56,3.93,16.06-8.77,7.44-12.73h0Z"/>
          <path class="cls-7" d="M309.59,96.08c14.1,8.78,31.43,21.65,48.96,17.7,9.25-2.09,5.33-16.3-3.92-14.21-6.63,1.49-13.5-2.38-19.19-5.37-6.31-3.31-12.37-7.08-18.42-10.85-8.08-5.03-15.49,7.72-7.44,12.73h0Z"/>
          <path class="cls-7" d="M325.71,64.65c4.26,6.54,8.39,13.73,13.87,19.35,5.75,5.9,13.28,9.07,20.75,12.16,3.71,1.53,8.06-1.66,9.07-5.15,1.21-4.22-1.49-7.55-5.15-9.07-5.65-2.34-11.24-4.88-15.34-9.56s-7.16-10.09-10.47-15.18c-5.16-7.92-17.93-.54-12.73,7.44h0Z"/>
        </g>
        <path class="cls-2" d="M279.03,166.64c4.26-.08,10.42-.67,17.33-3.11,15.94-5.63,24.81-17.21,28-21.5,2.77-3.72,7.34-14.57,16.36-36.11,6.72-16.05,8.26-20.31,13.65-23.44,6.94-4.02,13.15-2.03,18.98-8.36,1.05-1.14,5.23-5.69,4.31-10.97-1.21-6.97-10.39-9.82-12.11-10.31-2.09-.6-8.23-1.99-18.46,2.41-16.2,6.97-24.66,20.71-26.06,23.05-5.33,8.91-4.81,13.25-15.63,39.45-1.1,2.65-3.04,7.21-7.62,10.87-5.58,4.45-12.11,5.21-15.9,5.31"/>
      </g>
      <path class="cls-8" d="M52.13,153.91c-1.18-3.89-2.27-8.98.28-14.26.45-.94,2.19-4.43,5.93-6.89,6.75-4.44,15.6-2.61,24.02-1.9,26.86,2.25,33.6-8.31,47.47-2.61,10.58,4.34,14.79,13.82,16.67,18.06,7.57,17.03.07,36.82-14.69,47.76-3.02,2.24-10.63,7.73-22.32,9.03-11.8,1.32-20.94-2.39-24.87-4.04-21.53-9.03-27.46-28.57-32.5-45.15Z"/>
      <path class="cls-6" d="M169.32,191.81c10.42,8.9,19.52,15.93,26.61,21.15,4.41,3.25,7.68,5.53,12.36,5.7,7.64.28,16.43-5.17,19.01-13.54,2.25-7.3-.75-15.07-4.75-19.25-9.18-9.59-30.86-7.88-53.23,5.94Z"/>
      <path class="cls-1" d="M203.72,216.96c-1.32,5.97-2.54,11.18-3.6,15.58-3.6,14.92-6.77,26.34-1.31,36.22.81,1.47,3.78,6.85,8.13,7.16,4.71.34,9.12-5.57,14.73-16.71,4.75-9.43,10.72-23.36,15.28-42.04.49-2.02-.45-4.12-2.3-5.08-2.24-1.16-5.05-3.26-6.31-6.83-2.04-5.74.77-12.86,7.13-16.4"/>
      <path class="cls-1" d="M164.47,173.78c-.44,1.36-5.7,18.64,4.75,31.37,8.59,10.46,22.63,11.54,27.09,11.88,2.73.21,5.02.12,6.65,0"/>
      <path class="cls-1" d="M54.82,180.02c-3.56,18.82-6.96,33.78-9.47,44.2-3.6,14.92-6.77,26.34-1.31,36.22.81,1.47,3.78,6.85,8.13,7.16,4.58.33,9.13-5.07,14.73-16.71,5.45-11.34,12.48-29.82,15.83-57.13"/>
      <path class="cls-3" d="M50.78,140.99c-1.59,5.49-4.12,17.49.79,31.37,1.93,5.44,6.78,18.48,21.42,27.09,9.09,5.35,18.08,6.71,23.01,7.13"/>
      <path class="cls-3" d="M91.1,183.82c-3.56,18.82-6.96,33.78-9.47,44.2-3.6,14.92-6.77,26.34-1.31,36.22.81,1.47,3.78,6.85,8.13,7.16,4.58.33,9.13-5.07,14.73-16.71,5.45-11.34,12.48-29.82,15.83-57.13"/>
      <path class="cls-3" d="M119.48,204.67c1.46.8,2.21.56,14.86-1.07,26.64-3.42,23.95-2.41,35.01-4.28,18.4-3.1,27.6-4.65,33.69-8.73.15-.1.29-.2.43-.3.45,6.03,2.27,13.3,7.55,19.13,8.78,9.68,21.82,9.53,25.96,9.48.29,0,.58-.01.86-.02,1.94.59,3.89.86,5.79.78-.67,5.45-1.32,10.26-1.89,14.36-2.12,15.17-4.13,26.83,1.71,36.2.87,1.4,4.04,6.5,8.08,6.43,4.37-.07,7.97-6.34,12.25-17.93,3.62-9.81,8.01-24.2,10.72-43.21.29-2.05-.75-4.07-2.53-4.86-2.16-.96-4.92-2.81-6.38-6.25-1.57-3.72-1.17-8.24.94-12.05l-1.29,1.47c.21-.53.4-1.06.58-1.58.53-.41,1.04-.82,1.55-1.24-.31.44-.58.89-.84,1.35l2.27-2.59c11.3-10.14,18.5-25.43,18.5-42.53,0-16.16-6.67-31.79-21.54-39.82-16.84-9.09-37.01-4.12-54.97-2.42-14.45,1.37-28.97,1.94-43.49,1.73-13.64-.2-29.11-4.29-41.82,1.69-1,0-2,3-2.83,5.34"/>
      <g>
        <path class="cls-3" d="M100.48,135.88c28.57-7.79,49.02-28.69,49.02-53.25,0-4.17-.61-8.23-1.72-12.14C138.7,25.67,129.55,3.23,120.35,3.2c-5.68-.02-11.38,8.49-17.11,25.52l2.35,2.23c-9.12-3.1-19.21-4.83-29.83-4.83-11.22,0-21.86,1.93-31.38,5.37l4.18-3.96C42.83,10.49,37.12,1.98,31.45,2c-9.25.03-18.44,22.66-27.56,67.89l.03-.03c-1.24,4.1-1.91,8.37-1.91,12.76,0,29.24,28.99,53.3,66.16,56.21"/>
        <path class="cls-4" d="M50.57,107.48c1.44.74,5.46,2.57,10.52,1.68,8.01-1.4,11.75-8.38,12.2-9.25.45.87,4.19,7.86,12.2,9.25,5.06.88,9.07-.94,10.52-1.68"/>
        <ellipse cx="37.47" cy="84.18" rx="8.19" ry="11.64"/>
        <ellipse cx="106.38" cy="84.18" rx="8.19" ry="11.64"/>
      </g>
    </g>
  </g>
</svg>