<?xml version="1.0" encoding="UTF-8"?>
<svg id="Camada_2" data-name="Camada 2" xmlns="http://www.w3.org/2000/svg" viewBox="0 0 263.35 264.41">
  <defs>
    <style>
      .cls-1 {
        fill: #b7b7b7;
      }

      .cls-1, .cls-2 {
        stroke-width: 5.29px;
      }

      .cls-1, .cls-2, .cls-3 {
        stroke-linejoin: round;
      }

      .cls-1, .cls-2, .cls-3, .cls-4 {
        stroke: #000;
        stroke-linecap: round;
      }

      .cls-2, .cls-3, .cls-4 {
        fill: none;
      }

      .cls-3 {
        stroke-width: 4.87px;
      }

      .cls-4 {
        stroke-miterlimit: 10;
        stroke-width: 4.72px;
      }
    </style>
  </defs>
  <g id="Camada_1-2" data-name="Camada 1">
    <g>
      <path class="cls-1" d="M117.4,36.77c-9.86-.74-27.34-.71-46.55,7.29-32.99,13.75-47.95,41.39-53.28,51.6-6.05,11.59-28.28,58.88-3.37,107.12,22.95,44.43,68.16,55.33,74.03,56.65,5.59,1.25,49.09,10.21,88.62-17.95,9.14-6.51,27.75-19.8,37.02-45.43,11.06-30.6,1.29-57.64-1.68-65.06"/>
      <g>
        <path class="cls-1" d="M150.84,148.11c25.71,14.7,54.95,14.39,72.32-2.98,2.95-2.95,5.39-6.24,7.37-9.8,25.28-38.11,34.68-60.44,28.19-66.97-4-4.03-14.05-2.05-30.14,5.94l.08,3.23c-4.26-8.64-10.17-17-17.67-24.51-7.94-7.94-16.82-14.09-25.98-18.4l5.76.15c8-16.09,9.98-26.13,5.96-30.14-6.56-6.52-29.06,2.98-67.5,28.5h.04c-3.78,2.03-7.27,4.57-10.38,7.67-20.68,20.67-17.2,58.19,7.02,86.53"/>
        <path class="cls-2" d="M142.87,104.46c.49,1.55,2.05,5.67,6.24,8.63,6.65,4.68,14.23,2.38,15.17,2.09-.3.93-2.59,8.52,2.08,15.17,2.95,4.2,7.08,5.75,8.62,6.25"/>
        <path class="cls-4" d="M150.5,78.51c1.18-.1,6.54-.45,11.22,3.37,6.13,5,5.66,12.73,5.61,13.46"/>
        <path class="cls-4" d="M191.69,116.47c1.18-.1,6.54-.45,11.22,3.37,6.13,5,5.66,12.73,5.61,13.46"/>
      </g>
      <path class="cls-1" d="M74.21,150.24c3.4-3.19,12.62-10.99,26.36-12.34,11.96-1.18,31.52,2.11,39.26,17.95,6.82,13.95,0,28.53-1.12,30.85,9.78-5.59,16.6-9.56,21.31-12.34,4.18-2.46,7.63-4.52,11.22-3.37,4.65,1.5,6.42,7.4,6.73,8.41,2.81,9.32-3.5,18.54-6.17,22.43-6.12,8.94-13.44,13.1-25.24,19.63-13.2,7.3-20.98,11.46-30.29,9.53-2.47-.51-10.01-2.08-13.46-8.41-1.27-2.33-1.6-4.61-1.68-6.17"/>
      <path class="cls-3" d="M78.14,229.61c6.18,2.12,16.38,4.86,29.16,4.76,24.36-.19,41.2-10.54,47.11-14.28,6.58-4.16,18.17-11.7,25.24-25.71,7.95-15.76,5.32-30.11,3.93-35.7"/>
    </g>
  </g>
</svg>