<?xml version="1.0" encoding="UTF-8"?>
<svg id="Camada_2" data-name="Camada 2" xmlns="http://www.w3.org/2000/svg" viewBox="0 0 84.13 43.81">
  <defs>
    <style>
      .cls-1 {
        fill: none;
      }

      .cls-1, .cls-2 {
        stroke-miterlimit: 10;
      }

      .cls-1, .cls-2, .cls-3 {
        stroke-width: 2.24px;
      }

      .cls-1, .cls-2, .cls-3, .cls-4 {
        stroke: #1d1d1b;
      }

      .cls-2 {
        fill: #6e644d;
      }

      .cls-3 {
        fill: #968671;
      }

      .cls-3, .cls-4 {
        stroke-linejoin: round;
      }

      .cls-4 {
        fill: #9c5853;
        stroke-linecap: round;
        stroke-width: 1.12px;
      }
    </style>
  </defs>
  <g id="Camada_4" data-name="Camada 4">
    <g>
      <path class="cls-3" d="M10.71,9.7L1.12,34.1c8.06,3.51,22.53,8.6,41.23,8.59,18.37,0,32.62-4.93,40.66-8.39l-8.79-25.64"/>
      <ellipse class="cls-2" cx="42.46" cy="8.65" rx="31.76" ry="7.53"/>
      <path class="cls-1" d="M16.13,13.02c5.71-2,15.37-3.32,26.33-3.32s20.37,1.28,26.1,3.24"/>
      <path class="cls-4" d="M29.95,28.56c.85-1.03,2.4-2.64,4.8-3.9,1.19-.62,3.38-1.73,6.37-1.72,3.07,0,5.37,1.19,6.52,1.8.87.46,1.55.92,2.02,1.27,1.47-.8,2.95-1.6,4.42-2.4.03,3.5.05,7,.07,10.5-1.37-.72-2.75-1.45-4.12-2.17-.75.79-2.32,2.21-4.72,2.92-2.72.81-4.98.26-6.37-.07-.66-.16-2.96-.76-5.4-2.55-1.75-1.28-2.9-2.68-3.6-3.67Z"/>
    </g>
  </g>
</svg>