<?xml version="1.0" encoding="UTF-8"?>
<svg id="Camada_2" data-name="Camada 2" xmlns="http://www.w3.org/2000/svg" viewBox="0 0 84.13 43.81">
  <defs>
    <style>
      .cls-1 {
        fill: none;
      }

      .cls-1, .cls-2, .cls-3, .cls-4 {
        stroke: #1d1d1b;
      }

      .cls-1, .cls-3 {
        stroke-miterlimit: 10;
      }

      .cls-1, .cls-3, .cls-4 {
        stroke-width: 2.24px;
      }

      .cls-2 {
        fill: #78c1b6;
        stroke-linecap: round;
        stroke-width: .69px;
      }

      .cls-2, .cls-4 {
        stroke-linejoin: round;
      }

      .cls-3 {
        fill: #6e644d;
      }

      .cls-4 {
        fill: #968671;
      }
    </style>
  </defs>
  <g id="Camada_4" data-name="Camada 4">
    <g>
      <path class="cls-4" d="M10.71,9.7L1.12,34.1c8.06,3.51,22.53,8.6,41.23,8.59,18.37,0,32.62-4.93,40.66-8.39l-8.79-25.64"/>
      <ellipse class="cls-3" cx="42.46" cy="8.65" rx="31.76" ry="7.53"/>
      <path class="cls-1" d="M16.13,13.02c5.71-2,15.37-3.32,26.33-3.32s20.37,1.28,26.1,3.24"/>
    </g>
    <path class="cls-2" d="M46.59,28.54h0l-3.64-8.33-4.4,8.02h0c-.51.7-.85,1.55-.92,2.48-.21,2.67,1.79,5.01,4.46,5.22s5.01-1.79,5.22-4.46c.08-1.07-.19-2.08-.71-2.93Z"/>
  </g>
</svg>