<?xml version="1.0" encoding="UTF-8"?>
<svg id="Camada_2" data-name="Camada 2" xmlns="http://www.w3.org/2000/svg" viewBox="0 0 101.89 106.18">
  <defs>
    <style>
      .cls-1 {
        fill: none;
        stroke-linecap: round;
        stroke-linejoin: round;
      }

      .cls-1, .cls-2, .cls-3, .cls-4, .cls-5 {
        stroke: #000;
        stroke-width: 1.18px;
      }

      .cls-2 {
        fill: #ff6485;
      }

      .cls-2, .cls-3, .cls-4, .cls-5 {
        stroke-miterlimit: 10;
      }

      .cls-3 {
        fill: #bcbcbc;
      }

      .cls-4 {
        fill: #afafaf;
      }

      .cls-5 {
        fill: #9b9b9b;
      }
    </style>
  </defs>
  <g id="Camada_4" data-name="Camada 4">
    <g>
      <g>
        <path class="cls-4" d="M51.63,38.84c-1.9-4.53-3.2-8.49-4.09-11.52-2.57-8.78-.81-6.9-3.15-15.47-.69-2.53-1.64-5.6-.09-8.01.81-1.26,2.08-2.01,2.44-2.22,2.14-1.22,4.25-1.08,5.05-.98.18.75.36,1.5.54,2.25-.43.19-1.16.59-1.7,1.37-.74,1.07-.69,2.22-.64,3.15.05.88.19,3.12,1.96,5.1,1.65,1.85,3.69,2.32,4.35,2.45.54,4.55,1.21,8.06,1.74,10.48.44,2,1.11,4.78,1.25,8.67.04,1.2.02,2.19,0,2.85"/>
        <path class="cls-2" d="M50.2,39.21c.52,3,1.3,7.24,2.36,12.31.94,4.51,1.82,8.26,6.64,26.44,3.47,13.09,4.19,15.56,6.9,18.79,1.71,2.03,5.54,6.47,12.13,7.73,1.17.22,6.76,1.17,12.5-1.9,7.34-3.92,11.52-12.57,10.37-20.29-.79-5.32-3.9-8.82-6.48-11.72-4.79-5.39-10.19-7.81-13.14-9.07-4.75-2.04-9.01-2.8-11.92-3.12-.78-1.08-1.55-2.24-2.3-3.46-3.98-6.5-6.1-12.95-7.26-18.44-.78-.25-2.88-.82-5.4-.09-2.43.7-3.88,2.19-4.42,2.82ZM65.69,68.43c.14-.24,2.79-4.59,7.63-5.3.83-.12,3.56-.41,10.46,3.97,1.19.75,2.28,1.44,3.28,2.09.33.22.66.43.97.64,1.39.88,2.63,1.93,3.73,3.08.37.38.72.78,1.05,1.19,1.37,1.53,2.58,3.37,3.37,5.34.2.49.37.99.5,1.5.52,2.85.46,6.14-.68,9.02-.26.78-.5,1.33-.61,1.59-.72,1.65-2,4.46-5.03,6.54-3.56,2.45-7.29,2.36-9.02,2.31-1.44-.04-5.48-.19-9.37-3.03-3.23-2.36-4.62-5.31-5.22-6.62-.38-.83-1.17-2.72-1.68-9.32-.54-7.03-.82-10.54.63-12.99Z"/>
      </g>
      <g>
        <path class="cls-5" d="M51.13,38.84c1.9-4.53,3.2-8.49,4.09-11.52,2.57-8.78.82-6.9,3.16-15.47.69-2.53,1.64-5.59.1-8.01-.81-1.26-2.08-2.01-2.44-2.22-2.14-1.23-4.25-1.08-5.05-.98-.18.75-.36,1.5-.54,2.25.43.19,1.16.59,1.7,1.37.74,1.07.69,2.22.64,3.15-.05.88-.19,3.12-1.97,5.1-1.65,1.85-3.69,2.32-4.35,2.45-.54,4.55-1.21,8.06-1.74,10.47-.44,2-1.11,4.78-1.25,8.66-.04,1.2-.02,2.19,0,2.85"/>
        <path class="cls-2" d="M47.28,37.2c-2.52-.73-4.62-.16-5.4.09-1.16,5.49-3.28,11.94-7.26,18.43-.75,1.22-1.52,2.37-2.3,3.46-2.91.32-7.17,1.08-11.92,3.12-2.95,1.26-8.35,3.67-13.14,9.07-2.58,2.9-5.69,6.4-6.48,11.72-1.15,7.72,3.03,16.38,10.37,20.3,5.74,3.07,11.33,2.12,12.5,1.9,6.59-1.25,10.43-5.69,12.13-7.72,2.71-3.23,3.43-5.7,6.91-18.79,4.83-18.18,5.7-21.93,6.65-26.44,1.06-5.07,1.84-9.32,2.37-12.31-.54-.62-1.99-2.12-4.42-2.82ZM36.83,82.23c-.51,6.6-1.31,8.5-1.68,9.32-.6,1.31-2,4.26-5.23,6.62-3.89,2.84-7.93,2.99-9.37,3.03-1.73.04-5.46.13-9.02-2.32-3.03-2.09-4.3-4.89-5.03-6.54-.11-.26-.35-.81-.61-1.59-1.13-2.88-1.2-6.17-.67-9.02.14-.5.31-1,.5-1.5.79-1.97,2-3.82,3.37-5.34.34-.41.69-.8,1.05-1.18,1.1-1.15,2.33-2.2,3.73-3.08.31-.21.64-.42.97-.64,1-.65,2.09-1.34,3.28-2.09,6.9-4.37,9.64-4.09,10.47-3.96,4.84.71,7.49,5.07,7.63,5.31,1.44,2.45,1.17,5.97.62,12.99Z"/>
      </g>
      <g>
        <circle class="cls-3" cx="50.39" cy="21.96" r="3.34"/>
        <line class="cls-1" x1="48.43" y1="20.03" x2="52.1" y2="23.89"/>
        <line class="cls-1" x1="51.8" y1="19.92" x2="48.87" y2="23.82"/>
      </g>
    </g>
  </g>
</svg>