<?xml version="1.0" encoding="UTF-8"?>
<svg id="Camada_2" data-name="Camada 2" xmlns="http://www.w3.org/2000/svg" xmlns:xlink="http://www.w3.org/1999/xlink" viewBox="0 0 248.84 288.3">
  <defs>
    <style>
      .cls-1 {
        stroke: #897855;
      }

      .cls-1, .cls-2, .cls-3, .cls-4, .cls-5 {
        stroke-miterlimit: 10;
      }

      .cls-1, .cls-3, .cls-4 {
        fill: #ffad36;
      }

      .cls-1, .cls-4, .cls-6, .cls-7 {
        stroke-width: 1.18px;
      }

      .cls-2, .cls-8 {
        fill: #daccb5;
      }

      .cls-2, .cls-5 {
        stroke: #1d1d1b;
        stroke-width: 1.32px;
      }

      .cls-9 {
        fill: #c6b899;
      }

      .cls-3 {
        stroke: #ad6f02;
        stroke-width: .8px;
      }

      .cls-10 {
        clip-path: url(#clippath-1);
      }

      .cls-4, .cls-6 {
        stroke: #000;
      }

      .cls-6, .cls-7 {
        fill: #bbf2ff;
        stroke-linecap: round;
        stroke-linejoin: round;
      }

      .cls-11 {
        fill: #5f769b;
      }

      .cls-12 {
        fill: #1d1d1b;
      }

      .cls-7 {
        stroke: #292675;
      }

      .cls-5 {
        fill: none;
      }

      .cls-13 {
        fill: #495e7c;
      }

      .cls-14 {
        clip-path: url(#clippath);
      }
    </style>
    <clipPath id="clippath">
      <path class="cls-2" d="M93.86,101.71c.72-.47,0-1.33,0-2.09V23.89c-9.94-3.31-23.21-4.5-32.8-.88-.76.27-1.5.56-2.24.88v133.89c3.17,1.55,12.34,2.81,19.47,2.81,6.66,0,12.09-1.09,15.28-2.33,1.2-.47.29-1.54.29-2.47v-54.09Z"/>
    </clipPath>
    <clipPath id="clippath-1">
      <path class="cls-2" d="M207.63,198.46c.72-.47,0-1.33,0-2.09v-75.73c-9.94-3.31-23.21-4.5-32.8-.88-.76.27-1.5.56-2.24.88v133.89c3.17,1.55,12.34,2.81,19.47,2.81,6.66,0,12.09-1.09,15.28-2.33,1.2-.47.29-1.54.29-2.47v-54.09Z"/>
    </clipPath>
  </defs>
  <g id="Camada_4" data-name="Camada 4">
    <g>
      <g>
        <path class="cls-4" d="M248.24,251.15h-12.63v3.28l-219.68,13.36v-.53H.59v4.47h0s0,.04,0,.06c.77,12.33,56.83,18.87,125.21,14.61,67.87-4.23,122.36-17.52,122.43-29.77h0v-5.49Z"/>
        <path class="cls-4" d="M248.24,250.73c-.77-12.33-56.83-18.87-125.21-14.61C54.64,240.38-.17,253.83.6,266.16"/>
        <path class="cls-1" d="M.6,266.16c.77,12.33,56.83,18.87,125.21,14.61,68.38-4.26,123.2-17.72,122.43-30.05"/>
      </g>
      <g>
        <path class="cls-6" d="M134.01,158.58c-.76-7.39-26.21-13.32-57.51-13.32s-57.55,6.12-57.55,13.66v100.4c0,7.54,25.77,13.66,57.55,13.66s57.55-6.12,57.55-13.66v-100.74h-.04Z"/>
        <path class="cls-7" d="M18.95,158.58c0,7.54,25.77,13.66,57.55,13.66s57.55-6.12,57.55-13.66"/>
      </g>
      <g>
        <path class="cls-8" d="M93.86,101.71c.72-.47,0-1.33,0-2.09V23.89c-9.94-3.31-23.21-4.5-32.8-.88-.76.27-1.5.56-2.24.88v133.89c3.17,1.55,12.34,2.81,19.47,2.81,6.66,0,12.09-1.09,15.28-2.33,1.2-.47.29-1.54.29-2.47v-54.09Z"/>
        <g class="cls-14">
          <path class="cls-12" d="M35.43,114.89c4.25,0,4.26-6.61,0-6.61s-4.26,6.61,0,6.61h0Z"/>
          <path class="cls-9" d="M41.91,51.67c24.74,5.56,50.2,7.62,75.5,5.83,7.12-.5,13.22-5.71,13.22-13.22,0-6.76-6.06-13.72-13.22-13.22-23,1.63-45.96.17-68.47-4.89-6.96-1.56-14.31,2.12-16.26,9.23-1.83,6.64,2.24,14.69,9.23,16.26h0Z"/>
          <path class="cls-9" d="M110.59,63.04c-37.67-.71-75.35-.37-113.01,1.04-7.14.27-13.22,5.88-13.22,13.22,0,6.95,6.05,13.49,13.22,13.22,37.65-1.41,75.33-1.75,113.01-1.04,17.02.32,17.02-26.11,0-26.44h0Z"/>
          <path class="cls-9" d="M32.73,117.04c28.34,9.55,58.83,9.38,88.38,8.94,17-.25,17.05-26.69,0-26.44-27.34.41-55.13.84-81.36-7.99-6.76-2.28-14.44,2.63-16.26,9.23-1.98,7.22,2.44,13.97,9.23,16.26h0Z"/>
          <path class="cls-9" d="M99.93,131.83c-28.11,8.04-58,9.39-86.69,3.59-6.99-1.41-14.28,2.01-16.26,9.23-1.79,6.52,2.2,14.84,9.23,16.26,33.35,6.74,67.98,5.78,100.74-3.59,16.33-4.67,9.39-30.19-7.03-25.49h0Z"/>
        </g>
        <path class="cls-5" d="M93.86,101.71c.72-.47,0-1.33,0-2.09V23.89c-9.94-3.31-23.21-4.5-32.8-.88-.76.27-1.5.56-2.24.88v133.89c3.17,1.55,12.34,2.81,19.47,2.81,6.66,0,12.09-1.09,15.28-2.33,1.2-.47.29-1.54.29-2.47v-54.09Z"/>
      </g>
      <g>
        <path class="cls-8" d="M207.63,198.46c.72-.47,0-1.33,0-2.09v-75.73c-9.94-3.31-23.21-4.5-32.8-.88-.76.27-1.5.56-2.24.88v133.89c3.17,1.55,12.34,2.81,19.47,2.81,6.66,0,12.09-1.09,15.28-2.33,1.2-.47.29-1.54.29-2.47v-54.09Z"/>
        <g class="cls-10">
          <path class="cls-12" d="M149.21,211.64c4.25,0,4.26-6.61,0-6.61s-4.26,6.61,0,6.61h0Z"/>
          <path class="cls-9" d="M155.69,148.42c24.74,5.56,50.2,7.62,75.5,5.83,7.12-.5,13.22-5.71,13.22-13.22,0-6.76-6.06-13.72-13.22-13.22-23,1.63-45.96.17-68.47-4.89-6.96-1.56-14.31,2.12-16.26,9.23-1.83,6.64,2.24,14.69,9.23,16.26h0Z"/>
          <path class="cls-9" d="M224.36,159.79c-37.67-.71-75.35-.37-113.01,1.04-7.14.27-13.22,5.88-13.22,13.22,0,6.95,6.05,13.49,13.22,13.22,37.65-1.41,75.33-1.75,113.01-1.04,17.02.32,17.02-26.11,0-26.44h0Z"/>
          <path class="cls-9" d="M146.5,213.79c28.34,9.55,58.83,9.38,88.38,8.94,17-.25,17.05-26.69,0-26.44-27.34.41-55.13.84-81.36-7.99-6.76-2.28-14.44,2.63-16.26,9.23-1.98,7.22,2.44,13.97,9.23,16.26h0Z"/>
          <path class="cls-9" d="M213.71,228.58c-28.11,8.04-58,9.39-86.69,3.59-6.99-1.41-14.28,2.01-16.26,9.23-1.79,6.52,2.2,14.84,9.23,16.26,33.35,6.74,67.98,5.78,100.74-3.59,16.33-4.67,9.39-30.19-7.03-25.49h0Z"/>
        </g>
        <path class="cls-5" d="M207.63,198.46c.72-.47,0-1.33,0-2.09v-75.73c-9.94-3.31-23.21-4.5-32.8-.88-.76.27-1.5.56-2.24.88v133.89c3.17,1.55,12.34,2.81,19.47,2.81,6.66,0,12.09-1.09,15.28-2.33,1.2-.47.29-1.54.29-2.47v-54.09Z"/>
      </g>
      <path class="cls-1" d="M190.28,105.61c-31.38,0-56.82,3.93-56.82,8.78v9.92c0,4.85,25.44,8.78,56.82,8.78s56.82-3.93,56.82-8.78v-9.92c0-4.85-25.44-8.78-56.82-8.78Z"/>
      <path class="cls-3" d="M133.46,113.87c0,4.85,25.44,8.78,56.82,8.78s56.82-3.93,56.82-8.78"/>
      <path class="cls-4" d="M76.5.59c-31.38,0-56.82,3.93-56.82,8.78v9.92c0,4.85,25.44,8.78,56.82,8.78s56.82-3.93,56.82-8.78v-9.92c0-4.85-25.44-8.78-56.82-8.78Z"/>
      <path class="cls-3" d="M19.68,8.85c0,4.85,25.44,8.78,56.82,8.78s56.82-3.93,56.82-8.78"/>
      <path class="cls-11" d="M64.14,181.51c-7.61.03-13.16,7.2-13.46,7.6-2.16,2.87-2.5,5.21-4.04,20.27-1.46,14.22-1.48,15.28-2.69,17.74-3.35,6.81-7.4,7.29-8.53,13.09-.84,4.32.25,9.99,4.04,13.51,8.05,7.5,23.86,1.22,26.92,0,2.7-1.07,11.58-4.74,17.5-13.94,7.6-11.8,4.77-24.05,3.59-29.14-2.58-11.15-11.23-29.19-23.33-29.14Z"/>
      <path class="cls-13" d="M39.69,240.21c1.13-5.81,5.17-6.28,8.53-13.09,1.21-2.46,1.24-3.52,2.69-17.74,1.54-15.06,1.88-17.4,4.04-20.27.27-.36,4.78-6.16,11.2-7.37-.78-.15-1.58-.24-2.39-.23-7.61.03-13.16,7.2-13.46,7.6-2.16,2.87-2.5,5.21-4.04,20.27-1.46,14.22-1.48,15.28-2.69,17.74-3.35,6.81-7.4,7.29-8.53,13.09-.84,4.32.25,9.99,4.04,13.51,3.5,3.26,8.48,3.92,13.23,3.51-3.18-.3-6.22-1.31-8.58-3.51-3.79-3.53-4.88-9.19-4.04-13.51Z"/>
    </g>
  </g>
</svg>