<?xml version="1.0" encoding="UTF-8"?>
<svg id="Camada_2" data-name="Camada 2" xmlns="http://www.w3.org/2000/svg" xmlns:xlink="http://www.w3.org/1999/xlink" viewBox="0 0 268.98 347.36">
  <defs>
    <style>
      .cls-1 {
        fill: #963254;
        stroke-width: 1.12px;
      }

      .cls-1, .cls-2, .cls-3, .cls-4, .cls-5, .cls-6, .cls-7, .cls-8, .cls-9, .cls-10, .cls-11, .cls-12, .cls-13, .cls-14, .cls-15 {
        stroke-linecap: round;
        stroke-linejoin: round;
      }

      .cls-1, .cls-3, .cls-16, .cls-4, .cls-6, .cls-10, .cls-12, .cls-13, .cls-14 {
        stroke: #1d1d1b;
      }

      .cls-2 {
        stroke-width: 1.09px;
      }

      .cls-2, .cls-5 {
        stroke: #6b674d;
      }

      .cls-2, .cls-5, .cls-6, .cls-11, .cls-13 {
        fill: none;
      }

      .cls-3 {
        fill: #6d6355;
      }

      .cls-3, .cls-16, .cls-4, .cls-7, .cls-8, .cls-9, .cls-10, .cls-12, .cls-13, .cls-14, .cls-15 {
        stroke-width: 1.12px;
      }

      .cls-16 {
        fill: #93826a;
        stroke-miterlimit: 10;
      }

      .cls-4 {
        fill: #502c2c;
      }

      .cls-5 {
        stroke-width: 1.14px;
      }

      .cls-6 {
        stroke-width: .84px;
      }

      .cls-17, .cls-12 {
        fill: #ccb9a0;
      }

      .cls-18 {
        clip-path: url(#clippath-1);
      }

      .cls-7 {
        fill: #564d3f;
      }

      .cls-7, .cls-8 {
        stroke: #41392b;
      }

      .cls-8, .cls-14, .cls-15 {
        fill: #877a64;
      }

      .cls-9 {
        fill: #3a3329;
        stroke: #1b1a11;
      }

      .cls-10 {
        fill: #564c3c;
      }

      .cls-11 {
        stroke: #514833;
        stroke-width: 1.04px;
      }

      .cls-19 {
        clip-path: url(#clippath);
      }

      .cls-15 {
        stroke: #564c36;
      }
    </style>
    <clipPath id="clippath">
      <path class="cls-12" d="M116.09,214.2v-85.56c.19-.41.19-1.94.19-1.94-11.88-3.03-22.27-3.29-34.74,0,0,0,0,1.53.08,1.94v86.67c-.08.41-.08,1.94-.08,1.94,12.47,3.29,22.86,3.03,34.74,0,0,0,0-1.53-.19-1.94v-1.11Z"/>
    </clipPath>
    <clipPath id="clippath-1">
      <path class="cls-12" d="M214.63,327.84c-.82.22-1.63.41-2.44.59-10.14,2.43-21.34,4.68-30.05-2.86v-153.13c9.95-4.21,22.28-3.09,32.49.03v153.09c0,.74,0,1.31,0,1.69s0,.58,0,.58Z"/>
    </clipPath>
  </defs>
  <g id="Camada_4" data-name="Camada 4">
    <g>
      <path class="cls-16" d="M125.41,161.67l105.87-5.55c.26-.01.52-.01.78.01l30.94,2.47c3.06.24,5.43,2.8,5.43,5.87v1.57c0,3.1-2.4,5.67-5.49,5.88l-71.91,4.93c-.24.02-.48.02-.71,0l-64.9-3.42c-3.13-.16-5.58-2.75-5.58-5.89h0c0-3.14,2.45-5.72,5.59-5.89Z"/>
      <polygon class="cls-16" points="7.58 323.36 7.58 330.81 187.18 346.79 248.85 323.36 248.85 314.83 78.95 303.65 7.58 323.36"/>
      <polygon class="cls-4" points="39.72 25.73 146.37 .56 187.18 67.21 49.3 74.46 39.72 25.73"/>
      <polygon class="cls-3" points="116.28 119.54 19.61 125.93 19.61 59.22 116.28 24.87 116.28 119.54"/>
      <polyline class="cls-14" points="172.2 124.33 172.2 48.83 144.24 1.7 116.28 24.87"/>
      <polyline class="cls-8" points="116.28 24.87 116.28 119.54 172.2 124.33"/>
      <polyline class="cls-10" points="172.2 124.33 77.18 134.36 19.61 125.93"/>
      <path class="cls-7" d="M19.61,125.93c11.22-.74,22.44-1.48,33.66-2.23,21-1.39,42.01-2.78,63.01-4.17,18.64,1.6,37.28,3.2,55.92,4.79"/>
      <polygon class="cls-4" points="146.69 .56 39.98 24.87 .56 68.12 89.52 53.23 146.69 .56"/>
      <g>
        <path class="cls-17" d="M116.09,214.2v-85.56c.19-.41.19-1.94.19-1.94-11.88-3.03-22.27-3.29-34.74,0,0,0,0,1.53.08,1.94v86.67c-.08.41-.08,1.94-.08,1.94,12.47,3.29,22.86,3.03,34.74,0,0,0,0-1.53-.19-1.94v-1.11Z"/>
        <g class="cls-19">
          <path class="cls-5" d="M81.85,101.66c1.66-.44,3.98-.97,6.78-1.33,5.41-.69,9.54-.36,13.69,0,3.68.32,8.46.95,13.97,2.26"/>
          <path class="cls-5" d="M81.85,104.33c1.66-.44,3.98-.97,6.78-1.33,5.41-.69,9.54-.36,13.69,0,3.68.32,8.46.95,13.97,2.26"/>
          <path class="cls-5" d="M81.85,107c1.66-.44,3.98-.97,6.78-1.33,5.41-.69,9.54-.36,13.69,0,3.68.32,8.46.95,13.97,2.26"/>
          <path class="cls-5" d="M81.85,109.66c1.66-.44,3.98-.97,6.78-1.33,5.41-.69,9.54-.36,13.69,0,3.68.32,8.46.95,13.97,2.26"/>
          <path class="cls-5" d="M81.85,112.33c1.66-.44,3.98-.97,6.78-1.33,5.41-.69,9.54-.36,13.69,0,3.68.32,8.46.95,13.97,2.26"/>
          <path class="cls-5" d="M81.85,115c1.66-.44,3.98-.97,6.78-1.33,5.41-.69,9.54-.36,13.69,0,3.68.32,8.46.95,13.97,2.26"/>
          <path class="cls-5" d="M81.85,117.67c1.66-.44,3.98-.97,6.78-1.33,5.41-.69,9.54-.36,13.69,0,3.68.32,8.46.95,13.97,2.26"/>
          <path class="cls-5" d="M81.85,120.34c1.66-.44,3.98-.97,6.78-1.33,5.41-.69,9.54-.36,13.69,0,3.68.32,8.46.95,13.97,2.26"/>
          <path class="cls-5" d="M81.85,123.01c1.66-.44,3.98-.97,6.78-1.33,5.41-.69,9.54-.36,13.69,0,3.68.32,8.46.95,13.97,2.26"/>
          <path class="cls-5" d="M81.85,125.67c1.66-.44,3.98-.97,6.78-1.33,5.41-.69,9.54-.36,13.69,0,3.68.32,8.46.95,13.97,2.26"/>
          <path class="cls-5" d="M81.85,128.34c1.66-.44,3.98-.97,6.78-1.33,5.41-.69,9.54-.36,13.69,0,3.68.32,8.46.95,13.97,2.26"/>
          <path class="cls-5" d="M81.85,131.01c1.66-.44,3.98-.97,6.78-1.33,5.41-.69,9.54-.36,13.69,0,3.68.32,8.46.95,13.97,2.26"/>
          <path class="cls-5" d="M81.85,133.68c1.66-.44,3.98-.97,6.78-1.33,5.41-.69,9.54-.36,13.69,0,3.68.32,8.46.95,13.97,2.26"/>
          <path class="cls-5" d="M81.85,136.35c1.66-.44,3.98-.97,6.78-1.33,5.41-.69,9.54-.36,13.69,0,3.68.32,8.46.95,13.97,2.26"/>
          <path class="cls-5" d="M81.85,139.02c1.66-.44,3.98-.97,6.78-1.33,5.41-.69,9.54-.36,13.69,0,3.68.32,8.46.95,13.97,2.26"/>
          <path class="cls-5" d="M81.85,141.69c1.66-.44,3.98-.97,6.78-1.33,5.41-.69,9.54-.36,13.69,0,3.68.32,8.46.95,13.97,2.26"/>
          <path class="cls-5" d="M81.85,144.35c1.66-.44,3.98-.97,6.78-1.33,5.41-.69,9.54-.36,13.69,0,3.68.32,8.46.95,13.97,2.26"/>
          <path class="cls-5" d="M81.85,147.02c1.66-.44,3.98-.97,6.78-1.33,5.41-.69,9.54-.36,13.69,0,3.68.32,8.46.95,13.97,2.26"/>
          <path class="cls-5" d="M81.85,149.69c1.66-.44,3.98-.97,6.78-1.33,5.41-.69,9.54-.36,13.69,0,3.68.32,8.46.95,13.97,2.26"/>
          <path class="cls-5" d="M81.85,152.36c1.66-.44,3.98-.97,6.78-1.33,5.41-.69,9.54-.36,13.69,0,3.68.32,8.46.95,13.97,2.26"/>
          <path class="cls-5" d="M81.85,155.03c1.66-.44,3.98-.97,6.78-1.33,5.41-.69,9.54-.36,13.69,0,3.68.32,8.46.95,13.97,2.26"/>
          <path class="cls-5" d="M81.85,157.7c1.66-.44,3.98-.97,6.78-1.33,5.41-.69,9.54-.36,13.69,0,3.68.32,8.46.95,13.97,2.26"/>
          <path class="cls-5" d="M81.85,160.36c1.66-.44,3.98-.97,6.78-1.33,5.41-.69,9.54-.36,13.69,0,3.68.32,8.46.95,13.97,2.26"/>
          <path class="cls-5" d="M81.85,163.03c1.66-.44,3.98-.97,6.78-1.33,5.41-.69,9.54-.36,13.69,0,3.68.32,8.46.95,13.97,2.26"/>
          <path class="cls-5" d="M81.85,165.7c1.66-.44,3.98-.97,6.78-1.33,5.41-.69,9.54-.36,13.69,0,3.68.32,8.46.95,13.97,2.26"/>
          <path class="cls-5" d="M81.85,168.37c1.66-.44,3.98-.97,6.78-1.33,5.41-.69,9.54-.36,13.69,0,3.68.32,8.46.95,13.97,2.26"/>
          <path class="cls-5" d="M81.85,171.04c1.66-.44,3.98-.97,6.78-1.33,5.41-.69,9.54-.36,13.69,0,3.68.32,8.46.95,13.97,2.26"/>
          <path class="cls-5" d="M81.85,173.71c1.66-.44,3.98-.97,6.78-1.33,5.41-.69,9.54-.36,13.69,0,3.68.32,8.46.95,13.97,2.26"/>
          <path class="cls-5" d="M81.85,176.38c1.66-.44,3.98-.97,6.78-1.33,5.41-.69,9.54-.36,13.69,0,3.68.32,8.46.95,13.97,2.26"/>
          <path class="cls-5" d="M81.85,179.04c1.66-.44,3.98-.97,6.78-1.33,5.41-.69,9.54-.36,13.69,0,3.68.32,8.46.95,13.97,2.26"/>
          <path class="cls-5" d="M81.85,181.71c1.66-.44,3.98-.97,6.78-1.33,5.41-.69,9.54-.36,13.69,0,3.68.32,8.46.95,13.97,2.26"/>
          <path class="cls-5" d="M81.85,184.38c1.66-.44,3.98-.97,6.78-1.33,5.41-.69,9.54-.36,13.69,0,3.68.32,8.46.95,13.97,2.26"/>
          <path class="cls-5" d="M81.85,187.05c1.66-.44,3.98-.97,6.78-1.33,5.41-.69,9.54-.36,13.69,0,3.68.32,8.46.95,13.97,2.26"/>
          <path class="cls-5" d="M81.85,189.72c1.66-.44,3.98-.97,6.78-1.33,5.41-.69,9.54-.36,13.69,0,3.68.32,8.46.95,13.97,2.26"/>
          <path class="cls-5" d="M81.85,192.39c1.66-.44,3.98-.97,6.78-1.33,5.41-.69,9.54-.36,13.69,0,3.68.32,8.46.95,13.97,2.26"/>
          <path class="cls-5" d="M81.85,195.05c1.66-.44,3.98-.97,6.78-1.33,5.41-.69,9.54-.36,13.69,0,3.68.32,8.46.95,13.97,2.26"/>
          <path class="cls-5" d="M81.85,197.72c1.66-.44,3.98-.97,6.78-1.33,5.41-.69,9.54-.36,13.69,0,3.68.32,8.46.95,13.97,2.26"/>
          <path class="cls-5" d="M81.85,200.39c1.66-.44,3.98-.97,6.78-1.33,5.41-.69,9.54-.36,13.69,0,3.68.32,8.46.95,13.97,2.26"/>
          <path class="cls-5" d="M81.85,203.06c1.66-.44,3.98-.97,6.78-1.33,5.41-.69,9.54-.36,13.69,0,3.68.32,8.46.95,13.97,2.26"/>
          <path class="cls-5" d="M81.85,205.73c1.66-.44,3.98-.97,6.78-1.33,5.41-.69,9.54-.36,13.69,0,3.68.32,8.46.95,13.97,2.26"/>
          <path class="cls-5" d="M81.85,208.4c1.66-.44,3.98-.97,6.78-1.33,5.41-.69,9.54-.36,13.69,0,3.68.32,8.46.95,13.97,2.26"/>
          <path class="cls-5" d="M81.85,211.06c1.66-.44,3.98-.97,6.78-1.33,5.41-.69,9.54-.36,13.69,0,3.68.32,8.46.95,13.97,2.26"/>
          <path class="cls-5" d="M81.85,213.73c1.66-.44,3.98-.97,6.78-1.33,5.41-.69,9.54-.36,13.69,0,3.68.32,8.46.95,13.97,2.26"/>
          <path class="cls-5" d="M81.85,216.4c1.66-.44,3.98-.97,6.78-1.33,5.41-.69,9.54-.36,13.69,0,3.68.32,8.46.95,13.97,2.26"/>
          <path class="cls-5" d="M81.85,219.07c1.66-.44,3.98-.97,6.78-1.33,5.41-.69,9.54-.36,13.69,0,3.68.32,8.46.95,13.97,2.26"/>
          <path class="cls-5" d="M81.85,221.74c1.66-.44,3.98-.97,6.78-1.33,5.41-.69,9.54-.36,13.69,0,3.68.32,8.46.95,13.97,2.26"/>
          <path class="cls-5" d="M81.85,224.41c1.66-.44,3.98-.97,6.78-1.33,5.41-.69,9.54-.36,13.69,0,3.68.32,8.46.95,13.97,2.26"/>
          <path class="cls-5" d="M81.85,227.08c1.66-.44,3.98-.97,6.78-1.33,5.41-.69,9.54-.36,13.69,0,3.68.32,8.46.95,13.97,2.26"/>
          <path class="cls-5" d="M81.85,229.74c1.66-.44,3.98-.97,6.78-1.33,5.41-.69,9.54-.36,13.69,0,3.68.32,8.46.95,13.97,2.26"/>
          <path class="cls-5" d="M81.85,232.41c1.66-.44,3.98-.97,6.78-1.33,5.41-.69,9.54-.36,13.69,0,3.68.32,8.46.95,13.97,2.26"/>
          <path class="cls-5" d="M81.85,235.08c1.66-.44,3.98-.97,6.78-1.33,5.41-.69,9.54-.36,13.69,0,3.68.32,8.46.95,13.97,2.26"/>
          <path class="cls-5" d="M81.85,237.75c1.66-.44,3.98-.97,6.78-1.33,5.41-.69,9.54-.36,13.69,0,3.68.32,8.46.95,13.97,2.26"/>
          <path class="cls-5" d="M81.85,240.42c1.66-.44,3.98-.97,6.78-1.33,5.41-.69,9.54-.36,13.69,0,3.68.32,8.46.95,13.97,2.26"/>
          <path class="cls-5" d="M81.85,243.09c1.66-.44,3.98-.97,6.78-1.33,5.41-.69,9.54-.36,13.69,0,3.68.32,8.46.95,13.97,2.26"/>
        </g>
        <path class="cls-13" d="M116.09,214.2v-85.56c.19-.41.19-1.94.19-1.94-11.88-3.03-22.27-3.29-34.74,0,0,0,0,1.53.08,1.94v86.67c-.08.41-.08,1.94-.08,1.94,12.47,3.29,22.86,3.03,34.74,0,0,0,0-1.53-.19-1.94v-1.11Z"/>
      </g>
      <path class="cls-9" d="M135.62,115.1l23.43,2.93v-57.25c-.03-8.08-5.71-14.24-11.72-14.91-4.64-.52-9.67,2.68-11.72,7.99v61.25Z"/>
      <polyline class="cls-14" points="23.01 319.69 22.21 210.64 175.6 208.65 175.6 316.45"/>
      <polyline class="cls-15" points="175.6 316.45 122.28 327.28 23.01 319.69"/>
      <path class="cls-9" d="M46.13,316.5v-59.12c2.21-11.6,12.05-20.19,23.57-20.77,12.13-.61,23.23,7.82,25.96,19.97v63.91l-49.53-3.99Z"/>
      <path class="cls-9" d="M166.29,312.54v-59.12c-1.58-11.6-8.63-20.19-16.88-20.77-8.69-.61-16.64,7.82-18.6,19.97v67.87l35.48-7.95Z"/>
      <line class="cls-11" x1="122.28" y1="327.28" x2="122.28" y2="209.34"/>
      <g>
        <path class="cls-17" d="M214.63,327.84c-.82.22-1.63.41-2.44.59-10.14,2.43-21.34,4.68-30.05-2.86v-153.13c9.95-4.21,22.28-3.09,32.49.03v153.09c0,.74,0,1.31,0,1.69s0,.58,0,.58Z"/>
        <g class="cls-18">
          <path class="cls-2" d="M182.65,179.9c1.52-.44,3.63-.97,6.19-1.33,4.94-.69,8.72-.36,12.51,0,3.37.32,7.73.95,12.76,2.26"/>
          <path class="cls-2" d="M182.65,182.57c1.52-.44,3.63-.97,6.19-1.33,4.94-.69,8.72-.36,12.51,0,3.37.32,7.73.95,12.76,2.26"/>
          <path class="cls-2" d="M182.65,185.24c1.52-.44,3.63-.97,6.19-1.33,4.94-.69,8.72-.36,12.51,0,3.37.32,7.73.95,12.76,2.26"/>
          <path class="cls-2" d="M182.65,187.91c1.52-.44,3.63-.97,6.19-1.33,4.94-.69,8.72-.36,12.51,0,3.37.32,7.73.95,12.76,2.26"/>
          <path class="cls-2" d="M182.65,190.58c1.52-.44,3.63-.97,6.19-1.33,4.94-.69,8.72-.36,12.51,0,3.37.32,7.73.95,12.76,2.26"/>
          <path class="cls-2" d="M182.65,193.24c1.52-.44,3.63-.97,6.19-1.33,4.94-.69,8.72-.36,12.51,0,3.37.32,7.73.95,12.76,2.26"/>
          <path class="cls-2" d="M182.65,195.91c1.52-.44,3.63-.97,6.19-1.33,4.94-.69,8.72-.36,12.51,0,3.37.32,7.73.95,12.76,2.26"/>
          <path class="cls-2" d="M182.65,198.58c1.52-.44,3.63-.97,6.19-1.33,4.94-.69,8.72-.36,12.51,0,3.37.32,7.73.95,12.76,2.26"/>
          <path class="cls-2" d="M182.65,201.25c1.52-.44,3.63-.97,6.19-1.33,4.94-.69,8.72-.36,12.51,0,3.37.32,7.73.95,12.76,2.26"/>
          <path class="cls-2" d="M182.65,203.92c1.52-.44,3.63-.97,6.19-1.33,4.94-.69,8.72-.36,12.51,0,3.37.32,7.73.95,12.76,2.26"/>
          <path class="cls-2" d="M182.65,206.59c1.52-.44,3.63-.97,6.19-1.33,4.94-.69,8.72-.36,12.51,0,3.37.32,7.73.95,12.76,2.26"/>
          <path class="cls-2" d="M182.65,209.25c1.52-.44,3.63-.97,6.19-1.33,4.94-.69,8.72-.36,12.51,0,3.37.32,7.73.95,12.76,2.26"/>
          <path class="cls-2" d="M182.65,211.92c1.52-.44,3.63-.97,6.19-1.33,4.94-.69,8.72-.36,12.51,0,3.37.32,7.73.95,12.76,2.26"/>
          <path class="cls-2" d="M182.65,214.59c1.52-.44,3.63-.97,6.19-1.33,4.94-.69,8.72-.36,12.51,0,3.37.32,7.73.95,12.76,2.26"/>
          <path class="cls-2" d="M182.65,217.26c1.52-.44,3.63-.97,6.19-1.33,4.94-.69,8.72-.36,12.51,0,3.37.32,7.73.95,12.76,2.26"/>
          <path class="cls-2" d="M182.65,219.93c1.52-.44,3.63-.97,6.19-1.33,4.94-.69,8.72-.36,12.51,0,3.37.32,7.73.95,12.76,2.26"/>
          <path class="cls-2" d="M182.65,222.6c1.52-.44,3.63-.97,6.19-1.33,4.94-.69,8.72-.36,12.51,0,3.37.32,7.73.95,12.76,2.26"/>
          <path class="cls-2" d="M182.65,225.27c1.52-.44,3.63-.97,6.19-1.33,4.94-.69,8.72-.36,12.51,0,3.37.32,7.73.95,12.76,2.26"/>
          <path class="cls-2" d="M182.65,227.93c1.52-.44,3.63-.97,6.19-1.33,4.94-.69,8.72-.36,12.51,0,3.37.32,7.73.95,12.76,2.26"/>
          <path class="cls-2" d="M182.65,230.6c1.52-.44,3.63-.97,6.19-1.33,4.94-.69,8.72-.36,12.51,0,3.37.32,7.73.95,12.76,2.26"/>
          <path class="cls-2" d="M182.65,233.27c1.52-.44,3.63-.97,6.19-1.33,4.94-.69,8.72-.36,12.51,0,3.37.32,7.73.95,12.76,2.26"/>
          <path class="cls-2" d="M182.65,235.94c1.52-.44,3.63-.97,6.19-1.33,4.94-.69,8.72-.36,12.51,0,3.37.32,7.73.95,12.76,2.26"/>
          <path class="cls-2" d="M182.65,238.61c1.52-.44,3.63-.97,6.19-1.33,4.94-.69,8.72-.36,12.51,0,3.37.32,7.73.95,12.76,2.26"/>
          <path class="cls-2" d="M182.65,241.28c1.52-.44,3.63-.97,6.19-1.33,4.94-.69,8.72-.36,12.51,0,3.37.32,7.73.95,12.76,2.26"/>
          <path class="cls-2" d="M182.65,243.94c1.52-.44,3.63-.97,6.19-1.33,4.94-.69,8.72-.36,12.51,0,3.37.32,7.73.95,12.76,2.26"/>
          <path class="cls-2" d="M182.65,246.61c1.52-.44,3.63-.97,6.19-1.33,4.94-.69,8.72-.36,12.51,0,3.37.32,7.73.95,12.76,2.26"/>
          <path class="cls-2" d="M182.65,249.28c1.52-.44,3.63-.97,6.19-1.33,4.94-.69,8.72-.36,12.51,0,3.37.32,7.73.95,12.76,2.26"/>
          <path class="cls-2" d="M182.65,251.95c1.52-.44,3.63-.97,6.19-1.33,4.94-.69,8.72-.36,12.51,0,3.37.32,7.73.95,12.76,2.26"/>
          <path class="cls-2" d="M182.65,254.62c1.52-.44,3.63-.97,6.19-1.33,4.94-.69,8.72-.36,12.51,0,3.37.32,7.73.95,12.76,2.26"/>
          <path class="cls-2" d="M182.65,257.29c1.52-.44,3.63-.97,6.19-1.33,4.94-.69,8.72-.36,12.51,0,3.37.32,7.73.95,12.76,2.26"/>
          <path class="cls-2" d="M182.65,259.95c1.52-.44,3.63-.97,6.19-1.33,4.94-.69,8.72-.36,12.51,0,3.37.32,7.73.95,12.76,2.26"/>
          <path class="cls-2" d="M182.65,262.62c1.52-.44,3.63-.97,6.19-1.33,4.94-.69,8.72-.36,12.51,0,3.37.32,7.73.95,12.76,2.26"/>
          <path class="cls-2" d="M182.65,265.29c1.52-.44,3.63-.97,6.19-1.33,4.94-.69,8.72-.36,12.51,0,3.37.32,7.73.95,12.76,2.26"/>
          <path class="cls-2" d="M182.65,267.96c1.52-.44,3.63-.97,6.19-1.33,4.94-.69,8.72-.36,12.51,0,3.37.32,7.73.95,12.76,2.26"/>
          <path class="cls-2" d="M182.65,270.63c1.52-.44,3.63-.97,6.19-1.33,4.94-.69,8.72-.36,12.51,0,3.37.32,7.73.95,12.76,2.26"/>
          <path class="cls-2" d="M182.65,273.3c1.52-.44,3.63-.97,6.19-1.33,4.94-.69,8.72-.36,12.51,0,3.37.32,7.73.95,12.76,2.26"/>
          <path class="cls-2" d="M182.65,275.97c1.52-.44,3.63-.97,6.19-1.33,4.94-.69,8.72-.36,12.51,0,3.37.32,7.73.95,12.76,2.26"/>
          <path class="cls-2" d="M182.65,278.63c1.52-.44,3.63-.97,6.19-1.33,4.94-.69,8.72-.36,12.51,0,3.37.32,7.73.95,12.76,2.26"/>
          <path class="cls-2" d="M182.65,281.3c1.52-.44,3.63-.97,6.19-1.33,4.94-.69,8.72-.36,12.51,0,3.37.32,7.73.95,12.76,2.26"/>
          <path class="cls-2" d="M182.65,283.97c1.52-.44,3.63-.97,6.19-1.33,4.94-.69,8.72-.36,12.51,0,3.37.32,7.73.95,12.76,2.26"/>
          <path class="cls-2" d="M182.65,286.64c1.52-.44,3.63-.97,6.19-1.33,4.94-.69,8.72-.36,12.51,0,3.37.32,7.73.95,12.76,2.26"/>
          <path class="cls-2" d="M182.65,289.31c1.52-.44,3.63-.97,6.19-1.33,4.94-.69,8.72-.36,12.51,0,3.37.32,7.73.95,12.76,2.26"/>
          <path class="cls-2" d="M182.65,291.98c1.52-.44,3.63-.97,6.19-1.33,4.94-.69,8.72-.36,12.51,0,3.37.32,7.73.95,12.76,2.26"/>
          <path class="cls-2" d="M182.65,294.64c1.52-.44,3.63-.97,6.19-1.33,4.94-.69,8.72-.36,12.51,0,3.37.32,7.73.95,12.76,2.26"/>
          <path class="cls-2" d="M182.65,297.31c1.52-.44,3.63-.97,6.19-1.33,4.94-.69,8.72-.36,12.51,0,3.37.32,7.73.95,12.76,2.26"/>
          <path class="cls-2" d="M182.65,299.98c1.52-.44,3.63-.97,6.19-1.33,4.94-.69,8.72-.36,12.51,0,3.37.32,7.73.95,12.76,2.26"/>
          <path class="cls-2" d="M182.65,302.65c1.52-.44,3.63-.97,6.19-1.33,4.94-.69,8.72-.36,12.51,0,3.37.32,7.73.95,12.76,2.26"/>
          <path class="cls-2" d="M182.65,305.32c1.52-.44,3.63-.97,6.19-1.33,4.94-.69,8.72-.36,12.51,0,3.37.32,7.73.95,12.76,2.26"/>
          <path class="cls-2" d="M182.65,307.99c1.52-.44,3.63-.97,6.19-1.33,4.94-.69,8.72-.36,12.51,0,3.37.32,7.73.95,12.76,2.26"/>
          <path class="cls-2" d="M182.65,310.66c1.52-.44,3.63-.97,6.19-1.33,4.94-.69,8.72-.36,12.51,0,3.37.32,7.73.95,12.76,2.26"/>
          <path class="cls-2" d="M182.65,313.32c1.52-.44,3.63-.97,6.19-1.33,4.94-.69,8.72-.36,12.51,0,3.37.32,7.73.95,12.76,2.26"/>
          <path class="cls-2" d="M182.65,315.99c1.52-.44,3.63-.97,6.19-1.33,4.94-.69,8.72-.36,12.51,0,3.37.32,7.73.95,12.76,2.26"/>
          <path class="cls-2" d="M182.65,318.66c1.52-.44,3.63-.97,6.19-1.33,4.94-.69,8.72-.36,12.51,0,3.37.32,7.73.95,12.76,2.26"/>
          <path class="cls-2" d="M182.65,321.33c1.52-.44,3.63-.97,6.19-1.33,4.94-.69,8.72-.36,12.51,0,3.37.32,7.73.95,12.76,2.26"/>
        </g>
        <path class="cls-13" d="M214.63,327.84c-.82.22-1.63.41-2.44.59-10.14,2.43-21.34,4.68-30.05-2.86v-153.13c9.95-4.21,22.28-3.09,32.49.03v153.09c0,.74,0,1.31,0,1.69s0,.58,0,.58Z"/>
      </g>
      <line class="cls-11" x1="124.24" y1="172.87" x2="226.61" y2="166.49"/>
      <line class="cls-11" x1="265" y1="170.75" x2="226.61" y2="166.49"/>
      <path class="cls-13" d="M50.98,124.33c-.16,3.64-.23,9.42.53,16.51.9,8.35,1.87,8.56,1.6,13.32-.36,6.3-2.26,9.08-2.66,17.58-.12,2.49-.06,4.54,0,5.86"/>
      <path class="cls-4" d="M38.27,182.75c.85-1.03,2.4-2.64,4.8-3.9,1.19-.62,3.38-1.73,6.37-1.72,3.07,0,5.37,1.19,6.52,1.8.87.46,1.55.92,2.02,1.27,1.47-.8,2.95-1.6,4.42-2.4.03,3.5.05,7,.07,10.5l-4.12-2.17c-.75.79-2.32,2.21-4.72,2.92-2.72.81-4.98.26-6.37-.07-.66-.16-2.96-.76-5.4-2.55-1.75-1.28-2.9-2.68-3.6-3.67Z"/>
      <path class="cls-6" d="M233.35,166.73c3.33,14.14,3.05,25.32,2.13,33.02-1.28,10.72-3.96,16.2-4.26,27.7-.27,10.37,1.58,18.89,3.2,24.5"/>
      <circle class="cls-1" cx="234.87" cy="259.54" r="7.59"/>
      <line class="cls-11" x1="7.58" y1="323.36" x2="185.8" y2="339.9"/>
      <line class="cls-11" x1="248.85" y1="314.83" x2="185.8" y2="339.9"/>
    </g>
  </g>
</svg>