<?xml version="1.0" encoding="UTF-8"?>
<svg id="Camada_2" data-name="Camada 2" xmlns="http://www.w3.org/2000/svg" viewBox="0 0 80.97 63.85">
  <defs>
    <style>
      .cls-1 {
        fill: #130c08;
        stroke-width: 1.04px;
      }

      .cls-1, .cls-2, .cls-3, .cls-4, .cls-5, .cls-6 {
        stroke-miterlimit: 10;
      }

      .cls-1, .cls-7 {
        stroke: #1d1d1b;
      }

      .cls-2 {
        fill: #171537;
      }

      .cls-2, .cls-3, .cls-4, .cls-5, .cls-6 {
        stroke: #000;
      }

      .cls-2, .cls-4, .cls-7, .cls-5, .cls-6 {
        stroke-width: 1.12px;
      }

      .cls-3 {
        fill: #151535;
        stroke-width: 1.04px;
      }

      .cls-4 {
        fill: #3b3383;
      }

      .cls-7 {
        fill: #fff;
        stroke-linecap: round;
        stroke-linejoin: round;
      }

      .cls-5 {
        fill: #2c286a;
      }

      .cls-6 {
        fill: #20203f;
      }
    </style>
  </defs>
  <g id="Camada_10" data-name="Camada 10">
    <g>
      <g>
        <path class="cls-6" d="M80,41.24c-.23,0-.41.18-.41.41v.16c-3.74-8.13-19.83-14.24-39.1-14.24S5.12,33.68,1.38,41.81v-.18c0-.23-.18-.41-.41-.41s-.41.18-.41.41v3.85s0,.01,0,.02c.08,9.84,17.92,17.8,39.92,17.8s39.81-7.95,39.92-17.77c0,0,0-.02,0-.03v-3.85c0-.23-.18-.41-.41-.41Z"/>
        <ellipse class="cls-2" cx="40.48" cy="42.32" rx="39.92" ry="16.92"/>
        <path class="cls-4" d="M10.79,17.5c-2.08,2.61-3.34,5-4.1,6.67-2.17,4.78-2.65,9.03-3.02,12.54-.28,2.68-.31,4.91-.28,6.41,1.44,1.46,3.68,3.43,6.79,5.18,2.45,1.38,4.48,2.08,6.41,2.73.94.32,4.15,1.38,9.52,2.26,1.38.23,5.88.93,12.26,1.13,4.3.13,8.43.26,13.76-.47,4.32-.59,8.79-1.18,14.05-3.58,2.91-1.33,7.13-3.69,11.41-7.92-.05-1.17-.14-2.86-.28-4.9-.28-4.05-.43-6.12-.85-8.2-.36-1.82-.83-4.06-2.07-6.69,0,0-1.32-2.79-3.44-5.31-3.3-3.93-27.48-4.94-60.14.15Z"/>
        <ellipse class="cls-5" cx="40.9" cy="18.76" rx="30.4" ry="9.17"/>
        <ellipse class="cls-3" cx="40.9" cy="18.55" rx="26.25" ry="6.85"/>
      </g>
      <path class="cls-1" d="M62.54,11.04c-.68,0-1.32.18-1.9.48.01-.12.03-.24.03-.37,0-1.75-1.23-3.16-2.74-3.16-.39,0-.77.1-1.11.27-.32-3.23-2.69-5.74-5.58-5.74-2.48,0-4.58,1.85-5.32,4.41-.5-.67-1.24-1.1-2.06-1.1-.04,0-.08.01-.12.01-.46-2.37-2.29-4.15-4.49-4.15-1.67,0-3.12,1.04-3.93,2.57-.58-2.17-2.31-3.75-4.39-3.75-2.55,0-4.61,2.38-4.61,5.32,0,.1.02.19.02.28-.37-.21-.77-.34-1.21-.34-1.09,0-2.02.74-2.47,1.8-.72-.39-1.53-.62-2.38-.62-3.1,0-5.62,2.9-5.62,6.48,0,.41.03.81.1,1.2-.15,1.16-.09,2.18.11,3.09,1.61,3.91,12.65,6.93,26.04,6.93s24.91-3.16,26.13-7.19c.07-.36.12-.73.12-1.11,0-2.94-2.06-5.32-4.61-5.32Z"/>
      <path class="cls-7" d="M28.37,39.66c.85-1.03,2.4-2.64,4.8-3.9,1.19-.62,3.38-1.73,6.37-1.72,3.07,0,5.37,1.19,6.52,1.8.87.46,1.55.92,2.02,1.27,1.47-.8,2.95-1.6,4.42-2.4.03,3.5.05,7,.07,10.5l-4.12-2.17c-.75.79-2.32,2.21-4.72,2.92-2.72.81-4.98.26-6.37-.07-.66-.16-2.96-.76-5.4-2.55-1.75-1.28-2.9-2.68-3.6-3.67Z"/>
    </g>
  </g>
</svg>