<?xml version="1.0" encoding="UTF-8"?>
<svg id="Camada_2" data-name="Camada 2" xmlns="http://www.w3.org/2000/svg" viewBox="0 0 84.13 54.91">
  <defs>
    <style>
      .cls-1 {
        fill: none;
      }

      .cls-1, .cls-2, .cls-3, .cls-4, .cls-5 {
        stroke: #1d1d1b;
      }

      .cls-1, .cls-2, .cls-4 {
        stroke-miterlimit: 10;
      }

      .cls-1, .cls-2, .cls-5 {
        stroke-width: 2.24px;
      }

      .cls-2 {
        fill: #6c624c;
      }

      .cls-3 {
        fill: #9e5955;
        stroke-linecap: round;
        stroke-width: 1.12px;
      }

      .cls-3, .cls-5 {
        stroke-linejoin: round;
      }

      .cls-4 {
        fill: #3f291d;
        stroke-width: 1.14px;
      }

      .cls-5 {
        fill: #93846f;
      }
    </style>
  </defs>
  <g id="Camada_4" data-name="Camada 4">
    <g>
      <path class="cls-5" d="M10.71,20.8L1.12,45.2c8.06,3.51,22.53,8.6,41.23,8.59,18.37,0,32.62-4.93,40.66-8.39l-8.79-25.64"/>
      <ellipse class="cls-2" cx="42.46" cy="19.76" rx="31.76" ry="7.53"/>
      <path class="cls-1" d="M16.13,24.12c5.71-2,15.37-3.32,26.33-3.32s20.37,1.28,26.1,3.24"/>
      <path class="cls-3" d="M31.07,39.72c.85-1.03,2.4-2.64,4.8-3.9,1.19-.62,3.38-1.73,6.37-1.72,3.07,0,5.37,1.19,6.52,1.8.87.46,1.55.92,2.02,1.27,1.47-.8,2.95-1.6,4.42-2.4.03,3.5.05,7,.07,10.5-1.37-.72-2.75-1.45-4.12-2.17-.75.79-2.32,2.21-4.72,2.92-2.72.81-4.98.26-6.37-.07-.66-.16-2.96-.76-5.4-2.55-1.75-1.28-2.9-2.68-3.6-3.67Z"/>
      <path class="cls-4" d="M71.07,21.97c0-.2-.05-.37-.07-.56,2.16-.73,3.72-2.68,3.72-5,0-2.94-2.48-5.32-5.54-5.32-.82,0-1.58.18-2.28.48.02-.12.04-.24.04-.37,0-1.75-1.48-3.16-3.3-3.16-.47,0-.92.1-1.33.27-.38-3.23-3.24-5.74-6.71-5.74-2.98,0-5.5,1.85-6.4,4.41-.6-.67-1.48-1.1-2.48-1.1-.05,0-.09.01-.14.01-.56-2.37-2.76-4.15-5.4-4.15-2.01,0-3.75,1.04-4.72,2.57-.7-2.17-2.78-3.75-5.27-3.75-3.06,0-5.54,2.38-5.54,5.32,0,.1.02.19.03.28-.44-.21-.93-.34-1.45-.34-1.31,0-2.43.74-2.96,1.8-.87-.39-1.84-.62-2.86-.62-3.73,0-6.75,2.9-6.75,6.48,0,1.64.64,3.13,1.69,4.28-.76,1.09-1.14,2.18-.97,3.3.04.27.12.53.21.77,5.18,2.62,16.75,4.45,30.19,4.45,12,0,22.51-1.45,28.32-3.63,0-.29,0-.54-.01-.69Z"/>
    </g>
  </g>
</svg>