<?xml version="1.0" encoding="UTF-8"?>
<svg id="Camada_2" data-name="Camada 2" xmlns="http://www.w3.org/2000/svg" xmlns:xlink="http://www.w3.org/1999/xlink" viewBox="0 0 162.16 95.31">
  <defs>
    <style>
      .cls-1 {
        fill: #89e8f7;
      }

      .cls-1, .cls-2, .cls-3, .cls-4, .cls-5, .cls-6, .cls-7, .cls-8, .cls-9, .cls-10, .cls-11, .cls-12, .cls-13, .cls-14, .cls-15, .cls-16, .cls-17, .cls-18, .cls-19, .cls-20, .cls-21, .cls-22, .cls-23, .cls-24, .cls-25, .cls-26, .cls-27, .cls-28, .cls-29 {
        stroke-miterlimit: 10;
      }

      .cls-1, .cls-3, .cls-6, .cls-19, .cls-23, .cls-28 {
        stroke-width: .75px;
      }

      .cls-1, .cls-3, .cls-19, .cls-23 {
        stroke: #000;
      }

      .cls-30 {
        fill: #bc934a;
      }

      .cls-2 {
        stroke-width: .74px;
      }

      .cls-2, .cls-4, .cls-5, .cls-6, .cls-7, .cls-8, .cls-9, .cls-10, .cls-11, .cls-12, .cls-13, .cls-14, .cls-15, .cls-16, .cls-17, .cls-18, .cls-20, .cls-21, .cls-22, .cls-24, .cls-25, .cls-26, .cls-27, .cls-28, .cls-29 {
        stroke: #478689;
      }

      .cls-2, .cls-4, .cls-5, .cls-7, .cls-8, .cls-9, .cls-10, .cls-11, .cls-12, .cls-13, .cls-14, .cls-15, .cls-16, .cls-17, .cls-18, .cls-20, .cls-21, .cls-22, .cls-23, .cls-24, .cls-25, .cls-26, .cls-27, .cls-28, .cls-29 {
        fill: none;
      }

      .cls-3, .cls-6, .cls-31 {
        fill: #e0b577;
      }

      .cls-4 {
        stroke-width: .79px;
      }

      .cls-5 {
        stroke-width: .84px;
      }

      .cls-7 {
        stroke-width: .72px;
      }

      .cls-8 {
        stroke-width: .81px;
      }

      .cls-9 {
        stroke-width: .82px;
      }

      .cls-10 {
        stroke-width: .74px;
      }

      .cls-11 {
        stroke-width: .71px;
      }

      .cls-12 {
        stroke-width: .78px;
      }

      .cls-13 {
        stroke-width: .81px;
      }

      .cls-14 {
        stroke-width: .78px;
      }

      .cls-15 {
        stroke-width: .76px;
      }

      .cls-16 {
        stroke-width: .75px;
      }

      .cls-17 {
        stroke-width: .79px;
      }

      .cls-18 {
        stroke-width: .7px;
      }

      .cls-32, .cls-19 {
        fill: #abd4d8;
      }

      .cls-20 {
        stroke-width: .77px;
      }

      .cls-21 {
        stroke-width: .8px;
      }

      .cls-22 {
        stroke-width: .77px;
      }

      .cls-24 {
        stroke-width: .77px;
      }

      .cls-25 {
        stroke-width: .79px;
      }

      .cls-26 {
        stroke-width: .84px;
      }

      .cls-27 {
        stroke-width: .76px;
      }

      .cls-33 {
        clip-path: url(#clippath);
      }

      .cls-29 {
        stroke-width: .76px;
      }
    </style>
    <clipPath id="clippath">
      <path class="cls-19" d="M107.27,51.68c7.46-3.73,10.3-2.24,20.68-4.83,9.7-2.42,18.71-4.67,20.68-11.01,1.3-4.18-.77-9.17-3.22-12.09-1.6-1.9-3.3-2.85-6.98-4.57-8.21-3.82-12.32-5.73-19.34-7.52-2.11-.54-7.16-1.75-16.11-2.69-5.48-.57-16.65-1.48-31.96-.54-2.66.16-15.01.97-30.88,4.3-3.4.71-14.04,3.04-23.63,9.94-2.73,1.96-5.45,4.35-6.18,8.06-.62,3.18.36,6.7,2.42,9.13,3.44,4.06,7.1,1.78,12.35,5.1,5.98,3.79,3.84,8.4,11.01,15.31,4.43,4.27,9.08,6.2,11.01,6.98,4.86,1.97,8.73,2.28,13.7,2.69,2.86.23,8.57-.2,19.87-1.07,5.8-.45,8.07-.68,10.47-2.42,2.78-2.01,2.98-4.03,5.64-7.25,3.21-3.89,6.84-5.7,10.47-7.52Z"/>
    </clipPath>
  </defs>
  <g id="Camada_9" data-name="Camada 9">
    <g>
      <path class="cls-1" d="M161.78,70.62c-6.57,4.43-15.85,9.9-27.66,14.5-4.71,1.84-23.31,8.83-49.15,9.67-11.05.36-33.62.9-59.62-9.67-10.89-4.43-19.3-9.55-24.98-13.43v-38.41c0-9.86,9.13-16.32,17.04-20.01C32.22,6.37,48.39,2.95,64.59,1.48,81.61-.07,99.41-.3,116.27,2.85c8.46,1.58,16.68,4.4,24.35,8.3,4,2.03,7.85,4.36,11.52,6.94,2.38,1.68,8.49,4.87,8.57,8.22.36,14.77.72,29.54,1.07,44.31Z"/>
      <g>
        <path class="cls-32" d="M107.27,51.68c7.46-3.73,10.3-2.24,20.68-4.83,9.7-2.42,18.71-4.67,20.68-11.01,1.3-4.18-.77-9.17-3.22-12.09-1.6-1.9-3.3-2.85-6.98-4.57-8.21-3.82-12.32-5.73-19.34-7.52-2.11-.54-7.16-1.75-16.11-2.69-5.48-.57-16.65-1.48-31.96-.54-2.66.16-15.01.97-30.88,4.3-3.4.71-14.04,3.04-23.63,9.94-2.73,1.96-5.45,4.35-6.18,8.06-.62,3.18.36,6.7,2.42,9.13,3.44,4.06,7.1,1.78,12.35,5.1,5.98,3.79,3.84,8.4,11.01,15.31,4.43,4.27,9.08,6.2,11.01,6.98,4.86,1.97,8.73,2.28,13.7,2.69,2.86.23,8.57-.2,19.87-1.07,5.8-.45,8.07-.68,10.47-2.42,2.78-2.01,2.98-4.03,5.64-7.25,3.21-3.89,6.84-5.7,10.47-7.52Z"/>
        <g class="cls-33">
          <path class="cls-3" d="M140.1,46.65c1.32-4.1-2.85-8.73-3.22-9.13-2.6-2.81-5.95-3.76-11.55-4.57-10.81-1.55-15.35-.44-22.29-1.07-8.92-.81-9.38-3.36-19.6-5.91-16.02-4-29.64-1.43-36.79,0-.59.12-13.06,2.72-26.05,11.01-3.79,2.42-6.46,4.57-6.45,7.25.02,3.77,5.34,5.3,11.55,10.47,9,7.5,7.12,12.03,13.7,17.46,7.84,6.46,17.86,6.08,29.27,5.64,5.52-.21,18.32-.85,31.42-8.33,10.43-5.95,9.13-9.45,19.34-13.97,10.87-4.81,19.06-3.83,20.68-8.86Z"/>
        </g>
        <path class="cls-23" d="M107.27,51.68c7.46-3.73,10.3-2.24,20.68-4.83,9.7-2.42,18.71-4.67,20.68-11.01,1.3-4.18-.77-9.17-3.22-12.09-1.6-1.9-3.3-2.85-6.98-4.57-8.21-3.82-12.32-5.73-19.34-7.52-2.11-.54-7.16-1.75-16.11-2.69-5.48-.57-16.65-1.48-31.96-.54-2.66.16-15.01.97-30.88,4.3-3.4.71-14.04,3.04-23.63,9.94-2.73,1.96-5.45,4.35-6.18,8.06-.62,3.18.36,6.7,2.42,9.13,3.44,4.06,7.1,1.78,12.35,5.1,5.98,3.79,3.84,8.4,11.01,15.31,4.43,4.27,9.08,6.2,11.01,6.98,4.86,1.97,8.73,2.28,13.7,2.69,2.86.23,8.57-.2,19.87-1.07,5.8-.45,8.07-.68,10.47-2.42,2.78-2.01,2.98-4.03,5.64-7.25,3.21-3.89,6.84-5.7,10.47-7.52Z"/>
      </g>
      <ellipse class="cls-30" cx="108.95" cy="43" rx="3.36" ry="1.48"/>
      <ellipse class="cls-30" cx="82.63" cy="52.94" rx="3.36" ry="1.48"/>
      <ellipse class="cls-30" cx="69.47" cy="35.75" rx="3.36" ry="1.48"/>
      <path class="cls-30" d="M42.75,44.48c0,.82,1.5,1.48,3.36,1.48,0,0,1.44.16,2.5-.41.11-.06.34-.19.55-.45.03-.03.31-.38.3-.61-.04-.79-1.84-1.48-3.36-1.48-1.85,0-3.36.66-3.36,1.48Z"/>
      <path class="cls-31" d="M49.68,46.18c-.69-.38-1.9-.93-3.49-1.07-2.14-.19-3.8.45-4.57.81"/>
      <path class="cls-31" d="M74.75,37.49c-.69-.56-1.9-1.36-3.49-1.58-2.14-.28-3.8.66-4.57,1.18"/>
      <path class="cls-31" d="M87.64,55.23c-.69-.56-1.9-1.36-3.49-1.58-2.14-.28-3.8.66-4.57,1.18"/>
      <path class="cls-31" d="M114.45,45.31c-.69-.56-1.9-1.36-3.49-1.58-2.14-.28-3.8.66-4.57,1.18"/>
      <path class="cls-6" d="M70.4,69.61c.13,8.4.26,16.8.4,25.21"/>
      <path class="cls-28" d="M62.93,70.01c-.34-.08-.89-.16-1.52-.02-1.69.37-2.62,2.05-3.05,2.83-1.37,2.49-1.77,10.38-.8,20.84"/>
      <path class="cls-10" d="M52,68.84c-.34-.08-.89-.16-1.52-.02-1.69.36-2.62,1.99-3.05,2.76-1.37,2.42-1.77,10.11-.8,20.31"/>
      <path class="cls-29" d="M42.75,65.26c-.34-.08-.89-.16-1.52-.02-1.69.38-2.62,2.07-3.05,2.87-1.37,2.52-1.77,10.5-.8,21.09"/>
      <path class="cls-9" d="M34.46,58.54c-.34-.09-.89-.19-1.52-.03-1.69.44-2.62,2.44-3.05,3.37-1.37,2.96-1.77,12.35-.8,24.81"/>
      <path class="cls-28" d="M28.07,47.8c-.51-.12-1.35-.24-2.3-.03-2.57.55-3.97,3.05-4.62,4.23-2.08,3.71-2.69,15.49-1.22,31.12"/>
      <path class="cls-16" d="M17.98,42.79c-.51-.12-1.35-.24-2.3-.03-2.57.55-3.97,3.02-4.62,4.18-2.08,3.67-2.69,15.32-1.22,30.78"/>
      <path class="cls-24" d="M10.69,36.82c-.51-.12-1.35-.25-2.3-.04-2.57.57-3.97,3.16-4.62,4.37-2.08,3.84-2.69,16.03-1.22,32.19"/>
      <path class="cls-25" d="M79.59,68.96c.34-.09.89-.18,1.52-.03,1.69.41,2.62,2.24,3.05,3.1,1.37,2.72,1.77,11.34.8,22.79"/>
      <path class="cls-21" d="M90.52,66.9c.34-.09.89-.18,1.52-.03,1.69.42,2.62,2.31,3.05,3.2,1.37,2.81,1.77,11.74.8,23.58"/>
      <path class="cls-7" d="M99.59,56.44c.35-.12.92-.25,1.57-.04,1.75.57,2.7,3.14,3.15,4.34,1.42,3.82,1.83,15.92.83,31.98"/>
      <path class="cls-27" d="M106.39,52.09c.48-.13,1.27-.26,2.17-.04,2.42.6,3.75,3.33,4.37,4.61,1.96,4.05,2.54,16.9,1.15,33.94"/>
      <path class="cls-4" d="M117.25,48.73c.51-.13,1.35-.27,2.3-.04,2.57.61,3.97,3.38,4.62,4.68,2.08,4.11,2.69,17.15,1.22,34.44"/>
      <path class="cls-13" d="M127.92,46.87c.55-.12,1.45-.25,2.49-.04,2.77.59,4.29,3.24,5,4.48,2.25,3.94,2.91,16.43,1.32,33"/>
      <path class="cls-20" d="M138.66,43.82c.54-.12,1.41-.24,2.42-.03,2.7.55,4.17,3.05,4.86,4.23,2.19,3.71,2.83,15.49,1.28,31.11"/>
      <path class="cls-20" d="M148.07,36.85c.54-.12,1.41-.25,2.42-.04,2.7.58,4.17,3.21,4.86,4.45,2.19,3.91,2.83,16.3,1.28,32.74"/>
      <path class="cls-17" d="M149,30.29c1.87-.56,3.46-.71,4.57-.74,1.65-.04,3.72-.08,5.84,1.07.5.27.89.54,1.14.74"/>
      <path class="cls-5" d="M145.41,23.75c.37-.72,1.3-2.29,3.29-3.54,1.84-1.15,3.65-1.45,4.53-1.54"/>
      <path class="cls-17" d="M138.66,19.06c.33-.72,1.16-2.29,2.92-3.54,1.63-1.15,3.24-1.45,4.03-1.54"/>
      <path class="cls-26" d="M130.64,15.47c.33-.81,1.16-2.55,2.92-3.94,1.63-1.28,3.24-1.62,4.03-1.72"/>
      <path class="cls-28" d="M120.55,11.76c.33-.85,1.16-2.7,2.92-4.16,1.63-1.36,3.24-1.71,4.03-1.82"/>
      <path class="cls-12" d="M111.12,10.25c.03-.74.2-2.4,1.41-4.27,1.12-1.72,2.56-2.75,3.29-3.21"/>
      <path class="cls-17" d="M102.99,9.1c-.03-.79,0-2.57,1.02-4.48.94-1.76,2.24-2.76,2.9-3.19"/>
      <path class="cls-8" d="M94.6,8.56c-.06-.83-.1-2.69.83-4.65.86-1.81,2.11-2.8,2.74-3.23"/>
      <path class="cls-22" d="M12.05,26.83c-.35-.65-1.22-2.06-3.08-3.18-1.72-1.04-3.41-1.31-4.24-1.39"/>
      <path class="cls-17" d="M18.28,21.6c-.33-.72-1.16-2.29-2.92-3.54-1.63-1.15-3.24-1.45-4.03-1.54"/>
      <path class="cls-14" d="M25.94,17.62c-.3-.75-1.07-2.38-2.71-3.68-1.51-1.2-3.01-1.51-3.73-1.61"/>
      <path class="cls-18" d="M36.07,14.08c-.3-.81-1.05-2.57-2.66-3.96-1.48-1.29-2.95-1.62-3.66-1.73"/>
      <path class="cls-11" d="M46.04,11.8c-.04-.66-.23-2.15-1.39-3.84-1.07-1.56-2.43-2.51-3.11-2.94"/>
      <path class="cls-2" d="M54.47,10.39c.03-.74,0-2.41-.97-4.2-.89-1.66-2.12-2.59-2.74-3"/>
      <path class="cls-15" d="M63.08,9.32c.04-.77.04-2.49-.9-4.33-.86-1.7-2.08-2.64-2.7-3.05"/>
      <path class="cls-15" d="M88.65.38c-.23.08-.43.18-.6.3-2.42,1.59-1.41,6.72-1.28,7.38"/>
      <path class="cls-15" d="M79.79.74c.16,2.34.31,4.69.47,7.03"/>
      <path class="cls-15" d="M74.39,1.01c.04,2.32.09,4.64.13,6.97"/>
      <path class="cls-15" d="M68.44,1.53c.04,2.32.09,4.64.13,6.97"/>
    </g>
  </g>
</svg>