<?xml version="1.0" encoding="UTF-8"?>
<svg id="Camada_2" data-name="Camada 2" xmlns="http://www.w3.org/2000/svg" viewBox="0 0 123.52 98.36">
  <defs>
    <style>
      .cls-1 {
        fill: none;
        stroke-linecap: round;
        stroke-linejoin: round;
      }

      .cls-1, .cls-2, .cls-3, .cls-4, .cls-5 {
        stroke: #000;
        stroke-width: 1.18px;
      }

      .cls-2 {
        fill: #ff6485;
      }

      .cls-2, .cls-3, .cls-4, .cls-5 {
        stroke-miterlimit: 10;
      }

      .cls-3 {
        fill: #bcbcbc;
      }

      .cls-4 {
        fill: #afafaf;
      }

      .cls-5 {
        fill: #9b9b9b;
      }
    </style>
  </defs>
  <g id="Camada_4" data-name="Camada 4">
    <g>
      <g>
        <path class="cls-4" d="M64.76,38.08c-2.76-4.07-4.82-7.69-6.29-10.48-4.26-8.09-2.16-6.61-6.15-14.54-1.18-2.35-2.71-5.16-1.68-7.83.54-1.4,1.64-2.38,1.96-2.66,1.85-1.62,3.95-1.9,4.75-1.96l.98,2.1c-.39.27-1.02.8-1.4,1.68-.52,1.19-.24,2.31,0,3.22.22.85.81,3.02,2.94,4.61,1.99,1.49,4.08,1.55,4.75,1.54,1.43,4.35,2.78,7.66,3.77,9.92.82,1.87,2.03,4.46,2.94,8.25.28,1.17.45,2.14.56,2.8"/>
        <path class="cls-5" d="M59.77,38.08c2.76-4.07,4.82-7.69,6.29-10.48,4.26-8.09,2.16-6.61,6.15-14.54,1.18-2.35,2.71-5.16,1.68-7.83-.54-1.4-1.64-2.38-1.96-2.66-1.85-1.62-3.95-1.9-4.75-1.96-.33.7-.65,1.4-.98,2.1.39.27,1.02.8,1.4,1.68.52,1.19.24,2.31,0,3.22-.22.85-.81,3.02-2.94,4.61-1.99,1.49-4.08,1.55-4.75,1.54-1.43,4.35-2.78,7.66-3.77,9.92-.82,1.87-2.03,4.46-2.94,8.25-.28,1.17-.45,2.14-.56,2.8"/>
        <circle class="cls-3" cx="62.37" cy="22.09" r="3.34"/>
        <line class="cls-1" x1="60.41" y1="20.15" x2="64.08" y2="24.02"/>
        <line class="cls-1" x1="63.79" y1="20.05" x2="60.85" y2="23.95"/>
      </g>
      <path class="cls-2" d="M56.31,35.71c-2.33-1.21-4.5-1.07-5.31-.98-2.22,5.15-5.58,11.05-10.76,16.63-.97,1.05-1.96,2.03-2.94,2.94-2.92-.27-7.24-.36-12.3.7-3.14.66-8.91,1.95-14.68,6.29-3.1,2.33-6.84,5.15-8.67,10.2-2.66,7.34-.27,16.65,6.15,21.95,5.02,4.14,10.69,4.32,11.88,4.33,6.71.08,11.35-3.52,13.42-5.17,3.3-2.63,4.49-4.91,10.48-17.05,8.32-16.86,9.92-20.37,11.74-24.6,2.04-4.76,3.65-8.77,4.75-11.6-.41-.72-1.53-2.47-3.77-3.63ZM37.16,77.79c-1.81,6.37-2.96,8.07-3.49,8.81-.85,1.16-2.8,3.78-6.43,5.45-4.37,2.01-8.36,1.37-9.78,1.12-1.71-.3-5.38-.95-8.39-4.05-2.56-2.65-3.25-5.65-3.63-7.41-.06-.28-.19-.86-.29-1.68-.54-3.05.05-6.28,1.12-8.97.24-.47.5-.92.79-1.37,1.16-1.78,2.72-3.34,4.36-4.57.41-.33.83-.65,1.27-.95,1.3-.91,2.72-1.69,4.26-2.28.35-.14.71-.29,1.07-.43,1.11-.44,2.31-.9,3.63-1.4,7.63-2.92,10.26-2.1,11.04-1.82,4.6,1.66,6.34,6.45,6.43,6.71.93,2.69-.03,6.08-1.96,12.86Z"/>
      <path class="cls-2" d="M63.43,38.72c1.1,2.83,2.71,6.84,4.75,11.6,1.82,4.23,3.42,7.74,11.74,24.6,5.99,12.14,7.19,14.42,10.48,17.05,2.07,1.66,6.71,5.25,13.42,5.17,1.19-.01,6.86-.19,11.88-4.33,6.42-5.29,8.81-14.6,6.15-21.95-1.83-5.05-5.57-7.87-8.67-10.2-5.76-4.34-11.53-5.63-14.68-6.29-5.06-1.06-9.38-.97-12.3-.7-.98-.91-1.96-1.89-2.94-2.94-5.18-5.58-8.55-11.48-10.76-16.63-.81-.09-2.98-.23-5.31.98-2.24,1.16-3.37,2.92-3.77,3.63ZM84.4,64.3c.09-.26,1.83-5.05,6.43-6.71.79-.28,3.41-1.11,11.04,1.82,1.31.5,2.52.96,3.63,1.4.37.15.73.29,1.07.43,1.54.59,2.96,1.37,4.26,2.28.43.3.86.62,1.27.95,1.64,1.23,3.2,2.8,4.36,4.57.29.44.56.9.79,1.37,1.08,2.69,1.66,5.93,1.12,8.97-.1.82-.23,1.41-.29,1.68-.38,1.76-1.08,4.76-3.63,7.41-3,3.11-6.68,3.75-8.39,4.05-1.42.25-5.41.9-9.78-1.12-3.63-1.67-5.58-4.29-6.43-5.45-.54-.74-1.69-2.43-3.49-8.81-1.93-6.78-2.89-10.17-1.96-12.86Z"/>
    </g>
  </g>
</svg>