<?xml version="1.0" encoding="UTF-8"?>
<svg id="Camada_2" data-name="Camada 2" xmlns="http://www.w3.org/2000/svg" viewBox="0 0 92.64 39.48">
  <defs>
    <style>
      .cls-1 {
        fill: #5e4848;
      }

      .cls-2 {
        fill: #9b6b6b;
      }

      .cls-3 {
        fill: #cc413e;
      }

      .cls-4 {
        fill: #dba1a1;
      }

      .cls-5 {
        fill: #1d1d1b;
      }

      .cls-6 {
        fill: #bc8484;
      }

      .cls-7 {
        fill: #ce8686;
      }
    </style>
  </defs>
  <g id="Camada_13" data-name="Camada 13">
    <g>
      <g>
        <g>
          <g>
            <ellipse class="cls-4" cx="46.32" cy="28.14" rx="46.03" ry="9.21"/>
            <path d="M46.32,37.64C20.35,37.64,0,33.47,0,28.14s20.35-9.5,46.32-9.5,46.32,4.17,46.32,9.5-20.35,9.5-46.32,9.5ZM46.32,19.23C21.53,19.23.59,23.31.59,28.14s20.94,8.91,45.73,8.91,45.73-4.08,45.73-8.91-20.94-8.91-45.73-8.91Z"/>
          </g>
          <g>
            <path class="cls-1" d="M46.32,37.35C21.04,37.35.52,33.27.3,28.23h0v1.84h0c.23,5.05,20.74,9.12,46.02,9.12s46.03-4.12,46.03-9.21v-1.84c0,5.08-20.61,9.21-46.03,9.21Z"/>
            <path d="M46.32,39.48C21.04,39.48.97,35.5.04,30.36H0v-.29s0-2.13,0-2.13h.57l.02.28c.21,4.79,21.15,8.84,45.73,8.84s45.73-4.08,45.73-8.91h.59v1.84c0,5.33-20.35,9.5-46.32,9.5ZM.59,29.98v.08c.22,4.79,21.16,8.84,45.73,8.84s45.73-4.08,45.73-8.91v-.29c-3.51,4.56-22.34,7.95-45.73,7.95S4.09,34.25.59,29.68v.29Z"/>
          </g>
        </g>
        <g>
          <path class="cls-7" d="M87.61,25.16l-7.84-21.75-67.08.07-7.66,21.67c-.17.28-.25.56-.25.85,0,4.23,18.6,7.66,41.55,7.66s41.55-3.43,41.55-7.66c0-.29-.09-.57-.25-.85Z"/>
          <path d="M46.32,33.96c-20.57,0-41.84-2.97-41.84-7.95,0-.32.09-.65.28-.97L12.48,3.19h.21s67.29-.07,67.29-.07l7.9,21.91c.19.32.28.65.28.97,0,4.98-21.27,7.95-41.84,7.95ZM12.89,3.78l-7.6,21.51-.02.03c-.14.24-.21.47-.21.7,0,3.56,16.58,7.36,41.26,7.36s41.26-3.81,41.26-7.36c0-.23-.07-.46-.21-.7l-.02-.05-7.77-21.55-66.67.07Z"/>
        </g>
        <g>
          <ellipse class="cls-6" cx="46.24" cy="3.56" rx="33.57" ry="3.26"/>
          <path d="M46.24,7.11c-8.97,0-17.41-.34-23.76-.96-10.1-.98-10.1-2.16-10.1-2.6s0-1.62,10.1-2.6c6.35-.62,14.79-.96,23.76-.96s17.41.34,23.76.96c10.1.98,10.1,2.16,10.1,2.6s0,1.62-10.1,2.6c-6.35.62-14.79.96-23.76.96ZM46.24.59c-8.96,0-17.38.34-23.71.95-9.46.92-9.57,2.01-9.57,2.02s.11,1.1,9.57,2.02c6.33.62,14.75.95,23.71.95s17.38-.34,23.71-.95c9.46-.92,9.57-2.01,9.57-2.02s-.11-1.1-9.57-2.02c-6.33-.62-14.75-.95-23.71-.95Z"/>
        </g>
        <g>
          <ellipse class="cls-2" cx="46.17" cy="3.5" rx="30.22" ry="1.88"/>
          <path d="M46.17,5.67c-8.08,0-15.68-.2-21.39-.55-9.13-.57-9.13-1.23-9.13-1.62s0-1.06,9.13-1.62c5.71-.36,13.31-.55,21.39-.55s15.68.2,21.39.55c9.13.57,9.13,1.23,9.13,1.62s0,1.06-9.13,1.62c-5.71.36-13.31.55-21.39.55ZM16.33,3.5c1.51.78,13.45,1.59,29.83,1.59s28.32-.81,29.83-1.59c-1.51-.78-13.45-1.59-29.83-1.59s-28.32.81-29.83,1.59Z"/>
        </g>
      </g>
      <g>
        <path class="cls-3" d="M35.4,20.26c.76-.92,2.14-2.35,4.27-3.47,1.06-.55,3-1.54,5.67-1.53,2.73,0,4.77,1.06,5.8,1.6.77.41,1.38.82,1.8,1.13,1.31-.71,2.62-1.42,3.93-2.13.02,3.11.04,6.22.07,9.34-1.22-.64-2.45-1.29-3.67-1.93-.67.7-2.06,1.97-4.2,2.6-2.42.72-4.43.23-5.67-.07-.59-.14-2.63-.68-4.8-2.27-1.56-1.14-2.58-2.39-3.2-3.27Z"/>
        <path class="cls-5" d="M46.49,26.53c-1.3,0-2.39-.26-3.16-.45-.97-.23-2.9-.85-4.91-2.32-1.26-.93-2.36-2.05-3.27-3.34-.08-.11-.07-.25.01-.35,1.22-1.47,2.68-2.66,4.36-3.54.97-.51,3-1.57,5.77-1.57h.03c2.86,0,5.02,1.15,5.94,1.63.58.31,1.15.66,1.69,1.05l3.77-2.05c.09-.05.2-.05.29,0,.09.05.14.15.14.25l.07,9.34c0,.1-.05.2-.14.25-.09.05-.2.06-.29,0l-3.47-1.83c-1.18,1.19-2.62,2.06-4.18,2.52-.95.28-1.85.38-2.66.38ZM35.77,20.27c.84,1.16,1.85,2.17,3,3.02,1.92,1.41,3.77,2,4.7,2.22,1.19.29,3.18.77,5.52.07,1.52-.45,2.93-1.32,4.07-2.52.09-.09.23-.12.35-.06l3.23,1.71-.06-8.36-3.51,1.9c-.1.05-.22.05-.31-.02-.56-.41-1.15-.79-1.76-1.11-.96-.51-2.95-1.56-5.67-1.57-2.66,0-4.6,1.01-5.53,1.5-1.54.81-2.9,1.89-4.03,3.22Z"/>
      </g>
    </g>
  </g>
</svg>