<?xml version="1.0" encoding="UTF-8"?>
<svg id="Camada_2" data-name="Camada 2" xmlns="http://www.w3.org/2000/svg" viewBox="0 0 92.64 57.24">
  <defs>
    <style>
      .cls-1 {
        fill: #5e4848;
      }

      .cls-2 {
        fill: #9b6b6b;
      }

      .cls-3 {
        fill: #cc413e;
      }

      .cls-4 {
        fill: #dba1a1;
      }

      .cls-5 {
        fill: #1d1d1b;
      }

      .cls-6 {
        fill: #bc8484;
      }

      .cls-7 {
        fill: #3f291d;
        stroke: #000;
        stroke-miterlimit: 10;
      }

      .cls-8 {
        fill: #ce8686;
      }
    </style>
  </defs>
  <g id="Camada_13" data-name="Camada 13">
    <g>
      <g>
        <g>
          <g>
            <ellipse class="cls-4" cx="46.32" cy="45.9" rx="46.03" ry="9.21"/>
            <path d="M46.32,55.4C20.35,55.4,0,51.22,0,45.9s20.35-9.5,46.32-9.5,46.32,4.17,46.32,9.5-20.35,9.5-46.32,9.5ZM46.32,36.99C21.53,36.99.59,41.07.59,45.9s20.94,8.91,45.73,8.91,45.73-4.08,45.73-8.91-20.94-8.91-45.73-8.91Z"/>
          </g>
          <g>
            <path class="cls-1" d="M46.32,55.1C21.04,55.1.52,51.03.3,45.98h0v1.84h0c.23,5.05,20.74,9.12,46.02,9.12s46.03-4.12,46.03-9.21v-1.84c0,5.08-20.61,9.21-46.03,9.21Z"/>
            <path d="M46.32,57.24C21.04,57.24.97,53.25.04,48.12H0v-.29s0-2.13,0-2.13h.57l.02.28c.21,4.79,21.15,8.84,45.73,8.84s45.73-4.08,45.73-8.91h.59v1.84c0,5.33-20.35,9.5-46.32,9.5ZM.59,47.73v.08c.22,4.79,21.16,8.84,45.73,8.84s45.73-4.08,45.73-8.91v-.29c-3.51,4.56-22.34,7.95-45.73,7.95S4.09,52,.59,47.44v.29Z"/>
          </g>
        </g>
        <g>
          <path class="cls-8" d="M87.61,42.92l-7.84-21.75-67.08.07-7.66,21.67c-.17.28-.25.56-.25.85,0,4.23,18.6,7.66,41.55,7.66s41.55-3.43,41.55-7.66c0-.29-.09-.57-.25-.85Z"/>
          <path d="M46.32,51.71c-20.57,0-41.84-2.97-41.84-7.95,0-.32.09-.65.28-.97l7.72-21.84h.21s67.29-.07,67.29-.07l7.9,21.91c.19.32.28.65.28.97,0,4.98-21.27,7.95-41.84,7.95ZM12.89,21.53l-7.6,21.51-.02.03c-.14.24-.21.47-.21.7,0,3.56,16.58,7.36,41.26,7.36s41.26-3.81,41.26-7.36c0-.23-.07-.46-.21-.7l-.02-.05-7.77-21.55-66.67.07Z"/>
        </g>
        <g>
          <ellipse class="cls-6" cx="46.24" cy="21.31" rx="33.57" ry="3.26"/>
          <path d="M46.24,24.87c-8.97,0-17.41-.34-23.76-.96-10.1-.98-10.1-2.16-10.1-2.6s0-1.62,10.1-2.6c6.35-.62,14.79-.96,23.76-.96s17.41.34,23.76.96c10.1.98,10.1,2.16,10.1,2.6s0,1.62-10.1,2.6c-6.35.62-14.79.96-23.76.96ZM46.24,18.34c-8.96,0-17.38.34-23.71.95-9.46.92-9.57,2.01-9.57,2.02s.11,1.1,9.57,2.02c6.33.62,14.75.95,23.71.95s17.38-.34,23.71-.95c9.46-.92,9.57-2.01,9.57-2.02s-.11-1.1-9.57-2.02c-6.33-.62-14.75-.95-23.71-.95Z"/>
        </g>
        <g>
          <ellipse class="cls-2" cx="46.17" cy="21.25" rx="30.22" ry="1.88"/>
          <path d="M46.17,23.43c-8.08,0-15.68-.2-21.39-.55-9.13-.57-9.13-1.23-9.13-1.62s0-1.06,9.13-1.62c5.71-.36,13.31-.55,21.39-.55s15.68.2,21.39.55c9.13.57,9.13,1.23,9.13,1.62s0,1.06-9.13,1.62c-5.71.36-13.31.55-21.39.55ZM16.33,21.25c1.51.78,13.45,1.59,29.83,1.59s28.32-.81,29.83-1.59c-1.51-.78-13.45-1.59-29.83-1.59s-28.32.81-29.83,1.59Z"/>
        </g>
      </g>
      <g>
        <path class="cls-3" d="M35.4,38.01c.76-.92,2.14-2.35,4.27-3.47,1.06-.55,3-1.54,5.67-1.53,2.73,0,4.77,1.06,5.8,1.6.77.41,1.38.82,1.8,1.13,1.31-.71,2.62-1.42,3.93-2.13.02,3.11.04,6.22.07,9.34l-3.67-1.93c-.67.7-2.06,1.97-4.2,2.6-2.42.72-4.43.23-5.67-.07-.59-.14-2.63-.68-4.8-2.27-1.56-1.14-2.58-2.39-3.2-3.27Z"/>
        <path class="cls-5" d="M46.49,44.28c-1.3,0-2.39-.26-3.16-.45-.97-.23-2.9-.85-4.91-2.32-1.26-.93-2.36-2.05-3.27-3.34-.08-.11-.07-.25.01-.35,1.22-1.47,2.68-2.66,4.36-3.54.97-.51,3-1.57,5.77-1.57h.03c2.86,0,5.02,1.15,5.94,1.63.58.31,1.15.66,1.69,1.05l3.77-2.05c.09-.05.2-.05.29,0,.09.05.14.15.14.25l.07,9.34c0,.1-.05.2-.14.25-.09.05-.2.06-.29,0l-3.47-1.83c-1.18,1.19-2.62,2.06-4.18,2.52-.95.28-1.85.38-2.66.38ZM35.77,36.63c.84.82,1.85,1.53,3,2.12,1.92.99,3.77,1.4,4.7,1.56,1.19.2,3.18.54,5.52.05,1.52-.32,2.93-.93,4.07-1.77.09-.07.23-.08.35-.04l3.23,1.2-.06-5.88-3.51,1.34c-.1.04-.22.03-.31-.02-.56-.29-1.15-.55-1.76-.78-.96-.36-2.95-1.1-5.67-1.1-2.66,0-4.6.71-5.53,1.06-1.54.57-2.9,1.33-4.03,2.27Z"/>
      </g>
    </g>
    <path class="cls-7" d="M78.72,16.34c0-2.94-2.48-5.32-5.54-5.32-.82,0-1.58.18-2.28.48.02-.12.04-.24.04-.37,0-1.75-1.48-3.16-3.3-3.16-.47,0-.92.1-1.33.27-.38-3.23-3.24-5.74-6.71-5.74-2.98,0-5.5,1.85-6.4,4.41-.6-.67-1.48-1.1-2.48-1.1-.05,0-.09.01-.14.01-.56-2.37-2.76-4.15-5.4-4.15-2.01,0-3.75,1.04-4.72,2.57-.7-2.17-2.78-3.75-5.27-3.75-3.06,0-5.54,2.38-5.54,5.32,0,.1.02.19.03.28-.44-.21-.93-.34-1.45-.34-1.31,0-2.43.74-2.96,1.8-.87-.39-1.84-.62-2.86-.62-3.73,0-6.75,2.9-6.75,6.48,0,1.64.64,3.13,1.69,4.28-.76,1.09-1.14,2.18-.97,3.3.02.11.06.2.08.3,1.88.77,13.66,1.54,29.72,1.54,14.44,0,25.42-.63,28.86-1.31-.01-.06-.02-.13-.03-.2,2.16-.73,3.72-2.68,3.72-5Z"/>
  </g>
</svg>