<?xml version="1.0" encoding="UTF-8"?>
<svg id="Camada_2" data-name="Camada 2" xmlns="http://www.w3.org/2000/svg" xmlns:xlink="http://www.w3.org/1999/xlink" viewBox="0 0 187.67 100.59">
  <defs>
    <style>
      .cls-1 {
        fill: #847363;
      }

      .cls-2 {
        stroke: #050403;
      }

      .cls-2, .cls-3 {
        fill: #c8bbae;
      }

      .cls-2, .cls-4, .cls-5 {
        stroke-linecap: round;
        stroke-linejoin: round;
        stroke-width: 1.88px;
      }

      .cls-6, .cls-5 {
        fill: #b3906d;
      }

      .cls-4 {
        fill: none;
      }

      .cls-4, .cls-5 {
        stroke: #000;
      }

      .cls-7 {
        clip-path: url(#clippath);
      }
    </style>
    <clipPath id="clippath">
      <path class="cls-5" d="M11.53,54.87c2.31,7.15,4.62,14.31,6.93,21.46,2.52,2.68,6.7,6.36,12.74,8.72,2.33.91,4.57,1.36,8.94,2.24,7.88,1.57,12.53,1.99,18.78,2.91,7.2,1.06,11.23,2,15.87,2.91,8.5,1.65,22.91,3.9,48.74,6.48,8.17.44,13.22-1.61,16.32-3.58,1.67-1.06,1.67-1.38,6.93-5.59,1.19-.95,5.4-4.3,10.28-7.83,8.89-6.42,9.92-6.14,12.97-9.39,3.43-3.66,5.14-7.23,6.26-9.61,3.81-8.12,4.24-15.84,4.02-20.79"/>
    </clipPath>
  </defs>
  <g id="Camada_5" data-name="Camada 5">
    <g>
      <path class="cls-6" d="M29.81,38.87c-.55-1.33-1.06-2.98-.45-4.58.53-1.39,1.69-2.11,5.09-4.02,3.66-2.06,5.5-3.08,6.26-3.41,11.29-4.94,27.89-3.86,27.89-3.86,3.81.64,7.69,1.26,11.62,1.85.98.15,1.97.29,2.96.44,3.27-.5,6.5-.73,9.67-.69,1.06.01,2.11.06,3.16.13,6.09.77,12.2,1.71,18.32,4.53,1.88.47,4.23-.47,5.94.35.98.09,1.96.17,2.94.25,7.82.65,15.45,1.14,22.89,1.5,3.49.83,8.07,1.97,13.41,3.47,4.79,1.34,5.88,1.75,6.26,2.68,1.5,3.66-9.11,11.92-16.6,16.43-21.85,13.16-44.41,10.62-89.54,5.53-2.54-.29-10.42-1.26-18.28-6.37,0,0-7.77-5.06-11.54-14.23Z"/>
      <g>
        <path class="cls-6" d="M11.53,54.87c2.31,7.15,4.62,14.31,6.93,21.46,2.52,2.68,6.7,6.36,12.74,8.72,2.33.91,4.57,1.36,8.94,2.24,7.88,1.57,12.53,1.99,18.78,2.91,7.2,1.06,11.23,2,15.87,2.91,8.5,1.65,22.91,3.9,48.74,6.48,8.17.44,13.22-1.61,16.32-3.58,1.67-1.06,1.67-1.38,6.93-5.59,1.19-.95,5.4-4.3,10.28-7.83,8.89-6.42,9.92-6.14,12.97-9.39,3.43-3.66,5.14-7.23,6.26-9.61,3.81-8.12,4.24-15.84,4.02-20.79"/>
        <g class="cls-7">
          <path class="cls-1" d="M149.31,78.3c5.35-2.65,10.5-5.67,15.41-9.07,2.23-1.54,4.57-3.1,6.48-5.05.88-.9,1.63-1.89,2.24-2.99s1.06-2.28,2.03-3.03c1.18-.91.01-2.96-1.19-2.03-1.93,1.49-2.51,3.8-4.04,5.62-1.84,2.2-4.37,3.83-6.71,5.45-4.91,3.4-10.06,6.42-15.41,9.07-1.36.67-.17,2.7,1.19,2.03h0Z"/>
          <path class="cls-1" d="M147.85,85.37c10.08-4.5,20.7-9.48,26.66-19.28.79-1.3-1.24-2.48-2.03-1.19-5.73,9.41-16.15,14.12-25.82,18.44-1.38.62-.18,2.64,1.19,2.03h0Z"/>
          <path class="cls-1" d="M140.69,75.95c-16.09-.86-32.19-1.67-48.28-2.58-15.67-.89-31.24-2.48-46.67-5.34-8.59-1.6-17.12-3.54-25.57-5.8-1.46-.39-2.09,1.88-.63,2.27,15.12,4.05,30.5,7.04,46.03,8.95s31.78,2.55,47.69,3.4c9.14.49,18.28.98,27.43,1.46,1.51.08,1.51-2.27,0-2.35h0Z"/>
          <path class="cls-1" d="M127.95,85.77c-14.34,2.26-28.96.94-43.19-1.5-7.04-1.21-14.03-2.68-21.02-4.16s-13.66-2.9-20.43-4.57c-7.69-1.9-15.31-4.08-22.75-6.83-1.42-.52-2.04,1.75-.63,2.27,13.4,4.95,27.37,8.04,41.32,11,14.19,3.01,28.44,6.11,42.95,7.04,8.14.52,16.31.29,24.37-.98,1.49-.24.86-2.5-.63-2.27h0Z"/>
          <path class="cls-1" d="M113.87,93.61c-8.03.63-16.06-.13-23.82-2.3-1.46-.41-2.08,1.86-.63,2.27,7.94,2.22,16.22,3.03,24.44,2.38,1.5-.12,1.51-2.47,0-2.35h0Z"/>
          <path class="cls-1" d="M68.58,86.68c-14.59-3.4-29.23-6.53-43.93-9.4-1.48-.29-2.11,1.98-.63,2.27,14.7,2.86,29.35,6,43.93,9.4,1.47.34,2.1-1.92.63-2.27h0Z"/>
        </g>
        <path class="cls-4" d="M11.53,54.87c2.31,7.15,4.62,14.31,6.93,21.46,2.52,2.68,6.7,6.36,12.74,8.72,2.33.91,4.57,1.36,8.94,2.24,7.88,1.57,12.53,1.99,18.78,2.91,7.2,1.06,11.23,2,15.87,2.91,8.5,1.65,22.91,3.9,48.74,6.48,8.17.44,13.22-1.61,16.32-3.58,1.67-1.06,1.67-1.38,6.93-5.59,1.19-.95,5.4-4.3,10.28-7.83,8.89-6.42,9.92-6.14,12.97-9.39,3.43-3.66,5.14-7.23,6.26-9.61,3.81-8.12,4.24-15.84,4.02-20.79"/>
      </g>
      <path class="cls-2" d="M186.08,21.55c-2.69-6.64-11.96-8.64-20.12-10.4-7.62-1.64-13.29-1.6-17.44-1.68-2.56-.05-13.11-1.26-34.21-3.69C78.27,1.64,74.94.48,63.34,1.09c-14.11.75-21.79,3.13-24.48,4.02-6.41,2.13-3.03,1.94-25.15,13.41-4.16,2.16-8.61,4.41-11.07,9.39-1.81,3.66-1.72,7.15-1.68,8.38.24,6.65,4.05,11.13,5.7,13.08,2.87,3.38,5.85,5.12,8.05,6.37,5.71,3.26,10.53,3.95,18.11,5.03,10.53,1.5,13.11.05,14.42-1.01.14-.11.27-.23.4-.35,1.98-1.81,2.82-4.53,2.47-7.19-.2-1.53-.64-3.33-1.53-5.21-2.16-4.57-5.7-6.87-7.04-7.71-3.92-2.47-6.4-2.13-13.75-4.02-4.38-1.13-7.93-2.39-10.4-3.35l15.19-.71c.15-.17.33-.33.54-.46,10.33-6.6,21.59-9.25,33.79-8.57,5.07.28,10.11.9,15.14,1.53,4.7.58,9.48.79,14.15,1.53,3.81.6,7.74,1.56,11.63,2.02s7.94.07,11.95-.12c5.38-.25,10.76-.5,16.15-.75,9.49-.44,18.98-.89,28.48-1.33.2,0,3.9-.15,3.9-.18-1.79,5.91-7.45,21.83-20.46,26.16-3.59,1.19-7.47,1.42-12.07,1.68-6.69.38-12.54-.02-17.23-.63-2.95-.38-5.83,1-7.42,3.51-2.95,4.67-5.96,10.67-3.86,13.22.92,1.11,2.46,1.13,6.71,1.34,16.11.79,1.58.9,15.43,1.01,6.52.05,12.24.04,17.03.02,1.66,0,3.28-.41,4.76-1.17,1.95-1,4.24-2.28,6.72-3.87,4.05-2.6,10.56-6.85,16.77-14.42,3.11-3.79,6.99-8.61,9.39-16.1,2.06-6.42,3.58-10.2,2.01-14.09Z"/>
      <path class="cls-5" d="M134.43,95.96c2.07-2.97,4.19-6.32,6.26-10.06,2.59-4.69,4.64-9.14,6.26-13.19"/>
      <path class="cls-3" d="M13.58,28.74c0,.46,1.27,1.02,3.82,2.11.52.22,1.24.53,2.12.91s1.93.83,3.11,1.34c.58.22,1.22.52,1.89.84,1.84,1.44,4.19,1.44,6.07.03,5.65-5.17,12.23-8.94,19.91-9.92.95-.16,1.89-.29,2.83-.39,2.17-.71,4.22-.95,6.18-.82.65.04,1.29.12,1.92.23,1.15-.18,2.27-.29,3.37-.33,1.1-.04,2.17-.02,3.21.07,3.16,1.11,6.98.84,10.36,1.06.84.05,1.66.14,2.44.28,1.07,0,2.13.05,3.17.16s2.06.28,3.06.5c.85.21,1.68.44,2.51.66,9.73.97,19.61,4.27,29.32,3.51,1.02.02,2.05.03,3.07.05,1.02.02,2.04.04,3.06.07,1.05-.03,2.1-.06,3.16-.09.95.03,1.9.11,2.84.23.92.14,1.85.27,2.78.39.93.12,1.87.24,2.81.35,4.4.58,9.06.51,13.57,1.13.9.12,1.8.27,2.68.46,4.77.04,8.06,5.21,11.82,4.74,5.17-.94,7.53-8.94,5.65-12.7-4.23-7.53-15.05-5.17-22.52-5.53-.84.1-1.67.23-2.5.39-.84.16-1.68.34-2.54.53-.74.17-1.48.35-2.25.53-4.06,1.72-8.3,1.25-12.76,2.22-.85.07-1.69.13-2.54.18-.95.05-1.9.09-2.84.11-.95.02-1.88,0-2.81-.04s-1.85-.11-2.77-.19c-7.62-.1-14.21-3.39-21.62-3.14-.66-.08-1.32-.16-1.98-.24-1.33-.15-2.66-.27-4.01-.35-.89-.05-1.77-.09-2.66-.12-.89-.03-1.78-.04-2.68-.05-.85-.09-1.7-.16-2.55-.2-1.7-.09-3.4-.07-5.1.09-.94-.09-1.88-.19-2.83-.28-2.84-.26-5.7-.42-8.58-.37-.68-.03-1.37-.07-2.05-.1-1.36-.06-2.71-.1-4.04-.11-.88-.02-1.75-.03-2.62,0-2.85.03-5.68.44-8.5,1.1-.94.22-1.87.47-2.81.74-6.63,1.98-13.22,3.86-19.33,6.55-.92.25-1.85.46-2.79.64-.69.13-1.41.27-2.17.39-1.47.25-6.87,1.13-6.88,2.35Z"/>
      <path class="cls-4" d="M29.07,34.08c1.66-1.65,4.17-3.84,7.6-5.81,5.25-3.02,9.91-3.97,13.64-4.7,6.8-1.32,12.21-1.2,14.76-1.12,11.13.36,19.11,1.65,31.08,3.35,18.45,2.63,27.67,3.95,32.42,4.02,5.68.09,10.56-.17,18.11,1.12,6.89,1.18,12.41,3.03,16.1,4.47"/>
      <path class="cls-4" d="M51.5,55.19c6.42,1.27,13.21,2.41,20.35,3.35,12.48,1.65,24.16,2.44,34.88,2.68"/>
    </g>
  </g>
</svg>