<?xml version="1.0" encoding="UTF-8"?>
<svg id="Camada_2" data-name="Camada 2" xmlns="http://www.w3.org/2000/svg" viewBox="0 0 80.97 54.82">
  <defs>
    <style>
      .cls-1 {
        fill: #fff;
        stroke: #1d1d1b;
        stroke-linecap: round;
        stroke-linejoin: round;
        stroke-width: .69px;
      }

      .cls-2 {
        fill: none;
        stroke-width: 1.05px;
      }

      .cls-2, .cls-3, .cls-4, .cls-5, .cls-6, .cls-7 {
        stroke: #000;
        stroke-miterlimit: 10;
      }

      .cls-3 {
        fill: #51519e;
      }

      .cls-3, .cls-4, .cls-5, .cls-6 {
        stroke-width: 1.12px;
      }

      .cls-4 {
        fill: #6659e2;
      }

      .cls-5 {
        fill: #3f3b96;
      }

      .cls-6 {
        fill: #524cc9;
      }

      .cls-7 {
        fill: #32327f;
        stroke-width: 1.04px;
      }
    </style>
  </defs>
  <g id="Camada_10" data-name="Camada 10">
    <g>
      <g>
        <path class="cls-3" d="M80,32.21c-.23,0-.41.18-.41.41v.16c-3.74-8.13-19.83-14.24-39.1-14.24S5.12,24.64,1.38,32.77v-.18c0-.23-.18-.41-.41-.41s-.41.18-.41.41v3.85s0,.01,0,.02c.08,9.84,17.92,17.8,39.92,17.8s39.81-7.95,39.92-17.77c0,0,0-.02,0-.03v-3.85c0-.23-.18-.41-.41-.41Z"/>
        <ellipse class="cls-5" cx="40.48" cy="33.28" rx="39.92" ry="16.92"/>
        <path class="cls-4" d="M10.79,8.46c-2.08,2.61-3.34,5-4.1,6.67-2.17,4.78-2.65,9.03-3.02,12.54-.28,2.68-.31,4.91-.28,6.41,1.44,1.46,3.68,3.43,6.79,5.18,2.45,1.38,4.48,2.08,6.41,2.73.94.32,4.15,1.38,9.52,2.26,1.38.23,5.88.93,12.26,1.13,4.3.13,8.43.26,13.76-.47,4.32-.59,8.79-1.18,14.05-3.58,2.91-1.33,7.13-3.69,11.41-7.92-.05-1.17-.14-2.86-.28-4.9-.28-4.05-.43-6.12-.85-8.2-.36-1.82-.83-4.06-2.07-6.69,0,0-1.32-2.79-3.44-5.31-3.3-3.93-27.48-4.94-60.14.15Z"/>
        <ellipse class="cls-6" cx="40.9" cy="9.73" rx="30.4" ry="9.17"/>
        <ellipse class="cls-7" cx="40.9" cy="9.5" rx="26.25" ry="6.87"/>
      </g>
      <path class="cls-1" d="M44.61,33.75h0l-3.64-8.33-4.4,8.02h0c-.51.7-.85,1.55-.92,2.48-.21,2.67,1.79,5.01,4.46,5.22s5.01-1.79,5.22-4.46c.08-1.07-.19-2.08-.71-2.93Z"/>
      <path class="cls-2" d="M19.35,13.6c4.72-1.86,12.71-3.08,21.77-3.08s16.58,1.15,21.34,2.92"/>
    </g>
  </g>
</svg>