<?xml version="1.0" encoding="UTF-8"?>
<svg id="Camada_2" data-name="Camada 2" xmlns="http://www.w3.org/2000/svg" viewBox="0 0 101.08 197.6">
  <defs>
    <style>
      .cls-1 {
        stroke-linecap: round;
        stroke-linejoin: round;
      }

      .cls-1, .cls-2, .cls-3 {
        stroke: #998a6b;
        stroke-width: 2.18px;
      }

      .cls-1, .cls-3 {
        fill: #ddd3ba;
      }

      .cls-2 {
        fill: none;
      }

      .cls-2, .cls-4, .cls-5, .cls-3 {
        stroke-miterlimit: 10;
      }

      .cls-4 {
        stroke-width: 2.23px;
      }

      .cls-4, .cls-5 {
        fill: #f6dcff;
        stroke: #b387c6;
      }

      .cls-5 {
        stroke-width: 2.45px;
      }
    </style>
  </defs>
  <g id="Camada_4" data-name="Camada 4">
    <g>
      <g>
        <g>
          <path class="cls-4" d="M89.62,5.66c-.31-.1-.62-.17-.93-.24l-7.91-3.44v.03c-.29-.13-.58-.26-.87-.36-11.71-4-29.48,17.03-39.71,46.98-7.91,23.16-8.97,44.85-3.64,55.35.09,1.25.15,3.26-.2,5.69-.51,3.59-1.63,6.16-2.07,7.19-5.57,12.95-10.96,26.66-18.13,39.08-4.71,8.15-23.59,26.51-10.22,34.53,1.07,2.06,3.18,3.84,6.71,5.18,4.25,1.61,9.44.84,12.93-1.93,4.51-3.57,5.73-9.47,7-14.86,2.66-11.32,6.82-22.3,12.02-32.81,4.77-9.64,8.98-19.87,14.94-28.93,2.03-3.09,3.86-5.56,5.09-7.2,10.03-7.45,20.68-23.22,27.87-42.8,10.99-29.94,9.69-57.45-2.88-61.45Z"/>
          <path class="cls-5" d="M79.92,3.65c-11.71-4-29.48,17.03-39.71,46.98-7.91,23.16-8.97,44.85-3.64,55.35.09,1.25.15,3.26-.2,5.69-.51,3.59-1.63,6.16-2.07,7.19-5.57,12.95-10.96,26.66-18.13,39.08-4.95,8.58-25.63,28.46-7.88,35.7,3.96,1.61,8.78.84,12.04-1.93,4.2-3.57,5.33-9.47,6.51-14.86,2.48-11.32,6.35-22.3,11.19-32.81,4.44-9.64,8.36-19.87,13.91-28.93,1.89-3.09,3.59-5.56,4.74-7.2,9.34-7.45,19.25-23.22,25.94-42.8,10.22-29.94,9.02-57.45-2.68-61.45Z"/>
        </g>
        <g>
          <path class="cls-3" d="M72.66,5.4l-11.17-3.81s0,0,0,0c0,0,0,0,0,0l-.57-.2v.04c-10.44-2.69-25.86,15.82-34.8,42-8.93,26.14-8.05,50.16,1.81,54.45l-.02.06.47.16s.09.05.14.07c.09.03.19.05.29.08l10.74,3.67s.09.05.14.07c10.43,3.56,26.26-15.17,35.37-41.84,9.11-26.67,8.04-51.18-2.39-54.74Z"/>
          <ellipse class="cls-3" cx="45.02" cy="49.89" rx="51.03" ry="19.95" transform="translate(-16.74 76.37) rotate(-71.15)"/>
          <line class="cls-2" x1="50.02" y1="99.18" x2="39.32" y2="95.56"/>
          <line class="cls-2" x1="56.44" y1="94.51" x2="45.78" y2="90.63"/>
          <line class="cls-2" x1="60.08" y1="89.35" x2="49.43" y2="85.47"/>
          <line class="cls-2" x1="63.32" y1="83.48" x2="52.66" y2="79.6"/>
          <line class="cls-2" x1="66.74" y1="76.9" x2="56.08" y2="73.03"/>
          <line class="cls-2" x1="70.24" y1="69.71" x2="59.58" y2="65.83"/>
          <line class="cls-2" x1="73.83" y1="62.52" x2="63.18" y2="58.64"/>
          <line class="cls-2" x1="75.57" y1="55.66" x2="64.91" y2="51.79"/>
          <line class="cls-2" x1="77.84" y1="48.81" x2="67.18" y2="44.94"/>
          <line class="cls-2" x1="79.69" y1="41.3" x2="69.03" y2="37.42"/>
          <line class="cls-2" x1="80.9" y1="33.46" x2="70.24" y2="29.58"/>
          <line class="cls-2" x1="80.9" y1="25.18" x2="70.24" y2="21.3"/>
          <line class="cls-2" x1="80.4" y1="17.67" x2="69.75" y2="13.8"/>
          <line class="cls-2" x1="78.33" y1="11.74" x2="67.67" y2="7.87"/>
        </g>
        <path class="cls-1" d="M45.1,26.77c-.73-1.35-.49-2.97.52-3.89,1.15-1.05,2.72-.68,2.85-.65-.22-.46-.71-1.67-.39-3.11.28-1.26,1.29-3.21,3.11-3.37,1.54-.13,2.67,1.09,2.85,1.3"/>
        <path class="cls-1" d="M46.85,52.39c-.73-1.35-.49-2.97.52-3.89,1.15-1.05,2.72-.68,2.85-.65-.22-.46-.71-1.67-.39-3.11.28-1.26,1.29-3.21,3.11-3.37,1.54-.13,2.67,1.09,2.85,1.3"/>
        <path class="cls-1" d="M28.34,63.42c-.73-1.35-.49-2.97.52-3.89,1.15-1.05,2.72-.68,2.85-.65-.22-.46-.71-1.67-.39-3.11.28-1.26,1.29-3.21,3.11-3.37,1.54-.13,2.67,1.09,2.85,1.3"/>
      </g>
      <path class="cls-1" d="M33.02,81.54c-.73-1.35-.49-2.97.52-3.89,1.15-1.05,2.72-.68,2.85-.65-.22-.46-.71-1.67-.39-3.11.28-1.26,1.29-3.21,3.11-3.37,1.54-.13,2.67,1.09,2.85,1.3"/>
    </g>
  </g>
</svg>