<?xml version="1.0" encoding="UTF-8"?>
<svg id="Camada_2" data-name="Camada 2" xmlns="http://www.w3.org/2000/svg" viewBox="0 0 236.79 64.14">
  <defs>
    <style>
      .cls-1 {
        fill: #af8397;
      }

      .cls-2 {
        fill: #b9aa8d;
      }

      .cls-3 {
        stroke-width: 1.39px;
      }

      .cls-3, .cls-4 {
        fill: none;
        stroke: #653c50;
        stroke-linecap: round;
        stroke-linejoin: round;
      }

      .cls-4 {
        stroke-width: 1.39px;
      }

      .cls-5 {
        fill: #c495a8;
      }
    </style>
  </defs>
  <g id="Camada_4" data-name="Camada 4">
    <g>
      <g>
        <polygon class="cls-5" points="197.79 .69 197.79 28.43 47.49 28.43 37.76 35.71 .69 35.71 .69 63.44 50.62 63.44 189.3 63.44 236.09 28.43 236.09 .69 197.79 .69"/>
        <polygon class="cls-1" points="236.09 .69 47.49 .69 .69 35.71 189.3 35.71 236.09 .69"/>
        <polyline class="cls-4" points="199.26 28.43 47.58 28.43 37.76 35.71"/>
        <path class="cls-3" d="M235.66,1.02s-41.63,31.15-46.36,34.69c0,0-188.61,0-188.61,0"/>
        <line class="cls-3" x1="47.49" y1=".69" x2="47.49" y2="28.43"/>
        <polygon class="cls-3" points="212.44 1.02 47.64 .69 .94 35.52 .69 63.44 189.3 63.44 236.09 28.43 236.09 .69 212.44 1.02"/>
      </g>
      <path class="cls-2" d="M23.05,34.92c.7-4.06,5-6.41,5.93-6.92,4.71-2.58,6.33-.34,9.39-2.47,3.9-2.71,2.19-6.96,5.68-9.64,2.88-2.21,5.98-.81,13.1-.25,9.96.78,10-1.49,19.28-.99,10.73.58,10.42,3.6,20.02,3.95,8.21.3,8.46-1.92,20.27-2.72,9.56-.65,9.8.78,19.77.25,13.92-.74,13.71-3.52,21.5-2.72,10.72,1.11,12.82,6.56,23.73,7.91,5.57.69,7.81-1.8,17.3-1.98,4.38-.08,8,.21,10.45.49-6.78,5.09-13.55,10.17-20.33,15.26-55.39.12-110.78.25-166.16.37.01-.13.03-.32.07-.55Z"/>
    </g>
  </g>
</svg>