<?xml version="1.0" encoding="UTF-8"?>
<svg id="Camada_2" data-name="Camada 2" xmlns="http://www.w3.org/2000/svg" viewBox="0 0 110.19 197.76">
  <defs>
    <style>
      .cls-1 {
        fill: none;
      }

      .cls-1, .cls-2, .cls-3 {
        stroke-miterlimit: 10;
      }

      .cls-1, .cls-3 {
        stroke: #998a6b;
        stroke-width: 2.18px;
      }

      .cls-2 {
        fill: #f6dcff;
        stroke: #b387c6;
        stroke-width: 2.45px;
      }

      .cls-3 {
        fill: #ddd3ba;
      }
    </style>
  </defs>
  <g id="Camada_4" data-name="Camada 4">
    <g>
      <g>
        <path class="cls-3" d="M100.52,14.06l-11.17-3.81s0,0,0,0c0,0,0,0,0,0l-.57-.2v.04c-10.44-2.69-25.86,15.82-34.8,42-8.93,26.14-8.05,50.16,1.81,54.45l-.02.06.47.16s.09.05.14.07c.09.03.19.05.29.08l10.74,3.67s.09.05.14.07c10.43,3.56,26.26-15.17,35.37-41.84,9.11-26.67,8.04-51.18-2.39-54.74Z"/>
        <ellipse class="cls-3" cx="72.88" cy="58.55" rx="51.03" ry="19.95" transform="translate(-6.09 108.6) rotate(-71.15)"/>
        <line class="cls-1" x1="77.88" y1="107.85" x2="67.18" y2="104.22"/>
        <line class="cls-1" x1="84.3" y1="103.17" x2="73.64" y2="99.3"/>
        <line class="cls-1" x1="87.94" y1="98.01" x2="77.28" y2="94.13"/>
        <line class="cls-1" x1="91.18" y1="92.14" x2="80.52" y2="88.27"/>
        <line class="cls-1" x1="94.6" y1="85.57" x2="83.94" y2="81.69"/>
        <line class="cls-1" x1="98.1" y1="78.37" x2="87.44" y2="74.5"/>
        <line class="cls-1" x1="101.69" y1="71.18" x2="91.03" y2="67.3"/>
        <line class="cls-1" x1="103.43" y1="64.33" x2="92.77" y2="60.45"/>
        <line class="cls-1" x1="105.7" y1="57.48" x2="95.04" y2="53.6"/>
        <line class="cls-1" x1="107.55" y1="49.97" x2="96.89" y2="46.09"/>
        <line class="cls-1" x1="108.76" y1="42.12" x2="98.1" y2="38.25"/>
        <line class="cls-1" x1="108.76" y1="33.84" x2="98.1" y2="29.97"/>
        <line class="cls-1" x1="108.26" y1="26.34" x2="97.6" y2="22.46"/>
        <line class="cls-1" x1="106.19" y1="20.41" x2="95.53" y2="16.53"/>
      </g>
      <g>
        <path class="cls-2" d="M89.62,5.72c-.31-.1-.62-.17-.93-.24l-7.91-3.44v.03c-.29-.13-.58-.26-.87-.36-11.71-4-29.48,17.03-39.71,46.98-7.91,23.16-8.97,44.85-3.64,55.35.09,1.25.15,3.26-.2,5.69-.51,3.59-1.63,6.16-2.07,7.19-5.57,12.95-10.96,26.66-18.13,39.08-4.71,8.15-23.59,26.51-10.22,34.53,1.07,2.06,3.18,3.84,6.71,5.18,4.25,1.61,9.44.84,12.93-1.93,4.51-3.57,5.73-9.47,7-14.86,2.66-11.32,6.82-22.3,12.02-32.81,4.77-9.64,8.98-19.87,14.94-28.93,2.03-3.09,3.86-5.56,5.09-7.2,10.03-7.45,20.68-23.22,27.87-42.8,10.99-29.94,9.69-57.45-2.88-61.45Z"/>
        <path class="cls-2" d="M79.92,3.71c-11.71-4-29.48,17.03-39.71,46.98-7.91,23.16-8.97,44.85-3.64,55.35.09,1.25.15,3.26-.2,5.69-.51,3.59-1.63,6.16-2.07,7.19-5.57,12.95-10.96,26.66-18.13,39.08-4.95,8.58-25.63,28.46-7.88,35.7,3.96,1.61,8.78.84,12.04-1.93,4.2-3.57,5.33-9.47,6.51-14.86,2.48-11.32,6.35-22.3,11.19-32.81,4.44-9.64,8.36-19.87,13.91-28.93,1.89-3.09,3.59-5.56,4.74-7.2,9.34-7.45,19.25-23.22,25.94-42.8,10.22-29.94,9.02-57.45-2.68-61.45Z"/>
      </g>
    </g>
  </g>
</svg>