<?xml version="1.0" encoding="UTF-8"?>
<svg id="Camada_2" data-name="Camada 2" xmlns="http://www.w3.org/2000/svg" xmlns:xlink="http://www.w3.org/1999/xlink" viewBox="0 0 189.16 316.1">
  <defs>
    <style>
      .cls-1, .cls-2, .cls-3, .cls-4, .cls-5, .cls-6, .cls-7 {
        stroke-width: 1.12px;
      }

      .cls-1, .cls-3, .cls-5, .cls-7 {
        stroke: #1d1d1b;
      }

      .cls-1, .cls-4, .cls-5, .cls-8, .cls-9 {
        fill: none;
      }

      .cls-1, .cls-4, .cls-7, .cls-8, .cls-9 {
        stroke-miterlimit: 10;
      }

      .cls-10 {
        clip-path: url(#clippath-4);
      }

      .cls-2 {
        fill: #967b64;
      }

      .cls-2, .cls-11, .cls-3, .cls-5, .cls-6 {
        stroke-linejoin: round;
      }

      .cls-2, .cls-11, .cls-3, .cls-5, .cls-6, .cls-8, .cls-9 {
        stroke-linecap: round;
      }

      .cls-2, .cls-11, .cls-6 {
        stroke: #000;
      }

      .cls-11 {
        stroke-width: 1.1px;
      }

      .cls-11, .cls-6 {
        fill: #bd937e;
      }

      .cls-12 {
        clip-path: url(#clippath-1);
      }

      .cls-3, .cls-13, .cls-7 {
        fill: #9a9181;
      }

      .cls-14 {
        clip-path: url(#clippath-5);
      }

      .cls-15 {
        clip-path: url(#clippath-3);
      }

      .cls-4, .cls-8, .cls-9 {
        stroke: #b38248;
      }

      .cls-16 {
        fill: #1d1d1b;
      }

      .cls-17 {
        fill: #877e68;
      }

      .cls-18 {
        fill: #3a362d;
      }

      .cls-19 {
        clip-path: url(#clippath-2);
      }

      .cls-20 {
        clip-path: url(#clippath);
      }

      .cls-8 {
        stroke-width: .92px;
      }

      .cls-9 {
        stroke-width: 1.15px;
      }
    </style>
    <clipPath id="clippath">
      <path class="cls-7" d="M40.13,299.38c-2.58,2.77-7.83,3.11-11.25,3.48-5.26.56-10.66-.94-15.15-3.96v-86.39h26.63s0,69.72,0,84.4c0,.93.31,1.91-.22,2.48Z"/>
    </clipPath>
    <clipPath id="clippath-1">
      <path class="cls-7" d="M98.52,299.38c-2.58,2.77-7.83,3.11-11.25,3.48-5.26.56-10.66-.94-15.15-3.96v-86.39h26.63s0,69.72,0,84.4c0,.93.31,1.91-.22,2.48Z"/>
    </clipPath>
    <clipPath id="clippath-2">
      <path class="cls-7" d="M173.12,301.29c-2.43,1.35-6.56,2.54-11.62,2.54-5.41,0-12.38-1.38-14.79-3.07v-93.81h26.63s0,75.71,0,91.65c0,1.01.69,2.18-.22,2.69Z"/>
    </clipPath>
    <clipPath id="clippath-3">
      <path class="cls-7" d="M173.34,178.71c.55-.5,0-1.42,0-2.22v-81.15h-26.63v142.97c2.41,1.65,9.38,2.99,14.79,2.99,5.06,0,9.19-1.16,11.62-2.48.91-.49.22-1.64.22-2.62v-57.49Z"/>
    </clipPath>
    <clipPath id="clippath-4">
      <path class="cls-7" d="M98.74,100.54c.55-.45,0-1.26,0-1.98V26.94c-7.55-3.13-17.64-4.25-24.93-.83-.57.25-1.14.53-1.7.83v126.64c2.41,1.47,9.38,2.66,14.79,2.66,5.06,0,9.19-1.03,11.62-2.21.91-.44.22-1.46.22-2.33v-51.16Z"/>
    </clipPath>
    <clipPath id="clippath-5">
      <path class="cls-3" d="M125.01,95.48c-.35.08-2.39.58-3.06,2.53-.46,1.34-.1,2.88.93,3.99-1.75.54-3.1,1.91-3.46,3.6-.47,2.19.77,4.57,3.06,5.59-1.58.57-2.72,1.96-2.93,3.6-.31,2.37,1.48,3.9,1.6,3.99-1.61.62-2.71,2.14-2.8,3.86-.09,1.73.85,3.35,2.4,4.13-1.97.2-3.42,1.76-3.46,3.46-.03,1.29.76,2.53,2,3.2-.25.27-1.96,2.19-1.6,4.93.28,2.11,1.62,3.39,2,3.73-.15.09-2.82,1.66-2.93,4.79-.07,2.12,1.06,4.13,2.93,5.19-.21.1-1.79.92-2.13,2.66-.32,1.63.58,3.4,2.26,4.26-.14.13-1.77,1.8-1.33,4.13.33,1.74,1.69,3.15,3.46,3.6-.13.1-2.97,2.3-2.53,5.46.19,1.37.91,2.33,1.33,2.8-.35.25-1.48,1.1-1.73,2.53-.32,1.82.89,3.86,3.06,4.79-.31.37-1.22,1.54-1.2,3.2.03,1.9,1.28,3.66,3.2,4.53.8,1.6,1.6,3.2,2.4,4.79-.98,2.71-1.95,5.41-2.93,8.12,1.78.53,3.55,1.07,5.33,1.6.36-3.06.71-6.12,1.07-9.19l5.06,4.26c1.38-1.2,2.75-2.4,4.13-3.6-2.26-2.22-4.53-4.44-6.79-6.66,1.72-.88,2.81-2.59,2.8-4.39-.02-2.27-1.79-4.34-4.26-4.79,1.96-1.02,2.98-3.18,2.53-5.19-.38-1.67-1.72-3.01-3.46-3.46,1.63-.58,2.79-1.99,2.93-3.6.18-2.01-1.26-4-3.46-4.53.2-.1,2.4-1.28,2.66-3.6.25-2.19-1.32-4.47-3.86-5.19,1.57-.9,2.37-2.66,2-4.26-.43-1.86-2.23-2.6-2.4-2.66,1.64-.55,2.76-2.06,2.8-3.73.04-1.86-1.29-3.55-3.2-3.99.3-.05,2.22-.41,3.06-2,.95-1.78.19-4.47-2.13-5.99,2.23-.31,3.42-2.19,3.06-3.46-.25-.89-1.29-1.59-2.53-1.73,1.81-1.08,2.25-3.15,1.46-4.26-.52-.74-1.58-1.07-2.66-.93,2.13-.3,3.23-2,2.93-3.06-.22-.79-1.28-1.4-2.53-1.46,2.19-.12,3.55-2.08,3.2-3.6-.28-1.22-1.67-2.22-3.33-2.13.31-.23,2.16-1.64,2.4-4.13.2-2.12-.83-4.21-2.66-5.46,1.87-.87,2.94-2.59,2.66-3.99-.39-1.97-3.32-2.75-5.33-2.26Z"/>
    </clipPath>
  </defs>
  <g id="Camada_4" data-name="Camada 4">
    <g>
      <g>
        <path class="cls-6" d="M42.52,1.22s-4.39,9.59-1.2,23.17c4.39,2.2,28.36,9.39,84.88,1.4,3.6-3.4,6.39-5.59,3.6-21.97-2.8-.4-30.36-.6-30.36-.6l-43.14-.2s-9.99-3.99-13.78-1.8Z"/>
        <path class="cls-8" d="M42.79,23.55c8.24-.87,17.72-1.58,28.24-1.87,21.66-.59,40.11.81,53.85,2.44"/>
        <path class="cls-8" d="M56.17,4.22c-.1,1.13-.45,6.6,3.46,10.92,1.77,1.95,3.76,2.95,5.06,3.46h46.34c1.3-.66,2.98-1.73,4.53-3.46,3.91-4.37,4.05-9.68,4.03-11.3"/>
      </g>
      <g>
        <polyline class="cls-6" points=".56 309.94 .56 315.54 181.11 315.54 181.11 309.94"/>
        <polyline class="cls-6" points="181.11 309.94 174.92 290.64 12.94 290.64 .56 309.94"/>
        <line class="cls-4" x1=".56" y1="309.94" x2="181.11" y2="309.94"/>
      </g>
      <g>
        <path class="cls-13" d="M40.13,299.38c-2.58,2.77-7.83,3.11-11.25,3.48-5.26.56-10.66-.94-15.15-3.96v-86.39h26.63s0,69.72,0,84.4c0,.93.31,1.91-.22,2.48Z"/>
        <g class="cls-20">
          <path class="cls-17" d="M-.14,242.46c12.06,3.68,24.51,5.94,37.09,6.83,11.92.84,24.54,1.11,35.54-4.11,5.47-2.59,6.89-10.43,4.02-15.33-3.27-5.6-9.84-6.62-15.33-4.02-3.05,1.45-6.86,1.3-10.14,1.38-5.33.13-10.66-.03-15.97-.48-9.95-.83-19.72-2.97-29.26-5.89-13.83-4.22-19.74,17.4-5.96,21.61H-.14Z"/>
          <path class="cls-17" d="M-.92,279.36c10.03,1.87,20.08,4.13,30.21,5.35s19.3-.9,28.72-3.32c13.96-3.59,8.04-25.21-5.96-21.61-7.38,1.9-14.53,3.7-22.2,2.57-8.3-1.22-16.56-3.07-24.81-4.61-5.94-1.11-12.09,1.64-13.79,7.83-1.5,5.46,1.85,12.67,7.83,13.79h0Z"/>
          <path class="cls-17" d="M-.88,315.47c24.06,3.91,48.27,4.62,72.45,1.41,6-.8,11.21-4.58,11.21-11.21,0-5.44-5.16-12.01-11.21-11.21-22.04,2.93-44.52,2.96-66.5-.61-5.97-.97-12.06,1.55-13.79,7.83-1.47,5.35,1.82,12.81,7.83,13.79h0Z"/>
        </g>
        <path class="cls-1" d="M40.13,299.38c-2.58,2.77-7.83,3.11-11.25,3.48-5.26.56-10.66-.94-15.15-3.96v-86.39h26.63s0,69.72,0,84.4c0,.93.31,1.91-.22,2.48Z"/>
      </g>
      <g>
        <path class="cls-13" d="M98.52,299.38c-2.58,2.77-7.83,3.11-11.25,3.48-5.26.56-10.66-.94-15.15-3.96v-86.39h26.63s0,69.72,0,84.4c0,.93.31,1.91-.22,2.48Z"/>
        <g class="cls-12">
          <path class="cls-16" d="M61.53,233.73c3.61,0,3.61-5.6,0-5.6s-3.61,5.6,0,5.6h0Z"/>
          <path class="cls-17" d="M57.73,240.89c22.1,6.72,45.32,6.17,68.14,5.24,14.37-.58,14.45-23,0-22.41-20.87.85-41.97,1.7-62.18-4.44-13.83-4.2-19.74,17.42-5.96,21.61h0Z"/>
          <path class="cls-17" d="M112.1,257.92c-9.77,1.35-19.65,2.04-29.5,2.27-9.08.21-18.73.88-27.36-2.38-5.66-2.14-12.29,2.37-13.79,7.83-1.73,6.29,2.14,11.64,7.83,13.79,10.41,3.93,22.36,3.43,33.32,3.18,11.89-.28,23.68-1.44,35.46-3.07,6-.83,9.28-8.5,7.83-13.79-1.78-6.46-7.77-8.66-13.79-7.83h0Z"/>
          <path class="cls-17" d="M63.15,316.09c24.55,1.73,49,.45,73.32-3.25,5.99-.91,9.3-8.44,7.83-13.79-1.76-6.4-7.78-8.74-13.79-7.83-22.26,3.39-44.91,4.03-67.36,2.45-6.04-.43-11.21,5.46-11.21,11.21,0,6.42,5.14,10.78,11.21,11.21h0Z"/>
        </g>
        <path class="cls-1" d="M98.52,299.38c-2.58,2.77-7.83,3.11-11.25,3.48-5.26.56-10.66-.94-15.15-3.96v-86.39h26.63s0,69.72,0,84.4c0,.93.31,1.91-.22,2.48Z"/>
      </g>
      <g>
        <path class="cls-13" d="M173.12,301.29c-2.43,1.35-6.56,2.54-11.62,2.54-5.41,0-12.38-1.38-14.79-3.07v-93.81h26.63s0,75.71,0,91.65c0,1.01.69,2.18-.22,2.69Z"/>
        <g class="cls-19">
          <path class="cls-17" d="M135.03,264.08c3.61,0,3.61-5.6,0-5.6s-3.61,5.6,0,5.6h0Z"/>
          <path class="cls-17" d="M133.74,273.02c23.81,8.65,49.57,11.92,74.78,9.44,6.02-.59,11.21-4.73,11.21-11.21,0-5.6-5.15-11.8-11.21-11.21-23.51,2.31-46.62-.58-68.82-8.64-5.69-2.07-12.27,2.32-13.79,7.83-1.71,6.23,2.12,11.71,7.83,13.79h0Z"/>
          <path class="cls-17" d="M178.46,296.32c-21.22,5-42.86,6.53-64.6,4.88-6.04-.46-11.21,5.48-11.21,11.21,0,6.44,5.15,10.75,11.21,11.21,23.66,1.79,47.47-.24,70.56-5.68,14.03-3.31,8.09-24.93-5.96-21.61h0Z"/>
        </g>
        <path class="cls-1" d="M173.12,301.29c-2.43,1.35-6.56,2.54-11.62,2.54-5.41,0-12.38-1.38-14.79-3.07v-93.81h26.63s0,75.71,0,91.65c0,1.01.69,2.18-.22,2.69Z"/>
      </g>
      <path class="cls-6" d="M73.41,237.44l60.45-6.92s22.37,7.19,51.66,6.92c1.07.8,5.06,2.93,1.86,8.52-6.92.8-66.04,6.12-66.04,6.12l-47.93-9.59s-2.93-2.13,0-5.06Z"/>
      <g>
        <path class="cls-13" d="M173.34,178.71c.55-.5,0-1.42,0-2.22v-81.15h-26.63v142.97c2.41,1.65,9.38,2.99,14.79,2.99,5.06,0,9.19-1.16,11.62-2.48.91-.49.22-1.64.22-2.62v-57.49Z"/>
        <g class="cls-15">
          <path class="cls-16" d="M146.21,118.68c3.61,0,3.61-5.6,0-5.6s-3.61,5.6,0,5.6h0Z"/>
          <path class="cls-17" d="M131.81,130.17c23.66,1.97,47.39,2.48,71.12,1.52,14.37-.58,14.45-23,0-22.41-23.72.96-47.46.45-71.12-1.52-6.04-.5-11.21,5.51-11.21,11.21,0,6.48,5.15,10.7,11.21,11.21h0Z"/>
          <path class="cls-17" d="M173.72,146.26c2.27-.9,2.46-1.06.58-.48-1.03.22-2.07.41-3.12.58-1.47.25-2.95.47-4.44.66-4.64.58-9.33.87-14.01.98-8.67.2-17.37-.31-25.92-1.73-5.96-.99-12.06,1.56-13.79,7.83-1.47,5.36,1.82,12.79,7.83,13.79,11.79,1.95,23.67,2.97,35.63,2.39,5.99-.29,11.95-.98,17.88-1.86s11.06-1.96,15.21-6.3c9.97-10.43-5.86-26.3-15.85-15.85h0Z"/>
          <path class="cls-17" d="M130.29,211.83c21.83,7.59,45.28,10.48,68.29,8.32,6.03-.57,11.21-4.75,11.21-11.21,0-5.62-5.14-11.78-11.21-11.21-21.28,2-42.14-.49-62.33-7.52-5.72-1.99-12.26,2.27-13.79,7.83-1.7,6.17,2.09,11.79,7.83,13.79h0Z"/>
          <path class="cls-16" d="M175.53,250.54c-7.52,5.13-17.73,4.06-26.44,5.18-10.92,1.41-22.29,4.2-33.1.9-13.82-4.23-19.73,17.4-5.96,21.61s27.12,1.41,40.88-.33c12.26-1.55,25.25-.73,35.92-8.01,4.99-3.41,7.23-9.85,4.02-15.33-2.9-4.95-10.31-7.45-15.33-4.02h0Z"/>
          <path class="cls-16" d="M137.75,278.2c7.06,3.71,14.55,3.05,22.18,4.2,4.43.67,8.46.75,12.91.09,3.86-.58,7.39-1.51,11.32-1.19,6.04.5,11.21-5.51,11.21-11.21,0-6.48-5.15-10.71-11.21-11.21-6.63-.55-13.03,2.45-19.58,1.71-2.79-.31-5.53-1-8.34-1.22-2.11-.17-5.3.47-7.18-.52-12.76-6.71-24.1,12.63-11.31,19.35h0Z"/>
          <path class="cls-17" d="M141.97,253.56c14.71,3.57,29.87,5.02,44.97,4.02,6.04-.4,11.21-4.86,11.21-11.21,0-5.75-5.14-11.61-11.21-11.21-13.2.88-26.16-.09-39.01-3.22-14.01-3.4-19.99,18.2-5.96,21.61h0Z"/>
        </g>
        <path class="cls-1" d="M173.34,178.71c.55-.5,0-1.42,0-2.22v-81.15h-26.63v142.97c2.41,1.65,9.38,2.99,14.79,2.99,5.06,0,9.19-1.16,11.62-2.48.91-.49.22-1.64.22-2.62v-57.49Z"/>
      </g>
      <path class="cls-6" d="M9.33,151.61l-7.79,9.59v56.32l7.79,3.99.66-.06c.44,1.13,1.08.53,1.91-.16.83-1.02,1.84.56,3.02-.26,1.18-2.34,2.52.56,4.01-.34,1.49-1,3.11-1.45,4.87-.42,1.75,1.14,3.62-1.03,5.6-.48.85.87,1.71,1.39,2.59-.22.88-1.62,1.78,2.03,2.69-.23.91-.34,1.84.06,2.78.29s1.9.27,2.86-.77c1.93.55,3.91-.66,5.93-.51,2.01-1.39,4.06-1.33,6.13-.53,1.03-.29,2.07-.76,3.11-.98s2.09-.21,3.13.45c1.05-.88,2.1.47,3.14-.57,1.05.13,2.1-.71,3.14.03,2.09-.15,4.18.94,6.25-.54,2.07,1.24,4.11.4,6.13-.53,2.01-.69,3.99-.52,5.93-.51.97-.35,1.92-.44,2.86-.45.94-.38,1.87.83,2.78-.04,1.04-.04,2.07.08,3.07.09,1-.17,1.98-.04,2.93-.61.95-.17,1.88.59,2.79-.3.9-.45,1.78-.24,2.62-.16.85.05,1.66.55,2.44.19.78-.35,1.53,0,2.25-.59.72-.03,1.4-1.14,2.04-.11.64.38,1.25-.12,1.82-.22.57.05,1.09.71,1.58.19.49-.48.93-.67,1.33-.44.8-.57,1.41-.04,1.83-.16l.64-.05v-56.52s-.2-2.4-3-3.4-100.86-1-100.86-1"/>
      <path class="cls-2" d="M89.64,205.61c6.32-2.03,12.91-7.72,13.07-14.2.02-.8-.13-1.62-.46-3.24-2.42-11.95-4.86-17.93-7.31-17.94-1.51,0-3.03,2.26-4.56,6.8l.63.59c-2.43-.83-5.12-1.29-7.95-1.29-2.99,0-5.83.51-8.37,1.43l1.11-1.06c-1.53-4.54-3.05-6.81-4.56-6.8-2.47,0-4.92,6.04-7.35,18.1h0c-.26.76-.56,1.96-.51,3.39.24,7.25,9.06,13.92,17.64,14.99,1.72.21,4.94.39,8.62-.79Z"/>
      <line class="cls-4" x1="48.52" y1="217.36" x2="48.52" y2="159.12"/>
      <g>
        <path class="cls-13" d="M98.74,100.54c.55-.45,0-1.26,0-1.98V26.94c-7.55-3.13-17.64-4.25-24.93-.83-.57.25-1.14.53-1.7.83v126.64c2.41,1.47,9.38,2.66,14.79,2.66,5.06,0,9.19-1.03,11.62-2.21.91-.44.22-1.46.22-2.33v-51.16Z"/>
        <g class="cls-10">
          <path class="cls-16" d="M54.34,112.69c3.61,0,3.61-5.6,0-5.6s-3.61,5.6,0,5.6h0Z"/>
          <path class="cls-17" d="M58.95,51.97c18.73,5.21,38.31,7.15,57.68,5.47,6.03-.52,11.21-4.78,11.21-11.21,0-5.66-5.14-11.73-11.21-11.21-17.53,1.52-34.77.04-51.73-4.67-13.92-3.87-19.86,17.75-5.96,21.61h0Z"/>
          <path class="cls-17" d="M111.46,65.26c-28.63-.67-57.27-.34-85.88.98-6.05.28-11.21,4.95-11.21,11.21,0,5.85,5.13,11.49,11.21,11.21,28.61-1.32,57.25-1.65,85.88-.98,14.43.34,14.42-22.08,0-22.41h0Z"/>
          <path class="cls-17" d="M51.97,113.8c21.27,8.86,44.82,8.82,67.48,8.41,14.41-.27,14.45-22.68,0-22.41-20.89.38-41.9.57-61.52-7.61-5.59-2.33-12.33,2.51-13.79,7.83-1.77,6.45,2.22,11.45,7.83,13.79h0Z"/>
          <path class="cls-17" d="M103.05,130.28c-21.11,7.47-43.5,8.83-65.26,3.4-14-3.5-19.97,18.11-5.96,21.61,25.44,6.36,52.42,5.37,77.18-3.4,5.7-2.02,9.51-7.65,7.83-13.79-1.52-5.52-8.05-9.86-13.79-7.83h0Z"/>
        </g>
        <path class="cls-1" d="M98.74,100.54c.55-.45,0-1.26,0-1.98V26.94c-7.55-3.13-17.64-4.25-24.93-.83-.57.25-1.14.53-1.7.83v126.64c2.41,1.47,9.38,2.66,14.79,2.66,5.06,0,9.19-1.03,11.62-2.21.91-.44.22-1.46.22-2.33v-51.16Z"/>
      </g>
      <path class="cls-9" d="M3.09,161.18l.47-.03,1.37-.08c.3-.42.64,1.14,1,.22.36-.19.76-.81,1.19-.36.43.35.89.35,1.38.04.48-.87,1.01.12,1.55-.22.55.4,1.12.52,1.72.31.6-.29,1.22-1.29,1.88-.53.65.18,1.33.88,2.03.26.7-.73,1.42.11,2.17-.52.74-.13,1.51.44,2.3-.37.39.15.79.3,1.2.35.4-.51.82,1.1,1.22-.27.41-.78.82-1.6,1.25-1.2.42-.25.85.05,1.28.87.43.07.86-.29,1.3-.46.44.41.88,0,1.33.46.45,1.26.9.5,1.35-.08.46.49.91-1.22,1.37-.09.46-.26.92-.72,1.39-.09.47.38.94.37,1.41-.09.85.06,1.71-.72,2.57-.87.87-.55,1.74-.97,2.63.54.88-.7,1.77-.77,2.68-.32.45.58.9.34,1.35.08s.9-.61,1.36-.1c.46.8.91-.57,1.37.5.46-.52.92-.49,1.37-.67.46-.25.92-.63,1.39.05.46.19.93.91,1.39-.22.93-.44,1.86.3,2.79-.47.93-.74,1.87-.64,2.81.12.47-.19.94-.37,1.4-.47s.94-.13,1.41-.02c.47.19.94-.57,1.41.02.47.05.94.54,1.41.12,1.01.18,2.02-.34,3.02-.62,1-.32,2.01-.28,3.01.24,1-.06,1.99-.64,2.98-.18.49.03.99,0,1.48-.03.49-.79.98-.78,1.47-.15,1.08.18,2.14.78,3.2.31,1.06.05,2.1-.26,3.13-.7.52.34,1.04,1.23,1.54.57.51-.45,1.02.09,1.52-.75.5-1.14,1-.27,1.5-.81.49-.31.99-.39,1.48.62.37.02.74-.1,1.11-.13s.73.03,1.1.41c.37.45.72-.14,1.08.08.36.17.71-.86,1.06-.55.71.22,1.4.16,2.08-.21.51-.53,1.02-.29,1.51-.42.5-.07.99.51,1.47-.16.49.24.96-.27,1.43.27.47-.5.94.74,1.39-.05.46.49.89-1.07,1.34-.55.44-.03.87-.29,1.29.39.42.6.83-.68,1.24-.13.41.48.8-.42,1.18-.02,1.03,0,1.99.57,2.88-.18.89.3,1.7-.71,2.44-.15,1.47-.26,2.64.57,3.42-.21l1.21-.08"/>
      <rect class="cls-11" x="79.54" y="87.14" width="106.59" height="8.21" rx="4.02" ry="4.02"/>
      <polyline class="cls-4" points="74.44 238.33 121.31 247.65 184.69 239.53"/>
      <g>
        <path class="cls-13" d="M125.01,95.48c-.35.08-2.39.58-3.06,2.53-.46,1.34-.1,2.88.93,3.99-1.75.54-3.1,1.91-3.46,3.6-.47,2.19.77,4.57,3.06,5.59-1.58.57-2.72,1.96-2.93,3.6-.31,2.37,1.48,3.9,1.6,3.99-1.61.62-2.71,2.14-2.8,3.86-.09,1.73.85,3.35,2.4,4.13-1.97.2-3.42,1.76-3.46,3.46-.03,1.29.76,2.53,2,3.2-.25.27-1.96,2.19-1.6,4.93.28,2.11,1.62,3.39,2,3.73-.15.09-2.82,1.66-2.93,4.79-.07,2.12,1.06,4.13,2.93,5.19-.21.1-1.79.92-2.13,2.66-.32,1.63.58,3.4,2.26,4.26-.14.13-1.77,1.8-1.33,4.13.33,1.74,1.69,3.15,3.46,3.6-.13.1-2.97,2.3-2.53,5.46.19,1.37.91,2.33,1.33,2.8-.35.25-1.48,1.1-1.73,2.53-.32,1.82.89,3.86,3.06,4.79-.31.37-1.22,1.54-1.2,3.2.03,1.9,1.28,3.66,3.2,4.53.8,1.6,1.6,3.2,2.4,4.79-.98,2.71-1.95,5.41-2.93,8.12,1.78.53,3.55,1.07,5.33,1.6.36-3.06.71-6.12,1.07-9.19l5.06,4.26c1.38-1.2,2.75-2.4,4.13-3.6-2.26-2.22-4.53-4.44-6.79-6.66,1.72-.88,2.81-2.59,2.8-4.39-.02-2.27-1.79-4.34-4.26-4.79,1.96-1.02,2.98-3.18,2.53-5.19-.38-1.67-1.72-3.01-3.46-3.46,1.63-.58,2.79-1.99,2.93-3.6.18-2.01-1.26-4-3.46-4.53.2-.1,2.4-1.28,2.66-3.6.25-2.19-1.32-4.47-3.86-5.19,1.57-.9,2.37-2.66,2-4.26-.43-1.86-2.23-2.6-2.4-2.66,1.64-.55,2.76-2.06,2.8-3.73.04-1.86-1.29-3.55-3.2-3.99.3-.05,2.22-.41,3.06-2,.95-1.78.19-4.47-2.13-5.99,2.23-.31,3.42-2.19,3.06-3.46-.25-.89-1.29-1.59-2.53-1.73,1.81-1.08,2.25-3.15,1.46-4.26-.52-.74-1.58-1.07-2.66-.93,2.13-.3,3.23-2,2.93-3.06-.22-.79-1.28-1.4-2.53-1.46,2.19-.12,3.55-2.08,3.2-3.6-.28-1.22-1.67-2.22-3.33-2.13.31-.23,2.16-1.64,2.4-4.13.2-2.12-.83-4.21-2.66-5.46,1.87-.87,2.94-2.59,2.66-3.99-.39-1.97-3.32-2.75-5.33-2.26Z"/>
        <g class="cls-14">
          <path class="cls-16" d="M113.46,167.62c3.61,0,3.61-5.6,0-5.6s-3.61,5.6,0,5.6h0Z"/>
          <path class="cls-16" d="M112.92,175.54c1.06-1.3,2.06-2.65,2.94-4.08.77-1.25.31-3.14-1.01-3.83s-3.01-.33-3.83,1.01c-.35.58-.72,1.14-1.11,1.7-.19.28-.39.55-.6.82.35-.46-.29.35-.35.43-.93,1.13-1.19,2.87,0,3.96,1.03.94,2.97,1.21,3.96,0h0Z"/>
          <path class="cls-18" d="M121.98,183.21c3.28-.31,6.45-1.15,9.46-2.5.35-.16.42-.65.25-.96-.2-.36-.62-.41-.96-.25-2.76,1.25-5.73,2.03-8.75,2.31-.38.04-.7.3-.7.7,0,.35.32.74.7.7h0Z"/>
          <path class="cls-18" d="M120.78,175.4c1.72-.37,3.45-.7,5.16-1.14,1.57-.4,3.13-.96,4.45-1.93.31-.23.45-.6.25-.96-.17-.3-.66-.48-.96-.25-1.27.94-2.75,1.45-4.27,1.83-1.66.41-3.33.74-5,1.1-.88.19-.51,1.54.37,1.35h0Z"/>
          <path class="cls-18" d="M121.97,166.95c1.62-.37,3.23-.74,4.85-1.11,1.39-.32,2.76-.7,3.87-1.63.29-.24.25-.74,0-.99-.29-.29-.7-.24-.99,0-.99.83-2.35,1.07-3.58,1.35l-4.53,1.04c-.88.2-.51,1.55.37,1.35h0Z"/>
          <path class="cls-18" d="M120.36,159.55c1.55-.36,2.95-1.16,4.3-1.98.7-.42,1.4-.85,2.09-1.28.63-.38,1.35-.75,1.68-1.44.16-.34.09-.76-.25-.96-.31-.18-.79-.09-.96.25-.25.53-.96.8-1.43,1.09-.65.4-1.31.8-1.96,1.2-1.22.74-2.45,1.44-3.85,1.77-.88.2-.51,1.56.37,1.35h0Z"/>
          <path class="cls-18" d="M119.83,152.58c1.43-.32,2.76-.95,4.03-1.66,1.34-.75,2.63-1.56,3.9-2.43.74-.51.04-1.72-.71-1.21-1.22.84-2.48,1.63-3.78,2.36-1.21.68-2.45,1.28-3.81,1.58-.88.19-.51,1.55.37,1.35h0Z"/>
          <path class="cls-18" d="M119.62,143.02c1.41-.48,2.83-.91,4.26-1.3.69-.19,1.39-.37,2.08-.53s1.37-.28,1.92-.76c.68-.6-.31-1.58-.99-.99-.19.16-.47.2-.7.26-.35.08-.7.16-1.05.25-.65.16-1.29.33-1.93.51-1.33.37-2.65.78-3.96,1.22-.85.29-.48,1.64.37,1.35h0Z"/>
          <path class="cls-18" d="M119.25,134.24c1.8.21,3.57,0,5.35-.29.8-.14,1.62-.25,2.39-.52.68-.24,1.53-.6,1.71-1.37.2-.88-1.15-1.25-1.35-.37.05-.02.05-.01,0,.03-.07.05-.15.1-.23.14-.12.07-.24.13-.37.18-.32.13-.66.21-.99.29-.67.15-1.34.25-2.02.36-1.49.24-2.98.33-4.49.16-.38-.04-.7.35-.7.7,0,.41.32.66.7.7h0Z"/>
          <path class="cls-18" d="M120.4,127.03c2.85.67,5.85.62,8.71.01.88-.19.51-1.54-.37-1.35-2.6.55-5.37.6-7.96-.01-.88-.21-1.25,1.14-.37,1.35h0Z"/>
          <path class="cls-18" d="M120.66,119.7c1.08.64,2.15,1.35,3.3,1.85.6.26,1.2.45,1.85.52.48.05,1.01,0,1.45.25.79.44,1.49-.77.71-1.21-.54-.3-1.12-.36-1.72-.41-.55-.04-1.07-.15-1.59-.37-1.16-.48-2.23-1.22-3.3-1.85-.78-.46-1.48.75-.71,1.21h0Z"/>
          <path class="cls-18" d="M122.36,111.68c.3,1.27,1.16,2.33,2.17,3.13,1.07.86,2.32,1.48,3.38,2.35.29.24.7.29.99,0,.25-.25.29-.75,0-.99-1.05-.86-2.25-1.48-3.32-2.3-.85-.65-1.62-1.5-1.87-2.56-.09-.37-.51-.59-.86-.49-.38.1-.58.49-.49.86h0Z"/>
          <path class="cls-18" d="M123.44,102.68c.6,0,1.21.06,1.81-.01.34-.04.63-.13.94-.26.13-.05.26-.1.39-.14h.06c.08-.03.07-.03-.02-.01.04,0,.07,0,.11,0-.09-.01-.1-.01-.02,0,.35.1.78-.12.86-.49s-.11-.76-.49-.86-.75-.06-1.1.07c-.27.1-.52.21-.8.28-.08.01-.08.01,0,0-.03,0-.06,0-.09,0-.07,0-.15,0-.22,0-.15,0-.3,0-.45,0h-.99c-.37-.01-.72.31-.7.69s.31.7.7.7h0Z"/>
        </g>
        <path class="cls-5" d="M125.01,95.48c-.35.08-2.39.58-3.06,2.53-.46,1.34-.1,2.88.93,3.99-1.75.54-3.1,1.91-3.46,3.6-.47,2.19.77,4.57,3.06,5.59-1.58.57-2.72,1.96-2.93,3.6-.31,2.37,1.48,3.9,1.6,3.99-1.61.62-2.71,2.14-2.8,3.86-.09,1.73.85,3.35,2.4,4.13-1.97.2-3.42,1.76-3.46,3.46-.03,1.29.76,2.53,2,3.2-.25.27-1.96,2.19-1.6,4.93.28,2.11,1.62,3.39,2,3.73-.15.09-2.82,1.66-2.93,4.79-.07,2.12,1.06,4.13,2.93,5.19-.21.1-1.79.92-2.13,2.66-.32,1.63.58,3.4,2.26,4.26-.14.13-1.77,1.8-1.33,4.13.33,1.74,1.69,3.15,3.46,3.6-.13.1-2.97,2.3-2.53,5.46.19,1.37.91,2.33,1.33,2.8-.35.25-1.48,1.1-1.73,2.53-.32,1.82.89,3.86,3.06,4.79-.31.37-1.22,1.54-1.2,3.2.03,1.9,1.28,3.66,3.2,4.53.8,1.6,1.6,3.2,2.4,4.79-.98,2.71-1.95,5.41-2.93,8.12,1.78.53,3.55,1.07,5.33,1.6.36-3.06.71-6.12,1.07-9.19l5.06,4.26c1.38-1.2,2.75-2.4,4.13-3.6-2.26-2.22-4.53-4.44-6.79-6.66,1.72-.88,2.81-2.59,2.8-4.39-.02-2.27-1.79-4.34-4.26-4.79,1.96-1.02,2.98-3.18,2.53-5.19-.38-1.67-1.72-3.01-3.46-3.46,1.63-.58,2.79-1.99,2.93-3.6.18-2.01-1.26-4-3.46-4.53.2-.1,2.4-1.28,2.66-3.6.25-2.19-1.32-4.47-3.86-5.19,1.57-.9,2.37-2.66,2-4.26-.43-1.86-2.23-2.6-2.4-2.66,1.64-.55,2.76-2.06,2.8-3.73.04-1.86-1.29-3.55-3.2-3.99.3-.05,2.22-.41,3.06-2,.95-1.78.19-4.47-2.13-5.99,2.23-.31,3.42-2.19,3.06-3.46-.25-.89-1.29-1.59-2.53-1.73,1.81-1.08,2.25-3.15,1.46-4.26-.52-.74-1.58-1.07-2.66-.93,2.13-.3,3.23-2,2.93-3.06-.22-.79-1.28-1.4-2.53-1.46,2.19-.12,3.55-2.08,3.2-3.6-.28-1.22-1.67-2.22-3.33-2.13.31-.23,2.16-1.64,2.4-4.13.2-2.12-.83-4.21-2.66-5.46,1.87-.87,2.94-2.59,2.66-3.99-.39-1.97-3.32-2.75-5.33-2.26Z"/>
      </g>
    </g>
  </g>
</svg>