<?xml version="1.0" encoding="UTF-8"?>
<svg id="Camada_2" data-name="Camada 2" xmlns="http://www.w3.org/2000/svg" viewBox="0 0 185.02 110.24">
  <defs>
    <style>
      .cls-1, .cls-2 {
        fill: none;
      }

      .cls-1, .cls-2, .cls-3 {
        stroke: #1d1d1b;
        stroke-linecap: round;
        stroke-linejoin: round;
      }

      .cls-1, .cls-3 {
        stroke-width: 1.83px;
      }

      .cls-2 {
        stroke-width: 1.81px;
      }

      .cls-3 {
        fill: #ccf9ff;
      }
    </style>
  </defs>
  <g id="Camada_4" data-name="Camada 4">
    <g>
      <path class="cls-3" d="M81.24,52.08c-3.96-6.36-7.93-12.72-11.89-19.08,3.76-3.17,7.9-6.33,12.44-9.4C100.88,10.69,119.99,4.26,135.16.92c16.32,16.68,32.63,33.37,48.95,50.05-21.48,14.75-42.95,29.5-64.43,44.25-9.49-5.9-18.99-11.8-28.48-17.7-2.51-.05-5.19.02-8.02.28-3.48.31-13.74,1.5-25.72,7.19-3.91,1.86-9.88,4.69-16.32,10.23-6.12,5.27-7.43,8.47-13.55,11.34-5.97,2.8-11.25,2.8-12.72,2.77-3.26-.07-11.67,0-13.55-3.87-1.85-3.82,2.79-11.14,11.89-17.42,5.11-2.1,10.38-4.39,15.76-6.91,9.86-4.61,17.08-7.95,24.61-12.72,6.11-3.87,14.61-10.04,23.63-19.58"/>
      <path class="cls-1" d="M79.61,32.43c5.12,8.18,11.73,17.39,20.19,26.82,5.97,6.65,11.88,12.33,17.42,17.14,1.22.73,3.08,1.57,5.25,1.38,3.18-.27,4.98-2.57,7.74-4.7,3.56-2.74,5.98-3.07,10.78-4.98,4.71-1.87,11.71-5.25,21.57-11.89"/>
      <polyline class="cls-2" points="82.65 37.14 124.45 17.44 135.04 1.29"/>
      <line class="cls-1" x1="88.32" y1="42.41" x2="97.45" y2="37.85"/>
      <line class="cls-1" x1="92.51" y1="47.93" x2="101.64" y2="43.37"/>
      <line class="cls-1" x1="96.7" y1="53.45" x2="105.83" y2="48.89"/>
      <line class="cls-1" x1="100.89" y1="58.96" x2="110.02" y2="54.4"/>
      <line class="cls-1" x1="105.08" y1="64.48" x2="114.21" y2="59.92"/>
      <line class="cls-1" x1="110.4" y1="69.43" x2="119.52" y2="64.87"/>
      <line class="cls-1" x1="116.1" y1="73.48" x2="125.23" y2="68.92"/>
      <line class="cls-1" x1="100.46" y1="32.43" x2="109.59" y2="27.87"/>
      <line class="cls-1" x1="103.64" y1="37.14" x2="112.76" y2="32.58"/>
      <line class="cls-1" x1="108.2" y1="43.03" x2="117.33" y2="38.47"/>
      <line class="cls-1" x1="113.31" y1="48.9" x2="122.44" y2="44.33"/>
      <line class="cls-1" x1="117.87" y1="54.19" x2="127" y2="49.62"/>
      <line class="cls-1" x1="122.44" y1="58.96" x2="131.56" y2="54.4"/>
      <line class="cls-1" x1="127.24" y1="63.74" x2="136.37" y2="59.18"/>
      <line class="cls-1" x1="131.46" y1="68.52" x2="140.59" y2="63.96"/>
      <line class="cls-1" x1="141.31" y1="59.99" x2="150.44" y2="55.43"/>
      <line class="cls-1" x1="137.37" y1="54.19" x2="146.5" y2="49.62"/>
      <line class="cls-1" x1="133.12" y1="48.57" x2="142.25" y2="44"/>
      <line class="cls-1" x1="129.49" y1="43.9" x2="138.62" y2="39.34"/>
      <line class="cls-1" x1="124.46" y1="38.21" x2="133.58" y2="33.64"/>
      <line class="cls-1" x1="119.9" y1="32.43" x2="129.02" y2="27.87"/>
      <line class="cls-1" x1="114.96" y1="27.42" x2="124.09" y2="22.85"/>
      <ellipse class="cls-1" cx="16.57" cy="98.56" rx="5.39" ry="3.05"/>
    </g>
  </g>
</svg>