<?xml version="1.0" encoding="UTF-8"?>
<svg id="Camada_2" data-name="Camada 2" xmlns="http://www.w3.org/2000/svg" viewBox="0 0 92.64 39.48">
  <defs>
    <style>
      .cls-1 {
        fill: #3e3030;
      }

      .cls-2 {
        fill: #604242;
      }

      .cls-3 {
        fill: #7ac4b9;
      }

      .cls-4 {
        fill: #815a5a;
      }

      .cls-5 {
        fill: #936060;
      }

      .cls-6 {
        fill: #1d1d1b;
      }

      .cls-7 {
        fill: #a07676;
      }
    </style>
  </defs>
  <g id="Camada_13" data-name="Camada 13">
    <g>
      <g>
        <g>
          <g>
            <ellipse class="cls-7" cx="46.32" cy="28.14" rx="46.03" ry="9.21"/>
            <path d="M46.32,37.64C20.35,37.64,0,33.47,0,28.14s20.35-9.5,46.32-9.5,46.32,4.17,46.32,9.5-20.35,9.5-46.32,9.5ZM46.32,19.23C21.53,19.23.59,23.31.59,28.14s20.94,8.91,45.73,8.91,45.73-4.08,45.73-8.91-20.94-8.91-45.73-8.91Z"/>
          </g>
          <g>
            <path class="cls-1" d="M46.32,37.35C21.04,37.35.52,33.27.3,28.23h0v1.84h0c.23,5.05,20.74,9.12,46.02,9.12s46.03-4.12,46.03-9.21v-1.84c0,5.08-20.61,9.21-46.03,9.21Z"/>
            <path d="M46.32,39.48C21.04,39.48.97,35.5.04,30.36H0v-.29s0-2.13,0-2.13h.57l.02.28c.21,4.79,21.15,8.84,45.73,8.84s45.73-4.08,45.73-8.91h.59v1.84c0,5.33-20.35,9.5-46.32,9.5ZM.59,29.98v.08c.22,4.79,21.16,8.84,45.73,8.84s45.73-4.08,45.73-8.91v-.29c-3.51,4.56-22.34,7.95-45.73,7.95S4.09,34.25.59,29.68v.29Z"/>
          </g>
        </g>
        <g>
          <path class="cls-5" d="M87.61,25.16l-7.84-21.75-67.08.07-7.66,21.67c-.17.28-.25.56-.25.85,0,4.23,18.6,7.66,41.55,7.66s41.55-3.43,41.55-7.66c0-.29-.09-.57-.25-.85Z"/>
          <path d="M46.32,33.96c-20.57,0-41.84-2.97-41.84-7.95,0-.32.09-.65.28-.97L12.48,3.19h.21s67.29-.07,67.29-.07l7.9,21.91c.19.32.28.65.28.97,0,4.98-21.27,7.95-41.84,7.95ZM12.89,3.78l-7.6,21.51-.02.02c-.14.24-.21.47-.21.7,0,3.56,16.58,7.36,41.26,7.36s41.26-3.81,41.26-7.36c0-.23-.07-.46-.21-.7l-.02-.05-7.77-21.55-66.67.07Z"/>
        </g>
        <g>
          <ellipse class="cls-4" cx="46.24" cy="3.56" rx="33.57" ry="3.26"/>
          <path d="M46.24,7.11c-8.97,0-17.41-.34-23.76-.96-10.1-.98-10.1-2.16-10.1-2.6s0-1.62,10.1-2.6c6.35-.62,14.79-.96,23.76-.96s17.41.34,23.76.96c10.1.98,10.1,2.16,10.1,2.6s0,1.62-10.1,2.6c-6.35.62-14.79.96-23.76.96ZM46.24.59c-8.96,0-17.38.34-23.71.95-9.46.92-9.57,2.01-9.57,2.02s.11,1.1,9.57,2.02c6.33.62,14.75.95,23.71.95s17.38-.34,23.71-.95c9.46-.92,9.57-2.01,9.57-2.02s-.11-1.1-9.57-2.02c-6.33-.62-14.75-.95-23.71-.95Z"/>
        </g>
        <g>
          <ellipse class="cls-2" cx="46.17" cy="3.5" rx="30.22" ry="1.88"/>
          <path d="M46.17,5.67c-8.08,0-15.68-.2-21.39-.55-9.13-.57-9.13-1.23-9.13-1.62s0-1.05,9.13-1.62c5.71-.36,13.31-.55,21.39-.55s15.68.2,21.39.55c9.13.57,9.13,1.23,9.13,1.62s0,1.06-9.13,1.62c-5.71.36-13.31.55-21.39.55ZM16.33,3.5c1.51.78,13.45,1.59,29.83,1.59s28.32-.81,29.83-1.59c-1.51-.78-13.45-1.59-29.83-1.59s-28.32.81-29.83,1.59Z"/>
        </g>
      </g>
      <g>
        <path class="cls-3" d="M52.13,20.48h0l-3.94-9.02-4.77,8.68h0c-.56.76-.92,1.68-1,2.69-.23,2.89,1.93,5.42,4.83,5.64,2.89.23,5.42-1.93,5.64-4.83.09-1.16-.21-2.25-.77-3.17Z"/>
        <path class="cls-6" d="M47.67,28.78c-.14,0-.29,0-.44-.02-3.05-.24-5.33-2.91-5.1-5.96.08-1,.43-1.96,1.02-2.79,0,0,0-.01,0-.02l4.77-8.68c.05-.1.16-.16.27-.15.11,0,.21.07.26.18l3.93,9c.62,1.01.9,2.16.81,3.33-.23,2.9-2.66,5.11-5.52,5.11ZM43.71,20.23s-.02.06-.04.08c-.55.75-.87,1.62-.94,2.53-.21,2.73,1.83,5.12,4.56,5.33,2.73.21,5.12-1.83,5.33-4.56.08-1.05-.17-2.09-.73-2.99,0-.01-.01-.02-.02-.04l-3.7-8.47-4.45,8.11Z"/>
      </g>
    </g>
  </g>
</svg>