<?xml version="1.0" encoding="UTF-8"?>
<svg id="Camada_2" data-name="Camada 2" xmlns="http://www.w3.org/2000/svg" viewBox="0 0 188.72 104.62">
  <defs>
    <style>
      .cls-1 {
        fill: #f3d6d7;
      }

      .cls-2 {
        fill: none;
        stroke: #000;
        stroke-miterlimit: 10;
        stroke-width: .81px;
      }
    </style>
  </defs>
  <g id="Camada_5" data-name="Camada 5">
    <g>
      <path class="cls-1" d="M185.2,22.33c2.15,9.12,3.74,20.07,2.89,31.26-1.34,17.58-8.15,28.72-14.06,35.45.68.47,5.72,4.04,7.68,8.29,2.05,4.45-.72,6.47-3.3,6.82-4.42.6-12.24-3.21-18.92-9.57-13.41,1.86-29.82,2.85-49.52,1.82-32.92-1.73-64.45-8.56-89.75-15.65-1.11.56-3.07,1.27-6.14,1.23-1.97-.02-8.25-.09-11.59-3.31-2.96-2.85-1.99-6.63-1.66-7.92.74-2.9,3.01-4.06,4.38-4.55-.13-6.37.25-11.37.63-14.8,1.14-10.25,2.92-24.45,13.8-35.27,1.83-1.82,3.51-3.14,4.59-3.93-3.95-2.95-6.76-6.1-6.94-8.04-.18-1.92,2.27-2.02,5.2-2.09,2.83-.07,7.57.28,14.66,2.69,3.15-.65,7.57-1.47,13.02-2.22C54.21,1.98,69.35.01,92.4.48c25.28.51,37.96.37,56.79,5.24,6.63,1.71,12.26,3.51,16.01,4.78,1.91-.88,5.17-1.94,10.22-1.79,3.37.1,8.85.26,11.38,2.69,2.58,2.48,1.61,6.83-1.6,10.93Z"/>
      <path class="cls-2" d="M185.2,22.33c2.15,9.12,3.74,20.07,2.89,31.26-1.34,17.58-8.15,28.72-14.06,35.45.68.47,5.72,4.04,7.68,8.29,2.05,4.45-.72,6.47-3.3,6.82-4.42.6-12.24-3.21-18.92-9.57-13.41,1.86-29.82,2.85-49.52,1.82-32.92-1.73-64.45-8.56-89.75-15.65-1.11.56-3.07,1.27-6.14,1.23-1.97-.02-8.25-.09-11.59-3.31-2.96-2.85-1.99-6.63-1.66-7.92.74-2.9,3.01-4.06,4.38-4.55-.13-6.37.25-11.37.63-14.8,1.14-10.25,2.92-24.45,13.8-35.27,1.83-1.82,3.51-3.14,4.59-3.93-3.95-2.95-6.76-6.1-6.94-8.04-.18-1.92,2.27-2.02,5.2-2.09,2.83-.07,7.57.28,14.66,2.69,3.15-.65,7.57-1.47,13.02-2.22C54.21,1.98,69.35.01,92.4.48c25.28.51,37.96.37,56.79,5.24,6.63,1.71,12.26,3.51,16.01,4.78,1.91-.88,5.17-1.94,10.22-1.79,3.37.1,8.85.26,11.38,2.69,2.58,2.48,1.61,6.83-1.6,10.93Z"/>
    </g>
  </g>
</svg>